G04 #@! TF.FileFunction,Paste,Top*
%FSLAX46Y46*%
G04 Gerber Fmt 4.6, Leading zero omitted, Abs format (unit mm)*
G04 Created by KiCad (PCBNEW 4.0.6) date 11/02/17 20:58:10*
%MOMM*%
%LPD*%
G01*
G04 APERTURE LIST*
%ADD10C,0.150000*%
%ADD11R,0.750000X0.800000*%
%ADD12R,2.000000X1.500000*%
%ADD13R,2.000000X1.524000*%
%ADD14R,3.657600X2.032000*%
%ADD15R,1.016000X2.032000*%
%ADD16R,0.500000X0.900000*%
%ADD17R,0.635000X1.143000*%
%ADD18R,1.143000X0.635000*%
%ADD19R,0.406400X1.270000*%
%ADD20R,1.000760X1.998980*%
G04 APERTURE END LIST*
D10*
D11*
X113157000Y-121297000D03*
X113157000Y-122797000D03*
D12*
X118160800Y-121793000D03*
X115112800Y-121793000D03*
D13*
X118160800Y-116205000D03*
X115112800Y-116205000D03*
D14*
X34785300Y-121894600D03*
D15*
X34785300Y-115290600D03*
X32499300Y-115290600D03*
X37071300Y-115290600D03*
D16*
X35737100Y-112293400D03*
X37237100Y-112293400D03*
D17*
X115951000Y-113411000D03*
X117475000Y-113411000D03*
X110490000Y-130810000D03*
X108966000Y-130810000D03*
D18*
X120650000Y-128524000D03*
X120650000Y-130048000D03*
D17*
X117475000Y-111633000D03*
X115951000Y-111633000D03*
D19*
X116039900Y-125666500D03*
X115392200Y-125666500D03*
X114731800Y-125666500D03*
X114084100Y-125666500D03*
X114084100Y-130111500D03*
X114731800Y-130111500D03*
X115392200Y-130111500D03*
X116039900Y-130111500D03*
D18*
X101904800Y-138252200D03*
X101904800Y-139776200D03*
D17*
X102489000Y-132969000D03*
X104013000Y-132969000D03*
D18*
X100126800Y-138252200D03*
X100126800Y-139776200D03*
X103784400Y-139776200D03*
X103784400Y-138252200D03*
X103784400Y-144602200D03*
X103784400Y-143078200D03*
X100126800Y-143078200D03*
X100126800Y-144602200D03*
X101904800Y-143078200D03*
X101904800Y-144602200D03*
D20*
X116840000Y-76835000D03*
X114300000Y-81280000D03*
X119380000Y-81280000D03*
M02*
