G04 #@! TF.FileFunction,Paste,Bot*
%FSLAX46Y46*%
G04 Gerber Fmt 4.6, Leading zero omitted, Abs format (unit mm)*
G04 Created by KiCad (PCBNEW 4.0.6) date 11/02/17 20:58:10*
%MOMM*%
%LPD*%
G01*
G04 APERTURE LIST*
%ADD10C,0.150000*%
%ADD11R,0.600000X1.550000*%
%ADD12R,1.270000X0.406400*%
%ADD13R,0.500000X0.900000*%
%ADD14R,1.000760X0.248920*%
%ADD15R,0.914400X0.914400*%
%ADD16R,1.524000X2.032000*%
%ADD17R,0.635000X1.143000*%
%ADD18R,1.143000X0.635000*%
%ADD19R,0.750000X0.800000*%
%ADD20R,0.900000X0.500000*%
%ADD21R,0.900000X0.800000*%
%ADD22R,0.800000X0.900000*%
G04 APERTURE END LIST*
D10*
D11*
X114808000Y-116172000D03*
X116078000Y-116172000D03*
X117348000Y-116172000D03*
X118618000Y-116172000D03*
X118618000Y-121572000D03*
X117348000Y-121572000D03*
X116078000Y-121572000D03*
X114808000Y-121572000D03*
D12*
X114363500Y-113626900D03*
X114363500Y-112979200D03*
X114363500Y-112318800D03*
X114363500Y-111671100D03*
X118808500Y-111671100D03*
X118808500Y-112318800D03*
X118808500Y-112979200D03*
X118808500Y-113626900D03*
D13*
X65520000Y-114223800D03*
X64020000Y-114223800D03*
X33743200Y-110109000D03*
X35243200Y-110109000D03*
X33743200Y-108534200D03*
X35243200Y-108534200D03*
X97358900Y-82626200D03*
X95858900Y-82626200D03*
D14*
X99161600Y-120827800D03*
X99161600Y-121335800D03*
X99161600Y-121843800D03*
X99161600Y-122351800D03*
X102057200Y-120827800D03*
X102057200Y-121335800D03*
X102057200Y-121843800D03*
X102057200Y-122351800D03*
D15*
X94361000Y-106934000D03*
X94361000Y-108712000D03*
X96393000Y-107823000D03*
D16*
X112141000Y-129667000D03*
X115443000Y-129667000D03*
D17*
X90627200Y-68249800D03*
X89103200Y-68249800D03*
D18*
X104089200Y-126136400D03*
X104089200Y-124612400D03*
D17*
X101244400Y-107315000D03*
X99720400Y-107315000D03*
D18*
X41275000Y-72898000D03*
X41275000Y-74422000D03*
D17*
X81534000Y-68300600D03*
X80010000Y-68300600D03*
X61468000Y-71043800D03*
X59944000Y-71043800D03*
X52451000Y-74168000D03*
X50927000Y-74168000D03*
D18*
X50927000Y-77216000D03*
X50927000Y-75692000D03*
D17*
X34671000Y-71247000D03*
X36195000Y-71247000D03*
D18*
X61468000Y-67843400D03*
X61468000Y-69367400D03*
X52578000Y-70739000D03*
X52578000Y-72263000D03*
D17*
X43815000Y-62992000D03*
X42291000Y-62992000D03*
D18*
X32893000Y-69723000D03*
X32893000Y-71247000D03*
D12*
X102743000Y-91719400D03*
X102743000Y-91084400D03*
X102743000Y-90424000D03*
X102743000Y-89763600D03*
X102743000Y-89128600D03*
X102743000Y-88468200D03*
X102743000Y-87807800D03*
X102743000Y-87172800D03*
X102743000Y-86512400D03*
X102743000Y-85877400D03*
X102743000Y-85217000D03*
X102743000Y-84556600D03*
X108077000Y-84531200D03*
X108077000Y-85217000D03*
X108077000Y-85877400D03*
X108077000Y-86512400D03*
X108077000Y-87172800D03*
X108077000Y-87807800D03*
X108077000Y-88468200D03*
X108077000Y-89128600D03*
X108077000Y-89763600D03*
X108077000Y-90424000D03*
X108077000Y-91084400D03*
X108077000Y-91719400D03*
X102946200Y-105181400D03*
X102946200Y-104546400D03*
X102946200Y-103886000D03*
X102946200Y-103225600D03*
X102946200Y-102590600D03*
X102946200Y-101930200D03*
X102946200Y-101269800D03*
X102946200Y-100634800D03*
X102946200Y-99974400D03*
X102946200Y-99339400D03*
X102946200Y-98679000D03*
X102946200Y-98018600D03*
X108280200Y-97993200D03*
X108280200Y-98679000D03*
X108280200Y-99339400D03*
X108280200Y-99974400D03*
X108280200Y-100634800D03*
X108280200Y-101269800D03*
X108280200Y-101930200D03*
X108280200Y-102590600D03*
X108280200Y-103225600D03*
X108280200Y-103886000D03*
X108280200Y-104546400D03*
X108280200Y-105181400D03*
D18*
X112852200Y-121564400D03*
X112852200Y-123088400D03*
X106375200Y-125907800D03*
X106375200Y-124383800D03*
D17*
X72390000Y-68249800D03*
X70866000Y-68249800D03*
X45847000Y-81534000D03*
X47371000Y-81534000D03*
D18*
X96062800Y-123063000D03*
X96062800Y-121539000D03*
X96062800Y-118694200D03*
X96062800Y-120218200D03*
X104089200Y-127685800D03*
X104089200Y-129209800D03*
D17*
X102971600Y-107315000D03*
X104495600Y-107315000D03*
X108051600Y-93802200D03*
X106527600Y-93802200D03*
D18*
X106011980Y-130713480D03*
X106011980Y-129189480D03*
D17*
X102768400Y-93802200D03*
X104292400Y-93802200D03*
X98145600Y-126250700D03*
X99669600Y-126250700D03*
D18*
X120777000Y-113538000D03*
X120777000Y-112014000D03*
D17*
X108254800Y-107315000D03*
X106730800Y-107315000D03*
D19*
X41656000Y-101969000D03*
X41656000Y-100469000D03*
D13*
X101588000Y-77495400D03*
X100088000Y-77495400D03*
X100088000Y-79171800D03*
X101588000Y-79171800D03*
D20*
X98806000Y-61989400D03*
X98806000Y-60489400D03*
X96012000Y-60489400D03*
X96012000Y-61989400D03*
X110998000Y-61989400D03*
X110998000Y-60489400D03*
X108153200Y-60489400D03*
X108153200Y-61989400D03*
D21*
X36795200Y-74584600D03*
X36795200Y-72684600D03*
X38795200Y-73634600D03*
D22*
X90053200Y-72653400D03*
X88153200Y-72653400D03*
X89103200Y-70653400D03*
X71816000Y-72602600D03*
X69916000Y-72602600D03*
X70866000Y-70602600D03*
D21*
X48193200Y-83708200D03*
X48193200Y-85608200D03*
X46193200Y-84658200D03*
D22*
X80960000Y-72602600D03*
X79060000Y-72602600D03*
X80010000Y-70602600D03*
X65720000Y-112633000D03*
X63820000Y-112633000D03*
X64770000Y-110633000D03*
D18*
X65151000Y-140716000D03*
X65151000Y-139192000D03*
X75311000Y-140716000D03*
X75311000Y-139192000D03*
X62484000Y-140716000D03*
X62484000Y-139192000D03*
X72644000Y-140716000D03*
X72644000Y-139192000D03*
X59944000Y-140716000D03*
X59944000Y-139192000D03*
X70231000Y-140716000D03*
X70231000Y-139192000D03*
X57404000Y-140716000D03*
X57404000Y-139192000D03*
X67564000Y-140716000D03*
X67564000Y-139192000D03*
M02*
