G04 #@! TF.FileFunction,Legend,Bot*
%FSLAX46Y46*%
G04 Gerber Fmt 4.6, Leading zero omitted, Abs format (unit mm)*
G04 Created by KiCad (PCBNEW 4.0.6) date 11/02/17 20:58:10*
%MOMM*%
%LPD*%
G01*
G04 APERTURE LIST*
%ADD10C,0.150000*%
%ADD11C,0.152400*%
%ADD12C,0.381000*%
%ADD13C,0.127000*%
%ADD14C,0.120000*%
%ADD15C,0.304800*%
%ADD16C,0.190500*%
%ADD17C,0.114300*%
G04 APERTURE END LIST*
D10*
X114138000Y-116797000D02*
X114188000Y-116797000D01*
X114138000Y-120947000D02*
X114283000Y-120947000D01*
X119288000Y-120947000D02*
X119143000Y-120947000D01*
X119288000Y-116797000D02*
X119143000Y-116797000D01*
X114138000Y-116797000D02*
X114138000Y-120947000D01*
X119288000Y-116797000D02*
X119288000Y-120947000D01*
X114188000Y-116797000D02*
X114188000Y-115397000D01*
D11*
X115824000Y-113665000D02*
G75*
G03X115824000Y-113665000I-254000J0D01*
G01*
X115062000Y-111125000D02*
X115062000Y-114173000D01*
X115062000Y-114173000D02*
X118110000Y-114173000D01*
X118110000Y-114173000D02*
X118110000Y-111125000D01*
X118110000Y-111125000D02*
X115062000Y-111125000D01*
D10*
X64270000Y-114898800D02*
X65270000Y-114898800D01*
X65270000Y-113548800D02*
X64270000Y-113548800D01*
X34993200Y-109434000D02*
X33993200Y-109434000D01*
X33993200Y-110784000D02*
X34993200Y-110784000D01*
X34993200Y-107859200D02*
X33993200Y-107859200D01*
X33993200Y-109209200D02*
X34993200Y-109209200D01*
X96108900Y-83301200D02*
X97108900Y-83301200D01*
X97108900Y-81951200D02*
X96108900Y-81951200D01*
D12*
X99974400Y-122148600D02*
G75*
G03X99974400Y-122148600I-50800J0D01*
G01*
X99402900Y-120573800D02*
X101815900Y-120573800D01*
X101815900Y-120573800D02*
X101815900Y-122669300D01*
X101815900Y-122669300D02*
X99402900Y-122669300D01*
X99402900Y-122669300D02*
X99402900Y-120573800D01*
D13*
X94996000Y-106299000D02*
X94996000Y-109347000D01*
X94996000Y-109347000D02*
X95758000Y-109347000D01*
X95758000Y-109347000D02*
X95758000Y-106299000D01*
X95758000Y-106299000D02*
X94996000Y-106299000D01*
D10*
X95567500Y-108902500D02*
X96837500Y-108902500D01*
X87947500Y-108902500D02*
X90487500Y-108902500D01*
X89217500Y-110172500D02*
X89217500Y-107632500D01*
X89217500Y-114617500D02*
X89217500Y-111442500D01*
X96202500Y-114617500D02*
X96202500Y-111442500D01*
X98742500Y-111442500D02*
X98742500Y-79057500D01*
X98742500Y-79057500D02*
X86677500Y-79057500D01*
X86677500Y-111442500D02*
X86677500Y-79057500D01*
X86677500Y-111442500D02*
X98742500Y-111442500D01*
D13*
X111252000Y-130810000D02*
X111252000Y-128524000D01*
X111252000Y-128524000D02*
X112903000Y-128524000D01*
X114681000Y-130810000D02*
X116332000Y-130810000D01*
X116332000Y-130810000D02*
X116332000Y-128524000D01*
X116332000Y-128524000D02*
X114681000Y-128524000D01*
X112903000Y-130810000D02*
X111252000Y-130810000D01*
X91008200Y-67614800D02*
X88722200Y-67614800D01*
X88722200Y-67614800D02*
X88722200Y-68884800D01*
X88722200Y-68884800D02*
X91008200Y-68884800D01*
X91008200Y-68884800D02*
X91008200Y-67614800D01*
X104724200Y-126517400D02*
X104724200Y-124231400D01*
X104724200Y-124231400D02*
X103454200Y-124231400D01*
X103454200Y-124231400D02*
X103454200Y-126517400D01*
X103454200Y-126517400D02*
X104724200Y-126517400D01*
X101625400Y-106680000D02*
X99339400Y-106680000D01*
X99339400Y-106680000D02*
X99339400Y-107950000D01*
X99339400Y-107950000D02*
X101625400Y-107950000D01*
X101625400Y-107950000D02*
X101625400Y-106680000D01*
X40640000Y-72517000D02*
X40640000Y-74803000D01*
X40640000Y-74803000D02*
X41910000Y-74803000D01*
X41910000Y-74803000D02*
X41910000Y-72517000D01*
X41910000Y-72517000D02*
X40640000Y-72517000D01*
X81915000Y-67665600D02*
X79629000Y-67665600D01*
X79629000Y-67665600D02*
X79629000Y-68935600D01*
X79629000Y-68935600D02*
X81915000Y-68935600D01*
X81915000Y-68935600D02*
X81915000Y-67665600D01*
X61849000Y-70408800D02*
X59563000Y-70408800D01*
X59563000Y-70408800D02*
X59563000Y-71678800D01*
X59563000Y-71678800D02*
X61849000Y-71678800D01*
X61849000Y-71678800D02*
X61849000Y-70408800D01*
X52832000Y-73533000D02*
X50546000Y-73533000D01*
X50546000Y-73533000D02*
X50546000Y-74803000D01*
X50546000Y-74803000D02*
X52832000Y-74803000D01*
X52832000Y-74803000D02*
X52832000Y-73533000D01*
X51562000Y-77597000D02*
X51562000Y-75311000D01*
X51562000Y-75311000D02*
X50292000Y-75311000D01*
X50292000Y-75311000D02*
X50292000Y-77597000D01*
X50292000Y-77597000D02*
X51562000Y-77597000D01*
X34290000Y-71882000D02*
X36576000Y-71882000D01*
X36576000Y-71882000D02*
X36576000Y-70612000D01*
X36576000Y-70612000D02*
X34290000Y-70612000D01*
X34290000Y-70612000D02*
X34290000Y-71882000D01*
X60833000Y-67462400D02*
X60833000Y-69748400D01*
X60833000Y-69748400D02*
X62103000Y-69748400D01*
X62103000Y-69748400D02*
X62103000Y-67462400D01*
X62103000Y-67462400D02*
X60833000Y-67462400D01*
X51943000Y-70358000D02*
X51943000Y-72644000D01*
X51943000Y-72644000D02*
X53213000Y-72644000D01*
X53213000Y-72644000D02*
X53213000Y-70358000D01*
X53213000Y-70358000D02*
X51943000Y-70358000D01*
X44196000Y-62357000D02*
X41910000Y-62357000D01*
X41910000Y-62357000D02*
X41910000Y-63627000D01*
X41910000Y-63627000D02*
X44196000Y-63627000D01*
X44196000Y-63627000D02*
X44196000Y-62357000D01*
X32258000Y-69342000D02*
X32258000Y-71628000D01*
X32258000Y-71628000D02*
X33528000Y-71628000D01*
X33528000Y-71628000D02*
X33528000Y-69342000D01*
X33528000Y-69342000D02*
X32258000Y-69342000D01*
D11*
X107188000Y-92608400D02*
X107188000Y-83718400D01*
X107188000Y-83718400D02*
X103632000Y-83718400D01*
X103632000Y-83718400D02*
X103632000Y-92608400D01*
X103632000Y-92608400D02*
X107188000Y-92608400D01*
D13*
X104499210Y-92100400D02*
G75*
G03X104499210Y-92100400I-359210J0D01*
G01*
X106045000Y-92608400D02*
X106045000Y-91846400D01*
X106045000Y-91846400D02*
X104775000Y-91846400D01*
X104775000Y-91846400D02*
X104775000Y-92608400D01*
D11*
X107391200Y-106070400D02*
X107391200Y-97180400D01*
X107391200Y-97180400D02*
X103835200Y-97180400D01*
X103835200Y-97180400D02*
X103835200Y-106070400D01*
X103835200Y-106070400D02*
X107391200Y-106070400D01*
D13*
X104702410Y-105562400D02*
G75*
G03X104702410Y-105562400I-359210J0D01*
G01*
X106248200Y-106070400D02*
X106248200Y-105308400D01*
X106248200Y-105308400D02*
X104978200Y-105308400D01*
X104978200Y-105308400D02*
X104978200Y-106070400D01*
X112217200Y-121183400D02*
X112217200Y-123469400D01*
X112217200Y-123469400D02*
X113487200Y-123469400D01*
X113487200Y-123469400D02*
X113487200Y-121183400D01*
X113487200Y-121183400D02*
X112217200Y-121183400D01*
X107010200Y-126288800D02*
X107010200Y-124002800D01*
X107010200Y-124002800D02*
X105740200Y-124002800D01*
X105740200Y-124002800D02*
X105740200Y-126288800D01*
X105740200Y-126288800D02*
X107010200Y-126288800D01*
X72771000Y-67614800D02*
X70485000Y-67614800D01*
X70485000Y-67614800D02*
X70485000Y-68884800D01*
X70485000Y-68884800D02*
X72771000Y-68884800D01*
X72771000Y-68884800D02*
X72771000Y-67614800D01*
X45466000Y-82169000D02*
X47752000Y-82169000D01*
X47752000Y-82169000D02*
X47752000Y-80899000D01*
X47752000Y-80899000D02*
X45466000Y-80899000D01*
X45466000Y-80899000D02*
X45466000Y-82169000D01*
X96697800Y-123444000D02*
X96697800Y-121158000D01*
X96697800Y-121158000D02*
X95427800Y-121158000D01*
X95427800Y-121158000D02*
X95427800Y-123444000D01*
X95427800Y-123444000D02*
X96697800Y-123444000D01*
X95427800Y-118313200D02*
X95427800Y-120599200D01*
X95427800Y-120599200D02*
X96697800Y-120599200D01*
X96697800Y-120599200D02*
X96697800Y-118313200D01*
X96697800Y-118313200D02*
X95427800Y-118313200D01*
X103454200Y-127304800D02*
X103454200Y-129590800D01*
X103454200Y-129590800D02*
X104724200Y-129590800D01*
X104724200Y-129590800D02*
X104724200Y-127304800D01*
X104724200Y-127304800D02*
X103454200Y-127304800D01*
X102590600Y-107950000D02*
X104876600Y-107950000D01*
X104876600Y-107950000D02*
X104876600Y-106680000D01*
X104876600Y-106680000D02*
X102590600Y-106680000D01*
X102590600Y-106680000D02*
X102590600Y-107950000D01*
X108432600Y-93167200D02*
X106146600Y-93167200D01*
X106146600Y-93167200D02*
X106146600Y-94437200D01*
X106146600Y-94437200D02*
X108432600Y-94437200D01*
X108432600Y-94437200D02*
X108432600Y-93167200D01*
X106646980Y-131094480D02*
X106646980Y-128808480D01*
X106646980Y-128808480D02*
X105376980Y-128808480D01*
X105376980Y-128808480D02*
X105376980Y-131094480D01*
X105376980Y-131094480D02*
X106646980Y-131094480D01*
X102387400Y-94437200D02*
X104673400Y-94437200D01*
X104673400Y-94437200D02*
X104673400Y-93167200D01*
X104673400Y-93167200D02*
X102387400Y-93167200D01*
X102387400Y-93167200D02*
X102387400Y-94437200D01*
X97764600Y-126885700D02*
X100050600Y-126885700D01*
X100050600Y-126885700D02*
X100050600Y-125615700D01*
X100050600Y-125615700D02*
X97764600Y-125615700D01*
X97764600Y-125615700D02*
X97764600Y-126885700D01*
X121412000Y-113919000D02*
X121412000Y-111633000D01*
X121412000Y-111633000D02*
X120142000Y-111633000D01*
X120142000Y-111633000D02*
X120142000Y-113919000D01*
X120142000Y-113919000D02*
X121412000Y-113919000D01*
X108635800Y-106680000D02*
X106349800Y-106680000D01*
X106349800Y-106680000D02*
X106349800Y-107950000D01*
X106349800Y-107950000D02*
X108635800Y-107950000D01*
X108635800Y-107950000D02*
X108635800Y-106680000D01*
D10*
X108102400Y-108839000D02*
X109372400Y-108839000D01*
X100482400Y-108839000D02*
X103022400Y-108839000D01*
X101752400Y-110109000D02*
X101752400Y-107569000D01*
X101752400Y-114554000D02*
X101752400Y-111379000D01*
X108737400Y-114554000D02*
X108737400Y-111379000D01*
X111277400Y-111379000D02*
X111277400Y-78994000D01*
X111277400Y-78994000D02*
X99212400Y-78994000D01*
X99212400Y-111379000D02*
X99212400Y-78994000D01*
X99212400Y-111379000D02*
X111277400Y-111379000D01*
X42256000Y-101569000D02*
X42256000Y-100869000D01*
X41056000Y-100869000D02*
X41056000Y-101569000D01*
X100338000Y-78170400D02*
X101338000Y-78170400D01*
X101338000Y-76820400D02*
X100338000Y-76820400D01*
X101338000Y-78496800D02*
X100338000Y-78496800D01*
X100338000Y-79846800D02*
X101338000Y-79846800D01*
X98131000Y-60739400D02*
X98131000Y-61739400D01*
X99481000Y-61739400D02*
X99481000Y-60739400D01*
X96687000Y-61739400D02*
X96687000Y-60739400D01*
X95337000Y-60739400D02*
X95337000Y-61739400D01*
X110323000Y-60739400D02*
X110323000Y-61739400D01*
X111673000Y-61739400D02*
X111673000Y-60739400D01*
X108828200Y-61739400D02*
X108828200Y-60739400D01*
X107478200Y-60739400D02*
X107478200Y-61739400D01*
D14*
X38555200Y-72054600D02*
X38555200Y-72984600D01*
X38555200Y-75214600D02*
X38555200Y-74284600D01*
X38555200Y-75214600D02*
X36395200Y-75214600D01*
X38555200Y-72054600D02*
X37095200Y-72054600D01*
X87523200Y-70893400D02*
X88453200Y-70893400D01*
X90683200Y-70893400D02*
X89753200Y-70893400D01*
X90683200Y-70893400D02*
X90683200Y-73053400D01*
X87523200Y-70893400D02*
X87523200Y-72353400D01*
X69286000Y-70842600D02*
X70216000Y-70842600D01*
X72446000Y-70842600D02*
X71516000Y-70842600D01*
X72446000Y-70842600D02*
X72446000Y-73002600D01*
X69286000Y-70842600D02*
X69286000Y-72302600D01*
X46433200Y-86238200D02*
X46433200Y-85308200D01*
X46433200Y-83078200D02*
X46433200Y-84008200D01*
X46433200Y-83078200D02*
X48593200Y-83078200D01*
X46433200Y-86238200D02*
X47893200Y-86238200D01*
X78430000Y-70842600D02*
X79360000Y-70842600D01*
X81590000Y-70842600D02*
X80660000Y-70842600D01*
X81590000Y-70842600D02*
X81590000Y-73002600D01*
X78430000Y-70842600D02*
X78430000Y-72302600D01*
X63190000Y-110873000D02*
X64120000Y-110873000D01*
X66350000Y-110873000D02*
X65420000Y-110873000D01*
X66350000Y-110873000D02*
X66350000Y-113033000D01*
X63190000Y-110873000D02*
X63190000Y-112333000D01*
D13*
X65786000Y-141097000D02*
X65786000Y-138811000D01*
X65786000Y-138811000D02*
X64516000Y-138811000D01*
X64516000Y-138811000D02*
X64516000Y-141097000D01*
X64516000Y-141097000D02*
X65786000Y-141097000D01*
X75946000Y-141097000D02*
X75946000Y-138811000D01*
X75946000Y-138811000D02*
X74676000Y-138811000D01*
X74676000Y-138811000D02*
X74676000Y-141097000D01*
X74676000Y-141097000D02*
X75946000Y-141097000D01*
X63119000Y-141097000D02*
X63119000Y-138811000D01*
X63119000Y-138811000D02*
X61849000Y-138811000D01*
X61849000Y-138811000D02*
X61849000Y-141097000D01*
X61849000Y-141097000D02*
X63119000Y-141097000D01*
X73279000Y-141097000D02*
X73279000Y-138811000D01*
X73279000Y-138811000D02*
X72009000Y-138811000D01*
X72009000Y-138811000D02*
X72009000Y-141097000D01*
X72009000Y-141097000D02*
X73279000Y-141097000D01*
X60579000Y-141097000D02*
X60579000Y-138811000D01*
X60579000Y-138811000D02*
X59309000Y-138811000D01*
X59309000Y-138811000D02*
X59309000Y-141097000D01*
X59309000Y-141097000D02*
X60579000Y-141097000D01*
X70866000Y-141097000D02*
X70866000Y-138811000D01*
X70866000Y-138811000D02*
X69596000Y-138811000D01*
X69596000Y-138811000D02*
X69596000Y-141097000D01*
X69596000Y-141097000D02*
X70866000Y-141097000D01*
X58039000Y-141097000D02*
X58039000Y-138811000D01*
X58039000Y-138811000D02*
X56769000Y-138811000D01*
X56769000Y-138811000D02*
X56769000Y-141097000D01*
X56769000Y-141097000D02*
X58039000Y-141097000D01*
X68199000Y-141097000D02*
X68199000Y-138811000D01*
X68199000Y-138811000D02*
X66929000Y-138811000D01*
X66929000Y-138811000D02*
X66929000Y-141097000D01*
X66929000Y-141097000D02*
X68199000Y-141097000D01*
D10*
X112609381Y-115951095D02*
X113418905Y-115951095D01*
X113514143Y-115998714D01*
X113561762Y-116046333D01*
X113609381Y-116141571D01*
X113609381Y-116332048D01*
X113561762Y-116427286D01*
X113514143Y-116474905D01*
X113418905Y-116522524D01*
X112609381Y-116522524D01*
X112609381Y-116903476D02*
X112609381Y-117570143D01*
X113609381Y-117141571D01*
D11*
X111838619Y-111874905D02*
X112661095Y-111874905D01*
X112757857Y-111923286D01*
X112806238Y-111971667D01*
X112854619Y-112068429D01*
X112854619Y-112261952D01*
X112806238Y-112358714D01*
X112757857Y-112407095D01*
X112661095Y-112455476D01*
X111838619Y-112455476D01*
X112274048Y-113084429D02*
X112225667Y-112987667D01*
X112177286Y-112939286D01*
X112080524Y-112890905D01*
X112032143Y-112890905D01*
X111935381Y-112939286D01*
X111887000Y-112987667D01*
X111838619Y-113084429D01*
X111838619Y-113277952D01*
X111887000Y-113374714D01*
X111935381Y-113423095D01*
X112032143Y-113471476D01*
X112080524Y-113471476D01*
X112177286Y-113423095D01*
X112225667Y-113374714D01*
X112274048Y-113277952D01*
X112274048Y-113084429D01*
X112322429Y-112987667D01*
X112370810Y-112939286D01*
X112467571Y-112890905D01*
X112661095Y-112890905D01*
X112757857Y-112939286D01*
X112806238Y-112987667D01*
X112854619Y-113084429D01*
X112854619Y-113277952D01*
X112806238Y-113374714D01*
X112757857Y-113423095D01*
X112661095Y-113471476D01*
X112467571Y-113471476D01*
X112370810Y-113423095D01*
X112322429Y-113374714D01*
X112274048Y-113277952D01*
D10*
X65463657Y-116200181D02*
X65796991Y-115723990D01*
X66035086Y-116200181D02*
X66035086Y-115200181D01*
X65654133Y-115200181D01*
X65558895Y-115247800D01*
X65511276Y-115295419D01*
X65463657Y-115390657D01*
X65463657Y-115533514D01*
X65511276Y-115628752D01*
X65558895Y-115676371D01*
X65654133Y-115723990D01*
X66035086Y-115723990D01*
X64606514Y-115533514D02*
X64606514Y-116200181D01*
X64844610Y-115152562D02*
X65082705Y-115866848D01*
X64463657Y-115866848D01*
X64177943Y-115200181D02*
X63511276Y-115200181D01*
X63939848Y-116200181D01*
X35186857Y-112339381D02*
X35520191Y-111863190D01*
X35758286Y-112339381D02*
X35758286Y-111339381D01*
X35377333Y-111339381D01*
X35282095Y-111387000D01*
X35234476Y-111434619D01*
X35186857Y-111529857D01*
X35186857Y-111672714D01*
X35234476Y-111767952D01*
X35282095Y-111815571D01*
X35377333Y-111863190D01*
X35758286Y-111863190D01*
X34282095Y-111339381D02*
X34758286Y-111339381D01*
X34805905Y-111815571D01*
X34758286Y-111767952D01*
X34663048Y-111720333D01*
X34424952Y-111720333D01*
X34329714Y-111767952D01*
X34282095Y-111815571D01*
X34234476Y-111910810D01*
X34234476Y-112148905D01*
X34282095Y-112244143D01*
X34329714Y-112291762D01*
X34424952Y-112339381D01*
X34663048Y-112339381D01*
X34758286Y-112291762D01*
X34805905Y-112244143D01*
X33282095Y-112339381D02*
X33853524Y-112339381D01*
X33567810Y-112339381D02*
X33567810Y-111339381D01*
X33663048Y-111482238D01*
X33758286Y-111577476D01*
X33853524Y-111625095D01*
X35186857Y-107386381D02*
X35520191Y-106910190D01*
X35758286Y-107386381D02*
X35758286Y-106386381D01*
X35377333Y-106386381D01*
X35282095Y-106434000D01*
X35234476Y-106481619D01*
X35186857Y-106576857D01*
X35186857Y-106719714D01*
X35234476Y-106814952D01*
X35282095Y-106862571D01*
X35377333Y-106910190D01*
X35758286Y-106910190D01*
X34282095Y-106386381D02*
X34758286Y-106386381D01*
X34805905Y-106862571D01*
X34758286Y-106814952D01*
X34663048Y-106767333D01*
X34424952Y-106767333D01*
X34329714Y-106814952D01*
X34282095Y-106862571D01*
X34234476Y-106957810D01*
X34234476Y-107195905D01*
X34282095Y-107291143D01*
X34329714Y-107338762D01*
X34424952Y-107386381D01*
X34663048Y-107386381D01*
X34758286Y-107338762D01*
X34805905Y-107291143D01*
X33615429Y-106386381D02*
X33520190Y-106386381D01*
X33424952Y-106434000D01*
X33377333Y-106481619D01*
X33329714Y-106576857D01*
X33282095Y-106767333D01*
X33282095Y-107005429D01*
X33329714Y-107195905D01*
X33377333Y-107291143D01*
X33424952Y-107338762D01*
X33520190Y-107386381D01*
X33615429Y-107386381D01*
X33710667Y-107338762D01*
X33758286Y-107291143D01*
X33805905Y-107195905D01*
X33853524Y-107005429D01*
X33853524Y-106767333D01*
X33805905Y-106576857D01*
X33758286Y-106481619D01*
X33710667Y-106434000D01*
X33615429Y-106386381D01*
X99956857Y-83129381D02*
X100290191Y-82653190D01*
X100528286Y-83129381D02*
X100528286Y-82129381D01*
X100147333Y-82129381D01*
X100052095Y-82177000D01*
X100004476Y-82224619D01*
X99956857Y-82319857D01*
X99956857Y-82462714D01*
X100004476Y-82557952D01*
X100052095Y-82605571D01*
X100147333Y-82653190D01*
X100528286Y-82653190D01*
X99099714Y-82462714D02*
X99099714Y-83129381D01*
X99337810Y-82081762D02*
X99575905Y-82796048D01*
X98956857Y-82796048D01*
X98433048Y-82557952D02*
X98528286Y-82510333D01*
X98575905Y-82462714D01*
X98623524Y-82367476D01*
X98623524Y-82319857D01*
X98575905Y-82224619D01*
X98528286Y-82177000D01*
X98433048Y-82129381D01*
X98242571Y-82129381D01*
X98147333Y-82177000D01*
X98099714Y-82224619D01*
X98052095Y-82319857D01*
X98052095Y-82367476D01*
X98099714Y-82462714D01*
X98147333Y-82510333D01*
X98242571Y-82557952D01*
X98433048Y-82557952D01*
X98528286Y-82605571D01*
X98575905Y-82653190D01*
X98623524Y-82748429D01*
X98623524Y-82938905D01*
X98575905Y-83034143D01*
X98528286Y-83081762D01*
X98433048Y-83129381D01*
X98242571Y-83129381D01*
X98147333Y-83081762D01*
X98099714Y-83034143D01*
X98052095Y-82938905D01*
X98052095Y-82748429D01*
X98099714Y-82653190D01*
X98147333Y-82605571D01*
X98242571Y-82557952D01*
D15*
X101872143Y-118418429D02*
X101872143Y-119652143D01*
X101799571Y-119797286D01*
X101727000Y-119869857D01*
X101581857Y-119942429D01*
X101291571Y-119942429D01*
X101146429Y-119869857D01*
X101073857Y-119797286D01*
X101001286Y-119652143D01*
X101001286Y-118418429D01*
X99622429Y-118926429D02*
X99622429Y-119942429D01*
X99985286Y-118345857D02*
X100348143Y-119434429D01*
X99404715Y-119434429D01*
D16*
X93381286Y-107750429D02*
X93345000Y-107677857D01*
X93272429Y-107605286D01*
X93163571Y-107496429D01*
X93127286Y-107423857D01*
X93127286Y-107351286D01*
X93308714Y-107387571D02*
X93272429Y-107315000D01*
X93199857Y-107242429D01*
X93054714Y-107206143D01*
X92800714Y-107206143D01*
X92655571Y-107242429D01*
X92583000Y-107315000D01*
X92546714Y-107387571D01*
X92546714Y-107532714D01*
X92583000Y-107605286D01*
X92655571Y-107677857D01*
X92800714Y-107714143D01*
X93054714Y-107714143D01*
X93199857Y-107677857D01*
X93272429Y-107605286D01*
X93308714Y-107532714D01*
X93308714Y-107387571D01*
X92546714Y-107968143D02*
X92546714Y-108439857D01*
X92837000Y-108185857D01*
X92837000Y-108294715D01*
X92873286Y-108367286D01*
X92909571Y-108403572D01*
X92982143Y-108439857D01*
X93163571Y-108439857D01*
X93236143Y-108403572D01*
X93272429Y-108367286D01*
X93308714Y-108294715D01*
X93308714Y-108077000D01*
X93272429Y-108004429D01*
X93236143Y-107968143D01*
D10*
X93098857Y-115673143D02*
X93146476Y-115720762D01*
X93289333Y-115768381D01*
X93384571Y-115768381D01*
X93527429Y-115720762D01*
X93622667Y-115625524D01*
X93670286Y-115530286D01*
X93717905Y-115339810D01*
X93717905Y-115196952D01*
X93670286Y-115006476D01*
X93622667Y-114911238D01*
X93527429Y-114816000D01*
X93384571Y-114768381D01*
X93289333Y-114768381D01*
X93146476Y-114816000D01*
X93098857Y-114863619D01*
X92146476Y-115768381D02*
X92717905Y-115768381D01*
X92432191Y-115768381D02*
X92432191Y-114768381D01*
X92527429Y-114911238D01*
X92622667Y-115006476D01*
X92717905Y-115054095D01*
X91813143Y-114768381D02*
X91194095Y-114768381D01*
X91527429Y-115149333D01*
X91384571Y-115149333D01*
X91289333Y-115196952D01*
X91241714Y-115244571D01*
X91194095Y-115339810D01*
X91194095Y-115577905D01*
X91241714Y-115673143D01*
X91289333Y-115720762D01*
X91384571Y-115768381D01*
X91670286Y-115768381D01*
X91765524Y-115720762D01*
X91813143Y-115673143D01*
D13*
X114717285Y-128106714D02*
X114717285Y-127344714D01*
X114535857Y-127344714D01*
X114427000Y-127381000D01*
X114354428Y-127453571D01*
X114318143Y-127526143D01*
X114281857Y-127671286D01*
X114281857Y-127780143D01*
X114318143Y-127925286D01*
X114354428Y-127997857D01*
X114427000Y-128070429D01*
X114535857Y-128106714D01*
X114717285Y-128106714D01*
X113556143Y-128106714D02*
X113991571Y-128106714D01*
X113773857Y-128106714D02*
X113773857Y-127344714D01*
X113846428Y-127453571D01*
X113919000Y-127526143D01*
X113991571Y-127562429D01*
X113302143Y-127344714D02*
X112830429Y-127344714D01*
X113084429Y-127635000D01*
X112975571Y-127635000D01*
X112903000Y-127671286D01*
X112866714Y-127707571D01*
X112830429Y-127780143D01*
X112830429Y-127961571D01*
X112866714Y-128034143D01*
X112903000Y-128070429D01*
X112975571Y-128106714D01*
X113193286Y-128106714D01*
X113265857Y-128070429D01*
X113302143Y-128034143D01*
D17*
X90971915Y-70044733D02*
X91124315Y-69706067D01*
X91233172Y-70044733D02*
X91233172Y-69333533D01*
X91059000Y-69333533D01*
X91015458Y-69367400D01*
X90993686Y-69401267D01*
X90971915Y-69469000D01*
X90971915Y-69570600D01*
X90993686Y-69638333D01*
X91015458Y-69672200D01*
X91059000Y-69706067D01*
X91233172Y-69706067D01*
X90580029Y-69570600D02*
X90580029Y-70044733D01*
X90688886Y-69299667D02*
X90797743Y-69807667D01*
X90514715Y-69807667D01*
X90384086Y-69333533D02*
X90101057Y-69333533D01*
X90253457Y-69604467D01*
X90188143Y-69604467D01*
X90144600Y-69638333D01*
X90122829Y-69672200D01*
X90101057Y-69739933D01*
X90101057Y-69909267D01*
X90122829Y-69977000D01*
X90144600Y-70010867D01*
X90188143Y-70044733D01*
X90318771Y-70044733D01*
X90362314Y-70010867D01*
X90384086Y-69977000D01*
X103064733Y-125055085D02*
X102726067Y-124902685D01*
X103064733Y-124793828D02*
X102353533Y-124793828D01*
X102353533Y-124968000D01*
X102387400Y-125011542D01*
X102421267Y-125033314D01*
X102489000Y-125055085D01*
X102590600Y-125055085D01*
X102658333Y-125033314D01*
X102692200Y-125011542D01*
X102726067Y-124968000D01*
X102726067Y-124793828D01*
X102353533Y-125207485D02*
X102353533Y-125490514D01*
X102624467Y-125338114D01*
X102624467Y-125403428D01*
X102658333Y-125446971D01*
X102692200Y-125468742D01*
X102759933Y-125490514D01*
X102929267Y-125490514D01*
X102997000Y-125468742D01*
X103030867Y-125446971D01*
X103064733Y-125403428D01*
X103064733Y-125272800D01*
X103030867Y-125229257D01*
X102997000Y-125207485D01*
X102658333Y-125751771D02*
X102624467Y-125708229D01*
X102590600Y-125686457D01*
X102522867Y-125664686D01*
X102489000Y-125664686D01*
X102421267Y-125686457D01*
X102387400Y-125708229D01*
X102353533Y-125751771D01*
X102353533Y-125838857D01*
X102387400Y-125882400D01*
X102421267Y-125904171D01*
X102489000Y-125925943D01*
X102522867Y-125925943D01*
X102590600Y-125904171D01*
X102624467Y-125882400D01*
X102658333Y-125838857D01*
X102658333Y-125751771D01*
X102692200Y-125708229D01*
X102726067Y-125686457D01*
X102793800Y-125664686D01*
X102929267Y-125664686D01*
X102997000Y-125686457D01*
X103030867Y-125708229D01*
X103064733Y-125751771D01*
X103064733Y-125838857D01*
X103030867Y-125882400D01*
X102997000Y-125904171D01*
X102929267Y-125925943D01*
X102793800Y-125925943D01*
X102726067Y-125904171D01*
X102692200Y-125882400D01*
X102658333Y-125838857D01*
X100750915Y-108906733D02*
X100903315Y-108568067D01*
X101012172Y-108906733D02*
X101012172Y-108195533D01*
X100838000Y-108195533D01*
X100794458Y-108229400D01*
X100772686Y-108263267D01*
X100750915Y-108331000D01*
X100750915Y-108432600D01*
X100772686Y-108500333D01*
X100794458Y-108534200D01*
X100838000Y-108568067D01*
X101012172Y-108568067D01*
X100359029Y-108432600D02*
X100359029Y-108906733D01*
X100467886Y-108161667D02*
X100576743Y-108669667D01*
X100293715Y-108669667D01*
X100141314Y-108263267D02*
X100119543Y-108229400D01*
X100076000Y-108195533D01*
X99967143Y-108195533D01*
X99923600Y-108229400D01*
X99901829Y-108263267D01*
X99880057Y-108331000D01*
X99880057Y-108398733D01*
X99901829Y-108500333D01*
X100163086Y-108906733D01*
X99880057Y-108906733D01*
X41596733Y-73366085D02*
X41258067Y-73213685D01*
X41596733Y-73104828D02*
X40885533Y-73104828D01*
X40885533Y-73279000D01*
X40919400Y-73322542D01*
X40953267Y-73344314D01*
X41021000Y-73366085D01*
X41122600Y-73366085D01*
X41190333Y-73344314D01*
X41224200Y-73322542D01*
X41258067Y-73279000D01*
X41258067Y-73104828D01*
X41122600Y-73757971D02*
X41596733Y-73757971D01*
X40851667Y-73649114D02*
X41359667Y-73540257D01*
X41359667Y-73823285D01*
X41596733Y-74236943D02*
X41596733Y-73975686D01*
X41596733Y-74106314D02*
X40885533Y-74106314D01*
X40987133Y-74062771D01*
X41054867Y-74019229D01*
X41088733Y-73975686D01*
X81827915Y-70171733D02*
X81980315Y-69833067D01*
X82089172Y-70171733D02*
X82089172Y-69460533D01*
X81915000Y-69460533D01*
X81871458Y-69494400D01*
X81849686Y-69528267D01*
X81827915Y-69596000D01*
X81827915Y-69697600D01*
X81849686Y-69765333D01*
X81871458Y-69799200D01*
X81915000Y-69833067D01*
X82089172Y-69833067D01*
X81436029Y-69697600D02*
X81436029Y-70171733D01*
X81544886Y-69426667D02*
X81653743Y-69934667D01*
X81370715Y-69934667D01*
X81109457Y-69460533D02*
X81065914Y-69460533D01*
X81022371Y-69494400D01*
X81000600Y-69528267D01*
X80978829Y-69596000D01*
X80957057Y-69731467D01*
X80957057Y-69900800D01*
X80978829Y-70036267D01*
X81000600Y-70104000D01*
X81022371Y-70137867D01*
X81065914Y-70171733D01*
X81109457Y-70171733D01*
X81153000Y-70137867D01*
X81174771Y-70104000D01*
X81196543Y-70036267D01*
X81218314Y-69900800D01*
X81218314Y-69731467D01*
X81196543Y-69596000D01*
X81174771Y-69528267D01*
X81153000Y-69494400D01*
X81109457Y-69460533D01*
X60999915Y-72965733D02*
X61152315Y-72627067D01*
X61261172Y-72965733D02*
X61261172Y-72254533D01*
X61087000Y-72254533D01*
X61043458Y-72288400D01*
X61021686Y-72322267D01*
X60999915Y-72390000D01*
X60999915Y-72491600D01*
X61021686Y-72559333D01*
X61043458Y-72593200D01*
X61087000Y-72627067D01*
X61261172Y-72627067D01*
X60847515Y-72254533D02*
X60564486Y-72254533D01*
X60716886Y-72525467D01*
X60651572Y-72525467D01*
X60608029Y-72559333D01*
X60586258Y-72593200D01*
X60564486Y-72660933D01*
X60564486Y-72830267D01*
X60586258Y-72898000D01*
X60608029Y-72931867D01*
X60651572Y-72965733D01*
X60782200Y-72965733D01*
X60825743Y-72931867D01*
X60847515Y-72898000D01*
X60412086Y-72254533D02*
X60107286Y-72254533D01*
X60303229Y-72965733D01*
X51982915Y-74489733D02*
X52135315Y-74151067D01*
X52244172Y-74489733D02*
X52244172Y-73778533D01*
X52070000Y-73778533D01*
X52026458Y-73812400D01*
X52004686Y-73846267D01*
X51982915Y-73914000D01*
X51982915Y-74015600D01*
X52004686Y-74083333D01*
X52026458Y-74117200D01*
X52070000Y-74151067D01*
X52244172Y-74151067D01*
X51830515Y-73778533D02*
X51547486Y-73778533D01*
X51699886Y-74049467D01*
X51634572Y-74049467D01*
X51591029Y-74083333D01*
X51569258Y-74117200D01*
X51547486Y-74184933D01*
X51547486Y-74354267D01*
X51569258Y-74422000D01*
X51591029Y-74455867D01*
X51634572Y-74489733D01*
X51765200Y-74489733D01*
X51808743Y-74455867D01*
X51830515Y-74422000D01*
X51155600Y-73778533D02*
X51242686Y-73778533D01*
X51286229Y-73812400D01*
X51308000Y-73846267D01*
X51351543Y-73947867D01*
X51373314Y-74083333D01*
X51373314Y-74354267D01*
X51351543Y-74422000D01*
X51329771Y-74455867D01*
X51286229Y-74489733D01*
X51199143Y-74489733D01*
X51155600Y-74455867D01*
X51133829Y-74422000D01*
X51112057Y-74354267D01*
X51112057Y-74184933D01*
X51133829Y-74117200D01*
X51155600Y-74083333D01*
X51199143Y-74049467D01*
X51286229Y-74049467D01*
X51329771Y-74083333D01*
X51351543Y-74117200D01*
X51373314Y-74184933D01*
X51248733Y-76160085D02*
X50910067Y-76007685D01*
X51248733Y-75898828D02*
X50537533Y-75898828D01*
X50537533Y-76073000D01*
X50571400Y-76116542D01*
X50605267Y-76138314D01*
X50673000Y-76160085D01*
X50774600Y-76160085D01*
X50842333Y-76138314D01*
X50876200Y-76116542D01*
X50910067Y-76073000D01*
X50910067Y-75898828D01*
X50537533Y-76312485D02*
X50537533Y-76595514D01*
X50808467Y-76443114D01*
X50808467Y-76508428D01*
X50842333Y-76551971D01*
X50876200Y-76573742D01*
X50943933Y-76595514D01*
X51113267Y-76595514D01*
X51181000Y-76573742D01*
X51214867Y-76551971D01*
X51248733Y-76508428D01*
X51248733Y-76377800D01*
X51214867Y-76334257D01*
X51181000Y-76312485D01*
X50537533Y-77009171D02*
X50537533Y-76791457D01*
X50876200Y-76769686D01*
X50842333Y-76791457D01*
X50808467Y-76835000D01*
X50808467Y-76943857D01*
X50842333Y-76987400D01*
X50876200Y-77009171D01*
X50943933Y-77030943D01*
X51113267Y-77030943D01*
X51181000Y-77009171D01*
X51214867Y-76987400D01*
X51248733Y-76943857D01*
X51248733Y-76835000D01*
X51214867Y-76791457D01*
X51181000Y-76769686D01*
X35726915Y-71568733D02*
X35879315Y-71230067D01*
X35988172Y-71568733D02*
X35988172Y-70857533D01*
X35814000Y-70857533D01*
X35770458Y-70891400D01*
X35748686Y-70925267D01*
X35726915Y-70993000D01*
X35726915Y-71094600D01*
X35748686Y-71162333D01*
X35770458Y-71196200D01*
X35814000Y-71230067D01*
X35988172Y-71230067D01*
X35574515Y-70857533D02*
X35291486Y-70857533D01*
X35443886Y-71128467D01*
X35378572Y-71128467D01*
X35335029Y-71162333D01*
X35313258Y-71196200D01*
X35291486Y-71263933D01*
X35291486Y-71433267D01*
X35313258Y-71501000D01*
X35335029Y-71534867D01*
X35378572Y-71568733D01*
X35509200Y-71568733D01*
X35552743Y-71534867D01*
X35574515Y-71501000D01*
X34899600Y-71094600D02*
X34899600Y-71568733D01*
X35008457Y-70823667D02*
X35117314Y-71331667D01*
X34834286Y-71331667D01*
X60519733Y-68286085D02*
X60181067Y-68133685D01*
X60519733Y-68024828D02*
X59808533Y-68024828D01*
X59808533Y-68199000D01*
X59842400Y-68242542D01*
X59876267Y-68264314D01*
X59944000Y-68286085D01*
X60045600Y-68286085D01*
X60113333Y-68264314D01*
X60147200Y-68242542D01*
X60181067Y-68199000D01*
X60181067Y-68024828D01*
X59808533Y-68438485D02*
X59808533Y-68721514D01*
X60079467Y-68569114D01*
X60079467Y-68634428D01*
X60113333Y-68677971D01*
X60147200Y-68699742D01*
X60214933Y-68721514D01*
X60384267Y-68721514D01*
X60452000Y-68699742D01*
X60485867Y-68677971D01*
X60519733Y-68634428D01*
X60519733Y-68503800D01*
X60485867Y-68460257D01*
X60452000Y-68438485D01*
X59808533Y-68873914D02*
X59808533Y-69156943D01*
X60079467Y-69004543D01*
X60079467Y-69069857D01*
X60113333Y-69113400D01*
X60147200Y-69135171D01*
X60214933Y-69156943D01*
X60384267Y-69156943D01*
X60452000Y-69135171D01*
X60485867Y-69113400D01*
X60519733Y-69069857D01*
X60519733Y-68939229D01*
X60485867Y-68895686D01*
X60452000Y-68873914D01*
X51502733Y-71207085D02*
X51164067Y-71054685D01*
X51502733Y-70945828D02*
X50791533Y-70945828D01*
X50791533Y-71120000D01*
X50825400Y-71163542D01*
X50859267Y-71185314D01*
X50927000Y-71207085D01*
X51028600Y-71207085D01*
X51096333Y-71185314D01*
X51130200Y-71163542D01*
X51164067Y-71120000D01*
X51164067Y-70945828D01*
X50791533Y-71359485D02*
X50791533Y-71642514D01*
X51062467Y-71490114D01*
X51062467Y-71555428D01*
X51096333Y-71598971D01*
X51130200Y-71620742D01*
X51197933Y-71642514D01*
X51367267Y-71642514D01*
X51435000Y-71620742D01*
X51468867Y-71598971D01*
X51502733Y-71555428D01*
X51502733Y-71424800D01*
X51468867Y-71381257D01*
X51435000Y-71359485D01*
X50859267Y-71816686D02*
X50825400Y-71838457D01*
X50791533Y-71882000D01*
X50791533Y-71990857D01*
X50825400Y-72034400D01*
X50859267Y-72056171D01*
X50927000Y-72077943D01*
X50994733Y-72077943D01*
X51096333Y-72056171D01*
X51502733Y-71794914D01*
X51502733Y-72077943D01*
X43346915Y-61916733D02*
X43499315Y-61578067D01*
X43608172Y-61916733D02*
X43608172Y-61205533D01*
X43434000Y-61205533D01*
X43390458Y-61239400D01*
X43368686Y-61273267D01*
X43346915Y-61341000D01*
X43346915Y-61442600D01*
X43368686Y-61510333D01*
X43390458Y-61544200D01*
X43434000Y-61578067D01*
X43608172Y-61578067D01*
X43194515Y-61205533D02*
X42911486Y-61205533D01*
X43063886Y-61476467D01*
X42998572Y-61476467D01*
X42955029Y-61510333D01*
X42933258Y-61544200D01*
X42911486Y-61611933D01*
X42911486Y-61781267D01*
X42933258Y-61849000D01*
X42955029Y-61882867D01*
X42998572Y-61916733D01*
X43129200Y-61916733D01*
X43172743Y-61882867D01*
X43194515Y-61849000D01*
X42476057Y-61916733D02*
X42737314Y-61916733D01*
X42606686Y-61916733D02*
X42606686Y-61205533D01*
X42650229Y-61307133D01*
X42693771Y-61374867D01*
X42737314Y-61408733D01*
X33214733Y-70191085D02*
X32876067Y-70038685D01*
X33214733Y-69929828D02*
X32503533Y-69929828D01*
X32503533Y-70104000D01*
X32537400Y-70147542D01*
X32571267Y-70169314D01*
X32639000Y-70191085D01*
X32740600Y-70191085D01*
X32808333Y-70169314D01*
X32842200Y-70147542D01*
X32876067Y-70104000D01*
X32876067Y-69929828D01*
X32503533Y-70343485D02*
X32503533Y-70626514D01*
X32774467Y-70474114D01*
X32774467Y-70539428D01*
X32808333Y-70582971D01*
X32842200Y-70604742D01*
X32909933Y-70626514D01*
X33079267Y-70626514D01*
X33147000Y-70604742D01*
X33180867Y-70582971D01*
X33214733Y-70539428D01*
X33214733Y-70408800D01*
X33180867Y-70365257D01*
X33147000Y-70343485D01*
X32503533Y-70909543D02*
X32503533Y-70953086D01*
X32537400Y-70996629D01*
X32571267Y-71018400D01*
X32639000Y-71040171D01*
X32774467Y-71061943D01*
X32943800Y-71061943D01*
X33079267Y-71040171D01*
X33147000Y-71018400D01*
X33180867Y-70996629D01*
X33214733Y-70953086D01*
X33214733Y-70909543D01*
X33180867Y-70866000D01*
X33147000Y-70844229D01*
X33079267Y-70822457D01*
X32943800Y-70800686D01*
X32774467Y-70800686D01*
X32639000Y-70822457D01*
X32571267Y-70844229D01*
X32537400Y-70866000D01*
X32503533Y-70909543D01*
D13*
X105990571Y-82386714D02*
X105990571Y-83003571D01*
X105954286Y-83076143D01*
X105918000Y-83112429D01*
X105845429Y-83148714D01*
X105700286Y-83148714D01*
X105627714Y-83112429D01*
X105591429Y-83076143D01*
X105555143Y-83003571D01*
X105555143Y-82386714D01*
X105228571Y-82459286D02*
X105192285Y-82423000D01*
X105119714Y-82386714D01*
X104938285Y-82386714D01*
X104865714Y-82423000D01*
X104829428Y-82459286D01*
X104793143Y-82531857D01*
X104793143Y-82604429D01*
X104829428Y-82713286D01*
X105264857Y-83148714D01*
X104793143Y-83148714D01*
X103214714Y-84698115D02*
X103214714Y-85206115D01*
X103976714Y-84879544D01*
X103468714Y-85822972D02*
X103976714Y-85822972D01*
X103178429Y-85641543D02*
X103722714Y-85460115D01*
X103722714Y-85931829D01*
X103976714Y-86584972D02*
X103976714Y-86222115D01*
X103214714Y-86222115D01*
X103214714Y-86730114D02*
X103976714Y-86984114D01*
X103214714Y-87238114D01*
X103904143Y-87927543D02*
X103940429Y-87891257D01*
X103976714Y-87782400D01*
X103976714Y-87709829D01*
X103940429Y-87600972D01*
X103867857Y-87528400D01*
X103795286Y-87492115D01*
X103650143Y-87455829D01*
X103541286Y-87455829D01*
X103396143Y-87492115D01*
X103323571Y-87528400D01*
X103251000Y-87600972D01*
X103214714Y-87709829D01*
X103214714Y-87782400D01*
X103251000Y-87891257D01*
X103287286Y-87927543D01*
X103904143Y-88689543D02*
X103940429Y-88653257D01*
X103976714Y-88544400D01*
X103976714Y-88471829D01*
X103940429Y-88362972D01*
X103867857Y-88290400D01*
X103795286Y-88254115D01*
X103650143Y-88217829D01*
X103541286Y-88217829D01*
X103396143Y-88254115D01*
X103323571Y-88290400D01*
X103251000Y-88362972D01*
X103214714Y-88471829D01*
X103214714Y-88544400D01*
X103251000Y-88653257D01*
X103287286Y-88689543D01*
X103214714Y-88943543D02*
X103214714Y-89415257D01*
X103505000Y-89161257D01*
X103505000Y-89270115D01*
X103541286Y-89342686D01*
X103577571Y-89378972D01*
X103650143Y-89415257D01*
X103831571Y-89415257D01*
X103904143Y-89378972D01*
X103940429Y-89342686D01*
X103976714Y-89270115D01*
X103976714Y-89052400D01*
X103940429Y-88979829D01*
X103904143Y-88943543D01*
X103287286Y-89705543D02*
X103251000Y-89741829D01*
X103214714Y-89814400D01*
X103214714Y-89995829D01*
X103251000Y-90068400D01*
X103287286Y-90104686D01*
X103359857Y-90140971D01*
X103432429Y-90140971D01*
X103541286Y-90104686D01*
X103976714Y-89669257D01*
X103976714Y-90140971D01*
X103468714Y-90794114D02*
X103976714Y-90794114D01*
X103178429Y-90612685D02*
X103722714Y-90431257D01*
X103722714Y-90902971D01*
X103214714Y-91556114D02*
X103214714Y-91193257D01*
X103577571Y-91156971D01*
X103541286Y-91193257D01*
X103505000Y-91265828D01*
X103505000Y-91447257D01*
X103541286Y-91519828D01*
X103577571Y-91556114D01*
X103650143Y-91592399D01*
X103831571Y-91592399D01*
X103904143Y-91556114D01*
X103940429Y-91519828D01*
X103976714Y-91447257D01*
X103976714Y-91265828D01*
X103940429Y-91193257D01*
X103904143Y-91156971D01*
X106244571Y-95975714D02*
X106244571Y-96592571D01*
X106208286Y-96665143D01*
X106172000Y-96701429D01*
X106099429Y-96737714D01*
X105954286Y-96737714D01*
X105881714Y-96701429D01*
X105845429Y-96665143D01*
X105809143Y-96592571D01*
X105809143Y-95975714D01*
X105119714Y-95975714D02*
X105264857Y-95975714D01*
X105337428Y-96012000D01*
X105373714Y-96048286D01*
X105446285Y-96157143D01*
X105482571Y-96302286D01*
X105482571Y-96592571D01*
X105446285Y-96665143D01*
X105410000Y-96701429D01*
X105337428Y-96737714D01*
X105192285Y-96737714D01*
X105119714Y-96701429D01*
X105083428Y-96665143D01*
X105047143Y-96592571D01*
X105047143Y-96411143D01*
X105083428Y-96338571D01*
X105119714Y-96302286D01*
X105192285Y-96266000D01*
X105337428Y-96266000D01*
X105410000Y-96302286D01*
X105446285Y-96338571D01*
X105482571Y-96411143D01*
X103417914Y-98160115D02*
X103417914Y-98668115D01*
X104179914Y-98341544D01*
X103671914Y-99284972D02*
X104179914Y-99284972D01*
X103381629Y-99103543D02*
X103925914Y-98922115D01*
X103925914Y-99393829D01*
X104179914Y-100046972D02*
X104179914Y-99684115D01*
X103417914Y-99684115D01*
X103417914Y-100192114D02*
X104179914Y-100446114D01*
X103417914Y-100700114D01*
X104107343Y-101389543D02*
X104143629Y-101353257D01*
X104179914Y-101244400D01*
X104179914Y-101171829D01*
X104143629Y-101062972D01*
X104071057Y-100990400D01*
X103998486Y-100954115D01*
X103853343Y-100917829D01*
X103744486Y-100917829D01*
X103599343Y-100954115D01*
X103526771Y-100990400D01*
X103454200Y-101062972D01*
X103417914Y-101171829D01*
X103417914Y-101244400D01*
X103454200Y-101353257D01*
X103490486Y-101389543D01*
X104107343Y-102151543D02*
X104143629Y-102115257D01*
X104179914Y-102006400D01*
X104179914Y-101933829D01*
X104143629Y-101824972D01*
X104071057Y-101752400D01*
X103998486Y-101716115D01*
X103853343Y-101679829D01*
X103744486Y-101679829D01*
X103599343Y-101716115D01*
X103526771Y-101752400D01*
X103454200Y-101824972D01*
X103417914Y-101933829D01*
X103417914Y-102006400D01*
X103454200Y-102115257D01*
X103490486Y-102151543D01*
X103417914Y-102405543D02*
X103417914Y-102877257D01*
X103708200Y-102623257D01*
X103708200Y-102732115D01*
X103744486Y-102804686D01*
X103780771Y-102840972D01*
X103853343Y-102877257D01*
X104034771Y-102877257D01*
X104107343Y-102840972D01*
X104143629Y-102804686D01*
X104179914Y-102732115D01*
X104179914Y-102514400D01*
X104143629Y-102441829D01*
X104107343Y-102405543D01*
X103490486Y-103167543D02*
X103454200Y-103203829D01*
X103417914Y-103276400D01*
X103417914Y-103457829D01*
X103454200Y-103530400D01*
X103490486Y-103566686D01*
X103563057Y-103602971D01*
X103635629Y-103602971D01*
X103744486Y-103566686D01*
X104179914Y-103131257D01*
X104179914Y-103602971D01*
X103671914Y-104256114D02*
X104179914Y-104256114D01*
X103381629Y-104074685D02*
X103925914Y-103893257D01*
X103925914Y-104364971D01*
X103417914Y-105018114D02*
X103417914Y-104655257D01*
X103780771Y-104618971D01*
X103744486Y-104655257D01*
X103708200Y-104727828D01*
X103708200Y-104909257D01*
X103744486Y-104981828D01*
X103780771Y-105018114D01*
X103853343Y-105054399D01*
X104034771Y-105054399D01*
X104107343Y-105018114D01*
X104143629Y-104981828D01*
X104179914Y-104909257D01*
X104179914Y-104727828D01*
X104143629Y-104655257D01*
X104107343Y-104618971D01*
D17*
X111954733Y-122007085D02*
X111616067Y-121854685D01*
X111954733Y-121745828D02*
X111243533Y-121745828D01*
X111243533Y-121920000D01*
X111277400Y-121963542D01*
X111311267Y-121985314D01*
X111379000Y-122007085D01*
X111480600Y-122007085D01*
X111548333Y-121985314D01*
X111582200Y-121963542D01*
X111616067Y-121920000D01*
X111616067Y-121745828D01*
X111954733Y-122442514D02*
X111954733Y-122181257D01*
X111954733Y-122311885D02*
X111243533Y-122311885D01*
X111345133Y-122268342D01*
X111412867Y-122224800D01*
X111446733Y-122181257D01*
X111243533Y-122725543D02*
X111243533Y-122769086D01*
X111277400Y-122812629D01*
X111311267Y-122834400D01*
X111379000Y-122856171D01*
X111514467Y-122877943D01*
X111683800Y-122877943D01*
X111819267Y-122856171D01*
X111887000Y-122834400D01*
X111920867Y-122812629D01*
X111954733Y-122769086D01*
X111954733Y-122725543D01*
X111920867Y-122682000D01*
X111887000Y-122660229D01*
X111819267Y-122638457D01*
X111683800Y-122616686D01*
X111514467Y-122616686D01*
X111379000Y-122638457D01*
X111311267Y-122660229D01*
X111277400Y-122682000D01*
X111243533Y-122725543D01*
X106747733Y-123113800D02*
X106409067Y-122961400D01*
X106747733Y-122852543D02*
X106036533Y-122852543D01*
X106036533Y-123026715D01*
X106070400Y-123070257D01*
X106104267Y-123092029D01*
X106172000Y-123113800D01*
X106273600Y-123113800D01*
X106341333Y-123092029D01*
X106375200Y-123070257D01*
X106409067Y-123026715D01*
X106409067Y-122852543D01*
X106747733Y-123331515D02*
X106747733Y-123418600D01*
X106713867Y-123462143D01*
X106680000Y-123483915D01*
X106578400Y-123527457D01*
X106442933Y-123549229D01*
X106172000Y-123549229D01*
X106104267Y-123527457D01*
X106070400Y-123505686D01*
X106036533Y-123462143D01*
X106036533Y-123375057D01*
X106070400Y-123331515D01*
X106104267Y-123309743D01*
X106172000Y-123287972D01*
X106341333Y-123287972D01*
X106409067Y-123309743D01*
X106442933Y-123331515D01*
X106476800Y-123375057D01*
X106476800Y-123462143D01*
X106442933Y-123505686D01*
X106409067Y-123527457D01*
X106341333Y-123549229D01*
X72212200Y-70044733D02*
X72364600Y-69706067D01*
X72473457Y-70044733D02*
X72473457Y-69333533D01*
X72299285Y-69333533D01*
X72255743Y-69367400D01*
X72233971Y-69401267D01*
X72212200Y-69469000D01*
X72212200Y-69570600D01*
X72233971Y-69638333D01*
X72255743Y-69672200D01*
X72299285Y-69706067D01*
X72473457Y-69706067D01*
X71776771Y-70044733D02*
X72038028Y-70044733D01*
X71907400Y-70044733D02*
X71907400Y-69333533D01*
X71950943Y-69435133D01*
X71994485Y-69502867D01*
X72038028Y-69536733D01*
X46685200Y-81855733D02*
X46837600Y-81517067D01*
X46946457Y-81855733D02*
X46946457Y-81144533D01*
X46772285Y-81144533D01*
X46728743Y-81178400D01*
X46706971Y-81212267D01*
X46685200Y-81280000D01*
X46685200Y-81381600D01*
X46706971Y-81449333D01*
X46728743Y-81483200D01*
X46772285Y-81517067D01*
X46946457Y-81517067D01*
X46511028Y-81212267D02*
X46489257Y-81178400D01*
X46445714Y-81144533D01*
X46336857Y-81144533D01*
X46293314Y-81178400D01*
X46271543Y-81212267D01*
X46249771Y-81280000D01*
X46249771Y-81347733D01*
X46271543Y-81449333D01*
X46532800Y-81855733D01*
X46249771Y-81855733D01*
X95063733Y-122224800D02*
X94725067Y-122072400D01*
X95063733Y-121963543D02*
X94352533Y-121963543D01*
X94352533Y-122137715D01*
X94386400Y-122181257D01*
X94420267Y-122203029D01*
X94488000Y-122224800D01*
X94589600Y-122224800D01*
X94657333Y-122203029D01*
X94691200Y-122181257D01*
X94725067Y-122137715D01*
X94725067Y-121963543D01*
X94657333Y-122486057D02*
X94623467Y-122442515D01*
X94589600Y-122420743D01*
X94521867Y-122398972D01*
X94488000Y-122398972D01*
X94420267Y-122420743D01*
X94386400Y-122442515D01*
X94352533Y-122486057D01*
X94352533Y-122573143D01*
X94386400Y-122616686D01*
X94420267Y-122638457D01*
X94488000Y-122660229D01*
X94521867Y-122660229D01*
X94589600Y-122638457D01*
X94623467Y-122616686D01*
X94657333Y-122573143D01*
X94657333Y-122486057D01*
X94691200Y-122442515D01*
X94725067Y-122420743D01*
X94792800Y-122398972D01*
X94928267Y-122398972D01*
X94996000Y-122420743D01*
X95029867Y-122442515D01*
X95063733Y-122486057D01*
X95063733Y-122573143D01*
X95029867Y-122616686D01*
X94996000Y-122638457D01*
X94928267Y-122660229D01*
X94792800Y-122660229D01*
X94725067Y-122638457D01*
X94691200Y-122616686D01*
X94657333Y-122573143D01*
X95063733Y-119430800D02*
X94725067Y-119278400D01*
X95063733Y-119169543D02*
X94352533Y-119169543D01*
X94352533Y-119343715D01*
X94386400Y-119387257D01*
X94420267Y-119409029D01*
X94488000Y-119430800D01*
X94589600Y-119430800D01*
X94657333Y-119409029D01*
X94691200Y-119387257D01*
X94725067Y-119343715D01*
X94725067Y-119169543D01*
X94352533Y-119583200D02*
X94352533Y-119888000D01*
X95063733Y-119692057D01*
X103051429Y-128447800D02*
X103075619Y-128426029D01*
X103099810Y-128360715D01*
X103099810Y-128317172D01*
X103075619Y-128251857D01*
X103027238Y-128208315D01*
X102978857Y-128186543D01*
X102882095Y-128164772D01*
X102809524Y-128164772D01*
X102712762Y-128186543D01*
X102664381Y-128208315D01*
X102616000Y-128251857D01*
X102591810Y-128317172D01*
X102591810Y-128360715D01*
X102616000Y-128426029D01*
X102640190Y-128447800D01*
X102591810Y-128839686D02*
X102591810Y-128752600D01*
X102616000Y-128709057D01*
X102640190Y-128687286D01*
X102712762Y-128643743D01*
X102809524Y-128621972D01*
X103003048Y-128621972D01*
X103051429Y-128643743D01*
X103075619Y-128665515D01*
X103099810Y-128709057D01*
X103099810Y-128796143D01*
X103075619Y-128839686D01*
X103051429Y-128861457D01*
X103003048Y-128883229D01*
X102882095Y-128883229D01*
X102833714Y-128861457D01*
X102809524Y-128839686D01*
X102785333Y-128796143D01*
X102785333Y-128709057D01*
X102809524Y-128665515D01*
X102833714Y-128643743D01*
X102882095Y-128621972D01*
X103835200Y-108893429D02*
X103856971Y-108917619D01*
X103922285Y-108941810D01*
X103965828Y-108941810D01*
X104031143Y-108917619D01*
X104074685Y-108869238D01*
X104096457Y-108820857D01*
X104118228Y-108724095D01*
X104118228Y-108651524D01*
X104096457Y-108554762D01*
X104074685Y-108506381D01*
X104031143Y-108458000D01*
X103965828Y-108433810D01*
X103922285Y-108433810D01*
X103856971Y-108458000D01*
X103835200Y-108482190D01*
X103682800Y-108433810D02*
X103399771Y-108433810D01*
X103552171Y-108627333D01*
X103486857Y-108627333D01*
X103443314Y-108651524D01*
X103421543Y-108675714D01*
X103399771Y-108724095D01*
X103399771Y-108845048D01*
X103421543Y-108893429D01*
X103443314Y-108917619D01*
X103486857Y-108941810D01*
X103617485Y-108941810D01*
X103661028Y-108917619D01*
X103682800Y-108893429D01*
X107391200Y-95431429D02*
X107412971Y-95455619D01*
X107478285Y-95479810D01*
X107521828Y-95479810D01*
X107587143Y-95455619D01*
X107630685Y-95407238D01*
X107652457Y-95358857D01*
X107674228Y-95262095D01*
X107674228Y-95189524D01*
X107652457Y-95092762D01*
X107630685Y-95044381D01*
X107587143Y-94996000D01*
X107521828Y-94971810D01*
X107478285Y-94971810D01*
X107412971Y-94996000D01*
X107391200Y-95020190D01*
X106977543Y-94971810D02*
X107195257Y-94971810D01*
X107217028Y-95213714D01*
X107195257Y-95189524D01*
X107151714Y-95165333D01*
X107042857Y-95165333D01*
X106999314Y-95189524D01*
X106977543Y-95213714D01*
X106955771Y-95262095D01*
X106955771Y-95383048D01*
X106977543Y-95431429D01*
X106999314Y-95455619D01*
X107042857Y-95479810D01*
X107151714Y-95479810D01*
X107195257Y-95455619D01*
X107217028Y-95431429D01*
X107496429Y-129844800D02*
X107520619Y-129823029D01*
X107544810Y-129757715D01*
X107544810Y-129714172D01*
X107520619Y-129648857D01*
X107472238Y-129605315D01*
X107423857Y-129583543D01*
X107327095Y-129561772D01*
X107254524Y-129561772D01*
X107157762Y-129583543D01*
X107109381Y-129605315D01*
X107061000Y-129648857D01*
X107036810Y-129714172D01*
X107036810Y-129757715D01*
X107061000Y-129823029D01*
X107085190Y-129844800D01*
X107085190Y-130018972D02*
X107061000Y-130040743D01*
X107036810Y-130084286D01*
X107036810Y-130193143D01*
X107061000Y-130236686D01*
X107085190Y-130258457D01*
X107133571Y-130280229D01*
X107181952Y-130280229D01*
X107254524Y-130258457D01*
X107544810Y-129997200D01*
X107544810Y-130280229D01*
X103581200Y-95431429D02*
X103602971Y-95455619D01*
X103668285Y-95479810D01*
X103711828Y-95479810D01*
X103777143Y-95455619D01*
X103820685Y-95407238D01*
X103842457Y-95358857D01*
X103864228Y-95262095D01*
X103864228Y-95189524D01*
X103842457Y-95092762D01*
X103820685Y-95044381D01*
X103777143Y-94996000D01*
X103711828Y-94971810D01*
X103668285Y-94971810D01*
X103602971Y-94996000D01*
X103581200Y-95020190D01*
X103428800Y-94971810D02*
X103124000Y-94971810D01*
X103319943Y-95479810D01*
X97104200Y-126419429D02*
X97125971Y-126443619D01*
X97191285Y-126467810D01*
X97234828Y-126467810D01*
X97300143Y-126443619D01*
X97343685Y-126395238D01*
X97365457Y-126346857D01*
X97387228Y-126250095D01*
X97387228Y-126177524D01*
X97365457Y-126080762D01*
X97343685Y-126032381D01*
X97300143Y-125984000D01*
X97234828Y-125959810D01*
X97191285Y-125959810D01*
X97125971Y-125984000D01*
X97104200Y-126008190D01*
X96842943Y-126177524D02*
X96886485Y-126153333D01*
X96908257Y-126129143D01*
X96930028Y-126080762D01*
X96930028Y-126056571D01*
X96908257Y-126008190D01*
X96886485Y-125984000D01*
X96842943Y-125959810D01*
X96755857Y-125959810D01*
X96712314Y-125984000D01*
X96690543Y-126008190D01*
X96668771Y-126056571D01*
X96668771Y-126080762D01*
X96690543Y-126129143D01*
X96712314Y-126153333D01*
X96755857Y-126177524D01*
X96842943Y-126177524D01*
X96886485Y-126201714D01*
X96908257Y-126225905D01*
X96930028Y-126274286D01*
X96930028Y-126371048D01*
X96908257Y-126419429D01*
X96886485Y-126443619D01*
X96842943Y-126467810D01*
X96755857Y-126467810D01*
X96712314Y-126443619D01*
X96690543Y-126419429D01*
X96668771Y-126371048D01*
X96668771Y-126274286D01*
X96690543Y-126225905D01*
X96712314Y-126201714D01*
X96755857Y-126177524D01*
X122228429Y-112609085D02*
X122252619Y-112587314D01*
X122276810Y-112522000D01*
X122276810Y-112478457D01*
X122252619Y-112413142D01*
X122204238Y-112369600D01*
X122155857Y-112347828D01*
X122059095Y-112326057D01*
X121986524Y-112326057D01*
X121889762Y-112347828D01*
X121841381Y-112369600D01*
X121793000Y-112413142D01*
X121768810Y-112478457D01*
X121768810Y-112522000D01*
X121793000Y-112587314D01*
X121817190Y-112609085D01*
X122276810Y-113044514D02*
X122276810Y-112783257D01*
X122276810Y-112913885D02*
X121768810Y-112913885D01*
X121841381Y-112870342D01*
X121889762Y-112826800D01*
X121913952Y-112783257D01*
X121768810Y-113327543D02*
X121768810Y-113371086D01*
X121793000Y-113414629D01*
X121817190Y-113436400D01*
X121865571Y-113458171D01*
X121962333Y-113479943D01*
X122083286Y-113479943D01*
X122180048Y-113458171D01*
X122228429Y-113436400D01*
X122252619Y-113414629D01*
X122276810Y-113371086D01*
X122276810Y-113327543D01*
X122252619Y-113284000D01*
X122228429Y-113262229D01*
X122180048Y-113240457D01*
X122083286Y-113218686D01*
X121962333Y-113218686D01*
X121865571Y-113240457D01*
X121817190Y-113262229D01*
X121793000Y-113284000D01*
X121768810Y-113327543D01*
X107862915Y-108893429D02*
X107884686Y-108917619D01*
X107950000Y-108941810D01*
X107993543Y-108941810D01*
X108058858Y-108917619D01*
X108102400Y-108869238D01*
X108124172Y-108820857D01*
X108145943Y-108724095D01*
X108145943Y-108651524D01*
X108124172Y-108554762D01*
X108102400Y-108506381D01*
X108058858Y-108458000D01*
X107993543Y-108433810D01*
X107950000Y-108433810D01*
X107884686Y-108458000D01*
X107862915Y-108482190D01*
X107427486Y-108941810D02*
X107688743Y-108941810D01*
X107558115Y-108941810D02*
X107558115Y-108433810D01*
X107601658Y-108506381D01*
X107645200Y-108554762D01*
X107688743Y-108578952D01*
X106992057Y-108941810D02*
X107253314Y-108941810D01*
X107122686Y-108941810D02*
X107122686Y-108433810D01*
X107166229Y-108506381D01*
X107209771Y-108554762D01*
X107253314Y-108578952D01*
D10*
X104941666Y-115673143D02*
X104989285Y-115720762D01*
X105132142Y-115768381D01*
X105227380Y-115768381D01*
X105370238Y-115720762D01*
X105465476Y-115625524D01*
X105513095Y-115530286D01*
X105560714Y-115339810D01*
X105560714Y-115196952D01*
X105513095Y-115006476D01*
X105465476Y-114911238D01*
X105370238Y-114816000D01*
X105227380Y-114768381D01*
X105132142Y-114768381D01*
X104989285Y-114816000D01*
X104941666Y-114863619D01*
X104465476Y-115768381D02*
X104275000Y-115768381D01*
X104179761Y-115720762D01*
X104132142Y-115673143D01*
X104036904Y-115530286D01*
X103989285Y-115339810D01*
X103989285Y-114958857D01*
X104036904Y-114863619D01*
X104084523Y-114816000D01*
X104179761Y-114768381D01*
X104370238Y-114768381D01*
X104465476Y-114816000D01*
X104513095Y-114863619D01*
X104560714Y-114958857D01*
X104560714Y-115196952D01*
X104513095Y-115292190D01*
X104465476Y-115339810D01*
X104370238Y-115387429D01*
X104179761Y-115387429D01*
X104084523Y-115339810D01*
X104036904Y-115292190D01*
X103989285Y-115196952D01*
X43913143Y-101052334D02*
X43960762Y-101004715D01*
X44008381Y-100861858D01*
X44008381Y-100766620D01*
X43960762Y-100623762D01*
X43865524Y-100528524D01*
X43770286Y-100480905D01*
X43579810Y-100433286D01*
X43436952Y-100433286D01*
X43246476Y-100480905D01*
X43151238Y-100528524D01*
X43056000Y-100623762D01*
X43008381Y-100766620D01*
X43008381Y-100861858D01*
X43056000Y-101004715D01*
X43103619Y-101052334D01*
X44008381Y-102004715D02*
X44008381Y-101433286D01*
X44008381Y-101719000D02*
X43008381Y-101719000D01*
X43151238Y-101623762D01*
X43246476Y-101528524D01*
X43294095Y-101433286D01*
X104401857Y-78176381D02*
X104735191Y-77700190D01*
X104973286Y-78176381D02*
X104973286Y-77176381D01*
X104592333Y-77176381D01*
X104497095Y-77224000D01*
X104449476Y-77271619D01*
X104401857Y-77366857D01*
X104401857Y-77509714D01*
X104449476Y-77604952D01*
X104497095Y-77652571D01*
X104592333Y-77700190D01*
X104973286Y-77700190D01*
X103449476Y-78176381D02*
X104020905Y-78176381D01*
X103735191Y-78176381D02*
X103735191Y-77176381D01*
X103830429Y-77319238D01*
X103925667Y-77414476D01*
X104020905Y-77462095D01*
X103116143Y-77176381D02*
X102497095Y-77176381D01*
X102830429Y-77557333D01*
X102687571Y-77557333D01*
X102592333Y-77604952D01*
X102544714Y-77652571D01*
X102497095Y-77747810D01*
X102497095Y-77985905D01*
X102544714Y-78081143D01*
X102592333Y-78128762D01*
X102687571Y-78176381D01*
X102973286Y-78176381D01*
X103068524Y-78128762D01*
X103116143Y-78081143D01*
X104401857Y-79827381D02*
X104735191Y-79351190D01*
X104973286Y-79827381D02*
X104973286Y-78827381D01*
X104592333Y-78827381D01*
X104497095Y-78875000D01*
X104449476Y-78922619D01*
X104401857Y-79017857D01*
X104401857Y-79160714D01*
X104449476Y-79255952D01*
X104497095Y-79303571D01*
X104592333Y-79351190D01*
X104973286Y-79351190D01*
X103449476Y-79827381D02*
X104020905Y-79827381D01*
X103735191Y-79827381D02*
X103735191Y-78827381D01*
X103830429Y-78970238D01*
X103925667Y-79065476D01*
X104020905Y-79113095D01*
X102592333Y-79160714D02*
X102592333Y-79827381D01*
X102830429Y-78779762D02*
X103068524Y-79494048D01*
X102449476Y-79494048D01*
X101158381Y-60596543D02*
X100682190Y-60263209D01*
X101158381Y-60025114D02*
X100158381Y-60025114D01*
X100158381Y-60406067D01*
X100206000Y-60501305D01*
X100253619Y-60548924D01*
X100348857Y-60596543D01*
X100491714Y-60596543D01*
X100586952Y-60548924D01*
X100634571Y-60501305D01*
X100682190Y-60406067D01*
X100682190Y-60025114D01*
X101158381Y-61548924D02*
X101158381Y-60977495D01*
X101158381Y-61263209D02*
X100158381Y-61263209D01*
X100301238Y-61167971D01*
X100396476Y-61072733D01*
X100444095Y-60977495D01*
X100158381Y-62406067D02*
X100158381Y-62215590D01*
X100206000Y-62120352D01*
X100253619Y-62072733D01*
X100396476Y-61977495D01*
X100586952Y-61929876D01*
X100967905Y-61929876D01*
X101063143Y-61977495D01*
X101110762Y-62025114D01*
X101158381Y-62120352D01*
X101158381Y-62310829D01*
X101110762Y-62406067D01*
X101063143Y-62453686D01*
X100967905Y-62501305D01*
X100729810Y-62501305D01*
X100634571Y-62453686D01*
X100586952Y-62406067D01*
X100539333Y-62310829D01*
X100539333Y-62120352D01*
X100586952Y-62025114D01*
X100634571Y-61977495D01*
X100729810Y-61929876D01*
X94564381Y-60596543D02*
X94088190Y-60263209D01*
X94564381Y-60025114D02*
X93564381Y-60025114D01*
X93564381Y-60406067D01*
X93612000Y-60501305D01*
X93659619Y-60548924D01*
X93754857Y-60596543D01*
X93897714Y-60596543D01*
X93992952Y-60548924D01*
X94040571Y-60501305D01*
X94088190Y-60406067D01*
X94088190Y-60025114D01*
X94564381Y-61548924D02*
X94564381Y-60977495D01*
X94564381Y-61263209D02*
X93564381Y-61263209D01*
X93707238Y-61167971D01*
X93802476Y-61072733D01*
X93850095Y-60977495D01*
X93564381Y-61882257D02*
X93564381Y-62548924D01*
X94564381Y-62120352D01*
X113350381Y-60596543D02*
X112874190Y-60263209D01*
X113350381Y-60025114D02*
X112350381Y-60025114D01*
X112350381Y-60406067D01*
X112398000Y-60501305D01*
X112445619Y-60548924D01*
X112540857Y-60596543D01*
X112683714Y-60596543D01*
X112778952Y-60548924D01*
X112826571Y-60501305D01*
X112874190Y-60406067D01*
X112874190Y-60025114D01*
X113350381Y-61548924D02*
X113350381Y-60977495D01*
X113350381Y-61263209D02*
X112350381Y-61263209D01*
X112493238Y-61167971D01*
X112588476Y-61072733D01*
X112636095Y-60977495D01*
X112778952Y-62120352D02*
X112731333Y-62025114D01*
X112683714Y-61977495D01*
X112588476Y-61929876D01*
X112540857Y-61929876D01*
X112445619Y-61977495D01*
X112398000Y-62025114D01*
X112350381Y-62120352D01*
X112350381Y-62310829D01*
X112398000Y-62406067D01*
X112445619Y-62453686D01*
X112540857Y-62501305D01*
X112588476Y-62501305D01*
X112683714Y-62453686D01*
X112731333Y-62406067D01*
X112778952Y-62310829D01*
X112778952Y-62120352D01*
X112826571Y-62025114D01*
X112874190Y-61977495D01*
X112969429Y-61929876D01*
X113159905Y-61929876D01*
X113255143Y-61977495D01*
X113302762Y-62025114D01*
X113350381Y-62120352D01*
X113350381Y-62310829D01*
X113302762Y-62406067D01*
X113255143Y-62453686D01*
X113159905Y-62501305D01*
X112969429Y-62501305D01*
X112874190Y-62453686D01*
X112826571Y-62406067D01*
X112778952Y-62310829D01*
X106705581Y-60596543D02*
X106229390Y-60263209D01*
X106705581Y-60025114D02*
X105705581Y-60025114D01*
X105705581Y-60406067D01*
X105753200Y-60501305D01*
X105800819Y-60548924D01*
X105896057Y-60596543D01*
X106038914Y-60596543D01*
X106134152Y-60548924D01*
X106181771Y-60501305D01*
X106229390Y-60406067D01*
X106229390Y-60025114D01*
X106705581Y-61548924D02*
X106705581Y-60977495D01*
X106705581Y-61263209D02*
X105705581Y-61263209D01*
X105848438Y-61167971D01*
X105943676Y-61072733D01*
X105991295Y-60977495D01*
X106705581Y-62025114D02*
X106705581Y-62215590D01*
X106657962Y-62310829D01*
X106610343Y-62358448D01*
X106467486Y-62453686D01*
X106277010Y-62501305D01*
X105896057Y-62501305D01*
X105800819Y-62453686D01*
X105753200Y-62406067D01*
X105705581Y-62310829D01*
X105705581Y-62120352D01*
X105753200Y-62025114D01*
X105800819Y-61977495D01*
X105896057Y-61929876D01*
X106134152Y-61929876D01*
X106229390Y-61977495D01*
X106277010Y-62025114D01*
X106324629Y-62120352D01*
X106324629Y-62310829D01*
X106277010Y-62406067D01*
X106229390Y-62453686D01*
X106134152Y-62501305D01*
X37890438Y-76682219D02*
X37985676Y-76634600D01*
X38080914Y-76539362D01*
X38223771Y-76396505D01*
X38319010Y-76348886D01*
X38414248Y-76348886D01*
X38366629Y-76586981D02*
X38461867Y-76539362D01*
X38557105Y-76444124D01*
X38604724Y-76253648D01*
X38604724Y-75920314D01*
X38557105Y-75729838D01*
X38461867Y-75634600D01*
X38366629Y-75586981D01*
X38176152Y-75586981D01*
X38080914Y-75634600D01*
X37985676Y-75729838D01*
X37938057Y-75920314D01*
X37938057Y-76253648D01*
X37985676Y-76444124D01*
X38080914Y-76539362D01*
X38176152Y-76586981D01*
X38366629Y-76586981D01*
X37557105Y-75682219D02*
X37509486Y-75634600D01*
X37414248Y-75586981D01*
X37176152Y-75586981D01*
X37080914Y-75634600D01*
X37033295Y-75682219D01*
X36985676Y-75777457D01*
X36985676Y-75872695D01*
X37033295Y-76015552D01*
X37604724Y-76586981D01*
X36985676Y-76586981D01*
X92150819Y-71558162D02*
X92103200Y-71462924D01*
X92007962Y-71367686D01*
X91865105Y-71224829D01*
X91817486Y-71129590D01*
X91817486Y-71034352D01*
X92055581Y-71081971D02*
X92007962Y-70986733D01*
X91912724Y-70891495D01*
X91722248Y-70843876D01*
X91388914Y-70843876D01*
X91198438Y-70891495D01*
X91103200Y-70986733D01*
X91055581Y-71081971D01*
X91055581Y-71272448D01*
X91103200Y-71367686D01*
X91198438Y-71462924D01*
X91388914Y-71510543D01*
X91722248Y-71510543D01*
X91912724Y-71462924D01*
X92007962Y-71367686D01*
X92055581Y-71272448D01*
X92055581Y-71081971D01*
X91388914Y-72367686D02*
X92055581Y-72367686D01*
X91007962Y-72129590D02*
X91722248Y-71891495D01*
X91722248Y-72510543D01*
X73913619Y-71507362D02*
X73866000Y-71412124D01*
X73770762Y-71316886D01*
X73627905Y-71174029D01*
X73580286Y-71078790D01*
X73580286Y-70983552D01*
X73818381Y-71031171D02*
X73770762Y-70935933D01*
X73675524Y-70840695D01*
X73485048Y-70793076D01*
X73151714Y-70793076D01*
X72961238Y-70840695D01*
X72866000Y-70935933D01*
X72818381Y-71031171D01*
X72818381Y-71221648D01*
X72866000Y-71316886D01*
X72961238Y-71412124D01*
X73151714Y-71459743D01*
X73485048Y-71459743D01*
X73675524Y-71412124D01*
X73770762Y-71316886D01*
X73818381Y-71221648D01*
X73818381Y-71031171D01*
X72818381Y-71793076D02*
X72818381Y-72459743D01*
X73818381Y-72031171D01*
X47288438Y-82705819D02*
X47383676Y-82658200D01*
X47478914Y-82562962D01*
X47621771Y-82420105D01*
X47717010Y-82372486D01*
X47812248Y-82372486D01*
X47764629Y-82610581D02*
X47859867Y-82562962D01*
X47955105Y-82467724D01*
X48002724Y-82277248D01*
X48002724Y-81943914D01*
X47955105Y-81753438D01*
X47859867Y-81658200D01*
X47764629Y-81610581D01*
X47574152Y-81610581D01*
X47478914Y-81658200D01*
X47383676Y-81753438D01*
X47336057Y-81943914D01*
X47336057Y-82277248D01*
X47383676Y-82467724D01*
X47478914Y-82562962D01*
X47574152Y-82610581D01*
X47764629Y-82610581D01*
X46764629Y-82039152D02*
X46859867Y-81991533D01*
X46907486Y-81943914D01*
X46955105Y-81848676D01*
X46955105Y-81801057D01*
X46907486Y-81705819D01*
X46859867Y-81658200D01*
X46764629Y-81610581D01*
X46574152Y-81610581D01*
X46478914Y-81658200D01*
X46431295Y-81705819D01*
X46383676Y-81801057D01*
X46383676Y-81848676D01*
X46431295Y-81943914D01*
X46478914Y-81991533D01*
X46574152Y-82039152D01*
X46764629Y-82039152D01*
X46859867Y-82086771D01*
X46907486Y-82134390D01*
X46955105Y-82229629D01*
X46955105Y-82420105D01*
X46907486Y-82515343D01*
X46859867Y-82562962D01*
X46764629Y-82610581D01*
X46574152Y-82610581D01*
X46478914Y-82562962D01*
X46431295Y-82515343D01*
X46383676Y-82420105D01*
X46383676Y-82229629D01*
X46431295Y-82134390D01*
X46478914Y-82086771D01*
X46574152Y-82039152D01*
X83057619Y-71507362D02*
X83010000Y-71412124D01*
X82914762Y-71316886D01*
X82771905Y-71174029D01*
X82724286Y-71078790D01*
X82724286Y-70983552D01*
X82962381Y-71031171D02*
X82914762Y-70935933D01*
X82819524Y-70840695D01*
X82629048Y-70793076D01*
X82295714Y-70793076D01*
X82105238Y-70840695D01*
X82010000Y-70935933D01*
X81962381Y-71031171D01*
X81962381Y-71221648D01*
X82010000Y-71316886D01*
X82105238Y-71412124D01*
X82295714Y-71459743D01*
X82629048Y-71459743D01*
X82819524Y-71412124D01*
X82914762Y-71316886D01*
X82962381Y-71221648D01*
X82962381Y-71031171D01*
X82962381Y-72412124D02*
X82962381Y-71840695D01*
X82962381Y-72126409D02*
X81962381Y-72126409D01*
X82105238Y-72031171D01*
X82200476Y-71935933D01*
X82248095Y-71840695D01*
X67817619Y-111537762D02*
X67770000Y-111442524D01*
X67674762Y-111347286D01*
X67531905Y-111204429D01*
X67484286Y-111109190D01*
X67484286Y-111013952D01*
X67722381Y-111061571D02*
X67674762Y-110966333D01*
X67579524Y-110871095D01*
X67389048Y-110823476D01*
X67055714Y-110823476D01*
X66865238Y-110871095D01*
X66770000Y-110966333D01*
X66722381Y-111061571D01*
X66722381Y-111252048D01*
X66770000Y-111347286D01*
X66865238Y-111442524D01*
X67055714Y-111490143D01*
X67389048Y-111490143D01*
X67579524Y-111442524D01*
X67674762Y-111347286D01*
X67722381Y-111252048D01*
X67722381Y-111061571D01*
X66722381Y-112347286D02*
X66722381Y-112156809D01*
X66770000Y-112061571D01*
X66817619Y-112013952D01*
X66960476Y-111918714D01*
X67150952Y-111871095D01*
X67531905Y-111871095D01*
X67627143Y-111918714D01*
X67674762Y-111966333D01*
X67722381Y-112061571D01*
X67722381Y-112252048D01*
X67674762Y-112347286D01*
X67627143Y-112394905D01*
X67531905Y-112442524D01*
X67293810Y-112442524D01*
X67198571Y-112394905D01*
X67150952Y-112347286D01*
X67103333Y-112252048D01*
X67103333Y-112061571D01*
X67150952Y-111966333D01*
X67198571Y-111918714D01*
X67293810Y-111871095D01*
D17*
X65472733Y-141946085D02*
X65134067Y-141793685D01*
X65472733Y-141684828D02*
X64761533Y-141684828D01*
X64761533Y-141859000D01*
X64795400Y-141902542D01*
X64829267Y-141924314D01*
X64897000Y-141946085D01*
X64998600Y-141946085D01*
X65066333Y-141924314D01*
X65100200Y-141902542D01*
X65134067Y-141859000D01*
X65134067Y-141684828D01*
X65472733Y-142381514D02*
X65472733Y-142120257D01*
X65472733Y-142250885D02*
X64761533Y-142250885D01*
X64863133Y-142207342D01*
X64930867Y-142163800D01*
X64964733Y-142120257D01*
X65472733Y-142816943D02*
X65472733Y-142555686D01*
X65472733Y-142686314D02*
X64761533Y-142686314D01*
X64863133Y-142642771D01*
X64930867Y-142599229D01*
X64964733Y-142555686D01*
X75632733Y-141946085D02*
X75294067Y-141793685D01*
X75632733Y-141684828D02*
X74921533Y-141684828D01*
X74921533Y-141859000D01*
X74955400Y-141902542D01*
X74989267Y-141924314D01*
X75057000Y-141946085D01*
X75158600Y-141946085D01*
X75226333Y-141924314D01*
X75260200Y-141902542D01*
X75294067Y-141859000D01*
X75294067Y-141684828D01*
X75632733Y-142381514D02*
X75632733Y-142120257D01*
X75632733Y-142250885D02*
X74921533Y-142250885D01*
X75023133Y-142207342D01*
X75090867Y-142163800D01*
X75124733Y-142120257D01*
X74989267Y-142555686D02*
X74955400Y-142577457D01*
X74921533Y-142621000D01*
X74921533Y-142729857D01*
X74955400Y-142773400D01*
X74989267Y-142795171D01*
X75057000Y-142816943D01*
X75124733Y-142816943D01*
X75226333Y-142795171D01*
X75632733Y-142533914D01*
X75632733Y-142816943D01*
X62805733Y-141946085D02*
X62467067Y-141793685D01*
X62805733Y-141684828D02*
X62094533Y-141684828D01*
X62094533Y-141859000D01*
X62128400Y-141902542D01*
X62162267Y-141924314D01*
X62230000Y-141946085D01*
X62331600Y-141946085D01*
X62399333Y-141924314D01*
X62433200Y-141902542D01*
X62467067Y-141859000D01*
X62467067Y-141684828D01*
X62162267Y-142120257D02*
X62128400Y-142142028D01*
X62094533Y-142185571D01*
X62094533Y-142294428D01*
X62128400Y-142337971D01*
X62162267Y-142359742D01*
X62230000Y-142381514D01*
X62297733Y-142381514D01*
X62399333Y-142359742D01*
X62805733Y-142098485D01*
X62805733Y-142381514D01*
X62094533Y-142664543D02*
X62094533Y-142708086D01*
X62128400Y-142751629D01*
X62162267Y-142773400D01*
X62230000Y-142795171D01*
X62365467Y-142816943D01*
X62534800Y-142816943D01*
X62670267Y-142795171D01*
X62738000Y-142773400D01*
X62771867Y-142751629D01*
X62805733Y-142708086D01*
X62805733Y-142664543D01*
X62771867Y-142621000D01*
X62738000Y-142599229D01*
X62670267Y-142577457D01*
X62534800Y-142555686D01*
X62365467Y-142555686D01*
X62230000Y-142577457D01*
X62162267Y-142599229D01*
X62128400Y-142621000D01*
X62094533Y-142664543D01*
X72965733Y-141946085D02*
X72627067Y-141793685D01*
X72965733Y-141684828D02*
X72254533Y-141684828D01*
X72254533Y-141859000D01*
X72288400Y-141902542D01*
X72322267Y-141924314D01*
X72390000Y-141946085D01*
X72491600Y-141946085D01*
X72559333Y-141924314D01*
X72593200Y-141902542D01*
X72627067Y-141859000D01*
X72627067Y-141684828D01*
X72322267Y-142120257D02*
X72288400Y-142142028D01*
X72254533Y-142185571D01*
X72254533Y-142294428D01*
X72288400Y-142337971D01*
X72322267Y-142359742D01*
X72390000Y-142381514D01*
X72457733Y-142381514D01*
X72559333Y-142359742D01*
X72965733Y-142098485D01*
X72965733Y-142381514D01*
X72965733Y-142816943D02*
X72965733Y-142555686D01*
X72965733Y-142686314D02*
X72254533Y-142686314D01*
X72356133Y-142642771D01*
X72423867Y-142599229D01*
X72457733Y-142555686D01*
X60265733Y-141946085D02*
X59927067Y-141793685D01*
X60265733Y-141684828D02*
X59554533Y-141684828D01*
X59554533Y-141859000D01*
X59588400Y-141902542D01*
X59622267Y-141924314D01*
X59690000Y-141946085D01*
X59791600Y-141946085D01*
X59859333Y-141924314D01*
X59893200Y-141902542D01*
X59927067Y-141859000D01*
X59927067Y-141684828D01*
X59622267Y-142120257D02*
X59588400Y-142142028D01*
X59554533Y-142185571D01*
X59554533Y-142294428D01*
X59588400Y-142337971D01*
X59622267Y-142359742D01*
X59690000Y-142381514D01*
X59757733Y-142381514D01*
X59859333Y-142359742D01*
X60265733Y-142098485D01*
X60265733Y-142381514D01*
X59622267Y-142555686D02*
X59588400Y-142577457D01*
X59554533Y-142621000D01*
X59554533Y-142729857D01*
X59588400Y-142773400D01*
X59622267Y-142795171D01*
X59690000Y-142816943D01*
X59757733Y-142816943D01*
X59859333Y-142795171D01*
X60265733Y-142533914D01*
X60265733Y-142816943D01*
X70552733Y-141946085D02*
X70214067Y-141793685D01*
X70552733Y-141684828D02*
X69841533Y-141684828D01*
X69841533Y-141859000D01*
X69875400Y-141902542D01*
X69909267Y-141924314D01*
X69977000Y-141946085D01*
X70078600Y-141946085D01*
X70146333Y-141924314D01*
X70180200Y-141902542D01*
X70214067Y-141859000D01*
X70214067Y-141684828D01*
X69909267Y-142120257D02*
X69875400Y-142142028D01*
X69841533Y-142185571D01*
X69841533Y-142294428D01*
X69875400Y-142337971D01*
X69909267Y-142359742D01*
X69977000Y-142381514D01*
X70044733Y-142381514D01*
X70146333Y-142359742D01*
X70552733Y-142098485D01*
X70552733Y-142381514D01*
X69841533Y-142533914D02*
X69841533Y-142816943D01*
X70112467Y-142664543D01*
X70112467Y-142729857D01*
X70146333Y-142773400D01*
X70180200Y-142795171D01*
X70247933Y-142816943D01*
X70417267Y-142816943D01*
X70485000Y-142795171D01*
X70518867Y-142773400D01*
X70552733Y-142729857D01*
X70552733Y-142599229D01*
X70518867Y-142555686D01*
X70485000Y-142533914D01*
X57725733Y-141946085D02*
X57387067Y-141793685D01*
X57725733Y-141684828D02*
X57014533Y-141684828D01*
X57014533Y-141859000D01*
X57048400Y-141902542D01*
X57082267Y-141924314D01*
X57150000Y-141946085D01*
X57251600Y-141946085D01*
X57319333Y-141924314D01*
X57353200Y-141902542D01*
X57387067Y-141859000D01*
X57387067Y-141684828D01*
X57082267Y-142120257D02*
X57048400Y-142142028D01*
X57014533Y-142185571D01*
X57014533Y-142294428D01*
X57048400Y-142337971D01*
X57082267Y-142359742D01*
X57150000Y-142381514D01*
X57217733Y-142381514D01*
X57319333Y-142359742D01*
X57725733Y-142098485D01*
X57725733Y-142381514D01*
X57251600Y-142773400D02*
X57725733Y-142773400D01*
X56980667Y-142664543D02*
X57488667Y-142555686D01*
X57488667Y-142838714D01*
X67885733Y-141946085D02*
X67547067Y-141793685D01*
X67885733Y-141684828D02*
X67174533Y-141684828D01*
X67174533Y-141859000D01*
X67208400Y-141902542D01*
X67242267Y-141924314D01*
X67310000Y-141946085D01*
X67411600Y-141946085D01*
X67479333Y-141924314D01*
X67513200Y-141902542D01*
X67547067Y-141859000D01*
X67547067Y-141684828D01*
X67242267Y-142120257D02*
X67208400Y-142142028D01*
X67174533Y-142185571D01*
X67174533Y-142294428D01*
X67208400Y-142337971D01*
X67242267Y-142359742D01*
X67310000Y-142381514D01*
X67377733Y-142381514D01*
X67479333Y-142359742D01*
X67885733Y-142098485D01*
X67885733Y-142381514D01*
X67174533Y-142795171D02*
X67174533Y-142577457D01*
X67513200Y-142555686D01*
X67479333Y-142577457D01*
X67445467Y-142621000D01*
X67445467Y-142729857D01*
X67479333Y-142773400D01*
X67513200Y-142795171D01*
X67580933Y-142816943D01*
X67750267Y-142816943D01*
X67818000Y-142795171D01*
X67851867Y-142773400D01*
X67885733Y-142729857D01*
X67885733Y-142621000D01*
X67851867Y-142577457D01*
X67818000Y-142555686D01*
M02*
