G04 #@! TF.FileFunction,Legend,Top*
%FSLAX46Y46*%
G04 Gerber Fmt 4.6, Leading zero omitted, Abs format (unit mm)*
G04 Created by KiCad (PCBNEW 4.0.6) date 11/02/17 20:58:10*
%MOMM*%
%LPD*%
G01*
G04 APERTURE LIST*
%ADD10C,0.150000*%
%ADD11C,0.381000*%
%ADD12C,0.508000*%
%ADD13C,0.304800*%
%ADD14C,0.127000*%
%ADD15C,0.152400*%
%ADD16C,0.400000*%
%ADD17C,0.271780*%
%ADD18C,0.114300*%
%ADD19C,0.203200*%
G04 APERTURE END LIST*
D10*
D11*
X112171480Y-128427480D02*
X111536480Y-128427480D01*
X111536480Y-128427480D02*
X111536480Y-120807480D01*
X111536480Y-120807480D02*
X112171480Y-120807480D01*
X105821480Y-119537480D02*
X105821480Y-129697480D01*
X105821480Y-129697480D02*
X112171480Y-129697480D01*
X112171480Y-129697480D02*
X112171480Y-119537480D01*
X112171480Y-119537480D02*
X105821480Y-119537480D01*
X116713000Y-138049000D02*
X121285000Y-138049000D01*
X116713000Y-135001000D02*
X121285000Y-135001000D01*
X116205000Y-147193000D02*
X121285000Y-147193000D01*
X105918000Y-135001000D02*
X115951000Y-135001000D01*
X115951000Y-138049000D02*
X105918000Y-138049000D01*
X106045000Y-147193000D02*
X105537000Y-147193000D01*
X116205000Y-147193000D02*
X106045000Y-147193000D01*
X105537000Y-135001000D02*
X105537000Y-147193000D01*
X105537000Y-138049000D02*
X106553000Y-138049000D01*
X105537000Y-135001000D02*
X106553000Y-135001000D01*
X114681000Y-133985000D02*
X114681000Y-135001000D01*
X114681000Y-135509000D02*
X114681000Y-144653000D01*
D12*
X112141000Y-133985000D02*
X112141000Y-144653000D01*
X109601000Y-133985000D02*
X109601000Y-146177000D01*
X107061000Y-133985000D02*
X107061000Y-145669000D01*
X107061000Y-145669000D02*
X107061000Y-146177000D01*
X112141000Y-144653000D02*
X112141000Y-146177000D01*
X114681000Y-133985000D02*
X114681000Y-146177000D01*
X117221000Y-145669000D02*
X117221000Y-146177000D01*
X117221000Y-133985000D02*
X117221000Y-145669000D01*
X119761000Y-133985000D02*
X119761000Y-146177000D01*
D11*
X115697000Y-135001000D02*
X116713000Y-135001000D01*
X115697000Y-138049000D02*
X116713000Y-138049000D01*
X121285000Y-135001000D02*
X121285000Y-147193000D01*
X116205000Y-147193000D02*
X115697000Y-147193000D01*
D10*
X113757000Y-121697000D02*
X113757000Y-122397000D01*
X112557000Y-122397000D02*
X112557000Y-121697000D01*
X56754800Y-145923800D02*
X56754800Y-147293800D01*
X56754800Y-147293800D02*
X58154800Y-147293800D01*
X58154800Y-147293800D02*
X58154800Y-145923800D01*
X59294800Y-145923800D02*
X59294800Y-147293800D01*
X59294800Y-147293800D02*
X60694800Y-147293800D01*
X60694800Y-147293800D02*
X60694800Y-145923800D01*
X61834800Y-145923800D02*
X61834800Y-147293800D01*
X61834800Y-147293800D02*
X63234800Y-147293800D01*
X63234800Y-147293800D02*
X63234800Y-145923800D01*
X64374800Y-145923800D02*
X64374800Y-147293800D01*
X64374800Y-147293800D02*
X65774800Y-147293800D01*
X65774800Y-147293800D02*
X65774800Y-145923800D01*
X66914800Y-145923800D02*
X66914800Y-147293800D01*
X66914800Y-147293800D02*
X68314800Y-147293800D01*
X68314800Y-147293800D02*
X68314800Y-145923800D01*
X69454800Y-145923800D02*
X69454800Y-147293800D01*
X69454800Y-147293800D02*
X70854800Y-147293800D01*
X70854800Y-147293800D02*
X70854800Y-145923800D01*
X71994800Y-145923800D02*
X71994800Y-147293800D01*
X71994800Y-147293800D02*
X73394800Y-147293800D01*
X73394800Y-147293800D02*
X73394800Y-145923800D01*
X74534800Y-145923800D02*
X74534800Y-147293800D01*
X74534800Y-147293800D02*
X75934800Y-147293800D01*
X75934800Y-147293800D02*
X75934800Y-145923800D01*
X54974800Y-145913800D02*
X54974800Y-135873800D01*
X54974800Y-135873800D02*
X77714800Y-135873800D01*
X77714800Y-135873800D02*
X77714800Y-145913800D01*
X77714800Y-145913800D02*
X54974800Y-145913800D01*
D11*
X29591000Y-76708000D02*
X29591000Y-69088000D01*
X38735000Y-76708000D02*
X38735000Y-68580000D01*
X41783000Y-76708000D02*
X41783000Y-68580000D01*
D12*
X32131000Y-75184000D02*
X30607000Y-75184000D01*
X31115000Y-70104000D02*
X30607000Y-70104000D01*
X42799000Y-70104000D02*
X31115000Y-70104000D01*
X42799000Y-72644000D02*
X30607000Y-72644000D01*
X42799000Y-75184000D02*
X32131000Y-75184000D01*
D11*
X41783000Y-68580000D02*
X41783000Y-69596000D01*
X38735000Y-68580000D02*
X38735000Y-69596000D01*
X41783000Y-68580000D02*
X29591000Y-68580000D01*
X41783000Y-76708000D02*
X29591000Y-76708000D01*
X29591000Y-69088000D02*
X29591000Y-68580000D01*
D13*
X75849480Y-86710520D02*
X48163480Y-86710520D01*
X48163480Y-78074520D02*
X75722480Y-78074520D01*
X59466480Y-86583520D02*
X59466480Y-85821520D01*
X59466480Y-85821520D02*
X49306480Y-85821520D01*
X49306480Y-85821520D02*
X49306480Y-78709520D01*
X49306480Y-78709520D02*
X74706480Y-78709520D01*
X74706480Y-78709520D02*
X74706480Y-85821520D01*
X74706480Y-85821520D02*
X64546480Y-85821520D01*
X64546480Y-85821520D02*
X64546480Y-86583520D01*
X48290480Y-86710520D02*
X48290480Y-78074520D01*
X75849480Y-77947520D02*
X75849480Y-86583520D01*
X73690480Y-82770980D02*
X72420480Y-83532980D01*
X73690480Y-84294980D02*
X73690480Y-82770980D01*
X72420480Y-83532980D02*
X73690480Y-84294980D01*
X48163480Y-123791980D02*
X48163480Y-115155980D01*
X75722480Y-115028980D02*
X75722480Y-123664980D01*
X59466480Y-115917980D02*
X59466480Y-115155980D01*
X49306480Y-115917980D02*
X59466480Y-115917980D01*
X49306480Y-123029980D02*
X49306480Y-115917980D01*
X74706480Y-123029980D02*
X49306480Y-123029980D01*
X74706480Y-115917980D02*
X74706480Y-123029980D01*
X64546480Y-115917980D02*
X74706480Y-115917980D01*
X64546480Y-115155980D02*
X64546480Y-115917980D01*
X75849480Y-123664980D02*
X48290480Y-123664980D01*
X48163480Y-115155980D02*
X75849480Y-115155980D01*
X51338480Y-87088980D02*
X51338480Y-114774980D01*
X42829480Y-114774980D02*
X42829480Y-87215980D01*
X51338480Y-103471980D02*
X50576480Y-103471980D01*
X50576480Y-103471980D02*
X50576480Y-113631980D01*
X50576480Y-113631980D02*
X43464480Y-113631980D01*
X43464480Y-113631980D02*
X43464480Y-88231980D01*
X43464480Y-88231980D02*
X50576480Y-88231980D01*
X50576480Y-88231980D02*
X50576480Y-98391980D01*
X50576480Y-98391980D02*
X51338480Y-98391980D01*
X51465480Y-114647980D02*
X42829480Y-114647980D01*
X42702480Y-87088980D02*
X51338480Y-87088980D01*
X84739480Y-87088980D02*
X76103480Y-87088980D01*
X75976480Y-114647980D02*
X84612480Y-114647980D01*
X76865480Y-98391980D02*
X76103480Y-98391980D01*
X76865480Y-88231980D02*
X76865480Y-98391980D01*
X83977480Y-88231980D02*
X76865480Y-88231980D01*
X83977480Y-113631980D02*
X83977480Y-88231980D01*
X76865480Y-113631980D02*
X83977480Y-113631980D01*
X76865480Y-103471980D02*
X76865480Y-113631980D01*
X76103480Y-103471980D02*
X76865480Y-103471980D01*
X84612480Y-114774980D02*
X84612480Y-87215980D01*
X76103480Y-87088980D02*
X76103480Y-114774980D01*
D11*
X114604800Y-119761000D02*
X114604800Y-115189000D01*
X114604800Y-115189000D02*
X118668800Y-115189000D01*
X118668800Y-115189000D02*
X118668800Y-123317000D01*
X118668800Y-123317000D02*
X114604800Y-123317000D01*
X114604800Y-123317000D02*
X114604800Y-119761000D01*
D12*
X110998000Y-65024000D02*
X110998000Y-52832000D01*
X113538000Y-54356000D02*
X113538000Y-52832000D01*
X118618000Y-53340000D02*
X118618000Y-52832000D01*
X118618000Y-65024000D02*
X118618000Y-53340000D01*
X116078000Y-65024000D02*
X116078000Y-52832000D01*
X113538000Y-65024000D02*
X113538000Y-54356000D01*
D11*
X110998000Y-63500000D02*
X110998000Y-54356000D01*
X110998000Y-65024000D02*
X110998000Y-64008000D01*
X120142000Y-64008000D02*
X119126000Y-64008000D01*
X120142000Y-60960000D02*
X119126000Y-60960000D01*
X120142000Y-64008000D02*
X120142000Y-51816000D01*
X109474000Y-64008000D02*
X109474000Y-51816000D01*
X109474000Y-51816000D02*
X119634000Y-51816000D01*
X119634000Y-51816000D02*
X120142000Y-51816000D01*
X109728000Y-60960000D02*
X119761000Y-60960000D01*
X119761000Y-64008000D02*
X109728000Y-64008000D01*
X87630000Y-51816000D02*
X95250000Y-51816000D01*
X87630000Y-60960000D02*
X95758000Y-60960000D01*
X87630000Y-64008000D02*
X95758000Y-64008000D01*
D12*
X89154000Y-54356000D02*
X89154000Y-52832000D01*
X94234000Y-53340000D02*
X94234000Y-52832000D01*
X94234000Y-65024000D02*
X94234000Y-53340000D01*
X91694000Y-65024000D02*
X91694000Y-52832000D01*
X89154000Y-65024000D02*
X89154000Y-54356000D01*
D11*
X95758000Y-64008000D02*
X94742000Y-64008000D01*
X95758000Y-60960000D02*
X94742000Y-60960000D01*
X95758000Y-64008000D02*
X95758000Y-51816000D01*
X87630000Y-64008000D02*
X87630000Y-51816000D01*
X95250000Y-51816000D02*
X95758000Y-51816000D01*
X109169200Y-70154800D02*
X109169200Y-70789800D01*
X109169200Y-70789800D02*
X101549200Y-70789800D01*
X101549200Y-70789800D02*
X101549200Y-70154800D01*
X100279200Y-76504800D02*
X110439200Y-76504800D01*
X110439200Y-76504800D02*
X110439200Y-70154800D01*
X110439200Y-70154800D02*
X100279200Y-70154800D01*
X100279200Y-70154800D02*
X100279200Y-76504800D01*
X60071000Y-51816000D02*
X67691000Y-51816000D01*
X60071000Y-60960000D02*
X68199000Y-60960000D01*
X60071000Y-64008000D02*
X68199000Y-64008000D01*
D12*
X61595000Y-54356000D02*
X61595000Y-52832000D01*
X66675000Y-53340000D02*
X66675000Y-52832000D01*
X66675000Y-65024000D02*
X66675000Y-53340000D01*
X64135000Y-65024000D02*
X64135000Y-52832000D01*
X61595000Y-65024000D02*
X61595000Y-54356000D01*
D11*
X68199000Y-64008000D02*
X67183000Y-64008000D01*
X68199000Y-60960000D02*
X67183000Y-60960000D01*
X68199000Y-64008000D02*
X68199000Y-51816000D01*
X60071000Y-64008000D02*
X60071000Y-51816000D01*
X67691000Y-51816000D02*
X68199000Y-51816000D01*
X51054000Y-51816000D02*
X58674000Y-51816000D01*
X51054000Y-60960000D02*
X59182000Y-60960000D01*
X51054000Y-64008000D02*
X59182000Y-64008000D01*
D12*
X52578000Y-54356000D02*
X52578000Y-52832000D01*
X57658000Y-53340000D02*
X57658000Y-52832000D01*
X57658000Y-65024000D02*
X57658000Y-53340000D01*
X55118000Y-65024000D02*
X55118000Y-52832000D01*
X52578000Y-65024000D02*
X52578000Y-54356000D01*
D11*
X59182000Y-64008000D02*
X58166000Y-64008000D01*
X59182000Y-60960000D02*
X58166000Y-60960000D01*
X59182000Y-64008000D02*
X59182000Y-51816000D01*
X51054000Y-64008000D02*
X51054000Y-51816000D01*
X58674000Y-51816000D02*
X59182000Y-51816000D01*
X42291000Y-51816000D02*
X49911000Y-51816000D01*
X42291000Y-60960000D02*
X50419000Y-60960000D01*
X42291000Y-64008000D02*
X50419000Y-64008000D01*
D12*
X43815000Y-54356000D02*
X43815000Y-52832000D01*
X48895000Y-53340000D02*
X48895000Y-52832000D01*
X48895000Y-65024000D02*
X48895000Y-53340000D01*
X46355000Y-65024000D02*
X46355000Y-52832000D01*
X43815000Y-65024000D02*
X43815000Y-54356000D01*
D11*
X50419000Y-64008000D02*
X49403000Y-64008000D01*
X50419000Y-60960000D02*
X49403000Y-60960000D01*
X50419000Y-64008000D02*
X50419000Y-51816000D01*
X42291000Y-64008000D02*
X42291000Y-51816000D01*
X49911000Y-51816000D02*
X50419000Y-51816000D01*
X33274000Y-51816000D02*
X40894000Y-51816000D01*
X33274000Y-60960000D02*
X41402000Y-60960000D01*
X33274000Y-64008000D02*
X41402000Y-64008000D01*
D12*
X34798000Y-54356000D02*
X34798000Y-52832000D01*
X39878000Y-53340000D02*
X39878000Y-52832000D01*
X39878000Y-65024000D02*
X39878000Y-53340000D01*
X37338000Y-65024000D02*
X37338000Y-52832000D01*
X34798000Y-65024000D02*
X34798000Y-54356000D01*
D11*
X41402000Y-64008000D02*
X40386000Y-64008000D01*
X41402000Y-60960000D02*
X40386000Y-60960000D01*
X41402000Y-64008000D02*
X41402000Y-51816000D01*
X33274000Y-64008000D02*
X33274000Y-51816000D01*
X40894000Y-51816000D02*
X41402000Y-51816000D01*
D10*
X38341300Y-117068600D02*
X38341300Y-114020600D01*
X38341300Y-114020600D02*
X31229300Y-114020600D01*
X31229300Y-114020600D02*
X31229300Y-117068600D01*
X38341300Y-120116600D02*
X38341300Y-120878600D01*
X38341300Y-120878600D02*
X36817300Y-123164600D01*
X36817300Y-123164600D02*
X32753300Y-123164600D01*
X32753300Y-123164600D02*
X31229300Y-120878600D01*
X31229300Y-120878600D02*
X31229300Y-120116600D01*
X36987100Y-112968400D02*
X35987100Y-112968400D01*
X35987100Y-111618400D02*
X36987100Y-111618400D01*
D11*
X98772980Y-131157980D02*
X98772980Y-147032980D01*
X98772980Y-147032980D02*
X84802980Y-147032980D01*
X84802980Y-147032980D02*
X84802980Y-131157980D01*
X84802980Y-131157980D02*
X98772980Y-131157980D01*
D13*
X111663480Y-113822480D02*
X111663480Y-86136480D01*
X120172480Y-86136480D02*
X120172480Y-113695480D01*
X111663480Y-97439480D02*
X112425480Y-97439480D01*
X112425480Y-97439480D02*
X112425480Y-87279480D01*
X112425480Y-87279480D02*
X119537480Y-87279480D01*
X119537480Y-87279480D02*
X119537480Y-112679480D01*
X119537480Y-112679480D02*
X112425480Y-112679480D01*
X112425480Y-112679480D02*
X112425480Y-102519480D01*
X112425480Y-102519480D02*
X111663480Y-102519480D01*
X111663480Y-86136480D02*
X120299480Y-86136480D01*
X120299480Y-113822480D02*
X111663480Y-113822480D01*
X114711480Y-89565480D02*
X115473480Y-88295480D01*
X115473480Y-88295480D02*
X113949480Y-88295480D01*
X113949480Y-88295480D02*
X114711480Y-89565480D01*
D14*
X115570000Y-112776000D02*
X117856000Y-112776000D01*
X117856000Y-112776000D02*
X117856000Y-114046000D01*
X117856000Y-114046000D02*
X115570000Y-114046000D01*
X115570000Y-114046000D02*
X115570000Y-112776000D01*
X110871000Y-131445000D02*
X108585000Y-131445000D01*
X108585000Y-131445000D02*
X108585000Y-130175000D01*
X108585000Y-130175000D02*
X110871000Y-130175000D01*
X110871000Y-130175000D02*
X110871000Y-131445000D01*
X121285000Y-128143000D02*
X121285000Y-130429000D01*
X121285000Y-130429000D02*
X120015000Y-130429000D01*
X120015000Y-130429000D02*
X120015000Y-128143000D01*
X120015000Y-128143000D02*
X121285000Y-128143000D01*
X117856000Y-112268000D02*
X115570000Y-112268000D01*
X115570000Y-112268000D02*
X115570000Y-110998000D01*
X115570000Y-110998000D02*
X117856000Y-110998000D01*
X117856000Y-110998000D02*
X117856000Y-112268000D01*
D15*
X116332000Y-126873000D02*
G75*
G03X116332000Y-126873000I-254000J0D01*
G01*
X113538000Y-126365000D02*
X116586000Y-126365000D01*
X116586000Y-126365000D02*
X116586000Y-129413000D01*
X116586000Y-129413000D02*
X113538000Y-129413000D01*
X113538000Y-129413000D02*
X113538000Y-126365000D01*
D13*
X44577000Y-143510000D02*
X44577000Y-149860000D01*
X44577000Y-149860000D02*
X42037000Y-149860000D01*
X42037000Y-149860000D02*
X42037000Y-143510000D01*
X47117000Y-135890000D02*
X39497000Y-135890000D01*
X39497000Y-135890000D02*
X39497000Y-143510000D01*
X39497000Y-143510000D02*
X47117000Y-143510000D01*
X47117000Y-143510000D02*
X47117000Y-135890000D01*
D14*
X102539800Y-137871200D02*
X102539800Y-140157200D01*
X102539800Y-140157200D02*
X101269800Y-140157200D01*
X101269800Y-140157200D02*
X101269800Y-137871200D01*
X101269800Y-137871200D02*
X102539800Y-137871200D01*
X102108000Y-132334000D02*
X104394000Y-132334000D01*
X104394000Y-132334000D02*
X104394000Y-133604000D01*
X104394000Y-133604000D02*
X102108000Y-133604000D01*
X102108000Y-133604000D02*
X102108000Y-132334000D01*
X100761800Y-137871200D02*
X100761800Y-140157200D01*
X100761800Y-140157200D02*
X99491800Y-140157200D01*
X99491800Y-140157200D02*
X99491800Y-137871200D01*
X99491800Y-137871200D02*
X100761800Y-137871200D01*
X103149400Y-140157200D02*
X103149400Y-137871200D01*
X103149400Y-137871200D02*
X104419400Y-137871200D01*
X104419400Y-137871200D02*
X104419400Y-140157200D01*
X104419400Y-140157200D02*
X103149400Y-140157200D01*
X103149400Y-144983200D02*
X103149400Y-142697200D01*
X103149400Y-142697200D02*
X104419400Y-142697200D01*
X104419400Y-142697200D02*
X104419400Y-144983200D01*
X104419400Y-144983200D02*
X103149400Y-144983200D01*
X100761800Y-142697200D02*
X100761800Y-144983200D01*
X100761800Y-144983200D02*
X99491800Y-144983200D01*
X99491800Y-144983200D02*
X99491800Y-142697200D01*
X99491800Y-142697200D02*
X100761800Y-142697200D01*
X102539800Y-142697200D02*
X102539800Y-144983200D01*
X102539800Y-144983200D02*
X101269800Y-144983200D01*
X101269800Y-144983200D02*
X101269800Y-142697200D01*
X101269800Y-142697200D02*
X102539800Y-142697200D01*
D16*
X83515200Y-147243800D02*
X78435200Y-147243800D01*
X83515200Y-138099800D02*
X78435200Y-138099800D01*
X83515200Y-135051800D02*
X78435200Y-135051800D01*
D11*
X78435200Y-135051800D02*
X78435200Y-147243800D01*
D12*
X82245200Y-144703800D02*
X82245200Y-146227800D01*
X79705200Y-134035800D02*
X79705200Y-146227800D01*
X82245200Y-134035800D02*
X82245200Y-144703800D01*
D11*
X83515200Y-135051800D02*
X83515200Y-147243800D01*
D16*
X54152800Y-147091400D02*
X49072800Y-147091400D01*
X54152800Y-137947400D02*
X49072800Y-137947400D01*
X54152800Y-134899400D02*
X49072800Y-134899400D01*
D11*
X49072800Y-134899400D02*
X49072800Y-147091400D01*
D12*
X52882800Y-144551400D02*
X52882800Y-146075400D01*
X50342800Y-133883400D02*
X50342800Y-146075400D01*
X52882800Y-133883400D02*
X52882800Y-144551400D01*
D11*
X54152800Y-134899400D02*
X54152800Y-147091400D01*
D12*
X98806000Y-65024000D02*
X98806000Y-52832000D01*
X101346000Y-54356000D02*
X101346000Y-52832000D01*
X106426000Y-53340000D02*
X106426000Y-52832000D01*
X106426000Y-65024000D02*
X106426000Y-53340000D01*
X103886000Y-65024000D02*
X103886000Y-52832000D01*
X101346000Y-65024000D02*
X101346000Y-54356000D01*
D11*
X98806000Y-63500000D02*
X98806000Y-54356000D01*
X98806000Y-65024000D02*
X98806000Y-64008000D01*
X107950000Y-64008000D02*
X106934000Y-64008000D01*
X107950000Y-60960000D02*
X106934000Y-60960000D01*
X107950000Y-64008000D02*
X107950000Y-51816000D01*
X97282000Y-64008000D02*
X97282000Y-51816000D01*
X97282000Y-51816000D02*
X107442000Y-51816000D01*
X107442000Y-51816000D02*
X107950000Y-51816000D01*
X97536000Y-60960000D02*
X107569000Y-60960000D01*
X107569000Y-64008000D02*
X97536000Y-64008000D01*
X78486000Y-51816000D02*
X86106000Y-51816000D01*
X78486000Y-60960000D02*
X86614000Y-60960000D01*
X78486000Y-64008000D02*
X86614000Y-64008000D01*
D12*
X80010000Y-54356000D02*
X80010000Y-52832000D01*
X85090000Y-53340000D02*
X85090000Y-52832000D01*
X85090000Y-65024000D02*
X85090000Y-53340000D01*
X82550000Y-65024000D02*
X82550000Y-52832000D01*
X80010000Y-65024000D02*
X80010000Y-54356000D01*
D11*
X86614000Y-64008000D02*
X85598000Y-64008000D01*
X86614000Y-60960000D02*
X85598000Y-60960000D01*
X86614000Y-64008000D02*
X86614000Y-51816000D01*
X78486000Y-64008000D02*
X78486000Y-51816000D01*
X86106000Y-51816000D02*
X86614000Y-51816000D01*
X69342000Y-51816000D02*
X76962000Y-51816000D01*
X69342000Y-60960000D02*
X77470000Y-60960000D01*
X69342000Y-64008000D02*
X77470000Y-64008000D01*
D12*
X70866000Y-54356000D02*
X70866000Y-52832000D01*
X75946000Y-53340000D02*
X75946000Y-52832000D01*
X75946000Y-65024000D02*
X75946000Y-53340000D01*
X73406000Y-65024000D02*
X73406000Y-52832000D01*
X70866000Y-65024000D02*
X70866000Y-54356000D01*
D11*
X77470000Y-64008000D02*
X76454000Y-64008000D01*
X77470000Y-60960000D02*
X76454000Y-60960000D01*
X77470000Y-64008000D02*
X77470000Y-51816000D01*
X69342000Y-64008000D02*
X69342000Y-51816000D01*
X76962000Y-51816000D02*
X77470000Y-51816000D01*
D16*
X37338000Y-147193000D02*
X32258000Y-147193000D01*
X37338000Y-138049000D02*
X32258000Y-138049000D01*
X37338000Y-135001000D02*
X32258000Y-135001000D01*
D11*
X32258000Y-135001000D02*
X32258000Y-147193000D01*
D12*
X36068000Y-144653000D02*
X36068000Y-146177000D01*
X33528000Y-133985000D02*
X33528000Y-146177000D01*
X36068000Y-133985000D02*
X36068000Y-144653000D01*
D11*
X37338000Y-135001000D02*
X37338000Y-147193000D01*
X29591000Y-86106000D02*
X29591000Y-78486000D01*
X38735000Y-86106000D02*
X38735000Y-77978000D01*
X41783000Y-86106000D02*
X41783000Y-77978000D01*
D12*
X32131000Y-84582000D02*
X30607000Y-84582000D01*
X31115000Y-79502000D02*
X30607000Y-79502000D01*
X42799000Y-79502000D02*
X31115000Y-79502000D01*
X42799000Y-82042000D02*
X30607000Y-82042000D01*
X42799000Y-84582000D02*
X32131000Y-84582000D01*
D11*
X41783000Y-77978000D02*
X41783000Y-78994000D01*
X38735000Y-77978000D02*
X38735000Y-78994000D01*
X41783000Y-77978000D02*
X29591000Y-77978000D01*
X41783000Y-86106000D02*
X29591000Y-86106000D01*
X29591000Y-78486000D02*
X29591000Y-77978000D01*
X120015000Y-76835000D02*
X120015000Y-81280000D01*
X120015000Y-81280000D02*
X113665000Y-81280000D01*
X113665000Y-81280000D02*
X113665000Y-76835000D01*
X120015000Y-76835000D02*
X113665000Y-76835000D01*
D17*
X109750800Y-118912398D02*
X108015980Y-118912398D01*
X108015980Y-118498257D01*
X108098590Y-118394722D01*
X108181200Y-118342954D01*
X108346421Y-118291186D01*
X108594253Y-118291186D01*
X108759474Y-118342954D01*
X108842084Y-118394722D01*
X108924695Y-118498257D01*
X108924695Y-118912398D01*
X108015980Y-117928813D02*
X108015980Y-117204066D01*
X109750800Y-117669975D01*
X121498602Y-133753800D02*
X121498602Y-132018980D01*
X121912743Y-132018980D01*
X122016278Y-132101590D01*
X122068046Y-132184200D01*
X122119814Y-132349421D01*
X122119814Y-132597253D01*
X122068046Y-132762474D01*
X122016278Y-132845084D01*
X121912743Y-132927695D01*
X121498602Y-132927695D01*
X122637490Y-133753800D02*
X122844560Y-133753800D01*
X122948095Y-133671189D01*
X122999863Y-133588579D01*
X123103398Y-133340747D01*
X123155166Y-133010305D01*
X123155166Y-132349421D01*
X123103398Y-132184200D01*
X123051631Y-132101590D01*
X122948095Y-132018980D01*
X122741025Y-132018980D01*
X122637490Y-132101590D01*
X122585722Y-132184200D01*
X122533954Y-132349421D01*
X122533954Y-132762474D01*
X122585722Y-132927695D01*
X122637490Y-133010305D01*
X122741025Y-133092916D01*
X122948095Y-133092916D01*
X123051631Y-133010305D01*
X123103398Y-132927695D01*
X123155166Y-132762474D01*
D10*
X113514143Y-119673666D02*
X113561762Y-119721285D01*
X113609381Y-119864142D01*
X113609381Y-119959380D01*
X113561762Y-120102238D01*
X113466524Y-120197476D01*
X113371286Y-120245095D01*
X113180810Y-120292714D01*
X113037952Y-120292714D01*
X112847476Y-120245095D01*
X112752238Y-120197476D01*
X112657000Y-120102238D01*
X112609381Y-119959380D01*
X112609381Y-119864142D01*
X112657000Y-119721285D01*
X112704619Y-119673666D01*
X112942714Y-118816523D02*
X113609381Y-118816523D01*
X112561762Y-119054619D02*
X113276048Y-119292714D01*
X113276048Y-118673666D01*
X64991467Y-135108562D02*
X65134324Y-135156181D01*
X65372420Y-135156181D01*
X65467658Y-135108562D01*
X65515277Y-135060943D01*
X65562896Y-134965705D01*
X65562896Y-134870467D01*
X65515277Y-134775229D01*
X65467658Y-134727610D01*
X65372420Y-134679990D01*
X65181943Y-134632371D01*
X65086705Y-134584752D01*
X65039086Y-134537133D01*
X64991467Y-134441895D01*
X64991467Y-134346657D01*
X65039086Y-134251419D01*
X65086705Y-134203800D01*
X65181943Y-134156181D01*
X65420039Y-134156181D01*
X65562896Y-134203800D01*
X65896229Y-134156181D02*
X66134324Y-135156181D01*
X66324801Y-134441895D01*
X66515277Y-135156181D01*
X66753372Y-134156181D01*
X67658134Y-135156181D02*
X67086705Y-135156181D01*
X67372419Y-135156181D02*
X67372419Y-134156181D01*
X67277181Y-134299038D01*
X67181943Y-134394276D01*
X67086705Y-134441895D01*
D17*
X47266800Y-74345074D02*
X45531980Y-74345074D01*
X47266800Y-73723862D02*
X46275474Y-74189771D01*
X45531980Y-73723862D02*
X46523305Y-74345074D01*
X47266800Y-72688510D02*
X47266800Y-73309722D01*
X47266800Y-72999116D02*
X45531980Y-72999116D01*
X45779811Y-73102651D01*
X45945032Y-73206186D01*
X46027642Y-73309722D01*
X45531980Y-72015531D02*
X45531980Y-71911996D01*
X45614590Y-71808461D01*
X45697200Y-71756693D01*
X45862421Y-71704926D01*
X46192863Y-71653158D01*
X46605916Y-71653158D01*
X46936358Y-71704926D01*
X47101579Y-71756693D01*
X47184189Y-71808461D01*
X47266800Y-71911996D01*
X47266800Y-72015531D01*
X47184189Y-72119067D01*
X47101579Y-72170834D01*
X46936358Y-72222602D01*
X46605916Y-72274370D01*
X46192863Y-72274370D01*
X45862421Y-72222602D01*
X45697200Y-72170834D01*
X45614590Y-72119067D01*
X45531980Y-72015531D01*
D13*
X62747313Y-99640813D02*
X62747313Y-101080147D01*
X62831980Y-101249480D01*
X62916647Y-101334147D01*
X63085980Y-101418813D01*
X63424647Y-101418813D01*
X63593980Y-101334147D01*
X63678647Y-101249480D01*
X63763313Y-101080147D01*
X63763313Y-99640813D01*
X65541314Y-101418813D02*
X64525314Y-101418813D01*
X65033314Y-101418813D02*
X65033314Y-99640813D01*
X64863980Y-99894813D01*
X64694647Y-100064147D01*
X64525314Y-100148813D01*
X111034285Y-114989429D02*
X112050285Y-116513429D01*
X112050285Y-114989429D02*
X111034285Y-116513429D01*
X113429143Y-116513429D02*
X112558286Y-116513429D01*
X112993714Y-116513429D02*
X112993714Y-114989429D01*
X112848571Y-115207143D01*
X112703429Y-115352286D01*
X112558286Y-115424857D01*
D17*
X114005602Y-69364800D02*
X114005602Y-67629980D01*
X114419743Y-67629980D01*
X114523278Y-67712590D01*
X114575046Y-67795200D01*
X114626814Y-67960421D01*
X114626814Y-68208253D01*
X114575046Y-68373474D01*
X114523278Y-68456084D01*
X114419743Y-68538695D01*
X114005602Y-68538695D01*
X115610398Y-67629980D02*
X115092722Y-67629980D01*
X115040954Y-68456084D01*
X115092722Y-68373474D01*
X115196257Y-68290863D01*
X115455095Y-68290863D01*
X115558631Y-68373474D01*
X115610398Y-68456084D01*
X115662166Y-68621305D01*
X115662166Y-69034358D01*
X115610398Y-69199579D01*
X115558631Y-69282189D01*
X115455095Y-69364800D01*
X115196257Y-69364800D01*
X115092722Y-69282189D01*
X115040954Y-69199579D01*
X93431602Y-69364800D02*
X93431602Y-67629980D01*
X94052814Y-69364800D02*
X93586905Y-68373474D01*
X94052814Y-67629980D02*
X93431602Y-68621305D01*
X95036398Y-67629980D02*
X94518722Y-67629980D01*
X94466954Y-68456084D01*
X94518722Y-68373474D01*
X94622257Y-68290863D01*
X94881095Y-68290863D01*
X94984631Y-68373474D01*
X95036398Y-68456084D01*
X95088166Y-68621305D01*
X95088166Y-69034358D01*
X95036398Y-69199579D01*
X94984631Y-69282189D01*
X94881095Y-69364800D01*
X94622257Y-69364800D01*
X94518722Y-69282189D01*
X94466954Y-69199579D01*
X97749602Y-74063800D02*
X97749602Y-72328980D01*
X98163743Y-72328980D01*
X98267278Y-72411590D01*
X98319046Y-72494200D01*
X98370814Y-72659421D01*
X98370814Y-72907253D01*
X98319046Y-73072474D01*
X98267278Y-73155084D01*
X98163743Y-73237695D01*
X97749602Y-73237695D01*
X98733187Y-72328980D02*
X99406166Y-72328980D01*
X99043793Y-72989863D01*
X99199095Y-72989863D01*
X99302631Y-73072474D01*
X99354398Y-73155084D01*
X99406166Y-73320305D01*
X99406166Y-73733358D01*
X99354398Y-73898579D01*
X99302631Y-73981189D01*
X99199095Y-74063800D01*
X98888490Y-74063800D01*
X98784954Y-73981189D01*
X98733187Y-73898579D01*
X65872602Y-69364800D02*
X65872602Y-67629980D01*
X66493814Y-69364800D02*
X66027905Y-68373474D01*
X66493814Y-67629980D02*
X65872602Y-68621305D01*
X67425631Y-68208253D02*
X67425631Y-69364800D01*
X67166793Y-67547369D02*
X66907954Y-68786526D01*
X67580934Y-68786526D01*
X56855602Y-69364800D02*
X56855602Y-67629980D01*
X57476814Y-69364800D02*
X57010905Y-68373474D01*
X57476814Y-67629980D02*
X56855602Y-68621305D01*
X57839187Y-67629980D02*
X58512166Y-67629980D01*
X58149793Y-68290863D01*
X58305095Y-68290863D01*
X58408631Y-68373474D01*
X58460398Y-68456084D01*
X58512166Y-68621305D01*
X58512166Y-69034358D01*
X58460398Y-69199579D01*
X58408631Y-69282189D01*
X58305095Y-69364800D01*
X57994490Y-69364800D01*
X57890954Y-69282189D01*
X57839187Y-69199579D01*
X48092602Y-69364800D02*
X48092602Y-67629980D01*
X48713814Y-69364800D02*
X48247905Y-68373474D01*
X48713814Y-67629980D02*
X48092602Y-68621305D01*
X49127954Y-67795200D02*
X49179722Y-67712590D01*
X49283257Y-67629980D01*
X49542095Y-67629980D01*
X49645631Y-67712590D01*
X49697398Y-67795200D01*
X49749166Y-67960421D01*
X49749166Y-68125642D01*
X49697398Y-68373474D01*
X49076187Y-69364800D01*
X49749166Y-69364800D01*
X30947602Y-62760800D02*
X30947602Y-61025980D01*
X31568814Y-62760800D02*
X31102905Y-61769474D01*
X31568814Y-61025980D02*
X30947602Y-62017305D01*
X32604166Y-62760800D02*
X31982954Y-62760800D01*
X32293560Y-62760800D02*
X32293560Y-61025980D01*
X32190025Y-61273811D01*
X32086490Y-61439032D01*
X31982954Y-61521642D01*
D10*
X40036762Y-119165619D02*
X39941524Y-119118000D01*
X39846286Y-119022762D01*
X39703429Y-118879905D01*
X39608190Y-118832286D01*
X39512952Y-118832286D01*
X39560571Y-119070381D02*
X39465333Y-119022762D01*
X39370095Y-118927524D01*
X39322476Y-118737048D01*
X39322476Y-118403714D01*
X39370095Y-118213238D01*
X39465333Y-118118000D01*
X39560571Y-118070381D01*
X39751048Y-118070381D01*
X39846286Y-118118000D01*
X39941524Y-118213238D01*
X39989143Y-118403714D01*
X39989143Y-118737048D01*
X39941524Y-118927524D01*
X39846286Y-119022762D01*
X39751048Y-119070381D01*
X39560571Y-119070381D01*
X40893905Y-118070381D02*
X40417714Y-118070381D01*
X40370095Y-118546571D01*
X40417714Y-118498952D01*
X40512952Y-118451333D01*
X40751048Y-118451333D01*
X40846286Y-118498952D01*
X40893905Y-118546571D01*
X40941524Y-118641810D01*
X40941524Y-118879905D01*
X40893905Y-118975143D01*
X40846286Y-119022762D01*
X40751048Y-119070381D01*
X40512952Y-119070381D01*
X40417714Y-119022762D01*
X40370095Y-118975143D01*
X35844243Y-110845781D02*
X35510909Y-110369590D01*
X35272814Y-110845781D02*
X35272814Y-109845781D01*
X35653767Y-109845781D01*
X35749005Y-109893400D01*
X35796624Y-109941019D01*
X35844243Y-110036257D01*
X35844243Y-110179114D01*
X35796624Y-110274352D01*
X35749005Y-110321971D01*
X35653767Y-110369590D01*
X35272814Y-110369590D01*
X36796624Y-110845781D02*
X36225195Y-110845781D01*
X36510909Y-110845781D02*
X36510909Y-109845781D01*
X36415671Y-109988638D01*
X36320433Y-110083876D01*
X36225195Y-110131495D01*
X37701386Y-109845781D02*
X37225195Y-109845781D01*
X37177576Y-110321971D01*
X37225195Y-110274352D01*
X37320433Y-110226733D01*
X37558529Y-110226733D01*
X37653767Y-110274352D01*
X37701386Y-110321971D01*
X37749005Y-110417210D01*
X37749005Y-110655305D01*
X37701386Y-110750543D01*
X37653767Y-110798162D01*
X37558529Y-110845781D01*
X37320433Y-110845781D01*
X37225195Y-110798162D01*
X37177576Y-110750543D01*
D13*
X91313000Y-128451429D02*
X91313000Y-129540000D01*
X91240428Y-129757714D01*
X91095285Y-129902857D01*
X90877571Y-129975429D01*
X90732428Y-129975429D01*
X92764428Y-128451429D02*
X92038714Y-128451429D01*
X91966143Y-129177143D01*
X92038714Y-129104571D01*
X92183857Y-129032000D01*
X92546714Y-129032000D01*
X92691857Y-129104571D01*
X92764428Y-129177143D01*
X92837000Y-129322286D01*
X92837000Y-129685143D01*
X92764428Y-129830286D01*
X92691857Y-129902857D01*
X92546714Y-129975429D01*
X92183857Y-129975429D01*
X92038714Y-129902857D01*
X91966143Y-129830286D01*
X90227694Y-129942409D02*
X89719694Y-129216694D01*
X89356837Y-129942409D02*
X89356837Y-128418409D01*
X89937409Y-128418409D01*
X90082551Y-128490980D01*
X90155123Y-128563551D01*
X90227694Y-128708694D01*
X90227694Y-128926409D01*
X90155123Y-129071551D01*
X90082551Y-129144123D01*
X89937409Y-129216694D01*
X89356837Y-129216694D01*
X91316266Y-128418409D02*
X91316266Y-129506980D01*
X91243694Y-129724694D01*
X91098551Y-129869837D01*
X90880837Y-129942409D01*
X90735694Y-129942409D01*
X92840266Y-129942409D02*
X91969409Y-129942409D01*
X92404837Y-129942409D02*
X92404837Y-128418409D01*
X92259694Y-128636123D01*
X92114552Y-128781266D01*
X91969409Y-128853837D01*
X93420838Y-128563551D02*
X93493409Y-128490980D01*
X93638552Y-128418409D01*
X94001409Y-128418409D01*
X94146552Y-128490980D01*
X94219123Y-128563551D01*
X94291695Y-128708694D01*
X94291695Y-128853837D01*
X94219123Y-129071551D01*
X93348266Y-129942409D01*
X94291695Y-129942409D01*
X110913333Y-101261333D02*
X109135333Y-101261333D01*
X109135333Y-100583999D01*
X109220000Y-100414666D01*
X109304667Y-100329999D01*
X109474000Y-100245333D01*
X109728000Y-100245333D01*
X109897333Y-100329999D01*
X109982000Y-100414666D01*
X110066667Y-100583999D01*
X110066667Y-101261333D01*
X110913333Y-98551999D02*
X110913333Y-99567999D01*
X110913333Y-99059999D02*
X109135333Y-99059999D01*
X109389333Y-99229333D01*
X109558667Y-99398666D01*
X109643333Y-99567999D01*
D18*
X116030828Y-114875733D02*
X116030828Y-114164533D01*
X116139685Y-114164533D01*
X116205000Y-114198400D01*
X116248542Y-114266133D01*
X116270314Y-114333867D01*
X116292085Y-114469333D01*
X116292085Y-114570933D01*
X116270314Y-114706400D01*
X116248542Y-114774133D01*
X116205000Y-114841867D01*
X116139685Y-114875733D01*
X116030828Y-114875733D01*
X116727514Y-114875733D02*
X116466257Y-114875733D01*
X116596885Y-114875733D02*
X116596885Y-114164533D01*
X116553342Y-114266133D01*
X116509800Y-114333867D01*
X116466257Y-114367733D01*
X116901686Y-114232267D02*
X116923457Y-114198400D01*
X116967000Y-114164533D01*
X117075857Y-114164533D01*
X117119400Y-114198400D01*
X117141171Y-114232267D01*
X117162943Y-114300000D01*
X117162943Y-114367733D01*
X117141171Y-114469333D01*
X116879914Y-114875733D01*
X117162943Y-114875733D01*
D14*
D18*
X109561085Y-132134429D02*
X109539314Y-132158619D01*
X109474000Y-132182810D01*
X109430457Y-132182810D01*
X109365142Y-132158619D01*
X109321600Y-132110238D01*
X109299828Y-132061857D01*
X109278057Y-131965095D01*
X109278057Y-131892524D01*
X109299828Y-131795762D01*
X109321600Y-131747381D01*
X109365142Y-131699000D01*
X109430457Y-131674810D01*
X109474000Y-131674810D01*
X109539314Y-131699000D01*
X109561085Y-131723190D01*
X109996514Y-132182810D02*
X109735257Y-132182810D01*
X109865885Y-132182810D02*
X109865885Y-131674810D01*
X109822342Y-131747381D01*
X109778800Y-131795762D01*
X109735257Y-131819952D01*
X110170686Y-131723190D02*
X110192457Y-131699000D01*
X110236000Y-131674810D01*
X110344857Y-131674810D01*
X110388400Y-131699000D01*
X110410171Y-131723190D01*
X110431943Y-131771571D01*
X110431943Y-131819952D01*
X110410171Y-131892524D01*
X110148914Y-132182810D01*
X110431943Y-132182810D01*
X119574733Y-129706915D02*
X119236067Y-129859315D01*
X119574733Y-129968172D02*
X118863533Y-129968172D01*
X118863533Y-129794000D01*
X118897400Y-129750458D01*
X118931267Y-129728686D01*
X118999000Y-129706915D01*
X119100600Y-129706915D01*
X119168333Y-129728686D01*
X119202200Y-129750458D01*
X119236067Y-129794000D01*
X119236067Y-129968172D01*
X119100600Y-129315029D02*
X119574733Y-129315029D01*
X118829667Y-129423886D02*
X119337667Y-129532743D01*
X119337667Y-129249715D01*
X118863533Y-128879600D02*
X118863533Y-128966686D01*
X118897400Y-129010229D01*
X118931267Y-129032000D01*
X119032867Y-129075543D01*
X119168333Y-129097314D01*
X119439267Y-129097314D01*
X119507000Y-129075543D01*
X119540867Y-129053771D01*
X119574733Y-129010229D01*
X119574733Y-128923143D01*
X119540867Y-128879600D01*
X119507000Y-128857829D01*
X119439267Y-128836057D01*
X119269933Y-128836057D01*
X119202200Y-128857829D01*
X119168333Y-128879600D01*
X119134467Y-128923143D01*
X119134467Y-129010229D01*
X119168333Y-129053771D01*
X119202200Y-129075543D01*
X119269933Y-129097314D01*
X116292085Y-110684733D02*
X116139685Y-110346067D01*
X116030828Y-110684733D02*
X116030828Y-109973533D01*
X116205000Y-109973533D01*
X116248542Y-110007400D01*
X116270314Y-110041267D01*
X116292085Y-110109000D01*
X116292085Y-110210600D01*
X116270314Y-110278333D01*
X116248542Y-110312200D01*
X116205000Y-110346067D01*
X116030828Y-110346067D01*
X116683971Y-110210600D02*
X116683971Y-110684733D01*
X116575114Y-109939667D02*
X116466257Y-110447667D01*
X116749285Y-110447667D01*
X117141171Y-109973533D02*
X116923457Y-109973533D01*
X116901686Y-110312200D01*
X116923457Y-110278333D01*
X116967000Y-110244467D01*
X117075857Y-110244467D01*
X117119400Y-110278333D01*
X117141171Y-110312200D01*
X117162943Y-110379933D01*
X117162943Y-110549267D01*
X117141171Y-110617000D01*
X117119400Y-110650867D01*
X117075857Y-110684733D01*
X116967000Y-110684733D01*
X116923457Y-110650867D01*
X116901686Y-110617000D01*
D15*
X116954905Y-125300619D02*
X116954905Y-126123095D01*
X117003286Y-126219857D01*
X117051667Y-126268238D01*
X117148429Y-126316619D01*
X117341952Y-126316619D01*
X117438714Y-126268238D01*
X117487095Y-126219857D01*
X117535476Y-126123095D01*
X117535476Y-125300619D01*
X118067667Y-126316619D02*
X118261191Y-126316619D01*
X118357952Y-126268238D01*
X118406333Y-126219857D01*
X118503095Y-126074714D01*
X118551476Y-125881190D01*
X118551476Y-125494143D01*
X118503095Y-125397381D01*
X118454714Y-125349000D01*
X118357952Y-125300619D01*
X118164429Y-125300619D01*
X118067667Y-125349000D01*
X118019286Y-125397381D01*
X117970905Y-125494143D01*
X117970905Y-125736048D01*
X118019286Y-125832810D01*
X118067667Y-125881190D01*
X118164429Y-125929571D01*
X118357952Y-125929571D01*
X118454714Y-125881190D01*
X118503095Y-125832810D01*
X118551476Y-125736048D01*
D19*
X41613667Y-135134048D02*
X41795095Y-135194524D01*
X42097476Y-135194524D01*
X42218429Y-135134048D01*
X42278905Y-135073571D01*
X42339381Y-134952619D01*
X42339381Y-134831667D01*
X42278905Y-134710714D01*
X42218429Y-134650238D01*
X42097476Y-134589762D01*
X41855572Y-134529286D01*
X41734619Y-134468810D01*
X41674143Y-134408333D01*
X41613667Y-134287381D01*
X41613667Y-134166429D01*
X41674143Y-134045476D01*
X41734619Y-133985000D01*
X41855572Y-133924524D01*
X42157952Y-133924524D01*
X42339381Y-133985000D01*
X42762715Y-133924524D02*
X43065096Y-135194524D01*
X43307000Y-134287381D01*
X43548905Y-135194524D01*
X43851286Y-133924524D01*
X44274620Y-134045476D02*
X44335096Y-133985000D01*
X44456048Y-133924524D01*
X44758429Y-133924524D01*
X44879382Y-133985000D01*
X44939858Y-134045476D01*
X45000334Y-134166429D01*
X45000334Y-134287381D01*
X44939858Y-134468810D01*
X44214144Y-135194524D01*
X45000334Y-135194524D01*
D18*
X102175733Y-137109200D02*
X101837067Y-137261600D01*
X102175733Y-137370457D02*
X101464533Y-137370457D01*
X101464533Y-137196285D01*
X101498400Y-137152743D01*
X101532267Y-137130971D01*
X101600000Y-137109200D01*
X101701600Y-137109200D01*
X101769333Y-137130971D01*
X101803200Y-137152743D01*
X101837067Y-137196285D01*
X101837067Y-137370457D01*
X101701600Y-136717314D02*
X102175733Y-136717314D01*
X101430667Y-136826171D02*
X101938667Y-136935028D01*
X101938667Y-136652000D01*
X101142800Y-133290733D02*
X100990400Y-132952067D01*
X100881543Y-133290733D02*
X100881543Y-132579533D01*
X101055715Y-132579533D01*
X101099257Y-132613400D01*
X101121029Y-132647267D01*
X101142800Y-132715000D01*
X101142800Y-132816600D01*
X101121029Y-132884333D01*
X101099257Y-132918200D01*
X101055715Y-132952067D01*
X100881543Y-132952067D01*
X101556457Y-132579533D02*
X101338743Y-132579533D01*
X101316972Y-132918200D01*
X101338743Y-132884333D01*
X101382286Y-132850467D01*
X101491143Y-132850467D01*
X101534686Y-132884333D01*
X101556457Y-132918200D01*
X101578229Y-132985933D01*
X101578229Y-133155267D01*
X101556457Y-133223000D01*
X101534686Y-133256867D01*
X101491143Y-133290733D01*
X101382286Y-133290733D01*
X101338743Y-133256867D01*
X101316972Y-133223000D01*
X100397733Y-137109200D02*
X100059067Y-137261600D01*
X100397733Y-137370457D02*
X99686533Y-137370457D01*
X99686533Y-137196285D01*
X99720400Y-137152743D01*
X99754267Y-137130971D01*
X99822000Y-137109200D01*
X99923600Y-137109200D01*
X99991333Y-137130971D01*
X100025200Y-137152743D01*
X100059067Y-137196285D01*
X100059067Y-137370457D01*
X99686533Y-136956800D02*
X99686533Y-136673771D01*
X99957467Y-136826171D01*
X99957467Y-136760857D01*
X99991333Y-136717314D01*
X100025200Y-136695543D01*
X100092933Y-136673771D01*
X100262267Y-136673771D01*
X100330000Y-136695543D01*
X100363867Y-136717314D01*
X100397733Y-136760857D01*
X100397733Y-136891485D01*
X100363867Y-136935028D01*
X100330000Y-136956800D01*
X104080733Y-137109200D02*
X103742067Y-137261600D01*
X104080733Y-137370457D02*
X103369533Y-137370457D01*
X103369533Y-137196285D01*
X103403400Y-137152743D01*
X103437267Y-137130971D01*
X103505000Y-137109200D01*
X103606600Y-137109200D01*
X103674333Y-137130971D01*
X103708200Y-137152743D01*
X103742067Y-137196285D01*
X103742067Y-137370457D01*
X103369533Y-136717314D02*
X103369533Y-136804400D01*
X103403400Y-136847943D01*
X103437267Y-136869714D01*
X103538867Y-136913257D01*
X103674333Y-136935028D01*
X103945267Y-136935028D01*
X104013000Y-136913257D01*
X104046867Y-136891485D01*
X104080733Y-136847943D01*
X104080733Y-136760857D01*
X104046867Y-136717314D01*
X104013000Y-136695543D01*
X103945267Y-136673771D01*
X103775933Y-136673771D01*
X103708200Y-136695543D01*
X103674333Y-136717314D01*
X103640467Y-136760857D01*
X103640467Y-136847943D01*
X103674333Y-136891485D01*
X103708200Y-136913257D01*
X103775933Y-136935028D01*
X104080733Y-142196457D02*
X103369533Y-142196457D01*
X103369533Y-142087600D01*
X103403400Y-142022285D01*
X103471133Y-141978743D01*
X103538867Y-141956971D01*
X103674333Y-141935200D01*
X103775933Y-141935200D01*
X103911400Y-141956971D01*
X103979133Y-141978743D01*
X104046867Y-142022285D01*
X104080733Y-142087600D01*
X104080733Y-142196457D01*
X103369533Y-141521543D02*
X103369533Y-141739257D01*
X103708200Y-141761028D01*
X103674333Y-141739257D01*
X103640467Y-141695714D01*
X103640467Y-141586857D01*
X103674333Y-141543314D01*
X103708200Y-141521543D01*
X103775933Y-141499771D01*
X103945267Y-141499771D01*
X104013000Y-141521543D01*
X104046867Y-141543314D01*
X104080733Y-141586857D01*
X104080733Y-141695714D01*
X104046867Y-141739257D01*
X104013000Y-141761028D01*
X100397733Y-142196457D02*
X99686533Y-142196457D01*
X99686533Y-142087600D01*
X99720400Y-142022285D01*
X99788133Y-141978743D01*
X99855867Y-141956971D01*
X99991333Y-141935200D01*
X100092933Y-141935200D01*
X100228400Y-141956971D01*
X100296133Y-141978743D01*
X100363867Y-142022285D01*
X100397733Y-142087600D01*
X100397733Y-142196457D01*
X99754267Y-141761028D02*
X99720400Y-141739257D01*
X99686533Y-141695714D01*
X99686533Y-141586857D01*
X99720400Y-141543314D01*
X99754267Y-141521543D01*
X99822000Y-141499771D01*
X99889733Y-141499771D01*
X99991333Y-141521543D01*
X100397733Y-141782800D01*
X100397733Y-141499771D01*
X102175733Y-142196457D02*
X101464533Y-142196457D01*
X101464533Y-142087600D01*
X101498400Y-142022285D01*
X101566133Y-141978743D01*
X101633867Y-141956971D01*
X101769333Y-141935200D01*
X101870933Y-141935200D01*
X102006400Y-141956971D01*
X102074133Y-141978743D01*
X102141867Y-142022285D01*
X102175733Y-142087600D01*
X102175733Y-142196457D01*
X102175733Y-141499771D02*
X102175733Y-141761028D01*
X102175733Y-141630400D02*
X101464533Y-141630400D01*
X101566133Y-141673943D01*
X101633867Y-141717485D01*
X101667733Y-141761028D01*
D17*
X80477602Y-130705800D02*
X80477602Y-128970980D01*
X81098814Y-130705800D02*
X80632905Y-129714474D01*
X81098814Y-128970980D02*
X80477602Y-129962305D01*
X81720025Y-129714474D02*
X81616490Y-129631863D01*
X81564722Y-129549253D01*
X81512954Y-129384032D01*
X81512954Y-129301421D01*
X81564722Y-129136200D01*
X81616490Y-129053590D01*
X81720025Y-128970980D01*
X81927095Y-128970980D01*
X82030631Y-129053590D01*
X82082398Y-129136200D01*
X82134166Y-129301421D01*
X82134166Y-129384032D01*
X82082398Y-129549253D01*
X82030631Y-129631863D01*
X81927095Y-129714474D01*
X81720025Y-129714474D01*
X81616490Y-129797084D01*
X81564722Y-129879695D01*
X81512954Y-130044916D01*
X81512954Y-130375358D01*
X81564722Y-130540579D01*
X81616490Y-130623189D01*
X81720025Y-130705800D01*
X81927095Y-130705800D01*
X82030631Y-130623189D01*
X82082398Y-130540579D01*
X82134166Y-130375358D01*
X82134166Y-130044916D01*
X82082398Y-129879695D01*
X82030631Y-129797084D01*
X81927095Y-129714474D01*
X50038726Y-131112200D02*
X50038726Y-129377380D01*
X50452867Y-129377380D01*
X50556402Y-129459990D01*
X50608170Y-129542600D01*
X50659938Y-129707821D01*
X50659938Y-129955653D01*
X50608170Y-130120874D01*
X50556402Y-130203484D01*
X50452867Y-130286095D01*
X50038726Y-130286095D01*
X51695290Y-131112200D02*
X51074078Y-131112200D01*
X51384684Y-131112200D02*
X51384684Y-129377380D01*
X51281149Y-129625211D01*
X51177614Y-129790432D01*
X51074078Y-129873042D01*
X52368269Y-129377380D02*
X52471804Y-129377380D01*
X52575339Y-129459990D01*
X52627107Y-129542600D01*
X52678874Y-129707821D01*
X52730642Y-130038263D01*
X52730642Y-130451316D01*
X52678874Y-130781758D01*
X52627107Y-130946979D01*
X52575339Y-131029589D01*
X52471804Y-131112200D01*
X52368269Y-131112200D01*
X52264733Y-131029589D01*
X52212966Y-130946979D01*
X52161198Y-130781758D01*
X52109430Y-130451316D01*
X52109430Y-130038263D01*
X52161198Y-129707821D01*
X52212966Y-129542600D01*
X52264733Y-129459990D01*
X52368269Y-129377380D01*
X101813602Y-69364800D02*
X101813602Y-67629980D01*
X102227743Y-67629980D01*
X102331278Y-67712590D01*
X102383046Y-67795200D01*
X102434814Y-67960421D01*
X102434814Y-68208253D01*
X102383046Y-68373474D01*
X102331278Y-68456084D01*
X102227743Y-68538695D01*
X101813602Y-68538695D01*
X103366631Y-68208253D02*
X103366631Y-69364800D01*
X103107793Y-67547369D02*
X102848954Y-68786526D01*
X103521934Y-68786526D01*
X84287602Y-69364800D02*
X84287602Y-67629980D01*
X84908814Y-69364800D02*
X84442905Y-68373474D01*
X84908814Y-67629980D02*
X84287602Y-68621305D01*
X85840631Y-67629980D02*
X85633560Y-67629980D01*
X85530025Y-67712590D01*
X85478257Y-67795200D01*
X85374722Y-68043032D01*
X85322954Y-68373474D01*
X85322954Y-69034358D01*
X85374722Y-69199579D01*
X85426490Y-69282189D01*
X85530025Y-69364800D01*
X85737095Y-69364800D01*
X85840631Y-69282189D01*
X85892398Y-69199579D01*
X85944166Y-69034358D01*
X85944166Y-68621305D01*
X85892398Y-68456084D01*
X85840631Y-68373474D01*
X85737095Y-68290863D01*
X85530025Y-68290863D01*
X85426490Y-68373474D01*
X85374722Y-68456084D01*
X85322954Y-68621305D01*
X75143602Y-69364800D02*
X75143602Y-67629980D01*
X75764814Y-69364800D02*
X75298905Y-68373474D01*
X75764814Y-67629980D02*
X75143602Y-68621305D01*
X76127187Y-67629980D02*
X76851934Y-67629980D01*
X76386025Y-69364800D01*
X34122602Y-130959800D02*
X34122602Y-129224980D01*
X34536743Y-129224980D01*
X34640278Y-129307590D01*
X34692046Y-129390200D01*
X34743814Y-129555421D01*
X34743814Y-129803253D01*
X34692046Y-129968474D01*
X34640278Y-130051084D01*
X34536743Y-130133695D01*
X34122602Y-130133695D01*
X35365025Y-129968474D02*
X35261490Y-129885863D01*
X35209722Y-129803253D01*
X35157954Y-129638032D01*
X35157954Y-129555421D01*
X35209722Y-129390200D01*
X35261490Y-129307590D01*
X35365025Y-129224980D01*
X35572095Y-129224980D01*
X35675631Y-129307590D01*
X35727398Y-129390200D01*
X35779166Y-129555421D01*
X35779166Y-129638032D01*
X35727398Y-129803253D01*
X35675631Y-129885863D01*
X35572095Y-129968474D01*
X35365025Y-129968474D01*
X35261490Y-130051084D01*
X35209722Y-130133695D01*
X35157954Y-130298916D01*
X35157954Y-130629358D01*
X35209722Y-130794579D01*
X35261490Y-130877189D01*
X35365025Y-130959800D01*
X35572095Y-130959800D01*
X35675631Y-130877189D01*
X35727398Y-130794579D01*
X35779166Y-130629358D01*
X35779166Y-130298916D01*
X35727398Y-130133695D01*
X35675631Y-130051084D01*
X35572095Y-129968474D01*
X37106800Y-88686398D02*
X35371980Y-88686398D01*
X37106800Y-88065186D02*
X36115474Y-88531095D01*
X35371980Y-88065186D02*
X36363305Y-88686398D01*
X37106800Y-87547510D02*
X37106800Y-87340440D01*
X37024189Y-87236905D01*
X36941579Y-87185137D01*
X36693747Y-87081602D01*
X36363305Y-87029834D01*
X35702421Y-87029834D01*
X35537200Y-87081602D01*
X35454590Y-87133369D01*
X35371980Y-87236905D01*
X35371980Y-87443975D01*
X35454590Y-87547510D01*
X35537200Y-87599278D01*
X35702421Y-87651046D01*
X36115474Y-87651046D01*
X36280695Y-87599278D01*
X36363305Y-87547510D01*
X36445916Y-87443975D01*
X36445916Y-87236905D01*
X36363305Y-87133369D01*
X36280695Y-87081602D01*
X36115474Y-87029834D01*
D13*
X114644714Y-74984429D02*
X114136714Y-74258714D01*
X113773857Y-74984429D02*
X113773857Y-73460429D01*
X114354429Y-73460429D01*
X114499571Y-73533000D01*
X114572143Y-73605571D01*
X114644714Y-73750714D01*
X114644714Y-73968429D01*
X114572143Y-74113571D01*
X114499571Y-74186143D01*
X114354429Y-74258714D01*
X113773857Y-74258714D01*
X115080143Y-73460429D02*
X115588143Y-74984429D01*
X116096143Y-73460429D01*
X116531572Y-74549000D02*
X117257286Y-74549000D01*
X116386429Y-74984429D02*
X116894429Y-73460429D01*
X117402429Y-74984429D01*
X118781286Y-74984429D02*
X118273286Y-74258714D01*
X117910429Y-74984429D02*
X117910429Y-73460429D01*
X118491001Y-73460429D01*
X118636143Y-73533000D01*
X118708715Y-73605571D01*
X118781286Y-73750714D01*
X118781286Y-73968429D01*
X118708715Y-74113571D01*
X118636143Y-74186143D01*
X118491001Y-74258714D01*
X117910429Y-74258714D01*
X120232715Y-74984429D02*
X119361858Y-74984429D01*
X119797286Y-74984429D02*
X119797286Y-73460429D01*
X119652143Y-73678143D01*
X119507001Y-73823286D01*
X119361858Y-73895857D01*
M02*
