%FSLAX45Y45*%
G04 Gerber Fmt 4.5, Leading zero omitted, Abs format (unit mm)*
G04 Created by KiCad (PCBNEW 4.0.6) date 11/01/17 20:23:53*
%MOMM*%
%LPD*%
G01*
G04 APERTURE LIST*
%ADD10C,0.127000*%
%ADD11C,0.381000*%
%ADD12C,0.200000*%
%ADD13C,0.300000*%
G04 APERTURE END LIST*
D10*
D11*
X2832100Y-14719300D02*
X12369800Y-14719300D01*
X2832100Y-5181600D02*
X2832100Y-14719300D01*
X12369800Y-5181600D02*
X2832100Y-5181600D01*
X12369800Y-5181600D02*
X12369800Y-14719300D01*
D12*
X3160141Y-7706741D02*
X3215259Y-7761859D01*
X3215259Y-7706741D02*
X3160141Y-7761859D01*
X3523361Y-12593701D02*
X3578479Y-12648819D01*
X3578479Y-12593701D02*
X3523361Y-12648819D01*
X3706241Y-10952861D02*
X3761359Y-11007979D01*
X3761359Y-10952861D02*
X3706241Y-11007979D01*
X3843401Y-8915781D02*
X3898519Y-8970899D01*
X3898519Y-8915781D02*
X3843401Y-8970899D01*
X3863721Y-10825861D02*
X3918839Y-10880979D01*
X3918839Y-10825861D02*
X3863721Y-10880979D01*
X3899281Y-11496421D02*
X3954399Y-11551539D01*
X3954399Y-11496421D02*
X3899281Y-11551539D01*
X3904361Y-9230741D02*
X3959479Y-9285859D01*
X3959479Y-9230741D02*
X3904361Y-9285859D01*
X4016121Y-10576941D02*
X4071239Y-10632059D01*
X4071239Y-10576941D02*
X4016121Y-10632059D01*
X4021201Y-11128121D02*
X4076319Y-11183239D01*
X4076319Y-11128121D02*
X4021201Y-11183239D01*
X4127881Y-9555861D02*
X4182999Y-9610979D01*
X4182999Y-9555861D02*
X4127881Y-9610979D01*
X4135501Y-9743821D02*
X4190619Y-9798939D01*
X4190619Y-9743821D02*
X4135501Y-9798939D01*
X4290441Y-12405741D02*
X4345559Y-12460859D01*
X4345559Y-12405741D02*
X4290441Y-12460859D01*
X4300601Y-11740261D02*
X4355719Y-11795379D01*
X4355719Y-11740261D02*
X4300601Y-11795379D01*
X4300601Y-12581001D02*
X4355719Y-12636119D01*
X4355719Y-12581001D02*
X4300601Y-12636119D01*
X4310761Y-12227941D02*
X4365879Y-12283059D01*
X4365879Y-12227941D02*
X4310761Y-12283059D01*
X4732401Y-7591171D02*
X4787519Y-7646289D01*
X4787519Y-7591171D02*
X4732401Y-7646289D01*
X4849241Y-7193661D02*
X4904359Y-7248779D01*
X4904359Y-7193661D02*
X4849241Y-7248779D01*
X5535041Y-12380341D02*
X5590159Y-12435459D01*
X5590159Y-12380341D02*
X5535041Y-12435459D01*
X5738241Y-7188581D02*
X5793359Y-7243699D01*
X5793359Y-7188581D02*
X5738241Y-7243699D01*
X5926201Y-11384661D02*
X5981319Y-11439779D01*
X5981319Y-11384661D02*
X5926201Y-11439779D01*
X6083681Y-11034141D02*
X6138799Y-11089259D01*
X6138799Y-11034141D02*
X6083681Y-11089259D01*
X6083681Y-11262741D02*
X6138799Y-11317859D01*
X6138799Y-11262741D02*
X6083681Y-11317859D01*
X6119241Y-13053441D02*
X6174359Y-13108559D01*
X6174359Y-13053441D02*
X6119241Y-13108559D01*
X6352921Y-7203821D02*
X6408039Y-7258939D01*
X6408039Y-7203821D02*
X6352921Y-7258939D01*
X6474841Y-9294241D02*
X6529959Y-9349359D01*
X6529959Y-9294241D02*
X6474841Y-9349359D01*
X6474841Y-9459341D02*
X6529959Y-9514459D01*
X6529959Y-9459341D02*
X6474841Y-9514459D01*
X6932041Y-10932541D02*
X6987159Y-10987659D01*
X6987159Y-10932541D02*
X6932041Y-10987659D01*
X6932041Y-11110341D02*
X6987159Y-11165459D01*
X6987159Y-11110341D02*
X6932041Y-11165459D01*
X7026021Y-9230741D02*
X7081139Y-9285859D01*
X7081139Y-9230741D02*
X7026021Y-9285859D01*
X7029831Y-9436481D02*
X7084949Y-9491599D01*
X7084949Y-9436481D02*
X7029831Y-9491599D01*
X7059041Y-12520041D02*
X7114159Y-12575159D01*
X7114159Y-12520041D02*
X7059041Y-12575159D01*
X7147941Y-8811641D02*
X7203059Y-8866759D01*
X7203059Y-8811641D02*
X7147941Y-8866759D01*
X7353681Y-10825861D02*
X7408799Y-10880979D01*
X7408799Y-10825861D02*
X7353681Y-10880979D01*
X7424801Y-7803261D02*
X7479919Y-7858379D01*
X7479919Y-7803261D02*
X7424801Y-7858379D01*
X7445121Y-10963021D02*
X7500239Y-11018139D01*
X7500239Y-10963021D02*
X7445121Y-11018139D01*
X7744841Y-11580241D02*
X7799959Y-11635359D01*
X7799959Y-11580241D02*
X7744841Y-11635359D01*
X7821041Y-11745341D02*
X7876159Y-11800459D01*
X7876159Y-11745341D02*
X7821041Y-11800459D01*
X8064881Y-7782941D02*
X8119999Y-7838059D01*
X8119999Y-7782941D02*
X8064881Y-7838059D01*
X8075041Y-11592941D02*
X8130159Y-11648059D01*
X8130159Y-11592941D02*
X8075041Y-11648059D01*
X8202041Y-12520041D02*
X8257159Y-12575159D01*
X8257159Y-12520041D02*
X8202041Y-12575159D01*
X8334121Y-13035661D02*
X8389239Y-13090779D01*
X8389239Y-13035661D02*
X8334121Y-13090779D01*
X8392541Y-12050141D02*
X8447659Y-12105259D01*
X8447659Y-12050141D02*
X8392541Y-12105259D01*
X8420481Y-12583541D02*
X8475599Y-12638659D01*
X8475599Y-12583541D02*
X8420481Y-12638659D01*
X8468741Y-11592941D02*
X8523859Y-11648059D01*
X8523859Y-11592941D02*
X8468741Y-11648059D01*
X8506841Y-11915521D02*
X8561959Y-11970639D01*
X8561959Y-11915521D02*
X8506841Y-11970639D01*
X8583041Y-12342241D02*
X8638159Y-12397359D01*
X8638159Y-12342241D02*
X8583041Y-12397359D01*
X8811641Y-9809861D02*
X8866759Y-9864979D01*
X8866759Y-9809861D02*
X8811641Y-9864979D01*
X8847201Y-7803261D02*
X8902319Y-7858379D01*
X8902319Y-7803261D02*
X8847201Y-7858379D01*
X8913241Y-10462641D02*
X8968359Y-10517759D01*
X8968359Y-10462641D02*
X8913241Y-10517759D01*
X8983091Y-11709781D02*
X9038209Y-11764899D01*
X9038209Y-11709781D02*
X8983091Y-11764899D01*
X9050401Y-10068941D02*
X9105519Y-10124059D01*
X9105519Y-10068941D02*
X9050401Y-10124059D01*
X9088501Y-12647041D02*
X9143619Y-12702159D01*
X9143619Y-12647041D02*
X9088501Y-12702159D01*
X9116441Y-8449691D02*
X9171559Y-8504809D01*
X9171559Y-8449691D02*
X9116441Y-8504809D01*
X9122791Y-8652891D02*
X9177909Y-8708009D01*
X9177909Y-8652891D02*
X9122791Y-8708009D01*
X9122791Y-8862441D02*
X9177909Y-8917559D01*
X9177909Y-8862441D02*
X9122791Y-8917559D01*
X9122791Y-9116441D02*
X9177909Y-9171559D01*
X9177909Y-9116441D02*
X9122791Y-9171559D01*
X9235821Y-11704701D02*
X9290939Y-11759819D01*
X9290939Y-11704701D02*
X9235821Y-11759819D01*
X9259951Y-11958701D02*
X9315069Y-12013819D01*
X9315069Y-11958701D02*
X9259951Y-12013819D01*
X9259951Y-12150471D02*
X9315069Y-12205589D01*
X9315069Y-12150471D02*
X9259951Y-12205589D01*
X9433941Y-7719441D02*
X9489059Y-7774559D01*
X9489059Y-7719441D02*
X9433941Y-7774559D01*
X9588881Y-9032621D02*
X9643999Y-9087739D01*
X9643999Y-9032621D02*
X9588881Y-9087739D01*
X9588881Y-9271381D02*
X9643999Y-9326499D01*
X9643999Y-9271381D02*
X9588881Y-9326499D01*
X9649841Y-8692261D02*
X9704959Y-8747379D01*
X9704959Y-8692261D02*
X9649841Y-8747379D01*
X9654921Y-8463661D02*
X9710039Y-8518779D01*
X9710039Y-8463661D02*
X9654921Y-8518779D01*
X9741281Y-9378061D02*
X9796399Y-9433179D01*
X9796399Y-9378061D02*
X9741281Y-9433179D01*
X9787001Y-7721981D02*
X9842119Y-7777099D01*
X9842119Y-7721981D02*
X9787001Y-7777099D01*
X9792081Y-11841861D02*
X9847199Y-11896979D01*
X9847199Y-11841861D02*
X9792081Y-11896979D01*
X9792081Y-12433681D02*
X9847199Y-12488799D01*
X9847199Y-12433681D02*
X9792081Y-12488799D01*
X9891141Y-11275441D02*
X9946259Y-11330559D01*
X9946259Y-11275441D02*
X9891141Y-11330559D01*
X9934321Y-12979781D02*
X9989439Y-13034899D01*
X9989439Y-12979781D02*
X9934321Y-13034899D01*
X10082911Y-8143621D02*
X10138029Y-8198739D01*
X10138029Y-8143621D02*
X10082911Y-8198739D01*
X10171811Y-12448921D02*
X10226929Y-12504039D01*
X10226929Y-12448921D02*
X10171811Y-12504039D01*
X10234041Y-9573641D02*
X10289159Y-9628759D01*
X10289159Y-9573641D02*
X10234041Y-9628759D01*
X10269601Y-10896981D02*
X10324719Y-10952099D01*
X10324719Y-10896981D02*
X10269601Y-10952099D01*
X10330561Y-8143621D02*
X10385679Y-8198739D01*
X10385679Y-8143621D02*
X10330561Y-8198739D01*
X10381361Y-7777861D02*
X10436479Y-7832979D01*
X10436479Y-7777861D02*
X10381361Y-7832979D01*
X10401681Y-9576181D02*
X10456799Y-9631299D01*
X10456799Y-9576181D02*
X10401681Y-9631299D01*
X10437241Y-11478641D02*
X10492359Y-11533759D01*
X10492359Y-11478641D02*
X10437241Y-11533759D01*
X10589641Y-11288141D02*
X10644759Y-11343259D01*
X10644759Y-11288141D02*
X10589641Y-11343259D01*
X10615041Y-11796141D02*
X10670159Y-11851259D01*
X10670159Y-11796141D02*
X10615041Y-11851259D01*
X10678541Y-13269341D02*
X10733659Y-13324459D01*
X10733659Y-13269341D02*
X10678541Y-13324459D01*
X10777601Y-9566021D02*
X10832719Y-9621139D01*
X10832719Y-9566021D02*
X10777601Y-9621139D01*
X10853801Y-6665341D02*
X10908919Y-6720459D01*
X10908919Y-6665341D02*
X10853801Y-6720459D01*
X10889361Y-8133461D02*
X10944479Y-8188579D01*
X10944479Y-8133461D02*
X10889361Y-8188579D01*
X10922381Y-10876661D02*
X10977499Y-10931779D01*
X10977499Y-10876661D02*
X10922381Y-10931779D01*
X11008741Y-11275441D02*
X11063859Y-11330559D01*
X11063859Y-11275441D02*
X11008741Y-11330559D01*
X11021441Y-11592941D02*
X11076559Y-11648059D01*
X11076559Y-11592941D02*
X11021441Y-11648059D01*
X11224641Y-11592941D02*
X11279759Y-11648059D01*
X11279759Y-11592941D02*
X11224641Y-11648059D01*
X11275441Y-11872341D02*
X11330559Y-11927459D01*
X11330559Y-11872341D02*
X11275441Y-11927459D01*
X11392281Y-6815201D02*
X11447399Y-6870319D01*
X11447399Y-6815201D02*
X11392281Y-6870319D01*
X11516741Y-7427341D02*
X11571859Y-7482459D01*
X11571859Y-7427341D02*
X11516741Y-7482459D01*
X11643741Y-8290941D02*
X11698859Y-8346059D01*
X11698859Y-8290941D02*
X11643741Y-8346059D01*
X11707241Y-7046341D02*
X11762359Y-7101459D01*
X11762359Y-7046341D02*
X11707241Y-7101459D01*
X11745341Y-12469241D02*
X11800459Y-12524359D01*
X11800459Y-12469241D02*
X11745341Y-12524359D01*
X11758041Y-12977241D02*
X11813159Y-13032359D01*
X11813159Y-12977241D02*
X11758041Y-13032359D01*
X11831701Y-6860921D02*
X11886819Y-6916039D01*
X11886819Y-6860921D02*
X11831701Y-6916039D01*
X11872341Y-12621641D02*
X11927459Y-12676759D01*
X11927459Y-12621641D02*
X11872341Y-12676759D01*
X11897741Y-8392541D02*
X11952859Y-8447659D01*
X11952859Y-8392541D02*
X11897741Y-8447659D01*
X8951750Y-11525250D02*
G75*
G03X8951750Y-11525250I-30000J0D01*
G01*
X9561350Y-11525250D02*
G75*
G03X9561350Y-11525250I-30000J0D01*
G01*
X10205240Y-11518900D02*
G75*
G03X10205240Y-11518900I-30000J0D01*
G01*
X10789440Y-11518900D02*
G75*
G03X10789440Y-11518900I-30000J0D01*
G01*
X5745480Y-13670280D02*
X5745480Y-13746480D01*
X5707380Y-13708380D02*
X5783580Y-13708380D01*
X5745480Y-14432280D02*
X5745480Y-14508480D01*
X5707380Y-14470380D02*
X5783580Y-14470380D01*
X5999480Y-13670280D02*
X5999480Y-13746480D01*
X5961380Y-13708380D02*
X6037580Y-13708380D01*
X5999480Y-14432280D02*
X5999480Y-14508480D01*
X5961380Y-14470380D02*
X6037580Y-14470380D01*
X6253480Y-13670280D02*
X6253480Y-13746480D01*
X6215380Y-13708380D02*
X6291580Y-13708380D01*
X6253480Y-14432280D02*
X6253480Y-14508480D01*
X6215380Y-14470380D02*
X6291580Y-14470380D01*
X6507480Y-13670280D02*
X6507480Y-13746480D01*
X6469380Y-13708380D02*
X6545580Y-13708380D01*
X6507480Y-14432280D02*
X6507480Y-14508480D01*
X6469380Y-14470380D02*
X6545580Y-14470380D01*
X6761480Y-13670280D02*
X6761480Y-13746480D01*
X6723380Y-13708380D02*
X6799580Y-13708380D01*
X6761480Y-14432280D02*
X6761480Y-14508480D01*
X6723380Y-14470380D02*
X6799580Y-14470380D01*
X7015480Y-13670280D02*
X7015480Y-13746480D01*
X6977380Y-13708380D02*
X7053580Y-13708380D01*
X7015480Y-14432280D02*
X7015480Y-14508480D01*
X6977380Y-14470380D02*
X7053580Y-14470380D01*
X7269480Y-13670280D02*
X7269480Y-13746480D01*
X7231380Y-13708380D02*
X7307580Y-13708380D01*
X7269480Y-14432280D02*
X7269480Y-14508480D01*
X7231380Y-14470380D02*
X7307580Y-14470380D01*
X7523480Y-13670280D02*
X7523480Y-13746480D01*
X7485380Y-13708380D02*
X7561580Y-13708380D01*
X7523480Y-14432280D02*
X7523480Y-14508480D01*
X7485380Y-14470380D02*
X7561580Y-14470380D01*
X4168488Y-13998288D02*
X4168488Y-13941712D01*
X4111912Y-13941712D01*
X4111912Y-13998288D01*
X4168488Y-13998288D01*
X4549488Y-13998288D02*
X4549488Y-13941712D01*
X4492912Y-13941712D01*
X4492912Y-13998288D01*
X4549488Y-13998288D01*
X8861298Y-13219938D02*
X8901938Y-13179298D01*
X8861298Y-13138658D01*
X8820658Y-13179298D01*
X8861298Y-13219938D01*
X8988298Y-13473938D02*
X9028938Y-13433298D01*
X8988298Y-13392658D01*
X8947658Y-13433298D01*
X8988298Y-13473938D01*
X9115298Y-13219938D02*
X9155938Y-13179298D01*
X9115298Y-13138658D01*
X9074658Y-13179298D01*
X9115298Y-13219938D01*
X9242298Y-13473938D02*
X9282938Y-13433298D01*
X9242298Y-13392658D01*
X9201658Y-13433298D01*
X9242298Y-13473938D01*
X9369298Y-13219938D02*
X9409938Y-13179298D01*
X9369298Y-13138658D01*
X9328658Y-13179298D01*
X9369298Y-13219938D01*
X9496298Y-13473938D02*
X9536938Y-13433298D01*
X9496298Y-13392658D01*
X9455658Y-13433298D01*
X9496298Y-13473938D01*
X3302800Y-13246900D02*
X3402800Y-13346900D01*
X3402800Y-13246900D02*
X3302800Y-13346900D01*
X3402800Y-13296900D02*
G75*
G03X3402800Y-13296900I-50000J0D01*
G01*
X3556800Y-13246900D02*
X3656800Y-13346900D01*
X3656800Y-13246900D02*
X3556800Y-13346900D01*
X3656800Y-13296900D02*
G75*
G03X3656800Y-13296900I-50000J0D01*
G01*
X4525048Y-9154198D02*
X4625048Y-9254198D01*
X4625048Y-9154198D02*
X4525048Y-9254198D01*
X4625048Y-9204198D02*
G75*
G03X4625048Y-9204198I-50000J0D01*
G01*
X4525048Y-9408198D02*
X4625048Y-9508198D01*
X4625048Y-9408198D02*
X4525048Y-9508198D01*
X4625048Y-9458198D02*
G75*
G03X4625048Y-9458198I-50000J0D01*
G01*
X4525048Y-9662198D02*
X4625048Y-9762198D01*
X4625048Y-9662198D02*
X4525048Y-9762198D01*
X4625048Y-9712198D02*
G75*
G03X4625048Y-9712198I-50000J0D01*
G01*
X4525048Y-9916198D02*
X4625048Y-10016198D01*
X4625048Y-9916198D02*
X4525048Y-10016198D01*
X4625048Y-9966198D02*
G75*
G03X4625048Y-9966198I-50000J0D01*
G01*
X4525048Y-10170198D02*
X4625048Y-10270198D01*
X4625048Y-10170198D02*
X4525048Y-10270198D01*
X4625048Y-10220198D02*
G75*
G03X4625048Y-10220198I-50000J0D01*
G01*
X4525048Y-10424198D02*
X4625048Y-10524198D01*
X4625048Y-10424198D02*
X4525048Y-10524198D01*
X4625048Y-10474198D02*
G75*
G03X4625048Y-10474198I-50000J0D01*
G01*
X4525048Y-10678198D02*
X4625048Y-10778198D01*
X4625048Y-10678198D02*
X4525048Y-10778198D01*
X4625048Y-10728198D02*
G75*
G03X4625048Y-10728198I-50000J0D01*
G01*
X4525048Y-10932198D02*
X4625048Y-11032198D01*
X4625048Y-10932198D02*
X4525048Y-11032198D01*
X4625048Y-10982198D02*
G75*
G03X4625048Y-10982198I-50000J0D01*
G01*
X4779048Y-9154198D02*
X4879048Y-9254198D01*
X4879048Y-9154198D02*
X4779048Y-9254198D01*
X4879048Y-9204198D02*
G75*
G03X4879048Y-9204198I-50000J0D01*
G01*
X4779048Y-9408198D02*
X4879048Y-9508198D01*
X4879048Y-9408198D02*
X4779048Y-9508198D01*
X4879048Y-9458198D02*
G75*
G03X4879048Y-9458198I-50000J0D01*
G01*
X4779048Y-9662198D02*
X4879048Y-9762198D01*
X4879048Y-9662198D02*
X4779048Y-9762198D01*
X4879048Y-9712198D02*
G75*
G03X4879048Y-9712198I-50000J0D01*
G01*
X4779048Y-9916198D02*
X4879048Y-10016198D01*
X4879048Y-9916198D02*
X4779048Y-10016198D01*
X4879048Y-9966198D02*
G75*
G03X4879048Y-9966198I-50000J0D01*
G01*
X4779048Y-10170198D02*
X4879048Y-10270198D01*
X4879048Y-10170198D02*
X4779048Y-10270198D01*
X4879048Y-10220198D02*
G75*
G03X4879048Y-10220198I-50000J0D01*
G01*
X4779048Y-10424198D02*
X4879048Y-10524198D01*
X4879048Y-10424198D02*
X4779048Y-10524198D01*
X4879048Y-10474198D02*
G75*
G03X4879048Y-10474198I-50000J0D01*
G01*
X4779048Y-10678198D02*
X4879048Y-10778198D01*
X4879048Y-10678198D02*
X4779048Y-10778198D01*
X4879048Y-10728198D02*
G75*
G03X4879048Y-10728198I-50000J0D01*
G01*
X4779048Y-10932198D02*
X4879048Y-11032198D01*
X4879048Y-10932198D02*
X4779048Y-11032198D01*
X4879048Y-10982198D02*
G75*
G03X4879048Y-10982198I-50000J0D01*
G01*
X4984280Y-13236740D02*
X5084280Y-13336740D01*
X5084280Y-13236740D02*
X4984280Y-13336740D01*
X5084280Y-13286740D02*
G75*
G03X5084280Y-13286740I-50000J0D01*
G01*
X5238280Y-13236740D02*
X5338280Y-13336740D01*
X5338280Y-13236740D02*
X5238280Y-13336740D01*
X5338280Y-13286740D02*
G75*
G03X5338280Y-13286740I-50000J0D01*
G01*
X5261648Y-8049552D02*
X5361648Y-8149552D01*
X5361648Y-8049552D02*
X5261648Y-8149552D01*
X5361648Y-8099552D02*
G75*
G03X5361648Y-8099552I-50000J0D01*
G01*
X5261648Y-8303552D02*
X5361648Y-8403552D01*
X5361648Y-8303552D02*
X5261648Y-8403552D01*
X5361648Y-8353552D02*
G75*
G03X5361648Y-8353552I-50000J0D01*
G01*
X5261648Y-11770398D02*
X5361648Y-11870398D01*
X5361648Y-11770398D02*
X5261648Y-11870398D01*
X5361648Y-11820398D02*
G75*
G03X5361648Y-11820398I-50000J0D01*
G01*
X5261648Y-12024398D02*
X5361648Y-12124398D01*
X5361648Y-12024398D02*
X5261648Y-12124398D01*
X5361648Y-12074398D02*
G75*
G03X5361648Y-12074398I-50000J0D01*
G01*
X5515648Y-8049552D02*
X5615648Y-8149552D01*
X5615648Y-8049552D02*
X5515648Y-8149552D01*
X5615648Y-8099552D02*
G75*
G03X5615648Y-8099552I-50000J0D01*
G01*
X5515648Y-8303552D02*
X5615648Y-8403552D01*
X5615648Y-8303552D02*
X5515648Y-8403552D01*
X5615648Y-8353552D02*
G75*
G03X5615648Y-8353552I-50000J0D01*
G01*
X5515648Y-11770398D02*
X5615648Y-11870398D01*
X5615648Y-11770398D02*
X5515648Y-11870398D01*
X5615648Y-11820398D02*
G75*
G03X5615648Y-11820398I-50000J0D01*
G01*
X5515648Y-12024398D02*
X5615648Y-12124398D01*
X5615648Y-12024398D02*
X5515648Y-12124398D01*
X5615648Y-12074398D02*
G75*
G03X5615648Y-12074398I-50000J0D01*
G01*
X5769648Y-8049552D02*
X5869648Y-8149552D01*
X5869648Y-8049552D02*
X5769648Y-8149552D01*
X5869648Y-8099552D02*
G75*
G03X5869648Y-8099552I-50000J0D01*
G01*
X5769648Y-8303552D02*
X5869648Y-8403552D01*
X5869648Y-8303552D02*
X5769648Y-8403552D01*
X5869648Y-8353552D02*
G75*
G03X5869648Y-8353552I-50000J0D01*
G01*
X5769648Y-11770398D02*
X5869648Y-11870398D01*
X5869648Y-11770398D02*
X5769648Y-11870398D01*
X5869648Y-11820398D02*
G75*
G03X5869648Y-11820398I-50000J0D01*
G01*
X5769648Y-12024398D02*
X5869648Y-12124398D01*
X5869648Y-12024398D02*
X5769648Y-12124398D01*
X5869648Y-12074398D02*
G75*
G03X5869648Y-12074398I-50000J0D01*
G01*
X6023648Y-8049552D02*
X6123648Y-8149552D01*
X6123648Y-8049552D02*
X6023648Y-8149552D01*
X6123648Y-8099552D02*
G75*
G03X6123648Y-8099552I-50000J0D01*
G01*
X6023648Y-8303552D02*
X6123648Y-8403552D01*
X6123648Y-8303552D02*
X6023648Y-8403552D01*
X6123648Y-8353552D02*
G75*
G03X6123648Y-8353552I-50000J0D01*
G01*
X6023648Y-11770398D02*
X6123648Y-11870398D01*
X6123648Y-11770398D02*
X6023648Y-11870398D01*
X6123648Y-11820398D02*
G75*
G03X6123648Y-11820398I-50000J0D01*
G01*
X6023648Y-12024398D02*
X6123648Y-12124398D01*
X6123648Y-12024398D02*
X6023648Y-12124398D01*
X6123648Y-12074398D02*
G75*
G03X6123648Y-12074398I-50000J0D01*
G01*
X6277648Y-8049552D02*
X6377648Y-8149552D01*
X6377648Y-8049552D02*
X6277648Y-8149552D01*
X6377648Y-8099552D02*
G75*
G03X6377648Y-8099552I-50000J0D01*
G01*
X6277648Y-8303552D02*
X6377648Y-8403552D01*
X6377648Y-8303552D02*
X6277648Y-8403552D01*
X6377648Y-8353552D02*
G75*
G03X6377648Y-8353552I-50000J0D01*
G01*
X6277648Y-11770398D02*
X6377648Y-11870398D01*
X6377648Y-11770398D02*
X6277648Y-11870398D01*
X6377648Y-11820398D02*
G75*
G03X6377648Y-11820398I-50000J0D01*
G01*
X6277648Y-12024398D02*
X6377648Y-12124398D01*
X6377648Y-12024398D02*
X6277648Y-12124398D01*
X6377648Y-12074398D02*
G75*
G03X6377648Y-12074398I-50000J0D01*
G01*
X6531648Y-8049552D02*
X6631648Y-8149552D01*
X6631648Y-8049552D02*
X6531648Y-8149552D01*
X6631648Y-8099552D02*
G75*
G03X6631648Y-8099552I-50000J0D01*
G01*
X6531648Y-8303552D02*
X6631648Y-8403552D01*
X6631648Y-8303552D02*
X6531648Y-8403552D01*
X6631648Y-8353552D02*
G75*
G03X6631648Y-8353552I-50000J0D01*
G01*
X6531648Y-11770398D02*
X6631648Y-11870398D01*
X6631648Y-11770398D02*
X6531648Y-11870398D01*
X6631648Y-11820398D02*
G75*
G03X6631648Y-11820398I-50000J0D01*
G01*
X6531648Y-12024398D02*
X6631648Y-12124398D01*
X6631648Y-12024398D02*
X6531648Y-12124398D01*
X6631648Y-12074398D02*
G75*
G03X6631648Y-12074398I-50000J0D01*
G01*
X6785648Y-8049552D02*
X6885648Y-8149552D01*
X6885648Y-8049552D02*
X6785648Y-8149552D01*
X6885648Y-8099552D02*
G75*
G03X6885648Y-8099552I-50000J0D01*
G01*
X6785648Y-8303552D02*
X6885648Y-8403552D01*
X6885648Y-8303552D02*
X6785648Y-8403552D01*
X6885648Y-8353552D02*
G75*
G03X6885648Y-8353552I-50000J0D01*
G01*
X6785648Y-11770398D02*
X6885648Y-11870398D01*
X6885648Y-11770398D02*
X6785648Y-11870398D01*
X6885648Y-11820398D02*
G75*
G03X6885648Y-11820398I-50000J0D01*
G01*
X6785648Y-12024398D02*
X6885648Y-12124398D01*
X6885648Y-12024398D02*
X6785648Y-12124398D01*
X6885648Y-12074398D02*
G75*
G03X6885648Y-12074398I-50000J0D01*
G01*
X7039648Y-8049552D02*
X7139648Y-8149552D01*
X7139648Y-8049552D02*
X7039648Y-8149552D01*
X7139648Y-8099552D02*
G75*
G03X7139648Y-8099552I-50000J0D01*
G01*
X7039648Y-8303552D02*
X7139648Y-8403552D01*
X7139648Y-8303552D02*
X7039648Y-8403552D01*
X7139648Y-8353552D02*
G75*
G03X7139648Y-8353552I-50000J0D01*
G01*
X7039648Y-11770398D02*
X7139648Y-11870398D01*
X7139648Y-11770398D02*
X7039648Y-11870398D01*
X7139648Y-11820398D02*
G75*
G03X7139648Y-11820398I-50000J0D01*
G01*
X7039648Y-12024398D02*
X7139648Y-12124398D01*
X7139648Y-12024398D02*
X7039648Y-12124398D01*
X7139648Y-12074398D02*
G75*
G03X7139648Y-12074398I-50000J0D01*
G01*
X7865148Y-9154198D02*
X7965148Y-9254198D01*
X7965148Y-9154198D02*
X7865148Y-9254198D01*
X7965148Y-9204198D02*
G75*
G03X7965148Y-9204198I-50000J0D01*
G01*
X7865148Y-9408198D02*
X7965148Y-9508198D01*
X7965148Y-9408198D02*
X7865148Y-9508198D01*
X7965148Y-9458198D02*
G75*
G03X7965148Y-9458198I-50000J0D01*
G01*
X7865148Y-9662198D02*
X7965148Y-9762198D01*
X7965148Y-9662198D02*
X7865148Y-9762198D01*
X7965148Y-9712198D02*
G75*
G03X7965148Y-9712198I-50000J0D01*
G01*
X7865148Y-9916198D02*
X7965148Y-10016198D01*
X7965148Y-9916198D02*
X7865148Y-10016198D01*
X7965148Y-9966198D02*
G75*
G03X7965148Y-9966198I-50000J0D01*
G01*
X7865148Y-10170198D02*
X7965148Y-10270198D01*
X7965148Y-10170198D02*
X7865148Y-10270198D01*
X7965148Y-10220198D02*
G75*
G03X7965148Y-10220198I-50000J0D01*
G01*
X7865148Y-10424198D02*
X7965148Y-10524198D01*
X7965148Y-10424198D02*
X7865148Y-10524198D01*
X7965148Y-10474198D02*
G75*
G03X7965148Y-10474198I-50000J0D01*
G01*
X7865148Y-10678198D02*
X7965148Y-10778198D01*
X7965148Y-10678198D02*
X7865148Y-10778198D01*
X7965148Y-10728198D02*
G75*
G03X7965148Y-10728198I-50000J0D01*
G01*
X7865148Y-10932198D02*
X7965148Y-11032198D01*
X7965148Y-10932198D02*
X7865148Y-11032198D01*
X7965148Y-10982198D02*
G75*
G03X7965148Y-10982198I-50000J0D01*
G01*
X7920520Y-13251980D02*
X8020520Y-13351980D01*
X8020520Y-13251980D02*
X7920520Y-13351980D01*
X8020520Y-13301980D02*
G75*
G03X8020520Y-13301980I-50000J0D01*
G01*
X8119148Y-9154198D02*
X8219148Y-9254198D01*
X8219148Y-9154198D02*
X8119148Y-9254198D01*
X8219148Y-9204198D02*
G75*
G03X8219148Y-9204198I-50000J0D01*
G01*
X8119148Y-9408198D02*
X8219148Y-9508198D01*
X8219148Y-9408198D02*
X8119148Y-9508198D01*
X8219148Y-9458198D02*
G75*
G03X8219148Y-9458198I-50000J0D01*
G01*
X8119148Y-9662198D02*
X8219148Y-9762198D01*
X8219148Y-9662198D02*
X8119148Y-9762198D01*
X8219148Y-9712198D02*
G75*
G03X8219148Y-9712198I-50000J0D01*
G01*
X8119148Y-9916198D02*
X8219148Y-10016198D01*
X8219148Y-9916198D02*
X8119148Y-10016198D01*
X8219148Y-9966198D02*
G75*
G03X8219148Y-9966198I-50000J0D01*
G01*
X8119148Y-10170198D02*
X8219148Y-10270198D01*
X8219148Y-10170198D02*
X8119148Y-10270198D01*
X8219148Y-10220198D02*
G75*
G03X8219148Y-10220198I-50000J0D01*
G01*
X8119148Y-10424198D02*
X8219148Y-10524198D01*
X8219148Y-10424198D02*
X8119148Y-10524198D01*
X8219148Y-10474198D02*
G75*
G03X8219148Y-10474198I-50000J0D01*
G01*
X8119148Y-10678198D02*
X8219148Y-10778198D01*
X8219148Y-10678198D02*
X8119148Y-10778198D01*
X8219148Y-10728198D02*
G75*
G03X8219148Y-10728198I-50000J0D01*
G01*
X8119148Y-10932198D02*
X8219148Y-11032198D01*
X8219148Y-10932198D02*
X8119148Y-11032198D01*
X8219148Y-10982198D02*
G75*
G03X8219148Y-10982198I-50000J0D01*
G01*
X8174520Y-13251980D02*
X8274520Y-13351980D01*
X8274520Y-13251980D02*
X8174520Y-13351980D01*
X8274520Y-13301980D02*
G75*
G03X8274520Y-13301980I-50000J0D01*
G01*
X11421148Y-9058948D02*
X11521148Y-9158948D01*
X11521148Y-9058948D02*
X11421148Y-9158948D01*
X11521148Y-9108948D02*
G75*
G03X11521148Y-9108948I-50000J0D01*
G01*
X11421148Y-9312948D02*
X11521148Y-9412948D01*
X11521148Y-9312948D02*
X11421148Y-9412948D01*
X11521148Y-9362948D02*
G75*
G03X11521148Y-9362948I-50000J0D01*
G01*
X11421148Y-9566948D02*
X11521148Y-9666948D01*
X11521148Y-9566948D02*
X11421148Y-9666948D01*
X11521148Y-9616948D02*
G75*
G03X11521148Y-9616948I-50000J0D01*
G01*
X11421148Y-9820948D02*
X11521148Y-9920948D01*
X11521148Y-9820948D02*
X11421148Y-9920948D01*
X11521148Y-9870948D02*
G75*
G03X11521148Y-9870948I-50000J0D01*
G01*
X11421148Y-10074948D02*
X11521148Y-10174948D01*
X11521148Y-10074948D02*
X11421148Y-10174948D01*
X11521148Y-10124948D02*
G75*
G03X11521148Y-10124948I-50000J0D01*
G01*
X11421148Y-10328948D02*
X11521148Y-10428948D01*
X11521148Y-10328948D02*
X11421148Y-10428948D01*
X11521148Y-10378948D02*
G75*
G03X11521148Y-10378948I-50000J0D01*
G01*
X11421148Y-10582948D02*
X11521148Y-10682948D01*
X11521148Y-10582948D02*
X11421148Y-10682948D01*
X11521148Y-10632948D02*
G75*
G03X11521148Y-10632948I-50000J0D01*
G01*
X11421148Y-10836948D02*
X11521148Y-10936948D01*
X11521148Y-10836948D02*
X11421148Y-10936948D01*
X11521148Y-10886948D02*
G75*
G03X11521148Y-10886948I-50000J0D01*
G01*
X11675148Y-9058948D02*
X11775148Y-9158948D01*
X11775148Y-9058948D02*
X11675148Y-9158948D01*
X11775148Y-9108948D02*
G75*
G03X11775148Y-9108948I-50000J0D01*
G01*
X11675148Y-9312948D02*
X11775148Y-9412948D01*
X11775148Y-9312948D02*
X11675148Y-9412948D01*
X11775148Y-9362948D02*
G75*
G03X11775148Y-9362948I-50000J0D01*
G01*
X11675148Y-9566948D02*
X11775148Y-9666948D01*
X11775148Y-9566948D02*
X11675148Y-9666948D01*
X11775148Y-9616948D02*
G75*
G03X11775148Y-9616948I-50000J0D01*
G01*
X11675148Y-9820948D02*
X11775148Y-9920948D01*
X11775148Y-9820948D02*
X11675148Y-9920948D01*
X11775148Y-9870948D02*
G75*
G03X11775148Y-9870948I-50000J0D01*
G01*
X11675148Y-10074948D02*
X11775148Y-10174948D01*
X11775148Y-10074948D02*
X11675148Y-10174948D01*
X11775148Y-10124948D02*
G75*
G03X11775148Y-10124948I-50000J0D01*
G01*
X11675148Y-10328948D02*
X11775148Y-10428948D01*
X11775148Y-10328948D02*
X11675148Y-10428948D01*
X11775148Y-10378948D02*
G75*
G03X11775148Y-10378948I-50000J0D01*
G01*
X11675148Y-10582948D02*
X11775148Y-10682948D01*
X11775148Y-10582948D02*
X11675148Y-10682948D01*
X11775148Y-10632948D02*
G75*
G03X11775148Y-10632948I-50000J0D01*
G01*
X11675148Y-10836948D02*
X11775148Y-10936948D01*
X11775148Y-10836948D02*
X11675148Y-10936948D01*
X11775148Y-10886948D02*
G75*
G03X11775148Y-10886948I-50000J0D01*
G01*
X3429762Y-6553962D02*
X3529838Y-6654038D01*
X3529838Y-6553962D02*
X3429762Y-6654038D01*
X3479800Y-6553962D02*
X3479800Y-6654038D01*
X3429762Y-6604000D02*
X3529838Y-6604000D01*
X3683762Y-6553962D02*
X3783838Y-6654038D01*
X3783838Y-6553962D02*
X3683762Y-6654038D01*
X3733800Y-6553962D02*
X3733800Y-6654038D01*
X3683762Y-6604000D02*
X3783838Y-6604000D01*
X3899662Y-13665962D02*
X3999738Y-13766038D01*
X3999738Y-13665962D02*
X3899662Y-13766038D01*
X3949700Y-13665962D02*
X3949700Y-13766038D01*
X3899662Y-13716000D02*
X3999738Y-13716000D01*
X3937762Y-6553962D02*
X4037838Y-6654038D01*
X4037838Y-6553962D02*
X3937762Y-6654038D01*
X3987800Y-6553962D02*
X3987800Y-6654038D01*
X3937762Y-6604000D02*
X4037838Y-6604000D01*
X4331462Y-6553962D02*
X4431538Y-6654038D01*
X4431538Y-6553962D02*
X4331462Y-6654038D01*
X4381500Y-6553962D02*
X4381500Y-6654038D01*
X4331462Y-6604000D02*
X4431538Y-6604000D01*
X4331462Y-6960362D02*
X4431538Y-7060438D01*
X4431538Y-6960362D02*
X4331462Y-7060438D01*
X4381500Y-6960362D02*
X4381500Y-7060438D01*
X4331462Y-7010400D02*
X4431538Y-7010400D01*
X4331462Y-7214362D02*
X4431538Y-7314438D01*
X4431538Y-7214362D02*
X4331462Y-7314438D01*
X4381500Y-7214362D02*
X4381500Y-7314438D01*
X4331462Y-7264400D02*
X4431538Y-7264400D01*
X4331462Y-7468362D02*
X4431538Y-7568438D01*
X4431538Y-7468362D02*
X4331462Y-7568438D01*
X4381500Y-7468362D02*
X4381500Y-7568438D01*
X4331462Y-7518400D02*
X4431538Y-7518400D01*
X4331462Y-7900162D02*
X4431538Y-8000238D01*
X4431538Y-7900162D02*
X4331462Y-8000238D01*
X4381500Y-7900162D02*
X4381500Y-8000238D01*
X4331462Y-7950200D02*
X4431538Y-7950200D01*
X4331462Y-8154162D02*
X4431538Y-8254238D01*
X4431538Y-8154162D02*
X4331462Y-8254238D01*
X4381500Y-8154162D02*
X4381500Y-8254238D01*
X4331462Y-8204200D02*
X4431538Y-8204200D01*
X4331462Y-8408162D02*
X4431538Y-8508238D01*
X4431538Y-8408162D02*
X4331462Y-8508238D01*
X4381500Y-8408162D02*
X4381500Y-8508238D01*
X4331462Y-8458200D02*
X4431538Y-8458200D01*
X4585462Y-6553962D02*
X4685538Y-6654038D01*
X4685538Y-6553962D02*
X4585462Y-6654038D01*
X4635500Y-6553962D02*
X4635500Y-6654038D01*
X4585462Y-6604000D02*
X4685538Y-6604000D01*
X4661662Y-13665962D02*
X4761738Y-13766038D01*
X4761738Y-13665962D02*
X4661662Y-13766038D01*
X4711700Y-13665962D02*
X4711700Y-13766038D01*
X4661662Y-13716000D02*
X4761738Y-13716000D01*
X4839462Y-6553962D02*
X4939538Y-6654038D01*
X4939538Y-6553962D02*
X4839462Y-6654038D01*
X4889500Y-6553962D02*
X4889500Y-6654038D01*
X4839462Y-6604000D02*
X4939538Y-6604000D01*
X5207762Y-6553962D02*
X5307838Y-6654038D01*
X5307838Y-6553962D02*
X5207762Y-6654038D01*
X5257800Y-6553962D02*
X5257800Y-6654038D01*
X5207762Y-6604000D02*
X5307838Y-6604000D01*
X5461762Y-6553962D02*
X5561838Y-6654038D01*
X5561838Y-6553962D02*
X5461762Y-6654038D01*
X5511800Y-6553962D02*
X5511800Y-6654038D01*
X5461762Y-6604000D02*
X5561838Y-6604000D01*
X5715762Y-6553962D02*
X5815838Y-6654038D01*
X5815838Y-6553962D02*
X5715762Y-6654038D01*
X5765800Y-6553962D02*
X5765800Y-6654038D01*
X5715762Y-6604000D02*
X5815838Y-6604000D01*
X6109462Y-6553962D02*
X6209538Y-6654038D01*
X6209538Y-6553962D02*
X6109462Y-6654038D01*
X6159500Y-6553962D02*
X6159500Y-6654038D01*
X6109462Y-6604000D02*
X6209538Y-6604000D01*
X6363462Y-6553962D02*
X6463538Y-6654038D01*
X6463538Y-6553962D02*
X6363462Y-6654038D01*
X6413500Y-6553962D02*
X6413500Y-6654038D01*
X6363462Y-6604000D02*
X6463538Y-6604000D01*
X6617462Y-6553962D02*
X6717538Y-6654038D01*
X6717538Y-6553962D02*
X6617462Y-6654038D01*
X6667500Y-6553962D02*
X6667500Y-6654038D01*
X6617462Y-6604000D02*
X6717538Y-6604000D01*
X7036562Y-6553962D02*
X7136638Y-6654038D01*
X7136638Y-6553962D02*
X7036562Y-6654038D01*
X7086600Y-6553962D02*
X7086600Y-6654038D01*
X7036562Y-6604000D02*
X7136638Y-6604000D01*
X7290562Y-6553962D02*
X7390638Y-6654038D01*
X7390638Y-6553962D02*
X7290562Y-6654038D01*
X7340600Y-6553962D02*
X7340600Y-6654038D01*
X7290562Y-6604000D02*
X7390638Y-6604000D01*
X7544562Y-6553962D02*
X7644638Y-6654038D01*
X7644638Y-6553962D02*
X7544562Y-6654038D01*
X7594600Y-6553962D02*
X7594600Y-6654038D01*
X7544562Y-6604000D02*
X7644638Y-6604000D01*
X7950962Y-6553962D02*
X8051038Y-6654038D01*
X8051038Y-6553962D02*
X7950962Y-6654038D01*
X8001000Y-6553962D02*
X8001000Y-6654038D01*
X7950962Y-6604000D02*
X8051038Y-6604000D01*
X8204962Y-6553962D02*
X8305038Y-6654038D01*
X8305038Y-6553962D02*
X8204962Y-6654038D01*
X8255000Y-6553962D02*
X8255000Y-6654038D01*
X8204962Y-6604000D02*
X8305038Y-6604000D01*
X8458962Y-6553962D02*
X8559038Y-6654038D01*
X8559038Y-6553962D02*
X8458962Y-6654038D01*
X8509000Y-6553962D02*
X8509000Y-6654038D01*
X8458962Y-6604000D02*
X8559038Y-6604000D01*
X8865362Y-6553962D02*
X8965438Y-6654038D01*
X8965438Y-6553962D02*
X8865362Y-6654038D01*
X8915400Y-6553962D02*
X8915400Y-6654038D01*
X8865362Y-6604000D02*
X8965438Y-6604000D01*
X9119362Y-6553962D02*
X9219438Y-6654038D01*
X9219438Y-6553962D02*
X9119362Y-6654038D01*
X9169400Y-6553962D02*
X9169400Y-6654038D01*
X9119362Y-6604000D02*
X9219438Y-6604000D01*
X9373362Y-6553962D02*
X9473438Y-6654038D01*
X9473438Y-6553962D02*
X9373362Y-6654038D01*
X9423400Y-6553962D02*
X9423400Y-6654038D01*
X9373362Y-6604000D02*
X9473438Y-6604000D01*
X9830562Y-6553962D02*
X9930638Y-6654038D01*
X9930638Y-6553962D02*
X9830562Y-6654038D01*
X9880600Y-6553962D02*
X9880600Y-6654038D01*
X9830562Y-6604000D02*
X9930638Y-6604000D01*
X10084562Y-6553962D02*
X10184638Y-6654038D01*
X10184638Y-6553962D02*
X10084562Y-6654038D01*
X10134600Y-6553962D02*
X10134600Y-6654038D01*
X10084562Y-6604000D02*
X10184638Y-6604000D01*
X10104882Y-7282942D02*
X10204958Y-7383018D01*
X10204958Y-7282942D02*
X10104882Y-7383018D01*
X10154920Y-7282942D02*
X10154920Y-7383018D01*
X10104882Y-7332980D02*
X10204958Y-7332980D01*
X10338562Y-6553962D02*
X10438638Y-6654038D01*
X10438638Y-6553962D02*
X10338562Y-6654038D01*
X10388600Y-6553962D02*
X10388600Y-6654038D01*
X10338562Y-6604000D02*
X10438638Y-6604000D01*
X10358882Y-7282942D02*
X10458958Y-7383018D01*
X10458958Y-7282942D02*
X10358882Y-7383018D01*
X10408920Y-7282942D02*
X10408920Y-7383018D01*
X10358882Y-7332980D02*
X10458958Y-7332980D01*
X10592562Y-6553962D02*
X10692638Y-6654038D01*
X10692638Y-6553962D02*
X10592562Y-6654038D01*
X10642600Y-6553962D02*
X10642600Y-6654038D01*
X10592562Y-6604000D02*
X10692638Y-6604000D01*
X10612882Y-7282942D02*
X10712958Y-7383018D01*
X10712958Y-7282942D02*
X10612882Y-7383018D01*
X10662920Y-7282942D02*
X10662920Y-7383018D01*
X10612882Y-7332980D02*
X10712958Y-7332980D01*
X10656062Y-13246862D02*
X10756138Y-13346938D01*
X10756138Y-13246862D02*
X10656062Y-13346938D01*
X10706100Y-13246862D02*
X10706100Y-13346938D01*
X10656062Y-13296900D02*
X10756138Y-13296900D01*
X10849610Y-12030710D02*
X10949686Y-12130786D01*
X10949686Y-12030710D02*
X10849610Y-12130786D01*
X10899648Y-12030710D02*
X10899648Y-12130786D01*
X10849610Y-12080748D02*
X10949686Y-12080748D01*
X10849610Y-12284710D02*
X10949686Y-12384786D01*
X10949686Y-12284710D02*
X10849610Y-12384786D01*
X10899648Y-12284710D02*
X10899648Y-12384786D01*
X10849610Y-12334748D02*
X10949686Y-12334748D01*
X10849610Y-12538710D02*
X10949686Y-12638786D01*
X10949686Y-12538710D02*
X10849610Y-12638786D01*
X10899648Y-12538710D02*
X10899648Y-12638786D01*
X10849610Y-12588748D02*
X10949686Y-12588748D01*
X10849610Y-12792710D02*
X10949686Y-12892786D01*
X10949686Y-12792710D02*
X10849610Y-12892786D01*
X10899648Y-12792710D02*
X10899648Y-12892786D01*
X10849610Y-12842748D02*
X10949686Y-12842748D01*
X10866882Y-7282942D02*
X10966958Y-7383018D01*
X10966958Y-7282942D02*
X10866882Y-7383018D01*
X10916920Y-7282942D02*
X10916920Y-7383018D01*
X10866882Y-7332980D02*
X10966958Y-7332980D01*
X10910062Y-13246862D02*
X11010138Y-13346938D01*
X11010138Y-13246862D02*
X10910062Y-13346938D01*
X10960100Y-13246862D02*
X10960100Y-13346938D01*
X10910062Y-13296900D02*
X11010138Y-13296900D01*
X11049762Y-6553962D02*
X11149838Y-6654038D01*
X11149838Y-6553962D02*
X11049762Y-6654038D01*
X11099800Y-6553962D02*
X11099800Y-6654038D01*
X11049762Y-6604000D02*
X11149838Y-6604000D01*
X11164062Y-13246862D02*
X11264138Y-13346938D01*
X11264138Y-13246862D02*
X11164062Y-13346938D01*
X11214100Y-13246862D02*
X11214100Y-13346938D01*
X11164062Y-13296900D02*
X11264138Y-13296900D01*
X11303762Y-6553962D02*
X11403838Y-6654038D01*
X11403838Y-6553962D02*
X11303762Y-6654038D01*
X11353800Y-6553962D02*
X11353800Y-6654038D01*
X11303762Y-6604000D02*
X11403838Y-6604000D01*
X11418062Y-13246862D02*
X11518138Y-13346938D01*
X11518138Y-13246862D02*
X11418062Y-13346938D01*
X11468100Y-13246862D02*
X11468100Y-13346938D01*
X11418062Y-13296900D02*
X11518138Y-13296900D01*
X11557762Y-6553962D02*
X11657838Y-6654038D01*
X11657838Y-6553962D02*
X11557762Y-6654038D01*
X11607800Y-6553962D02*
X11607800Y-6654038D01*
X11557762Y-6604000D02*
X11657838Y-6604000D01*
X11672062Y-13246862D02*
X11772138Y-13346938D01*
X11772138Y-13246862D02*
X11672062Y-13346938D01*
X11722100Y-13246862D02*
X11722100Y-13346938D01*
X11672062Y-13296900D02*
X11772138Y-13296900D01*
X11811762Y-6553962D02*
X11911838Y-6654038D01*
X11911838Y-6553962D02*
X11811762Y-6654038D01*
X11861800Y-6553962D02*
X11861800Y-6654038D01*
X11811762Y-6604000D02*
X11911838Y-6604000D01*
X11926062Y-13246862D02*
X12026138Y-13346938D01*
X12026138Y-13246862D02*
X11926062Y-13346938D01*
X11976100Y-13246862D02*
X11976100Y-13346938D01*
X11926062Y-13296900D02*
X12026138Y-13296900D01*
X8520798Y-13918298D02*
X8820798Y-14218298D01*
X8820798Y-13918298D02*
X8520798Y-14218298D01*
X8776865Y-14174365D02*
X8776865Y-13962231D01*
X8564731Y-13962231D01*
X8564731Y-14174365D01*
X8776865Y-14174365D01*
X9536798Y-13918298D02*
X9836798Y-14218298D01*
X9836798Y-13918298D02*
X9536798Y-14218298D01*
X9792865Y-14174365D02*
X9792865Y-13962231D01*
X9580731Y-13962231D01*
X9580731Y-14174365D01*
X9792865Y-14174365D01*
D13*
X3084478Y-15204064D02*
X3084478Y-14904064D01*
X3155907Y-14904064D01*
X3198764Y-14918350D01*
X3227336Y-14946921D01*
X3241621Y-14975493D01*
X3255907Y-15032636D01*
X3255907Y-15075493D01*
X3241621Y-15132636D01*
X3227336Y-15161207D01*
X3198764Y-15189779D01*
X3155907Y-15204064D01*
X3084478Y-15204064D01*
X3384478Y-15204064D02*
X3384478Y-15004064D01*
X3384478Y-15061207D02*
X3398764Y-15032636D01*
X3413050Y-15018350D01*
X3441621Y-15004064D01*
X3470193Y-15004064D01*
X3570193Y-15204064D02*
X3570193Y-15004064D01*
X3570193Y-14904064D02*
X3555907Y-14918350D01*
X3570193Y-14932636D01*
X3584478Y-14918350D01*
X3570193Y-14904064D01*
X3570193Y-14932636D01*
X3755907Y-15204064D02*
X3727336Y-15189779D01*
X3713050Y-15161207D01*
X3713050Y-14904064D01*
X3913050Y-15204064D02*
X3884478Y-15189779D01*
X3870193Y-15161207D01*
X3870193Y-14904064D01*
X4255907Y-15204064D02*
X4255907Y-14904064D01*
X4355907Y-15118350D01*
X4455907Y-14904064D01*
X4455907Y-15204064D01*
X4727336Y-15204064D02*
X4727336Y-15046921D01*
X4713050Y-15018350D01*
X4684479Y-15004064D01*
X4627336Y-15004064D01*
X4598764Y-15018350D01*
X4727336Y-15189779D02*
X4698764Y-15204064D01*
X4627336Y-15204064D01*
X4598764Y-15189779D01*
X4584479Y-15161207D01*
X4584479Y-15132636D01*
X4598764Y-15104064D01*
X4627336Y-15089779D01*
X4698764Y-15089779D01*
X4727336Y-15075493D01*
X4870193Y-15004064D02*
X4870193Y-15304064D01*
X4870193Y-15018350D02*
X4898764Y-15004064D01*
X4955907Y-15004064D01*
X4984479Y-15018350D01*
X4998764Y-15032636D01*
X5013050Y-15061207D01*
X5013050Y-15146921D01*
X4998764Y-15175493D01*
X4984479Y-15189779D01*
X4955907Y-15204064D01*
X4898764Y-15204064D01*
X4870193Y-15189779D01*
X5141621Y-15175493D02*
X5155907Y-15189779D01*
X5141621Y-15204064D01*
X5127336Y-15189779D01*
X5141621Y-15175493D01*
X5141621Y-15204064D01*
X5141621Y-15018350D02*
X5155907Y-15032636D01*
X5141621Y-15046921D01*
X5127336Y-15032636D01*
X5141621Y-15018350D01*
X5141621Y-15046921D01*
X2757932Y-15670791D02*
X2813050Y-15725909D01*
X2813050Y-15670791D02*
X2757932Y-15725909D01*
X3141621Y-15534064D02*
X3170193Y-15534064D01*
X3198764Y-15548350D01*
X3213050Y-15562636D01*
X3227336Y-15591207D01*
X3241621Y-15648350D01*
X3241621Y-15719779D01*
X3227336Y-15776921D01*
X3213050Y-15805493D01*
X3198764Y-15819779D01*
X3170193Y-15834064D01*
X3141621Y-15834064D01*
X3113050Y-15819779D01*
X3098764Y-15805493D01*
X3084478Y-15776921D01*
X3070193Y-15719779D01*
X3070193Y-15648350D01*
X3084478Y-15591207D01*
X3098764Y-15562636D01*
X3113050Y-15548350D01*
X3141621Y-15534064D01*
X3370193Y-15805493D02*
X3384478Y-15819779D01*
X3370193Y-15834064D01*
X3355907Y-15819779D01*
X3370193Y-15805493D01*
X3370193Y-15834064D01*
X3655907Y-15534064D02*
X3513050Y-15534064D01*
X3498764Y-15676921D01*
X3513050Y-15662636D01*
X3541621Y-15648350D01*
X3613050Y-15648350D01*
X3641621Y-15662636D01*
X3655907Y-15676921D01*
X3670193Y-15705493D01*
X3670193Y-15776921D01*
X3655907Y-15805493D01*
X3641621Y-15819779D01*
X3613050Y-15834064D01*
X3541621Y-15834064D01*
X3513050Y-15819779D01*
X3498764Y-15805493D01*
X3941621Y-15534064D02*
X3798764Y-15534064D01*
X3784478Y-15676921D01*
X3798764Y-15662636D01*
X3827336Y-15648350D01*
X3898764Y-15648350D01*
X3927336Y-15662636D01*
X3941621Y-15676921D01*
X3955907Y-15705493D01*
X3955907Y-15776921D01*
X3941621Y-15805493D01*
X3927336Y-15819779D01*
X3898764Y-15834064D01*
X3827336Y-15834064D01*
X3798764Y-15819779D01*
X3784478Y-15805493D01*
X4084478Y-15834064D02*
X4084478Y-15634064D01*
X4084478Y-15662636D02*
X4098764Y-15648350D01*
X4127336Y-15634064D01*
X4170193Y-15634064D01*
X4198764Y-15648350D01*
X4213050Y-15676921D01*
X4213050Y-15834064D01*
X4213050Y-15676921D02*
X4227336Y-15648350D01*
X4255907Y-15634064D01*
X4298764Y-15634064D01*
X4327336Y-15648350D01*
X4341621Y-15676921D01*
X4341621Y-15834064D01*
X4484479Y-15834064D02*
X4484479Y-15634064D01*
X4484479Y-15662636D02*
X4498764Y-15648350D01*
X4527336Y-15634064D01*
X4570193Y-15634064D01*
X4598764Y-15648350D01*
X4613050Y-15676921D01*
X4613050Y-15834064D01*
X4613050Y-15676921D02*
X4627336Y-15648350D01*
X4655907Y-15634064D01*
X4698764Y-15634064D01*
X4727336Y-15648350D01*
X4741621Y-15676921D01*
X4741621Y-15834064D01*
X5327336Y-15519779D02*
X5070193Y-15905493D01*
X5713050Y-15534064D02*
X5741621Y-15534064D01*
X5770193Y-15548350D01*
X5784478Y-15562636D01*
X5798764Y-15591207D01*
X5813050Y-15648350D01*
X5813050Y-15719779D01*
X5798764Y-15776921D01*
X5784478Y-15805493D01*
X5770193Y-15819779D01*
X5741621Y-15834064D01*
X5713050Y-15834064D01*
X5684478Y-15819779D01*
X5670193Y-15805493D01*
X5655907Y-15776921D01*
X5641621Y-15719779D01*
X5641621Y-15648350D01*
X5655907Y-15591207D01*
X5670193Y-15562636D01*
X5684478Y-15548350D01*
X5713050Y-15534064D01*
X5941621Y-15805493D02*
X5955907Y-15819779D01*
X5941621Y-15834064D01*
X5927336Y-15819779D01*
X5941621Y-15805493D01*
X5941621Y-15834064D01*
X6141621Y-15534064D02*
X6170193Y-15534064D01*
X6198764Y-15548350D01*
X6213050Y-15562636D01*
X6227335Y-15591207D01*
X6241621Y-15648350D01*
X6241621Y-15719779D01*
X6227335Y-15776921D01*
X6213050Y-15805493D01*
X6198764Y-15819779D01*
X6170193Y-15834064D01*
X6141621Y-15834064D01*
X6113050Y-15819779D01*
X6098764Y-15805493D01*
X6084478Y-15776921D01*
X6070193Y-15719779D01*
X6070193Y-15648350D01*
X6084478Y-15591207D01*
X6098764Y-15562636D01*
X6113050Y-15548350D01*
X6141621Y-15534064D01*
X6355907Y-15562636D02*
X6370193Y-15548350D01*
X6398764Y-15534064D01*
X6470193Y-15534064D01*
X6498764Y-15548350D01*
X6513050Y-15562636D01*
X6527335Y-15591207D01*
X6527335Y-15619779D01*
X6513050Y-15662636D01*
X6341621Y-15834064D01*
X6527335Y-15834064D01*
X6641621Y-15562636D02*
X6655907Y-15548350D01*
X6684478Y-15534064D01*
X6755907Y-15534064D01*
X6784478Y-15548350D01*
X6798764Y-15562636D01*
X6813050Y-15591207D01*
X6813050Y-15619779D01*
X6798764Y-15662636D01*
X6627335Y-15834064D01*
X6813050Y-15834064D01*
X6927336Y-15534064D02*
X6927336Y-15591207D01*
X7041621Y-15534064D02*
X7041621Y-15591207D01*
X7484478Y-15948350D02*
X7470193Y-15934064D01*
X7441621Y-15891207D01*
X7427335Y-15862636D01*
X7413050Y-15819779D01*
X7398764Y-15748350D01*
X7398764Y-15691207D01*
X7413050Y-15619779D01*
X7427335Y-15576921D01*
X7441621Y-15548350D01*
X7470193Y-15505493D01*
X7484478Y-15491207D01*
X7613050Y-15834064D02*
X7670193Y-15834064D01*
X7698764Y-15819779D01*
X7713050Y-15805493D01*
X7741621Y-15762636D01*
X7755907Y-15705493D01*
X7755907Y-15591207D01*
X7741621Y-15562636D01*
X7727335Y-15548350D01*
X7698764Y-15534064D01*
X7641621Y-15534064D01*
X7613050Y-15548350D01*
X7598764Y-15562636D01*
X7584478Y-15591207D01*
X7584478Y-15662636D01*
X7598764Y-15691207D01*
X7613050Y-15705493D01*
X7641621Y-15719779D01*
X7698764Y-15719779D01*
X7727335Y-15705493D01*
X7741621Y-15691207D01*
X7755907Y-15662636D01*
X7927335Y-15662636D02*
X7898764Y-15648350D01*
X7884478Y-15634064D01*
X7870193Y-15605493D01*
X7870193Y-15591207D01*
X7884478Y-15562636D01*
X7898764Y-15548350D01*
X7927335Y-15534064D01*
X7984478Y-15534064D01*
X8013050Y-15548350D01*
X8027335Y-15562636D01*
X8041621Y-15591207D01*
X8041621Y-15605493D01*
X8027335Y-15634064D01*
X8013050Y-15648350D01*
X7984478Y-15662636D01*
X7927335Y-15662636D01*
X7898764Y-15676921D01*
X7884478Y-15691207D01*
X7870193Y-15719779D01*
X7870193Y-15776921D01*
X7884478Y-15805493D01*
X7898764Y-15819779D01*
X7927335Y-15834064D01*
X7984478Y-15834064D01*
X8013050Y-15819779D01*
X8027335Y-15805493D01*
X8041621Y-15776921D01*
X8041621Y-15719779D01*
X8027335Y-15691207D01*
X8013050Y-15676921D01*
X7984478Y-15662636D01*
X8398764Y-15834064D02*
X8398764Y-15534064D01*
X8527336Y-15834064D02*
X8527336Y-15676921D01*
X8513050Y-15648350D01*
X8484478Y-15634064D01*
X8441621Y-15634064D01*
X8413050Y-15648350D01*
X8398764Y-15662636D01*
X8713050Y-15834064D02*
X8684478Y-15819779D01*
X8670193Y-15805493D01*
X8655907Y-15776921D01*
X8655907Y-15691207D01*
X8670193Y-15662636D01*
X8684478Y-15648350D01*
X8713050Y-15634064D01*
X8755907Y-15634064D01*
X8784478Y-15648350D01*
X8798764Y-15662636D01*
X8813050Y-15691207D01*
X8813050Y-15776921D01*
X8798764Y-15805493D01*
X8784478Y-15819779D01*
X8755907Y-15834064D01*
X8713050Y-15834064D01*
X8984478Y-15834064D02*
X8955907Y-15819779D01*
X8941621Y-15791207D01*
X8941621Y-15534064D01*
X9213050Y-15819779D02*
X9184479Y-15834064D01*
X9127336Y-15834064D01*
X9098764Y-15819779D01*
X9084479Y-15791207D01*
X9084479Y-15676921D01*
X9098764Y-15648350D01*
X9127336Y-15634064D01*
X9184479Y-15634064D01*
X9213050Y-15648350D01*
X9227336Y-15676921D01*
X9227336Y-15705493D01*
X9084479Y-15734064D01*
X9341621Y-15819779D02*
X9370193Y-15834064D01*
X9427336Y-15834064D01*
X9455907Y-15819779D01*
X9470193Y-15791207D01*
X9470193Y-15776921D01*
X9455907Y-15748350D01*
X9427336Y-15734064D01*
X9384479Y-15734064D01*
X9355907Y-15719779D01*
X9341621Y-15691207D01*
X9341621Y-15676921D01*
X9355907Y-15648350D01*
X9384479Y-15634064D01*
X9427336Y-15634064D01*
X9455907Y-15648350D01*
X9570193Y-15948350D02*
X9584479Y-15934064D01*
X9613050Y-15891207D01*
X9627336Y-15862636D01*
X9641621Y-15819779D01*
X9655907Y-15748350D01*
X9655907Y-15691207D01*
X9641621Y-15619779D01*
X9627336Y-15576921D01*
X9613050Y-15548350D01*
X9584479Y-15505493D01*
X9570193Y-15491207D01*
X2813050Y-16094350D02*
G75*
G03X2813050Y-16094350I-30000J0D01*
G01*
X3141621Y-15930064D02*
X3170193Y-15930064D01*
X3198764Y-15944350D01*
X3213050Y-15958636D01*
X3227336Y-15987207D01*
X3241621Y-16044350D01*
X3241621Y-16115779D01*
X3227336Y-16172921D01*
X3213050Y-16201493D01*
X3198764Y-16215779D01*
X3170193Y-16230064D01*
X3141621Y-16230064D01*
X3113050Y-16215779D01*
X3098764Y-16201493D01*
X3084478Y-16172921D01*
X3070193Y-16115779D01*
X3070193Y-16044350D01*
X3084478Y-15987207D01*
X3098764Y-15958636D01*
X3113050Y-15944350D01*
X3141621Y-15930064D01*
X3370193Y-16201493D02*
X3384478Y-16215779D01*
X3370193Y-16230064D01*
X3355907Y-16215779D01*
X3370193Y-16201493D01*
X3370193Y-16230064D01*
X3641621Y-15930064D02*
X3584478Y-15930064D01*
X3555907Y-15944350D01*
X3541621Y-15958636D01*
X3513050Y-16001493D01*
X3498764Y-16058636D01*
X3498764Y-16172921D01*
X3513050Y-16201493D01*
X3527336Y-16215779D01*
X3555907Y-16230064D01*
X3613050Y-16230064D01*
X3641621Y-16215779D01*
X3655907Y-16201493D01*
X3670193Y-16172921D01*
X3670193Y-16101493D01*
X3655907Y-16072921D01*
X3641621Y-16058636D01*
X3613050Y-16044350D01*
X3555907Y-16044350D01*
X3527336Y-16058636D01*
X3513050Y-16072921D01*
X3498764Y-16101493D01*
X3855907Y-15930064D02*
X3884478Y-15930064D01*
X3913050Y-15944350D01*
X3927336Y-15958636D01*
X3941621Y-15987207D01*
X3955907Y-16044350D01*
X3955907Y-16115779D01*
X3941621Y-16172921D01*
X3927336Y-16201493D01*
X3913050Y-16215779D01*
X3884478Y-16230064D01*
X3855907Y-16230064D01*
X3827336Y-16215779D01*
X3813050Y-16201493D01*
X3798764Y-16172921D01*
X3784478Y-16115779D01*
X3784478Y-16044350D01*
X3798764Y-15987207D01*
X3813050Y-15958636D01*
X3827336Y-15944350D01*
X3855907Y-15930064D01*
X4084478Y-16230064D02*
X4084478Y-16030064D01*
X4084478Y-16058636D02*
X4098764Y-16044350D01*
X4127336Y-16030064D01*
X4170193Y-16030064D01*
X4198764Y-16044350D01*
X4213050Y-16072921D01*
X4213050Y-16230064D01*
X4213050Y-16072921D02*
X4227336Y-16044350D01*
X4255907Y-16030064D01*
X4298764Y-16030064D01*
X4327336Y-16044350D01*
X4341621Y-16072921D01*
X4341621Y-16230064D01*
X4484479Y-16230064D02*
X4484479Y-16030064D01*
X4484479Y-16058636D02*
X4498764Y-16044350D01*
X4527336Y-16030064D01*
X4570193Y-16030064D01*
X4598764Y-16044350D01*
X4613050Y-16072921D01*
X4613050Y-16230064D01*
X4613050Y-16072921D02*
X4627336Y-16044350D01*
X4655907Y-16030064D01*
X4698764Y-16030064D01*
X4727336Y-16044350D01*
X4741621Y-16072921D01*
X4741621Y-16230064D01*
X5327336Y-15915779D02*
X5070193Y-16301493D01*
X5713050Y-15930064D02*
X5741621Y-15930064D01*
X5770193Y-15944350D01*
X5784478Y-15958636D01*
X5798764Y-15987207D01*
X5813050Y-16044350D01*
X5813050Y-16115779D01*
X5798764Y-16172921D01*
X5784478Y-16201493D01*
X5770193Y-16215779D01*
X5741621Y-16230064D01*
X5713050Y-16230064D01*
X5684478Y-16215779D01*
X5670193Y-16201493D01*
X5655907Y-16172921D01*
X5641621Y-16115779D01*
X5641621Y-16044350D01*
X5655907Y-15987207D01*
X5670193Y-15958636D01*
X5684478Y-15944350D01*
X5713050Y-15930064D01*
X5941621Y-16201493D02*
X5955907Y-16215779D01*
X5941621Y-16230064D01*
X5927336Y-16215779D01*
X5941621Y-16201493D01*
X5941621Y-16230064D01*
X6141621Y-15930064D02*
X6170193Y-15930064D01*
X6198764Y-15944350D01*
X6213050Y-15958636D01*
X6227335Y-15987207D01*
X6241621Y-16044350D01*
X6241621Y-16115779D01*
X6227335Y-16172921D01*
X6213050Y-16201493D01*
X6198764Y-16215779D01*
X6170193Y-16230064D01*
X6141621Y-16230064D01*
X6113050Y-16215779D01*
X6098764Y-16201493D01*
X6084478Y-16172921D01*
X6070193Y-16115779D01*
X6070193Y-16044350D01*
X6084478Y-15987207D01*
X6098764Y-15958636D01*
X6113050Y-15944350D01*
X6141621Y-15930064D01*
X6355907Y-15958636D02*
X6370193Y-15944350D01*
X6398764Y-15930064D01*
X6470193Y-15930064D01*
X6498764Y-15944350D01*
X6513050Y-15958636D01*
X6527335Y-15987207D01*
X6527335Y-16015779D01*
X6513050Y-16058636D01*
X6341621Y-16230064D01*
X6527335Y-16230064D01*
X6784478Y-16030064D02*
X6784478Y-16230064D01*
X6713050Y-15915779D02*
X6641621Y-16130064D01*
X6827335Y-16130064D01*
X6927336Y-15930064D02*
X6927336Y-15987207D01*
X7041621Y-15930064D02*
X7041621Y-15987207D01*
X7484478Y-16344350D02*
X7470193Y-16330064D01*
X7441621Y-16287207D01*
X7427335Y-16258636D01*
X7413050Y-16215779D01*
X7398764Y-16144350D01*
X7398764Y-16087207D01*
X7413050Y-16015779D01*
X7427335Y-15972921D01*
X7441621Y-15944350D01*
X7470193Y-15901493D01*
X7484478Y-15887207D01*
X7727335Y-16030064D02*
X7727335Y-16230064D01*
X7655907Y-15915779D02*
X7584478Y-16130064D01*
X7770193Y-16130064D01*
X8113050Y-16230064D02*
X8113050Y-15930064D01*
X8241621Y-16230064D02*
X8241621Y-16072921D01*
X8227335Y-16044350D01*
X8198764Y-16030064D01*
X8155907Y-16030064D01*
X8127335Y-16044350D01*
X8113050Y-16058636D01*
X8427336Y-16230064D02*
X8398764Y-16215779D01*
X8384478Y-16201493D01*
X8370193Y-16172921D01*
X8370193Y-16087207D01*
X8384478Y-16058636D01*
X8398764Y-16044350D01*
X8427336Y-16030064D01*
X8470193Y-16030064D01*
X8498764Y-16044350D01*
X8513050Y-16058636D01*
X8527336Y-16087207D01*
X8527336Y-16172921D01*
X8513050Y-16201493D01*
X8498764Y-16215779D01*
X8470193Y-16230064D01*
X8427336Y-16230064D01*
X8698764Y-16230064D02*
X8670193Y-16215779D01*
X8655907Y-16187207D01*
X8655907Y-15930064D01*
X8927336Y-16215779D02*
X8898764Y-16230064D01*
X8841621Y-16230064D01*
X8813050Y-16215779D01*
X8798764Y-16187207D01*
X8798764Y-16072921D01*
X8813050Y-16044350D01*
X8841621Y-16030064D01*
X8898764Y-16030064D01*
X8927336Y-16044350D01*
X8941621Y-16072921D01*
X8941621Y-16101493D01*
X8798764Y-16130064D01*
X9055907Y-16215779D02*
X9084479Y-16230064D01*
X9141621Y-16230064D01*
X9170193Y-16215779D01*
X9184479Y-16187207D01*
X9184479Y-16172921D01*
X9170193Y-16144350D01*
X9141621Y-16130064D01*
X9098764Y-16130064D01*
X9070193Y-16115779D01*
X9055907Y-16087207D01*
X9055907Y-16072921D01*
X9070193Y-16044350D01*
X9098764Y-16030064D01*
X9141621Y-16030064D01*
X9170193Y-16044350D01*
X9284478Y-16344350D02*
X9298764Y-16330064D01*
X9327336Y-16287207D01*
X9341621Y-16258636D01*
X9355907Y-16215779D01*
X9370193Y-16144350D01*
X9370193Y-16087207D01*
X9355907Y-16015779D01*
X9341621Y-15972921D01*
X9327336Y-15944350D01*
X9298764Y-15901493D01*
X9284478Y-15887207D01*
X2774950Y-16452250D02*
X2774950Y-16528450D01*
X2736850Y-16490350D02*
X2813050Y-16490350D01*
X3141621Y-16326064D02*
X3170193Y-16326064D01*
X3198764Y-16340350D01*
X3213050Y-16354636D01*
X3227336Y-16383207D01*
X3241621Y-16440350D01*
X3241621Y-16511779D01*
X3227336Y-16568921D01*
X3213050Y-16597493D01*
X3198764Y-16611779D01*
X3170193Y-16626064D01*
X3141621Y-16626064D01*
X3113050Y-16611779D01*
X3098764Y-16597493D01*
X3084478Y-16568921D01*
X3070193Y-16511779D01*
X3070193Y-16440350D01*
X3084478Y-16383207D01*
X3098764Y-16354636D01*
X3113050Y-16340350D01*
X3141621Y-16326064D01*
X3370193Y-16597493D02*
X3384478Y-16611779D01*
X3370193Y-16626064D01*
X3355907Y-16611779D01*
X3370193Y-16597493D01*
X3370193Y-16626064D01*
X3484478Y-16326064D02*
X3684478Y-16326064D01*
X3555907Y-16626064D01*
X3927336Y-16326064D02*
X3870193Y-16326064D01*
X3841621Y-16340350D01*
X3827336Y-16354636D01*
X3798764Y-16397493D01*
X3784478Y-16454636D01*
X3784478Y-16568921D01*
X3798764Y-16597493D01*
X3813050Y-16611779D01*
X3841621Y-16626064D01*
X3898764Y-16626064D01*
X3927336Y-16611779D01*
X3941621Y-16597493D01*
X3955907Y-16568921D01*
X3955907Y-16497493D01*
X3941621Y-16468921D01*
X3927336Y-16454636D01*
X3898764Y-16440350D01*
X3841621Y-16440350D01*
X3813050Y-16454636D01*
X3798764Y-16468921D01*
X3784478Y-16497493D01*
X4084478Y-16626064D02*
X4084478Y-16426064D01*
X4084478Y-16454636D02*
X4098764Y-16440350D01*
X4127336Y-16426064D01*
X4170193Y-16426064D01*
X4198764Y-16440350D01*
X4213050Y-16468921D01*
X4213050Y-16626064D01*
X4213050Y-16468921D02*
X4227336Y-16440350D01*
X4255907Y-16426064D01*
X4298764Y-16426064D01*
X4327336Y-16440350D01*
X4341621Y-16468921D01*
X4341621Y-16626064D01*
X4484479Y-16626064D02*
X4484479Y-16426064D01*
X4484479Y-16454636D02*
X4498764Y-16440350D01*
X4527336Y-16426064D01*
X4570193Y-16426064D01*
X4598764Y-16440350D01*
X4613050Y-16468921D01*
X4613050Y-16626064D01*
X4613050Y-16468921D02*
X4627336Y-16440350D01*
X4655907Y-16426064D01*
X4698764Y-16426064D01*
X4727336Y-16440350D01*
X4741621Y-16468921D01*
X4741621Y-16626064D01*
X5327336Y-16311779D02*
X5070193Y-16697493D01*
X5713050Y-16326064D02*
X5741621Y-16326064D01*
X5770193Y-16340350D01*
X5784478Y-16354636D01*
X5798764Y-16383207D01*
X5813050Y-16440350D01*
X5813050Y-16511779D01*
X5798764Y-16568921D01*
X5784478Y-16597493D01*
X5770193Y-16611779D01*
X5741621Y-16626064D01*
X5713050Y-16626064D01*
X5684478Y-16611779D01*
X5670193Y-16597493D01*
X5655907Y-16568921D01*
X5641621Y-16511779D01*
X5641621Y-16440350D01*
X5655907Y-16383207D01*
X5670193Y-16354636D01*
X5684478Y-16340350D01*
X5713050Y-16326064D01*
X5941621Y-16597493D02*
X5955907Y-16611779D01*
X5941621Y-16626064D01*
X5927336Y-16611779D01*
X5941621Y-16597493D01*
X5941621Y-16626064D01*
X6141621Y-16326064D02*
X6170193Y-16326064D01*
X6198764Y-16340350D01*
X6213050Y-16354636D01*
X6227335Y-16383207D01*
X6241621Y-16440350D01*
X6241621Y-16511779D01*
X6227335Y-16568921D01*
X6213050Y-16597493D01*
X6198764Y-16611779D01*
X6170193Y-16626064D01*
X6141621Y-16626064D01*
X6113050Y-16611779D01*
X6098764Y-16597493D01*
X6084478Y-16568921D01*
X6070193Y-16511779D01*
X6070193Y-16440350D01*
X6084478Y-16383207D01*
X6098764Y-16354636D01*
X6113050Y-16340350D01*
X6141621Y-16326064D01*
X6341621Y-16326064D02*
X6527335Y-16326064D01*
X6427335Y-16440350D01*
X6470193Y-16440350D01*
X6498764Y-16454636D01*
X6513050Y-16468921D01*
X6527335Y-16497493D01*
X6527335Y-16568921D01*
X6513050Y-16597493D01*
X6498764Y-16611779D01*
X6470193Y-16626064D01*
X6384478Y-16626064D01*
X6355907Y-16611779D01*
X6341621Y-16597493D01*
X6713050Y-16326064D02*
X6741621Y-16326064D01*
X6770193Y-16340350D01*
X6784478Y-16354636D01*
X6798764Y-16383207D01*
X6813050Y-16440350D01*
X6813050Y-16511779D01*
X6798764Y-16568921D01*
X6784478Y-16597493D01*
X6770193Y-16611779D01*
X6741621Y-16626064D01*
X6713050Y-16626064D01*
X6684478Y-16611779D01*
X6670193Y-16597493D01*
X6655907Y-16568921D01*
X6641621Y-16511779D01*
X6641621Y-16440350D01*
X6655907Y-16383207D01*
X6670193Y-16354636D01*
X6684478Y-16340350D01*
X6713050Y-16326064D01*
X6927336Y-16326064D02*
X6927336Y-16383207D01*
X7041621Y-16326064D02*
X7041621Y-16383207D01*
X7484478Y-16740350D02*
X7470193Y-16726064D01*
X7441621Y-16683207D01*
X7427335Y-16654636D01*
X7413050Y-16611779D01*
X7398764Y-16540350D01*
X7398764Y-16483207D01*
X7413050Y-16411779D01*
X7427335Y-16368921D01*
X7441621Y-16340350D01*
X7470193Y-16297493D01*
X7484478Y-16283207D01*
X7755907Y-16626064D02*
X7584478Y-16626064D01*
X7670193Y-16626064D02*
X7670193Y-16326064D01*
X7641621Y-16368921D01*
X7613050Y-16397493D01*
X7584478Y-16411779D01*
X8013050Y-16326064D02*
X7955907Y-16326064D01*
X7927335Y-16340350D01*
X7913050Y-16354636D01*
X7884478Y-16397493D01*
X7870193Y-16454636D01*
X7870193Y-16568921D01*
X7884478Y-16597493D01*
X7898764Y-16611779D01*
X7927335Y-16626064D01*
X7984478Y-16626064D01*
X8013050Y-16611779D01*
X8027335Y-16597493D01*
X8041621Y-16568921D01*
X8041621Y-16497493D01*
X8027335Y-16468921D01*
X8013050Y-16454636D01*
X7984478Y-16440350D01*
X7927335Y-16440350D01*
X7898764Y-16454636D01*
X7884478Y-16468921D01*
X7870193Y-16497493D01*
X8398764Y-16626064D02*
X8398764Y-16326064D01*
X8527336Y-16626064D02*
X8527336Y-16468921D01*
X8513050Y-16440350D01*
X8484478Y-16426064D01*
X8441621Y-16426064D01*
X8413050Y-16440350D01*
X8398764Y-16454636D01*
X8713050Y-16626064D02*
X8684478Y-16611779D01*
X8670193Y-16597493D01*
X8655907Y-16568921D01*
X8655907Y-16483207D01*
X8670193Y-16454636D01*
X8684478Y-16440350D01*
X8713050Y-16426064D01*
X8755907Y-16426064D01*
X8784478Y-16440350D01*
X8798764Y-16454636D01*
X8813050Y-16483207D01*
X8813050Y-16568921D01*
X8798764Y-16597493D01*
X8784478Y-16611779D01*
X8755907Y-16626064D01*
X8713050Y-16626064D01*
X8984478Y-16626064D02*
X8955907Y-16611779D01*
X8941621Y-16583207D01*
X8941621Y-16326064D01*
X9213050Y-16611779D02*
X9184479Y-16626064D01*
X9127336Y-16626064D01*
X9098764Y-16611779D01*
X9084479Y-16583207D01*
X9084479Y-16468921D01*
X9098764Y-16440350D01*
X9127336Y-16426064D01*
X9184479Y-16426064D01*
X9213050Y-16440350D01*
X9227336Y-16468921D01*
X9227336Y-16497493D01*
X9084479Y-16526064D01*
X9341621Y-16611779D02*
X9370193Y-16626064D01*
X9427336Y-16626064D01*
X9455907Y-16611779D01*
X9470193Y-16583207D01*
X9470193Y-16568921D01*
X9455907Y-16540350D01*
X9427336Y-16526064D01*
X9384479Y-16526064D01*
X9355907Y-16511779D01*
X9341621Y-16483207D01*
X9341621Y-16468921D01*
X9355907Y-16440350D01*
X9384479Y-16426064D01*
X9427336Y-16426064D01*
X9455907Y-16440350D01*
X9570193Y-16740350D02*
X9584479Y-16726064D01*
X9613050Y-16683207D01*
X9627336Y-16654636D01*
X9641621Y-16611779D01*
X9655907Y-16540350D01*
X9655907Y-16483207D01*
X9641621Y-16411779D01*
X9627336Y-16368921D01*
X9613050Y-16340350D01*
X9584479Y-16297493D01*
X9570193Y-16283207D01*
X2801333Y-16914638D02*
X2801333Y-16858062D01*
X2744757Y-16858062D01*
X2744757Y-16914638D01*
X2801333Y-16914638D01*
X3141621Y-16722064D02*
X3170193Y-16722064D01*
X3198764Y-16736350D01*
X3213050Y-16750636D01*
X3227336Y-16779207D01*
X3241621Y-16836350D01*
X3241621Y-16907779D01*
X3227336Y-16964922D01*
X3213050Y-16993493D01*
X3198764Y-17007779D01*
X3170193Y-17022064D01*
X3141621Y-17022064D01*
X3113050Y-17007779D01*
X3098764Y-16993493D01*
X3084478Y-16964922D01*
X3070193Y-16907779D01*
X3070193Y-16836350D01*
X3084478Y-16779207D01*
X3098764Y-16750636D01*
X3113050Y-16736350D01*
X3141621Y-16722064D01*
X3370193Y-16993493D02*
X3384478Y-17007779D01*
X3370193Y-17022064D01*
X3355907Y-17007779D01*
X3370193Y-16993493D01*
X3370193Y-17022064D01*
X3555907Y-16850636D02*
X3527336Y-16836350D01*
X3513050Y-16822064D01*
X3498764Y-16793493D01*
X3498764Y-16779207D01*
X3513050Y-16750636D01*
X3527336Y-16736350D01*
X3555907Y-16722064D01*
X3613050Y-16722064D01*
X3641621Y-16736350D01*
X3655907Y-16750636D01*
X3670193Y-16779207D01*
X3670193Y-16793493D01*
X3655907Y-16822064D01*
X3641621Y-16836350D01*
X3613050Y-16850636D01*
X3555907Y-16850636D01*
X3527336Y-16864922D01*
X3513050Y-16879207D01*
X3498764Y-16907779D01*
X3498764Y-16964922D01*
X3513050Y-16993493D01*
X3527336Y-17007779D01*
X3555907Y-17022064D01*
X3613050Y-17022064D01*
X3641621Y-17007779D01*
X3655907Y-16993493D01*
X3670193Y-16964922D01*
X3670193Y-16907779D01*
X3655907Y-16879207D01*
X3641621Y-16864922D01*
X3613050Y-16850636D01*
X3855907Y-16722064D02*
X3884478Y-16722064D01*
X3913050Y-16736350D01*
X3927336Y-16750636D01*
X3941621Y-16779207D01*
X3955907Y-16836350D01*
X3955907Y-16907779D01*
X3941621Y-16964922D01*
X3927336Y-16993493D01*
X3913050Y-17007779D01*
X3884478Y-17022064D01*
X3855907Y-17022064D01*
X3827336Y-17007779D01*
X3813050Y-16993493D01*
X3798764Y-16964922D01*
X3784478Y-16907779D01*
X3784478Y-16836350D01*
X3798764Y-16779207D01*
X3813050Y-16750636D01*
X3827336Y-16736350D01*
X3855907Y-16722064D01*
X4084478Y-17022064D02*
X4084478Y-16822064D01*
X4084478Y-16850636D02*
X4098764Y-16836350D01*
X4127336Y-16822064D01*
X4170193Y-16822064D01*
X4198764Y-16836350D01*
X4213050Y-16864922D01*
X4213050Y-17022064D01*
X4213050Y-16864922D02*
X4227336Y-16836350D01*
X4255907Y-16822064D01*
X4298764Y-16822064D01*
X4327336Y-16836350D01*
X4341621Y-16864922D01*
X4341621Y-17022064D01*
X4484479Y-17022064D02*
X4484479Y-16822064D01*
X4484479Y-16850636D02*
X4498764Y-16836350D01*
X4527336Y-16822064D01*
X4570193Y-16822064D01*
X4598764Y-16836350D01*
X4613050Y-16864922D01*
X4613050Y-17022064D01*
X4613050Y-16864922D02*
X4627336Y-16836350D01*
X4655907Y-16822064D01*
X4698764Y-16822064D01*
X4727336Y-16836350D01*
X4741621Y-16864922D01*
X4741621Y-17022064D01*
X5327336Y-16707779D02*
X5070193Y-17093493D01*
X5713050Y-16722064D02*
X5741621Y-16722064D01*
X5770193Y-16736350D01*
X5784478Y-16750636D01*
X5798764Y-16779207D01*
X5813050Y-16836350D01*
X5813050Y-16907779D01*
X5798764Y-16964922D01*
X5784478Y-16993493D01*
X5770193Y-17007779D01*
X5741621Y-17022064D01*
X5713050Y-17022064D01*
X5684478Y-17007779D01*
X5670193Y-16993493D01*
X5655907Y-16964922D01*
X5641621Y-16907779D01*
X5641621Y-16836350D01*
X5655907Y-16779207D01*
X5670193Y-16750636D01*
X5684478Y-16736350D01*
X5713050Y-16722064D01*
X5941621Y-16993493D02*
X5955907Y-17007779D01*
X5941621Y-17022064D01*
X5927336Y-17007779D01*
X5941621Y-16993493D01*
X5941621Y-17022064D01*
X6141621Y-16722064D02*
X6170193Y-16722064D01*
X6198764Y-16736350D01*
X6213050Y-16750636D01*
X6227335Y-16779207D01*
X6241621Y-16836350D01*
X6241621Y-16907779D01*
X6227335Y-16964922D01*
X6213050Y-16993493D01*
X6198764Y-17007779D01*
X6170193Y-17022064D01*
X6141621Y-17022064D01*
X6113050Y-17007779D01*
X6098764Y-16993493D01*
X6084478Y-16964922D01*
X6070193Y-16907779D01*
X6070193Y-16836350D01*
X6084478Y-16779207D01*
X6098764Y-16750636D01*
X6113050Y-16736350D01*
X6141621Y-16722064D01*
X6341621Y-16722064D02*
X6527335Y-16722064D01*
X6427335Y-16836350D01*
X6470193Y-16836350D01*
X6498764Y-16850636D01*
X6513050Y-16864922D01*
X6527335Y-16893493D01*
X6527335Y-16964922D01*
X6513050Y-16993493D01*
X6498764Y-17007779D01*
X6470193Y-17022064D01*
X6384478Y-17022064D01*
X6355907Y-17007779D01*
X6341621Y-16993493D01*
X6641621Y-16750636D02*
X6655907Y-16736350D01*
X6684478Y-16722064D01*
X6755907Y-16722064D01*
X6784478Y-16736350D01*
X6798764Y-16750636D01*
X6813050Y-16779207D01*
X6813050Y-16807779D01*
X6798764Y-16850636D01*
X6627335Y-17022064D01*
X6813050Y-17022064D01*
X6927336Y-16722064D02*
X6927336Y-16779207D01*
X7041621Y-16722064D02*
X7041621Y-16779207D01*
X7484478Y-17136350D02*
X7470193Y-17122064D01*
X7441621Y-17079207D01*
X7427335Y-17050636D01*
X7413050Y-17007779D01*
X7398764Y-16936350D01*
X7398764Y-16879207D01*
X7413050Y-16807779D01*
X7427335Y-16764921D01*
X7441621Y-16736350D01*
X7470193Y-16693493D01*
X7484478Y-16679207D01*
X7584478Y-16750636D02*
X7598764Y-16736350D01*
X7627335Y-16722064D01*
X7698764Y-16722064D01*
X7727335Y-16736350D01*
X7741621Y-16750636D01*
X7755907Y-16779207D01*
X7755907Y-16807779D01*
X7741621Y-16850636D01*
X7570193Y-17022064D01*
X7755907Y-17022064D01*
X8113050Y-17022064D02*
X8113050Y-16722064D01*
X8241621Y-17022064D02*
X8241621Y-16864922D01*
X8227335Y-16836350D01*
X8198764Y-16822064D01*
X8155907Y-16822064D01*
X8127335Y-16836350D01*
X8113050Y-16850636D01*
X8427336Y-17022064D02*
X8398764Y-17007779D01*
X8384478Y-16993493D01*
X8370193Y-16964922D01*
X8370193Y-16879207D01*
X8384478Y-16850636D01*
X8398764Y-16836350D01*
X8427336Y-16822064D01*
X8470193Y-16822064D01*
X8498764Y-16836350D01*
X8513050Y-16850636D01*
X8527336Y-16879207D01*
X8527336Y-16964922D01*
X8513050Y-16993493D01*
X8498764Y-17007779D01*
X8470193Y-17022064D01*
X8427336Y-17022064D01*
X8698764Y-17022064D02*
X8670193Y-17007779D01*
X8655907Y-16979207D01*
X8655907Y-16722064D01*
X8927336Y-17007779D02*
X8898764Y-17022064D01*
X8841621Y-17022064D01*
X8813050Y-17007779D01*
X8798764Y-16979207D01*
X8798764Y-16864922D01*
X8813050Y-16836350D01*
X8841621Y-16822064D01*
X8898764Y-16822064D01*
X8927336Y-16836350D01*
X8941621Y-16864922D01*
X8941621Y-16893493D01*
X8798764Y-16922064D01*
X9055907Y-17007779D02*
X9084479Y-17022064D01*
X9141621Y-17022064D01*
X9170193Y-17007779D01*
X9184479Y-16979207D01*
X9184479Y-16964922D01*
X9170193Y-16936350D01*
X9141621Y-16922064D01*
X9098764Y-16922064D01*
X9070193Y-16907779D01*
X9055907Y-16879207D01*
X9055907Y-16864922D01*
X9070193Y-16836350D01*
X9098764Y-16822064D01*
X9141621Y-16822064D01*
X9170193Y-16836350D01*
X9284478Y-17136350D02*
X9298764Y-17122064D01*
X9327336Y-17079207D01*
X9341621Y-17050636D01*
X9355907Y-17007779D01*
X9370193Y-16936350D01*
X9370193Y-16879207D01*
X9355907Y-16807779D01*
X9341621Y-16764921D01*
X9327336Y-16736350D01*
X9298764Y-16693493D01*
X9284478Y-16679207D01*
X2772410Y-17322990D02*
X2813050Y-17282350D01*
X2772410Y-17241710D01*
X2731770Y-17282350D01*
X2772410Y-17322990D01*
X3141621Y-17118064D02*
X3170193Y-17118064D01*
X3198764Y-17132350D01*
X3213050Y-17146636D01*
X3227336Y-17175207D01*
X3241621Y-17232350D01*
X3241621Y-17303779D01*
X3227336Y-17360922D01*
X3213050Y-17389493D01*
X3198764Y-17403779D01*
X3170193Y-17418064D01*
X3141621Y-17418064D01*
X3113050Y-17403779D01*
X3098764Y-17389493D01*
X3084478Y-17360922D01*
X3070193Y-17303779D01*
X3070193Y-17232350D01*
X3084478Y-17175207D01*
X3098764Y-17146636D01*
X3113050Y-17132350D01*
X3141621Y-17118064D01*
X3370193Y-17389493D02*
X3384478Y-17403779D01*
X3370193Y-17418064D01*
X3355907Y-17403779D01*
X3370193Y-17389493D01*
X3370193Y-17418064D01*
X3555907Y-17246636D02*
X3527336Y-17232350D01*
X3513050Y-17218064D01*
X3498764Y-17189493D01*
X3498764Y-17175207D01*
X3513050Y-17146636D01*
X3527336Y-17132350D01*
X3555907Y-17118064D01*
X3613050Y-17118064D01*
X3641621Y-17132350D01*
X3655907Y-17146636D01*
X3670193Y-17175207D01*
X3670193Y-17189493D01*
X3655907Y-17218064D01*
X3641621Y-17232350D01*
X3613050Y-17246636D01*
X3555907Y-17246636D01*
X3527336Y-17260922D01*
X3513050Y-17275207D01*
X3498764Y-17303779D01*
X3498764Y-17360922D01*
X3513050Y-17389493D01*
X3527336Y-17403779D01*
X3555907Y-17418064D01*
X3613050Y-17418064D01*
X3641621Y-17403779D01*
X3655907Y-17389493D01*
X3670193Y-17360922D01*
X3670193Y-17303779D01*
X3655907Y-17275207D01*
X3641621Y-17260922D01*
X3613050Y-17246636D01*
X3955907Y-17418064D02*
X3784478Y-17418064D01*
X3870193Y-17418064D02*
X3870193Y-17118064D01*
X3841621Y-17160922D01*
X3813050Y-17189493D01*
X3784478Y-17203779D01*
X4084478Y-17418064D02*
X4084478Y-17218064D01*
X4084478Y-17246636D02*
X4098764Y-17232350D01*
X4127336Y-17218064D01*
X4170193Y-17218064D01*
X4198764Y-17232350D01*
X4213050Y-17260922D01*
X4213050Y-17418064D01*
X4213050Y-17260922D02*
X4227336Y-17232350D01*
X4255907Y-17218064D01*
X4298764Y-17218064D01*
X4327336Y-17232350D01*
X4341621Y-17260922D01*
X4341621Y-17418064D01*
X4484479Y-17418064D02*
X4484479Y-17218064D01*
X4484479Y-17246636D02*
X4498764Y-17232350D01*
X4527336Y-17218064D01*
X4570193Y-17218064D01*
X4598764Y-17232350D01*
X4613050Y-17260922D01*
X4613050Y-17418064D01*
X4613050Y-17260922D02*
X4627336Y-17232350D01*
X4655907Y-17218064D01*
X4698764Y-17218064D01*
X4727336Y-17232350D01*
X4741621Y-17260922D01*
X4741621Y-17418064D01*
X5327336Y-17103779D02*
X5070193Y-17489493D01*
X5713050Y-17118064D02*
X5741621Y-17118064D01*
X5770193Y-17132350D01*
X5784478Y-17146636D01*
X5798764Y-17175207D01*
X5813050Y-17232350D01*
X5813050Y-17303779D01*
X5798764Y-17360922D01*
X5784478Y-17389493D01*
X5770193Y-17403779D01*
X5741621Y-17418064D01*
X5713050Y-17418064D01*
X5684478Y-17403779D01*
X5670193Y-17389493D01*
X5655907Y-17360922D01*
X5641621Y-17303779D01*
X5641621Y-17232350D01*
X5655907Y-17175207D01*
X5670193Y-17146636D01*
X5684478Y-17132350D01*
X5713050Y-17118064D01*
X5941621Y-17389493D02*
X5955907Y-17403779D01*
X5941621Y-17418064D01*
X5927336Y-17403779D01*
X5941621Y-17389493D01*
X5941621Y-17418064D01*
X6141621Y-17118064D02*
X6170193Y-17118064D01*
X6198764Y-17132350D01*
X6213050Y-17146636D01*
X6227335Y-17175207D01*
X6241621Y-17232350D01*
X6241621Y-17303779D01*
X6227335Y-17360922D01*
X6213050Y-17389493D01*
X6198764Y-17403779D01*
X6170193Y-17418064D01*
X6141621Y-17418064D01*
X6113050Y-17403779D01*
X6098764Y-17389493D01*
X6084478Y-17360922D01*
X6070193Y-17303779D01*
X6070193Y-17232350D01*
X6084478Y-17175207D01*
X6098764Y-17146636D01*
X6113050Y-17132350D01*
X6141621Y-17118064D01*
X6341621Y-17118064D02*
X6527335Y-17118064D01*
X6427335Y-17232350D01*
X6470193Y-17232350D01*
X6498764Y-17246636D01*
X6513050Y-17260922D01*
X6527335Y-17289493D01*
X6527335Y-17360922D01*
X6513050Y-17389493D01*
X6498764Y-17403779D01*
X6470193Y-17418064D01*
X6384478Y-17418064D01*
X6355907Y-17403779D01*
X6341621Y-17389493D01*
X6641621Y-17146636D02*
X6655907Y-17132350D01*
X6684478Y-17118064D01*
X6755907Y-17118064D01*
X6784478Y-17132350D01*
X6798764Y-17146636D01*
X6813050Y-17175207D01*
X6813050Y-17203779D01*
X6798764Y-17246636D01*
X6627335Y-17418064D01*
X6813050Y-17418064D01*
X6927336Y-17118064D02*
X6927336Y-17175207D01*
X7041621Y-17118064D02*
X7041621Y-17175207D01*
X7484478Y-17532350D02*
X7470193Y-17518064D01*
X7441621Y-17475207D01*
X7427335Y-17446636D01*
X7413050Y-17403779D01*
X7398764Y-17332350D01*
X7398764Y-17275207D01*
X7413050Y-17203779D01*
X7427335Y-17160922D01*
X7441621Y-17132350D01*
X7470193Y-17089493D01*
X7484478Y-17075207D01*
X7727335Y-17118064D02*
X7670193Y-17118064D01*
X7641621Y-17132350D01*
X7627335Y-17146636D01*
X7598764Y-17189493D01*
X7584478Y-17246636D01*
X7584478Y-17360922D01*
X7598764Y-17389493D01*
X7613050Y-17403779D01*
X7641621Y-17418064D01*
X7698764Y-17418064D01*
X7727335Y-17403779D01*
X7741621Y-17389493D01*
X7755907Y-17360922D01*
X7755907Y-17289493D01*
X7741621Y-17260922D01*
X7727335Y-17246636D01*
X7698764Y-17232350D01*
X7641621Y-17232350D01*
X7613050Y-17246636D01*
X7598764Y-17260922D01*
X7584478Y-17289493D01*
X8113050Y-17418064D02*
X8113050Y-17118064D01*
X8241621Y-17418064D02*
X8241621Y-17260922D01*
X8227335Y-17232350D01*
X8198764Y-17218064D01*
X8155907Y-17218064D01*
X8127335Y-17232350D01*
X8113050Y-17246636D01*
X8427336Y-17418064D02*
X8398764Y-17403779D01*
X8384478Y-17389493D01*
X8370193Y-17360922D01*
X8370193Y-17275207D01*
X8384478Y-17246636D01*
X8398764Y-17232350D01*
X8427336Y-17218064D01*
X8470193Y-17218064D01*
X8498764Y-17232350D01*
X8513050Y-17246636D01*
X8527336Y-17275207D01*
X8527336Y-17360922D01*
X8513050Y-17389493D01*
X8498764Y-17403779D01*
X8470193Y-17418064D01*
X8427336Y-17418064D01*
X8698764Y-17418064D02*
X8670193Y-17403779D01*
X8655907Y-17375207D01*
X8655907Y-17118064D01*
X8927336Y-17403779D02*
X8898764Y-17418064D01*
X8841621Y-17418064D01*
X8813050Y-17403779D01*
X8798764Y-17375207D01*
X8798764Y-17260922D01*
X8813050Y-17232350D01*
X8841621Y-17218064D01*
X8898764Y-17218064D01*
X8927336Y-17232350D01*
X8941621Y-17260922D01*
X8941621Y-17289493D01*
X8798764Y-17318064D01*
X9055907Y-17403779D02*
X9084479Y-17418064D01*
X9141621Y-17418064D01*
X9170193Y-17403779D01*
X9184479Y-17375207D01*
X9184479Y-17360922D01*
X9170193Y-17332350D01*
X9141621Y-17318064D01*
X9098764Y-17318064D01*
X9070193Y-17303779D01*
X9055907Y-17275207D01*
X9055907Y-17260922D01*
X9070193Y-17232350D01*
X9098764Y-17218064D01*
X9141621Y-17218064D01*
X9170193Y-17232350D01*
X9284478Y-17532350D02*
X9298764Y-17518064D01*
X9327336Y-17475207D01*
X9341621Y-17446636D01*
X9355907Y-17403779D01*
X9370193Y-17332350D01*
X9370193Y-17275207D01*
X9355907Y-17203779D01*
X9341621Y-17160922D01*
X9327336Y-17132350D01*
X9298764Y-17089493D01*
X9284478Y-17075207D01*
X2713050Y-17628350D02*
X2813050Y-17728350D01*
X2813050Y-17628350D02*
X2713050Y-17728350D01*
X2813050Y-17678350D02*
G75*
G03X2813050Y-17678350I-50000J0D01*
G01*
X3241621Y-17814064D02*
X3070193Y-17814064D01*
X3155907Y-17814064D02*
X3155907Y-17514064D01*
X3127336Y-17556922D01*
X3098764Y-17585493D01*
X3070193Y-17599779D01*
X3370193Y-17785493D02*
X3384478Y-17799779D01*
X3370193Y-17814064D01*
X3355907Y-17799779D01*
X3370193Y-17785493D01*
X3370193Y-17814064D01*
X3570193Y-17514064D02*
X3598764Y-17514064D01*
X3627336Y-17528350D01*
X3641621Y-17542636D01*
X3655907Y-17571207D01*
X3670193Y-17628350D01*
X3670193Y-17699779D01*
X3655907Y-17756922D01*
X3641621Y-17785493D01*
X3627336Y-17799779D01*
X3598764Y-17814064D01*
X3570193Y-17814064D01*
X3541621Y-17799779D01*
X3527336Y-17785493D01*
X3513050Y-17756922D01*
X3498764Y-17699779D01*
X3498764Y-17628350D01*
X3513050Y-17571207D01*
X3527336Y-17542636D01*
X3541621Y-17528350D01*
X3570193Y-17514064D01*
X3855907Y-17514064D02*
X3884478Y-17514064D01*
X3913050Y-17528350D01*
X3927336Y-17542636D01*
X3941621Y-17571207D01*
X3955907Y-17628350D01*
X3955907Y-17699779D01*
X3941621Y-17756922D01*
X3927336Y-17785493D01*
X3913050Y-17799779D01*
X3884478Y-17814064D01*
X3855907Y-17814064D01*
X3827336Y-17799779D01*
X3813050Y-17785493D01*
X3798764Y-17756922D01*
X3784478Y-17699779D01*
X3784478Y-17628350D01*
X3798764Y-17571207D01*
X3813050Y-17542636D01*
X3827336Y-17528350D01*
X3855907Y-17514064D01*
X4084478Y-17814064D02*
X4084478Y-17614064D01*
X4084478Y-17642636D02*
X4098764Y-17628350D01*
X4127336Y-17614064D01*
X4170193Y-17614064D01*
X4198764Y-17628350D01*
X4213050Y-17656922D01*
X4213050Y-17814064D01*
X4213050Y-17656922D02*
X4227336Y-17628350D01*
X4255907Y-17614064D01*
X4298764Y-17614064D01*
X4327336Y-17628350D01*
X4341621Y-17656922D01*
X4341621Y-17814064D01*
X4484479Y-17814064D02*
X4484479Y-17614064D01*
X4484479Y-17642636D02*
X4498764Y-17628350D01*
X4527336Y-17614064D01*
X4570193Y-17614064D01*
X4598764Y-17628350D01*
X4613050Y-17656922D01*
X4613050Y-17814064D01*
X4613050Y-17656922D02*
X4627336Y-17628350D01*
X4655907Y-17614064D01*
X4698764Y-17614064D01*
X4727336Y-17628350D01*
X4741621Y-17656922D01*
X4741621Y-17814064D01*
X5327336Y-17499779D02*
X5070193Y-17885493D01*
X5713050Y-17514064D02*
X5741621Y-17514064D01*
X5770193Y-17528350D01*
X5784478Y-17542636D01*
X5798764Y-17571207D01*
X5813050Y-17628350D01*
X5813050Y-17699779D01*
X5798764Y-17756922D01*
X5784478Y-17785493D01*
X5770193Y-17799779D01*
X5741621Y-17814064D01*
X5713050Y-17814064D01*
X5684478Y-17799779D01*
X5670193Y-17785493D01*
X5655907Y-17756922D01*
X5641621Y-17699779D01*
X5641621Y-17628350D01*
X5655907Y-17571207D01*
X5670193Y-17542636D01*
X5684478Y-17528350D01*
X5713050Y-17514064D01*
X5941621Y-17785493D02*
X5955907Y-17799779D01*
X5941621Y-17814064D01*
X5927336Y-17799779D01*
X5941621Y-17785493D01*
X5941621Y-17814064D01*
X6141621Y-17514064D02*
X6170193Y-17514064D01*
X6198764Y-17528350D01*
X6213050Y-17542636D01*
X6227335Y-17571207D01*
X6241621Y-17628350D01*
X6241621Y-17699779D01*
X6227335Y-17756922D01*
X6213050Y-17785493D01*
X6198764Y-17799779D01*
X6170193Y-17814064D01*
X6141621Y-17814064D01*
X6113050Y-17799779D01*
X6098764Y-17785493D01*
X6084478Y-17756922D01*
X6070193Y-17699779D01*
X6070193Y-17628350D01*
X6084478Y-17571207D01*
X6098764Y-17542636D01*
X6113050Y-17528350D01*
X6141621Y-17514064D01*
X6341621Y-17514064D02*
X6527335Y-17514064D01*
X6427335Y-17628350D01*
X6470193Y-17628350D01*
X6498764Y-17642636D01*
X6513050Y-17656922D01*
X6527335Y-17685493D01*
X6527335Y-17756922D01*
X6513050Y-17785493D01*
X6498764Y-17799779D01*
X6470193Y-17814064D01*
X6384478Y-17814064D01*
X6355907Y-17799779D01*
X6341621Y-17785493D01*
X6670193Y-17814064D02*
X6727335Y-17814064D01*
X6755907Y-17799779D01*
X6770193Y-17785493D01*
X6798764Y-17742636D01*
X6813050Y-17685493D01*
X6813050Y-17571207D01*
X6798764Y-17542636D01*
X6784478Y-17528350D01*
X6755907Y-17514064D01*
X6698764Y-17514064D01*
X6670193Y-17528350D01*
X6655907Y-17542636D01*
X6641621Y-17571207D01*
X6641621Y-17642636D01*
X6655907Y-17671207D01*
X6670193Y-17685493D01*
X6698764Y-17699779D01*
X6755907Y-17699779D01*
X6784478Y-17685493D01*
X6798764Y-17671207D01*
X6813050Y-17642636D01*
X6927336Y-17514064D02*
X6927336Y-17571207D01*
X7041621Y-17514064D02*
X7041621Y-17571207D01*
X7484478Y-17928350D02*
X7470193Y-17914064D01*
X7441621Y-17871207D01*
X7427335Y-17842636D01*
X7413050Y-17799779D01*
X7398764Y-17728350D01*
X7398764Y-17671207D01*
X7413050Y-17599779D01*
X7427335Y-17556922D01*
X7441621Y-17528350D01*
X7470193Y-17485493D01*
X7484478Y-17471207D01*
X7641621Y-17642636D02*
X7613050Y-17628350D01*
X7598764Y-17614064D01*
X7584478Y-17585493D01*
X7584478Y-17571207D01*
X7598764Y-17542636D01*
X7613050Y-17528350D01*
X7641621Y-17514064D01*
X7698764Y-17514064D01*
X7727335Y-17528350D01*
X7741621Y-17542636D01*
X7755907Y-17571207D01*
X7755907Y-17585493D01*
X7741621Y-17614064D01*
X7727335Y-17628350D01*
X7698764Y-17642636D01*
X7641621Y-17642636D01*
X7613050Y-17656922D01*
X7598764Y-17671207D01*
X7584478Y-17699779D01*
X7584478Y-17756922D01*
X7598764Y-17785493D01*
X7613050Y-17799779D01*
X7641621Y-17814064D01*
X7698764Y-17814064D01*
X7727335Y-17799779D01*
X7741621Y-17785493D01*
X7755907Y-17756922D01*
X7755907Y-17699779D01*
X7741621Y-17671207D01*
X7727335Y-17656922D01*
X7698764Y-17642636D01*
X8013050Y-17514064D02*
X7955907Y-17514064D01*
X7927335Y-17528350D01*
X7913050Y-17542636D01*
X7884478Y-17585493D01*
X7870193Y-17642636D01*
X7870193Y-17756922D01*
X7884478Y-17785493D01*
X7898764Y-17799779D01*
X7927335Y-17814064D01*
X7984478Y-17814064D01*
X8013050Y-17799779D01*
X8027335Y-17785493D01*
X8041621Y-17756922D01*
X8041621Y-17685493D01*
X8027335Y-17656922D01*
X8013050Y-17642636D01*
X7984478Y-17628350D01*
X7927335Y-17628350D01*
X7898764Y-17642636D01*
X7884478Y-17656922D01*
X7870193Y-17685493D01*
X8398764Y-17814064D02*
X8398764Y-17514064D01*
X8527336Y-17814064D02*
X8527336Y-17656922D01*
X8513050Y-17628350D01*
X8484478Y-17614064D01*
X8441621Y-17614064D01*
X8413050Y-17628350D01*
X8398764Y-17642636D01*
X8713050Y-17814064D02*
X8684478Y-17799779D01*
X8670193Y-17785493D01*
X8655907Y-17756922D01*
X8655907Y-17671207D01*
X8670193Y-17642636D01*
X8684478Y-17628350D01*
X8713050Y-17614064D01*
X8755907Y-17614064D01*
X8784478Y-17628350D01*
X8798764Y-17642636D01*
X8813050Y-17671207D01*
X8813050Y-17756922D01*
X8798764Y-17785493D01*
X8784478Y-17799779D01*
X8755907Y-17814064D01*
X8713050Y-17814064D01*
X8984478Y-17814064D02*
X8955907Y-17799779D01*
X8941621Y-17771207D01*
X8941621Y-17514064D01*
X9213050Y-17799779D02*
X9184479Y-17814064D01*
X9127336Y-17814064D01*
X9098764Y-17799779D01*
X9084479Y-17771207D01*
X9084479Y-17656922D01*
X9098764Y-17628350D01*
X9127336Y-17614064D01*
X9184479Y-17614064D01*
X9213050Y-17628350D01*
X9227336Y-17656922D01*
X9227336Y-17685493D01*
X9084479Y-17714064D01*
X9341621Y-17799779D02*
X9370193Y-17814064D01*
X9427336Y-17814064D01*
X9455907Y-17799779D01*
X9470193Y-17771207D01*
X9470193Y-17756922D01*
X9455907Y-17728350D01*
X9427336Y-17714064D01*
X9384479Y-17714064D01*
X9355907Y-17699779D01*
X9341621Y-17671207D01*
X9341621Y-17656922D01*
X9355907Y-17628350D01*
X9384479Y-17614064D01*
X9427336Y-17614064D01*
X9455907Y-17628350D01*
X9570193Y-17928350D02*
X9584479Y-17914064D01*
X9613050Y-17871207D01*
X9627336Y-17842636D01*
X9641621Y-17799779D01*
X9655907Y-17728350D01*
X9655907Y-17671207D01*
X9641621Y-17599779D01*
X9627336Y-17556922D01*
X9613050Y-17528350D01*
X9584479Y-17485493D01*
X9570193Y-17471207D01*
X2712974Y-18024312D02*
X2813050Y-18124388D01*
X2813050Y-18024312D02*
X2712974Y-18124388D01*
X2763012Y-18024312D02*
X2763012Y-18124388D01*
X2712974Y-18074350D02*
X2813050Y-18074350D01*
X3241621Y-18210064D02*
X3070193Y-18210064D01*
X3155907Y-18210064D02*
X3155907Y-17910064D01*
X3127336Y-17952922D01*
X3098764Y-17981493D01*
X3070193Y-17995779D01*
X3370193Y-18181493D02*
X3384478Y-18195779D01*
X3370193Y-18210064D01*
X3355907Y-18195779D01*
X3370193Y-18181493D01*
X3370193Y-18210064D01*
X3570193Y-17910064D02*
X3598764Y-17910064D01*
X3627336Y-17924350D01*
X3641621Y-17938636D01*
X3655907Y-17967207D01*
X3670193Y-18024350D01*
X3670193Y-18095779D01*
X3655907Y-18152922D01*
X3641621Y-18181493D01*
X3627336Y-18195779D01*
X3598764Y-18210064D01*
X3570193Y-18210064D01*
X3541621Y-18195779D01*
X3527336Y-18181493D01*
X3513050Y-18152922D01*
X3498764Y-18095779D01*
X3498764Y-18024350D01*
X3513050Y-17967207D01*
X3527336Y-17938636D01*
X3541621Y-17924350D01*
X3570193Y-17910064D01*
X3855907Y-17910064D02*
X3884478Y-17910064D01*
X3913050Y-17924350D01*
X3927336Y-17938636D01*
X3941621Y-17967207D01*
X3955907Y-18024350D01*
X3955907Y-18095779D01*
X3941621Y-18152922D01*
X3927336Y-18181493D01*
X3913050Y-18195779D01*
X3884478Y-18210064D01*
X3855907Y-18210064D01*
X3827336Y-18195779D01*
X3813050Y-18181493D01*
X3798764Y-18152922D01*
X3784478Y-18095779D01*
X3784478Y-18024350D01*
X3798764Y-17967207D01*
X3813050Y-17938636D01*
X3827336Y-17924350D01*
X3855907Y-17910064D01*
X4084478Y-18210064D02*
X4084478Y-18010064D01*
X4084478Y-18038636D02*
X4098764Y-18024350D01*
X4127336Y-18010064D01*
X4170193Y-18010064D01*
X4198764Y-18024350D01*
X4213050Y-18052922D01*
X4213050Y-18210064D01*
X4213050Y-18052922D02*
X4227336Y-18024350D01*
X4255907Y-18010064D01*
X4298764Y-18010064D01*
X4327336Y-18024350D01*
X4341621Y-18052922D01*
X4341621Y-18210064D01*
X4484479Y-18210064D02*
X4484479Y-18010064D01*
X4484479Y-18038636D02*
X4498764Y-18024350D01*
X4527336Y-18010064D01*
X4570193Y-18010064D01*
X4598764Y-18024350D01*
X4613050Y-18052922D01*
X4613050Y-18210064D01*
X4613050Y-18052922D02*
X4627336Y-18024350D01*
X4655907Y-18010064D01*
X4698764Y-18010064D01*
X4727336Y-18024350D01*
X4741621Y-18052922D01*
X4741621Y-18210064D01*
X5327336Y-17895779D02*
X5070193Y-18281493D01*
X5713050Y-17910064D02*
X5741621Y-17910064D01*
X5770193Y-17924350D01*
X5784478Y-17938636D01*
X5798764Y-17967207D01*
X5813050Y-18024350D01*
X5813050Y-18095779D01*
X5798764Y-18152922D01*
X5784478Y-18181493D01*
X5770193Y-18195779D01*
X5741621Y-18210064D01*
X5713050Y-18210064D01*
X5684478Y-18195779D01*
X5670193Y-18181493D01*
X5655907Y-18152922D01*
X5641621Y-18095779D01*
X5641621Y-18024350D01*
X5655907Y-17967207D01*
X5670193Y-17938636D01*
X5684478Y-17924350D01*
X5713050Y-17910064D01*
X5941621Y-18181493D02*
X5955907Y-18195779D01*
X5941621Y-18210064D01*
X5927336Y-18195779D01*
X5941621Y-18181493D01*
X5941621Y-18210064D01*
X6141621Y-17910064D02*
X6170193Y-17910064D01*
X6198764Y-17924350D01*
X6213050Y-17938636D01*
X6227335Y-17967207D01*
X6241621Y-18024350D01*
X6241621Y-18095779D01*
X6227335Y-18152922D01*
X6213050Y-18181493D01*
X6198764Y-18195779D01*
X6170193Y-18210064D01*
X6141621Y-18210064D01*
X6113050Y-18195779D01*
X6098764Y-18181493D01*
X6084478Y-18152922D01*
X6070193Y-18095779D01*
X6070193Y-18024350D01*
X6084478Y-17967207D01*
X6098764Y-17938636D01*
X6113050Y-17924350D01*
X6141621Y-17910064D01*
X6341621Y-17910064D02*
X6527335Y-17910064D01*
X6427335Y-18024350D01*
X6470193Y-18024350D01*
X6498764Y-18038636D01*
X6513050Y-18052922D01*
X6527335Y-18081493D01*
X6527335Y-18152922D01*
X6513050Y-18181493D01*
X6498764Y-18195779D01*
X6470193Y-18210064D01*
X6384478Y-18210064D01*
X6355907Y-18195779D01*
X6341621Y-18181493D01*
X6670193Y-18210064D02*
X6727335Y-18210064D01*
X6755907Y-18195779D01*
X6770193Y-18181493D01*
X6798764Y-18138636D01*
X6813050Y-18081493D01*
X6813050Y-17967207D01*
X6798764Y-17938636D01*
X6784478Y-17924350D01*
X6755907Y-17910064D01*
X6698764Y-17910064D01*
X6670193Y-17924350D01*
X6655907Y-17938636D01*
X6641621Y-17967207D01*
X6641621Y-18038636D01*
X6655907Y-18067207D01*
X6670193Y-18081493D01*
X6698764Y-18095779D01*
X6755907Y-18095779D01*
X6784478Y-18081493D01*
X6798764Y-18067207D01*
X6813050Y-18038636D01*
X6927336Y-17910064D02*
X6927336Y-17967207D01*
X7041621Y-17910064D02*
X7041621Y-17967207D01*
X7484478Y-18324350D02*
X7470193Y-18310064D01*
X7441621Y-18267207D01*
X7427335Y-18238636D01*
X7413050Y-18195779D01*
X7398764Y-18124350D01*
X7398764Y-18067207D01*
X7413050Y-17995779D01*
X7427335Y-17952922D01*
X7441621Y-17924350D01*
X7470193Y-17881493D01*
X7484478Y-17867207D01*
X7741621Y-17910064D02*
X7598764Y-17910064D01*
X7584478Y-18052922D01*
X7598764Y-18038636D01*
X7627335Y-18024350D01*
X7698764Y-18024350D01*
X7727335Y-18038636D01*
X7741621Y-18052922D01*
X7755907Y-18081493D01*
X7755907Y-18152922D01*
X7741621Y-18181493D01*
X7727335Y-18195779D01*
X7698764Y-18210064D01*
X7627335Y-18210064D01*
X7598764Y-18195779D01*
X7584478Y-18181493D01*
X8041621Y-18210064D02*
X7870193Y-18210064D01*
X7955907Y-18210064D02*
X7955907Y-17910064D01*
X7927335Y-17952922D01*
X7898764Y-17981493D01*
X7870193Y-17995779D01*
X8398764Y-18210064D02*
X8398764Y-17910064D01*
X8527336Y-18210064D02*
X8527336Y-18052922D01*
X8513050Y-18024350D01*
X8484478Y-18010064D01*
X8441621Y-18010064D01*
X8413050Y-18024350D01*
X8398764Y-18038636D01*
X8713050Y-18210064D02*
X8684478Y-18195779D01*
X8670193Y-18181493D01*
X8655907Y-18152922D01*
X8655907Y-18067207D01*
X8670193Y-18038636D01*
X8684478Y-18024350D01*
X8713050Y-18010064D01*
X8755907Y-18010064D01*
X8784478Y-18024350D01*
X8798764Y-18038636D01*
X8813050Y-18067207D01*
X8813050Y-18152922D01*
X8798764Y-18181493D01*
X8784478Y-18195779D01*
X8755907Y-18210064D01*
X8713050Y-18210064D01*
X8984478Y-18210064D02*
X8955907Y-18195779D01*
X8941621Y-18167207D01*
X8941621Y-17910064D01*
X9213050Y-18195779D02*
X9184479Y-18210064D01*
X9127336Y-18210064D01*
X9098764Y-18195779D01*
X9084479Y-18167207D01*
X9084479Y-18052922D01*
X9098764Y-18024350D01*
X9127336Y-18010064D01*
X9184479Y-18010064D01*
X9213050Y-18024350D01*
X9227336Y-18052922D01*
X9227336Y-18081493D01*
X9084479Y-18110064D01*
X9341621Y-18195779D02*
X9370193Y-18210064D01*
X9427336Y-18210064D01*
X9455907Y-18195779D01*
X9470193Y-18167207D01*
X9470193Y-18152922D01*
X9455907Y-18124350D01*
X9427336Y-18110064D01*
X9384479Y-18110064D01*
X9355907Y-18095779D01*
X9341621Y-18067207D01*
X9341621Y-18052922D01*
X9355907Y-18024350D01*
X9384479Y-18010064D01*
X9427336Y-18010064D01*
X9455907Y-18024350D01*
X9570193Y-18324350D02*
X9584479Y-18310064D01*
X9613050Y-18267207D01*
X9627336Y-18238636D01*
X9641621Y-18195779D01*
X9655907Y-18124350D01*
X9655907Y-18067207D01*
X9641621Y-17995779D01*
X9627336Y-17952922D01*
X9613050Y-17924350D01*
X9584479Y-17881493D01*
X9570193Y-17867207D01*
X2513050Y-18320350D02*
X2813050Y-18620350D01*
X2813050Y-18320350D02*
X2513050Y-18620350D01*
X2769117Y-18576417D02*
X2769117Y-18364283D01*
X2556983Y-18364283D01*
X2556983Y-18576417D01*
X2769117Y-18576417D01*
X3055907Y-18306064D02*
X3241621Y-18306064D01*
X3141621Y-18420350D01*
X3184478Y-18420350D01*
X3213050Y-18434636D01*
X3227336Y-18448922D01*
X3241621Y-18477493D01*
X3241621Y-18548922D01*
X3227336Y-18577493D01*
X3213050Y-18591779D01*
X3184478Y-18606064D01*
X3098764Y-18606064D01*
X3070193Y-18591779D01*
X3055907Y-18577493D01*
X3370193Y-18577493D02*
X3384478Y-18591779D01*
X3370193Y-18606064D01*
X3355907Y-18591779D01*
X3370193Y-18577493D01*
X3370193Y-18606064D01*
X3570193Y-18306064D02*
X3598764Y-18306064D01*
X3627336Y-18320350D01*
X3641621Y-18334636D01*
X3655907Y-18363207D01*
X3670193Y-18420350D01*
X3670193Y-18491779D01*
X3655907Y-18548922D01*
X3641621Y-18577493D01*
X3627336Y-18591779D01*
X3598764Y-18606064D01*
X3570193Y-18606064D01*
X3541621Y-18591779D01*
X3527336Y-18577493D01*
X3513050Y-18548922D01*
X3498764Y-18491779D01*
X3498764Y-18420350D01*
X3513050Y-18363207D01*
X3527336Y-18334636D01*
X3541621Y-18320350D01*
X3570193Y-18306064D01*
X3855907Y-18306064D02*
X3884478Y-18306064D01*
X3913050Y-18320350D01*
X3927336Y-18334636D01*
X3941621Y-18363207D01*
X3955907Y-18420350D01*
X3955907Y-18491779D01*
X3941621Y-18548922D01*
X3927336Y-18577493D01*
X3913050Y-18591779D01*
X3884478Y-18606064D01*
X3855907Y-18606064D01*
X3827336Y-18591779D01*
X3813050Y-18577493D01*
X3798764Y-18548922D01*
X3784478Y-18491779D01*
X3784478Y-18420350D01*
X3798764Y-18363207D01*
X3813050Y-18334636D01*
X3827336Y-18320350D01*
X3855907Y-18306064D01*
X4084478Y-18606064D02*
X4084478Y-18406064D01*
X4084478Y-18434636D02*
X4098764Y-18420350D01*
X4127336Y-18406064D01*
X4170193Y-18406064D01*
X4198764Y-18420350D01*
X4213050Y-18448922D01*
X4213050Y-18606064D01*
X4213050Y-18448922D02*
X4227336Y-18420350D01*
X4255907Y-18406064D01*
X4298764Y-18406064D01*
X4327336Y-18420350D01*
X4341621Y-18448922D01*
X4341621Y-18606064D01*
X4484479Y-18606064D02*
X4484479Y-18406064D01*
X4484479Y-18434636D02*
X4498764Y-18420350D01*
X4527336Y-18406064D01*
X4570193Y-18406064D01*
X4598764Y-18420350D01*
X4613050Y-18448922D01*
X4613050Y-18606064D01*
X4613050Y-18448922D02*
X4627336Y-18420350D01*
X4655907Y-18406064D01*
X4698764Y-18406064D01*
X4727336Y-18420350D01*
X4741621Y-18448922D01*
X4741621Y-18606064D01*
X5327336Y-18291779D02*
X5070193Y-18677493D01*
X5713050Y-18306064D02*
X5741621Y-18306064D01*
X5770193Y-18320350D01*
X5784478Y-18334636D01*
X5798764Y-18363207D01*
X5813050Y-18420350D01*
X5813050Y-18491779D01*
X5798764Y-18548922D01*
X5784478Y-18577493D01*
X5770193Y-18591779D01*
X5741621Y-18606064D01*
X5713050Y-18606064D01*
X5684478Y-18591779D01*
X5670193Y-18577493D01*
X5655907Y-18548922D01*
X5641621Y-18491779D01*
X5641621Y-18420350D01*
X5655907Y-18363207D01*
X5670193Y-18334636D01*
X5684478Y-18320350D01*
X5713050Y-18306064D01*
X5941621Y-18577493D02*
X5955907Y-18591779D01*
X5941621Y-18606064D01*
X5927336Y-18591779D01*
X5941621Y-18577493D01*
X5941621Y-18606064D01*
X6241621Y-18606064D02*
X6070193Y-18606064D01*
X6155907Y-18606064D02*
X6155907Y-18306064D01*
X6127335Y-18348922D01*
X6098764Y-18377493D01*
X6070193Y-18391779D01*
X6527335Y-18606064D02*
X6355907Y-18606064D01*
X6441621Y-18606064D02*
X6441621Y-18306064D01*
X6413050Y-18348922D01*
X6384478Y-18377493D01*
X6355907Y-18391779D01*
X6698764Y-18434636D02*
X6670193Y-18420350D01*
X6655907Y-18406064D01*
X6641621Y-18377493D01*
X6641621Y-18363207D01*
X6655907Y-18334636D01*
X6670193Y-18320350D01*
X6698764Y-18306064D01*
X6755907Y-18306064D01*
X6784478Y-18320350D01*
X6798764Y-18334636D01*
X6813050Y-18363207D01*
X6813050Y-18377493D01*
X6798764Y-18406064D01*
X6784478Y-18420350D01*
X6755907Y-18434636D01*
X6698764Y-18434636D01*
X6670193Y-18448922D01*
X6655907Y-18463207D01*
X6641621Y-18491779D01*
X6641621Y-18548922D01*
X6655907Y-18577493D01*
X6670193Y-18591779D01*
X6698764Y-18606064D01*
X6755907Y-18606064D01*
X6784478Y-18591779D01*
X6798764Y-18577493D01*
X6813050Y-18548922D01*
X6813050Y-18491779D01*
X6798764Y-18463207D01*
X6784478Y-18448922D01*
X6755907Y-18434636D01*
X6927336Y-18306064D02*
X6927336Y-18363207D01*
X7041621Y-18306064D02*
X7041621Y-18363207D01*
X7484478Y-18720350D02*
X7470193Y-18706064D01*
X7441621Y-18663207D01*
X7427335Y-18634636D01*
X7413050Y-18591779D01*
X7398764Y-18520350D01*
X7398764Y-18463207D01*
X7413050Y-18391779D01*
X7427335Y-18348922D01*
X7441621Y-18320350D01*
X7470193Y-18277493D01*
X7484478Y-18263207D01*
X7584478Y-18334636D02*
X7598764Y-18320350D01*
X7627335Y-18306064D01*
X7698764Y-18306064D01*
X7727335Y-18320350D01*
X7741621Y-18334636D01*
X7755907Y-18363207D01*
X7755907Y-18391779D01*
X7741621Y-18434636D01*
X7570193Y-18606064D01*
X7755907Y-18606064D01*
X8113050Y-18606064D02*
X8113050Y-18306064D01*
X8241621Y-18606064D02*
X8241621Y-18448922D01*
X8227335Y-18420350D01*
X8198764Y-18406064D01*
X8155907Y-18406064D01*
X8127335Y-18420350D01*
X8113050Y-18434636D01*
X8427336Y-18606064D02*
X8398764Y-18591779D01*
X8384478Y-18577493D01*
X8370193Y-18548922D01*
X8370193Y-18463207D01*
X8384478Y-18434636D01*
X8398764Y-18420350D01*
X8427336Y-18406064D01*
X8470193Y-18406064D01*
X8498764Y-18420350D01*
X8513050Y-18434636D01*
X8527336Y-18463207D01*
X8527336Y-18548922D01*
X8513050Y-18577493D01*
X8498764Y-18591779D01*
X8470193Y-18606064D01*
X8427336Y-18606064D01*
X8698764Y-18606064D02*
X8670193Y-18591779D01*
X8655907Y-18563207D01*
X8655907Y-18306064D01*
X8927336Y-18591779D02*
X8898764Y-18606064D01*
X8841621Y-18606064D01*
X8813050Y-18591779D01*
X8798764Y-18563207D01*
X8798764Y-18448922D01*
X8813050Y-18420350D01*
X8841621Y-18406064D01*
X8898764Y-18406064D01*
X8927336Y-18420350D01*
X8941621Y-18448922D01*
X8941621Y-18477493D01*
X8798764Y-18506064D01*
X9055907Y-18591779D02*
X9084479Y-18606064D01*
X9141621Y-18606064D01*
X9170193Y-18591779D01*
X9184479Y-18563207D01*
X9184479Y-18548922D01*
X9170193Y-18520350D01*
X9141621Y-18506064D01*
X9098764Y-18506064D01*
X9070193Y-18491779D01*
X9055907Y-18463207D01*
X9055907Y-18448922D01*
X9070193Y-18420350D01*
X9098764Y-18406064D01*
X9141621Y-18406064D01*
X9170193Y-18420350D01*
X9284478Y-18720350D02*
X9298764Y-18706064D01*
X9327336Y-18663207D01*
X9341621Y-18634636D01*
X9355907Y-18591779D01*
X9370193Y-18520350D01*
X9370193Y-18463207D01*
X9355907Y-18391779D01*
X9341621Y-18348922D01*
X9327336Y-18320350D01*
X9298764Y-18277493D01*
X9284478Y-18263207D01*
M02*
