M48
METRIC,TZ
T1C0.551
T2C0.600
T3C0.762
T4C0.800
T5C0.813
T6C1.000
T7C1.001
T8C3.000
%
G90
G05
T1
X31877Y-77343
X35509Y-126213
X37338Y-109804
X38710Y-89433
X38913Y-108534
X39268Y-115240
X39319Y-92583
X40437Y-106045
X40488Y-111557
X41554Y-95834
X41631Y-97714
X43180Y-124333
X43282Y-117678
X43282Y-126086
X43383Y-122555
X47600Y-76187
X48768Y-72212
X55626Y-124079
X57658Y-72161
X59538Y-114122
X61112Y-110617
X61112Y-112903
X61468Y-130810
X63805Y-72314
X65024Y-93218
X65024Y-94869
X69596Y-109601
X69596Y-111379
X70536Y-92583
X70574Y-94640
X70866Y-125476
X71755Y-88392
X73812Y-108534
X74524Y-78308
X74727Y-109906
X77724Y-116078
X78486Y-117729
X80924Y-78105
X81026Y-116205
X82296Y-125476
X83617Y-130632
X84201Y-120777
X84480Y-126111
X84963Y-116205
X85344Y-119431
X86106Y-123698
X88392Y-98374
X88748Y-78308
X89408Y-104902
X90107Y-117373
X90780Y-100965
X91161Y-126746
X91440Y-84773
X91504Y-86804
X91504Y-88900
X91504Y-91440
X92634Y-117323
X92875Y-119863
X92875Y-121780
X94615Y-77470
X96164Y-90602
X96164Y-92989
X96774Y-87198
X96825Y-84912
X97688Y-94056
X98146Y-77495
X98196Y-118694
X98196Y-124612
X99187Y-113030
X99619Y-130073
X101105Y-81712
X101994Y-124765
X102616Y-96012
X102972Y-109245
X103581Y-81712
X104089Y-78054
X104292Y-96037
X104648Y-115062
X106172Y-113157
X106426Y-118237
X107061Y-132969
X108052Y-95936
X108814Y-66929
X109169Y-81610
X109499Y-109042
X110363Y-113030
X110490Y-116205
X112522Y-116205
X113030Y-118999
X114198Y-68428
X115443Y-74549
X116713Y-83185
X117348Y-70739
X117729Y-124968
X117856Y-130048
X118593Y-68885
X118999Y-126492
X119253Y-84201
T2
X89218Y-115253
X95313Y-115253
X101752Y-115189
X107594Y-115189
T3
X57455Y-137084
X57455Y-144704
X59995Y-137084
X59995Y-144704
X62535Y-137084
X62535Y-144704
X65075Y-137084
X65075Y-144704
X67615Y-137084
X67615Y-144704
X70155Y-137084
X70155Y-144704
X72695Y-137084
X72695Y-144704
X75235Y-137084
X75235Y-144704
T4
X41402Y-139700
X45212Y-139700
T5
X88613Y-131793
X89883Y-134333
X91153Y-131793
X92423Y-134333
X93693Y-131793
X94963Y-134333
T6
X33528Y-132969
X36068Y-132969
X45750Y-92042
X45750Y-94582
X45750Y-97122
X45750Y-99662
X45750Y-102202
X45750Y-104742
X45750Y-107282
X45750Y-109822
X48290Y-92042
X48290Y-94582
X48290Y-97122
X48290Y-99662
X48290Y-102202
X48290Y-104742
X48290Y-107282
X48290Y-109822
X50343Y-132867
X52883Y-132867
X53116Y-80996
X53116Y-83536
X53116Y-118204
X53116Y-120744
X55656Y-80996
X55656Y-83536
X55656Y-118204
X55656Y-120744
X58196Y-80996
X58196Y-83536
X58196Y-118204
X58196Y-120744
X60736Y-80996
X60736Y-83536
X60736Y-118204
X60736Y-120744
X63276Y-80996
X63276Y-83536
X63276Y-118204
X63276Y-120744
X65816Y-80996
X65816Y-83536
X65816Y-118204
X65816Y-120744
X68356Y-80996
X68356Y-83536
X68356Y-118204
X68356Y-120744
X70896Y-80996
X70896Y-83536
X70896Y-118204
X70896Y-120744
X79151Y-92042
X79151Y-94582
X79151Y-97122
X79151Y-99662
X79151Y-102202
X79151Y-104742
X79151Y-107282
X79151Y-109822
X79705Y-133020
X81691Y-92042
X81691Y-94582
X81691Y-97122
X81691Y-99662
X81691Y-102202
X81691Y-104742
X81691Y-107282
X81691Y-109822
X82245Y-133020
X114711Y-91089
X114711Y-93629
X114711Y-96169
X114711Y-98709
X114711Y-101249
X114711Y-103789
X114711Y-106329
X114711Y-108869
X117251Y-91089
X117251Y-93629
X117251Y-96169
X117251Y-98709
X117251Y-101249
X117251Y-103789
X117251Y-106329
X117251Y-108869
T7
X34798Y-66040
X37338Y-66040
X39497Y-137160
X39878Y-66040
X43815Y-66040
X43815Y-70104
X43815Y-72644
X43815Y-75184
X43815Y-79502
X43815Y-82042
X43815Y-84582
X46355Y-66040
X47117Y-137160
X48895Y-66040
X52578Y-66040
X55118Y-66040
X57658Y-66040
X61595Y-66040
X64135Y-66040
X66675Y-66040
X70866Y-66040
X73406Y-66040
X75946Y-66040
X80010Y-66040
X82550Y-66040
X85090Y-66040
X89154Y-66040
X91694Y-66040
X94234Y-66040
X98806Y-66040
X101346Y-66040
X101549Y-73330
X103886Y-66040
X104089Y-73330
X106426Y-66040
X106629Y-73330
X107061Y-132969
X108996Y-120807
X108996Y-123347
X108996Y-125887
X108996Y-128427
X109169Y-73330
X109601Y-132969
X110998Y-66040
X112141Y-132969
X113538Y-66040
X114681Y-132969
X116078Y-66040
X117221Y-132969
X118618Y-66040
X119761Y-132969
T8
X86708Y-140683
X96868Y-140683
T0
M30
