G04 #@! TF.FileFunction,Soldermask,Bot*
%FSLAX46Y46*%
G04 Gerber Fmt 4.6, Leading zero omitted, Abs format (unit mm)*
G04 Created by KiCad (PCBNEW 4.0.6) date 11/02/17 20:58:10*
%MOMM*%
%LPD*%
G01*
G04 APERTURE LIST*
%ADD10C,0.150000*%
%ADD11R,1.108000X2.058000*%
%ADD12R,2.506980X2.506980*%
%ADD13C,2.506980*%
%ADD14R,1.778000X0.914400*%
%ADD15R,2.308860X2.506980*%
%ADD16R,2.032000X2.332000*%
%ADD17O,2.032000X2.332000*%
%ADD18R,2.506980X2.308860*%
%ADD19R,1.008000X1.408000*%
%ADD20R,2.108000X2.408000*%
%ADD21R,2.108200X2.408000*%
%ADD22R,2.407920X2.108200*%
%ADD23R,1.508760X0.756920*%
%ADD24C,2.308860*%
%ADD25C,2.208000*%
%ADD26C,4.508000*%
%ADD27R,2.308860X2.032000*%
%ADD28R,1.422400X1.422400*%
%ADD29C,2.008000*%
%ADD30R,2.032000X2.540000*%
%ADD31R,1.143000X1.651000*%
%ADD32R,1.651000X1.143000*%
%ADD33C,3.507740*%
%ADD34O,3.507740X3.507740*%
%ADD35R,1.258000X1.308000*%
%ADD36R,1.408000X1.008000*%
%ADD37R,1.408000X1.308000*%
%ADD38R,1.308000X1.408000*%
G04 APERTURE END LIST*
D10*
D11*
X114808000Y-116172000D03*
X116078000Y-116172000D03*
X117348000Y-116172000D03*
X118618000Y-116172000D03*
X118618000Y-121572000D03*
X117348000Y-121572000D03*
X116078000Y-121572000D03*
X114808000Y-121572000D03*
D12*
X108996480Y-128427480D03*
D13*
X108996480Y-125887480D03*
X108996480Y-123347480D03*
X108996480Y-120807480D03*
D14*
X114363500Y-113626900D03*
X114363500Y-112979200D03*
X114363500Y-112318800D03*
X114363500Y-111671100D03*
X118808500Y-111671100D03*
X118808500Y-112318800D03*
X118808500Y-112979200D03*
X118808500Y-113626900D03*
D13*
X114681000Y-132969000D03*
X112141000Y-132969000D03*
X109601000Y-132969000D03*
D15*
X107061000Y-132969000D03*
D13*
X117221000Y-132969000D03*
X119761000Y-132969000D03*
D16*
X57454800Y-144703800D03*
D17*
X57454800Y-137083800D03*
X59994800Y-144703800D03*
X59994800Y-137083800D03*
X62534800Y-144703800D03*
X62534800Y-137083800D03*
X65074800Y-144703800D03*
X65074800Y-137083800D03*
X67614800Y-144703800D03*
X67614800Y-137083800D03*
X70154800Y-144703800D03*
X70154800Y-137083800D03*
X72694800Y-144703800D03*
X72694800Y-137083800D03*
X75234800Y-144703800D03*
X75234800Y-137083800D03*
D18*
X43815000Y-70104000D03*
D13*
X43815000Y-72644000D03*
X43815000Y-75184000D03*
D19*
X65520000Y-114223800D03*
X64020000Y-114223800D03*
D20*
X53116480Y-83535520D03*
X53116480Y-80995520D03*
X55656480Y-83535520D03*
X55656480Y-80995520D03*
X58196480Y-83535520D03*
X58196480Y-80995520D03*
X60736480Y-83535520D03*
X60736480Y-80995520D03*
X63276480Y-83535520D03*
X63276480Y-80995520D03*
X65816480Y-83535520D03*
X65816480Y-80995520D03*
X68356480Y-83535520D03*
X68356480Y-80995520D03*
X70896480Y-83535520D03*
X70896480Y-80995520D03*
D21*
X53116480Y-120743980D03*
X53116480Y-118203980D03*
X55656480Y-120743980D03*
X55656480Y-118203980D03*
X58196480Y-120743980D03*
X58196480Y-118203980D03*
X60736480Y-120743980D03*
X60736480Y-118203980D03*
X63276480Y-120743980D03*
X63276480Y-118203980D03*
X65816480Y-120743980D03*
X65816480Y-118203980D03*
X68356480Y-120743980D03*
X68356480Y-118203980D03*
X70896480Y-120743980D03*
X70896480Y-118203980D03*
D22*
X48290480Y-109821980D03*
X45750480Y-109821980D03*
X48290480Y-107281980D03*
X45750480Y-107281980D03*
X48290480Y-104741980D03*
X45750480Y-104741980D03*
X48290480Y-102201980D03*
X45750480Y-102201980D03*
X48290480Y-99661980D03*
X45750480Y-99661980D03*
X48290480Y-97121980D03*
X45750480Y-97121980D03*
X48290480Y-94581980D03*
X45750480Y-94581980D03*
X48290480Y-92041980D03*
X45750480Y-92041980D03*
X81691480Y-92041980D03*
X79151480Y-92041980D03*
X81691480Y-94581980D03*
X79151480Y-94581980D03*
X81691480Y-97121980D03*
X79151480Y-97121980D03*
X81691480Y-99661980D03*
X79151480Y-99661980D03*
X81691480Y-102201980D03*
X79151480Y-102201980D03*
X81691480Y-104741980D03*
X79151480Y-104741980D03*
X81691480Y-107281980D03*
X79151480Y-107281980D03*
X81691480Y-109821980D03*
X79151480Y-109821980D03*
D15*
X118618000Y-66040000D03*
D13*
X116078000Y-66040000D03*
X113538000Y-66040000D03*
X110998000Y-66040000D03*
D15*
X94234000Y-66040000D03*
D13*
X91694000Y-66040000D03*
X89154000Y-66040000D03*
D12*
X109169200Y-73329800D03*
D13*
X106629200Y-73329800D03*
X104089200Y-73329800D03*
X101549200Y-73329800D03*
D15*
X66675000Y-66040000D03*
D13*
X64135000Y-66040000D03*
X61595000Y-66040000D03*
D15*
X57658000Y-66040000D03*
D13*
X55118000Y-66040000D03*
X52578000Y-66040000D03*
D15*
X48895000Y-66040000D03*
D13*
X46355000Y-66040000D03*
X43815000Y-66040000D03*
D15*
X39878000Y-66040000D03*
D13*
X37338000Y-66040000D03*
X34798000Y-66040000D03*
D19*
X33743200Y-110109000D03*
X35243200Y-110109000D03*
X33743200Y-108534200D03*
X35243200Y-108534200D03*
X97358900Y-82626200D03*
X95858900Y-82626200D03*
D23*
X99161600Y-120827800D03*
X99161600Y-121335800D03*
X99161600Y-121843800D03*
X99161600Y-122351800D03*
X102057200Y-120827800D03*
X102057200Y-121335800D03*
X102057200Y-121843800D03*
X102057200Y-122351800D03*
D24*
X92422980Y-134332980D03*
X89882980Y-134332980D03*
X94962980Y-134332980D03*
X88612980Y-131792980D03*
D25*
X91152980Y-131792980D03*
X93692980Y-131792980D03*
D26*
X96867980Y-140682980D03*
X86707980Y-140682980D03*
D27*
X114711480Y-91089480D03*
X117251480Y-91089480D03*
X114711480Y-93629480D03*
X117251480Y-93629480D03*
X114711480Y-96169480D03*
X117251480Y-96169480D03*
X114711480Y-98709480D03*
X117251480Y-98709480D03*
X114711480Y-101249480D03*
X117251480Y-101249480D03*
X114711480Y-103789480D03*
X117251480Y-103789480D03*
X114711480Y-106329480D03*
X117251480Y-106329480D03*
X114711480Y-108869480D03*
X117251480Y-108869480D03*
D28*
X94361000Y-106934000D03*
X94361000Y-108712000D03*
X96393000Y-107823000D03*
D29*
X89217500Y-115252500D03*
X95313500Y-115252500D03*
D30*
X112141000Y-129667000D03*
X115443000Y-129667000D03*
D31*
X90627200Y-68249800D03*
X89103200Y-68249800D03*
D32*
X104089200Y-126136400D03*
X104089200Y-124612400D03*
D31*
X101244400Y-107315000D03*
X99720400Y-107315000D03*
D32*
X41275000Y-72898000D03*
X41275000Y-74422000D03*
D31*
X81534000Y-68300600D03*
X80010000Y-68300600D03*
X61468000Y-71043800D03*
X59944000Y-71043800D03*
X52451000Y-74168000D03*
X50927000Y-74168000D03*
D32*
X50927000Y-77216000D03*
X50927000Y-75692000D03*
D31*
X34671000Y-71247000D03*
X36195000Y-71247000D03*
D32*
X61468000Y-67843400D03*
X61468000Y-69367400D03*
X52578000Y-70739000D03*
X52578000Y-72263000D03*
D31*
X43815000Y-62992000D03*
X42291000Y-62992000D03*
D32*
X32893000Y-69723000D03*
X32893000Y-71247000D03*
D24*
X45212000Y-139700000D03*
X41402000Y-139700000D03*
D33*
X47117000Y-137160000D03*
D34*
X39497000Y-137160000D03*
D14*
X102743000Y-91719400D03*
X102743000Y-91084400D03*
X102743000Y-90424000D03*
X102743000Y-89763600D03*
X102743000Y-89128600D03*
X102743000Y-88468200D03*
X102743000Y-87807800D03*
X102743000Y-87172800D03*
X102743000Y-86512400D03*
X102743000Y-85877400D03*
X102743000Y-85217000D03*
X102743000Y-84556600D03*
X108077000Y-84531200D03*
X108077000Y-85217000D03*
X108077000Y-85877400D03*
X108077000Y-86512400D03*
X108077000Y-87172800D03*
X108077000Y-87807800D03*
X108077000Y-88468200D03*
X108077000Y-89128600D03*
X108077000Y-89763600D03*
X108077000Y-90424000D03*
X108077000Y-91084400D03*
X108077000Y-91719400D03*
X102946200Y-105181400D03*
X102946200Y-104546400D03*
X102946200Y-103886000D03*
X102946200Y-103225600D03*
X102946200Y-102590600D03*
X102946200Y-101930200D03*
X102946200Y-101269800D03*
X102946200Y-100634800D03*
X102946200Y-99974400D03*
X102946200Y-99339400D03*
X102946200Y-98679000D03*
X102946200Y-98018600D03*
X108280200Y-97993200D03*
X108280200Y-98679000D03*
X108280200Y-99339400D03*
X108280200Y-99974400D03*
X108280200Y-100634800D03*
X108280200Y-101269800D03*
X108280200Y-101930200D03*
X108280200Y-102590600D03*
X108280200Y-103225600D03*
X108280200Y-103886000D03*
X108280200Y-104546400D03*
X108280200Y-105181400D03*
D32*
X112852200Y-121564400D03*
X112852200Y-123088400D03*
X106375200Y-125907800D03*
X106375200Y-124383800D03*
D31*
X72390000Y-68249800D03*
X70866000Y-68249800D03*
X45847000Y-81534000D03*
X47371000Y-81534000D03*
D32*
X96062800Y-123063000D03*
X96062800Y-121539000D03*
X96062800Y-118694200D03*
X96062800Y-120218200D03*
X104089200Y-127685800D03*
X104089200Y-129209800D03*
D31*
X102971600Y-107315000D03*
X104495600Y-107315000D03*
X108051600Y-93802200D03*
X106527600Y-93802200D03*
D32*
X106011980Y-130713480D03*
X106011980Y-129189480D03*
D31*
X102768400Y-93802200D03*
X104292400Y-93802200D03*
X98145600Y-126250700D03*
X99669600Y-126250700D03*
D32*
X120777000Y-113538000D03*
X120777000Y-112014000D03*
D31*
X108254800Y-107315000D03*
X106730800Y-107315000D03*
D29*
X101752400Y-115189000D03*
X107594400Y-115189000D03*
D15*
X79705200Y-133019800D03*
D13*
X82245200Y-133019800D03*
D15*
X50342800Y-132867400D03*
D13*
X52882800Y-132867400D03*
D15*
X106426000Y-66040000D03*
D13*
X103886000Y-66040000D03*
X101346000Y-66040000D03*
X98806000Y-66040000D03*
D15*
X85090000Y-66040000D03*
D13*
X82550000Y-66040000D03*
X80010000Y-66040000D03*
D15*
X75946000Y-66040000D03*
D13*
X73406000Y-66040000D03*
X70866000Y-66040000D03*
D35*
X41656000Y-101969000D03*
X41656000Y-100469000D03*
D15*
X33528000Y-132969000D03*
D13*
X36068000Y-132969000D03*
D19*
X101588000Y-77495400D03*
X100088000Y-77495400D03*
X100088000Y-79171800D03*
X101588000Y-79171800D03*
D36*
X98806000Y-61989400D03*
X98806000Y-60489400D03*
X96012000Y-60489400D03*
X96012000Y-61989400D03*
X110998000Y-61989400D03*
X110998000Y-60489400D03*
X108153200Y-60489400D03*
X108153200Y-61989400D03*
D18*
X43815000Y-79502000D03*
D13*
X43815000Y-82042000D03*
X43815000Y-84582000D03*
D37*
X36795200Y-74584600D03*
X36795200Y-72684600D03*
X38795200Y-73634600D03*
D38*
X90053200Y-72653400D03*
X88153200Y-72653400D03*
X89103200Y-70653400D03*
X71816000Y-72602600D03*
X69916000Y-72602600D03*
X70866000Y-70602600D03*
D37*
X48193200Y-83708200D03*
X48193200Y-85608200D03*
X46193200Y-84658200D03*
D38*
X80960000Y-72602600D03*
X79060000Y-72602600D03*
X80010000Y-70602600D03*
X65720000Y-112633000D03*
X63820000Y-112633000D03*
X64770000Y-110633000D03*
D32*
X65151000Y-140716000D03*
X65151000Y-139192000D03*
X75311000Y-140716000D03*
X75311000Y-139192000D03*
X62484000Y-140716000D03*
X62484000Y-139192000D03*
X72644000Y-140716000D03*
X72644000Y-139192000D03*
X59944000Y-140716000D03*
X59944000Y-139192000D03*
X70231000Y-140716000D03*
X70231000Y-139192000D03*
X57404000Y-140716000D03*
X57404000Y-139192000D03*
X67564000Y-140716000D03*
X67564000Y-139192000D03*
M02*
