G04 #@! TF.FileFunction,Copper,L1,Top,Signal*
%FSLAX46Y46*%
G04 Gerber Fmt 4.6, Leading zero omitted, Abs format (unit mm)*
G04 Created by KiCad (PCBNEW 4.0.6) date 11/02/17 20:58:10*
%MOMM*%
%LPD*%
G01*
G04 APERTURE LIST*
%ADD10C,0.150000*%
%ADD11C,0.304800*%
%ADD12R,1.998980X1.998980*%
%ADD13C,1.998980*%
%ADD14R,1.800860X1.998980*%
%ADD15R,0.750000X0.800000*%
%ADD16R,1.524000X1.824000*%
%ADD17O,1.524000X1.824000*%
%ADD18R,1.998980X1.800860*%
%ADD19R,1.600000X1.900000*%
%ADD20R,1.600200X1.900000*%
%ADD21R,1.899920X1.600200*%
%ADD22R,2.000000X1.500000*%
%ADD23R,2.000000X1.524000*%
%ADD24R,3.657600X2.032000*%
%ADD25R,1.016000X2.032000*%
%ADD26R,0.500000X0.900000*%
%ADD27C,1.800860*%
%ADD28C,1.700000*%
%ADD29C,4.000000*%
%ADD30R,1.800860X1.524000*%
%ADD31C,1.500000*%
%ADD32R,0.635000X1.143000*%
%ADD33R,1.143000X0.635000*%
%ADD34R,0.406400X1.270000*%
%ADD35C,2.999740*%
%ADD36O,2.999740X2.999740*%
%ADD37R,1.000760X1.998980*%
%ADD38C,1.300480*%
%ADD39C,0.800100*%
%ADD40C,0.500380*%
%ADD41C,0.398780*%
%ADD42C,0.350520*%
%ADD43C,0.254000*%
G04 APERTURE END LIST*
D10*
D11*
X29881286Y-88391999D02*
X29784524Y-88319428D01*
X29687762Y-88101714D01*
X29687762Y-87956571D01*
X29784524Y-87738856D01*
X29978048Y-87593714D01*
X30171571Y-87521142D01*
X30558619Y-87448571D01*
X30848905Y-87448571D01*
X31235952Y-87521142D01*
X31429476Y-87593714D01*
X31623000Y-87738856D01*
X31719762Y-87956571D01*
X31719762Y-88101714D01*
X31623000Y-88319428D01*
X31526238Y-88391999D01*
X29687762Y-89045142D02*
X31719762Y-89045142D01*
X31719762Y-89625714D01*
X31623000Y-89770856D01*
X31526238Y-89843428D01*
X31332714Y-89915999D01*
X31042429Y-89915999D01*
X30848905Y-89843428D01*
X30752143Y-89770856D01*
X30655381Y-89625714D01*
X30655381Y-89045142D01*
X31719762Y-90569142D02*
X30074810Y-90569142D01*
X29881286Y-90641714D01*
X29784524Y-90714285D01*
X29687762Y-90859428D01*
X29687762Y-91149714D01*
X29784524Y-91294856D01*
X29881286Y-91367428D01*
X30074810Y-91439999D01*
X31719762Y-91439999D01*
X29494238Y-91802856D02*
X29494238Y-92963999D01*
X29687762Y-93326856D02*
X31719762Y-93326856D01*
X31719762Y-93689713D01*
X31623000Y-93907428D01*
X31429476Y-94052570D01*
X31235952Y-94125142D01*
X30848905Y-94197713D01*
X30558619Y-94197713D01*
X30171571Y-94125142D01*
X29978048Y-94052570D01*
X29784524Y-93907428D01*
X29687762Y-93689713D01*
X29687762Y-93326856D01*
X30752143Y-94850856D02*
X30752143Y-95358856D01*
X29687762Y-95576570D02*
X29687762Y-94850856D01*
X31719762Y-94850856D01*
X31719762Y-95576570D01*
X30752143Y-96737713D02*
X30655381Y-96955427D01*
X30558619Y-97027999D01*
X30365095Y-97100570D01*
X30074810Y-97100570D01*
X29881286Y-97027999D01*
X29784524Y-96955427D01*
X29687762Y-96810285D01*
X29687762Y-96229713D01*
X31719762Y-96229713D01*
X31719762Y-96737713D01*
X31623000Y-96882856D01*
X31526238Y-96955427D01*
X31332714Y-97027999D01*
X31139190Y-97027999D01*
X30945667Y-96955427D01*
X30848905Y-96882856D01*
X30752143Y-96737713D01*
X30752143Y-96229713D01*
X31719762Y-98697142D02*
X29687762Y-99205142D01*
X31719762Y-99713142D01*
X31719762Y-100511428D02*
X31719762Y-100656571D01*
X31623000Y-100801714D01*
X31526238Y-100874285D01*
X31332714Y-100946856D01*
X30945667Y-101019428D01*
X30461857Y-101019428D01*
X30074810Y-100946856D01*
X29881286Y-100874285D01*
X29784524Y-100801714D01*
X29687762Y-100656571D01*
X29687762Y-100511428D01*
X29784524Y-100366285D01*
X29881286Y-100293714D01*
X30074810Y-100221142D01*
X30461857Y-100148571D01*
X30945667Y-100148571D01*
X31332714Y-100221142D01*
X31526238Y-100293714D01*
X31623000Y-100366285D01*
X31719762Y-100511428D01*
X29881286Y-101672571D02*
X29784524Y-101745143D01*
X29687762Y-101672571D01*
X29784524Y-101600000D01*
X29881286Y-101672571D01*
X29687762Y-101672571D01*
X29687762Y-103196571D02*
X29687762Y-102325714D01*
X29687762Y-102761142D02*
X31719762Y-102761142D01*
X31429476Y-102615999D01*
X31235952Y-102470857D01*
X31139190Y-102325714D01*
X31719762Y-104140000D02*
X31719762Y-104285143D01*
X31623000Y-104430286D01*
X31526238Y-104502857D01*
X31332714Y-104575428D01*
X30945667Y-104648000D01*
X30461857Y-104648000D01*
X30074810Y-104575428D01*
X29881286Y-104502857D01*
X29784524Y-104430286D01*
X29687762Y-104285143D01*
X29687762Y-104140000D01*
X29784524Y-103994857D01*
X29881286Y-103922286D01*
X30074810Y-103849714D01*
X30461857Y-103777143D01*
X30945667Y-103777143D01*
X31332714Y-103849714D01*
X31526238Y-103922286D01*
X31623000Y-103994857D01*
X31719762Y-104140000D01*
X29687762Y-107260572D02*
X29687762Y-106389715D01*
X29687762Y-106825143D02*
X31719762Y-106825143D01*
X31429476Y-106680000D01*
X31235952Y-106534858D01*
X31139190Y-106389715D01*
X29687762Y-108712001D02*
X29687762Y-107841144D01*
X29687762Y-108276572D02*
X31719762Y-108276572D01*
X31429476Y-108131429D01*
X31235952Y-107986287D01*
X31139190Y-107841144D01*
X31816524Y-110453716D02*
X29203952Y-109147430D01*
X29687762Y-111760001D02*
X29687762Y-110889144D01*
X29687762Y-111324572D02*
X31719762Y-111324572D01*
X31429476Y-111179429D01*
X31235952Y-111034287D01*
X31139190Y-110889144D01*
X31719762Y-112268001D02*
X31719762Y-113284001D01*
X29687762Y-112630858D01*
D12*
X108996480Y-128427480D03*
D13*
X108996480Y-125887480D03*
X108996480Y-123347480D03*
X108996480Y-120807480D03*
X114681000Y-132969000D03*
X112141000Y-132969000D03*
X109601000Y-132969000D03*
D14*
X107061000Y-132969000D03*
D13*
X117221000Y-132969000D03*
X119761000Y-132969000D03*
D15*
X113157000Y-121297000D03*
X113157000Y-122797000D03*
D16*
X57454800Y-144703800D03*
D17*
X57454800Y-137083800D03*
X59994800Y-144703800D03*
X59994800Y-137083800D03*
X62534800Y-144703800D03*
X62534800Y-137083800D03*
X65074800Y-144703800D03*
X65074800Y-137083800D03*
X67614800Y-144703800D03*
X67614800Y-137083800D03*
X70154800Y-144703800D03*
X70154800Y-137083800D03*
X72694800Y-144703800D03*
X72694800Y-137083800D03*
X75234800Y-144703800D03*
X75234800Y-137083800D03*
D18*
X43815000Y-70104000D03*
D13*
X43815000Y-72644000D03*
X43815000Y-75184000D03*
D19*
X53116480Y-83535520D03*
X53116480Y-80995520D03*
X55656480Y-83535520D03*
X55656480Y-80995520D03*
X58196480Y-83535520D03*
X58196480Y-80995520D03*
X60736480Y-83535520D03*
X60736480Y-80995520D03*
X63276480Y-83535520D03*
X63276480Y-80995520D03*
X65816480Y-83535520D03*
X65816480Y-80995520D03*
X68356480Y-83535520D03*
X68356480Y-80995520D03*
X70896480Y-83535520D03*
X70896480Y-80995520D03*
D20*
X53116480Y-120743980D03*
X53116480Y-118203980D03*
X55656480Y-120743980D03*
X55656480Y-118203980D03*
X58196480Y-120743980D03*
X58196480Y-118203980D03*
X60736480Y-120743980D03*
X60736480Y-118203980D03*
X63276480Y-120743980D03*
X63276480Y-118203980D03*
X65816480Y-120743980D03*
X65816480Y-118203980D03*
X68356480Y-120743980D03*
X68356480Y-118203980D03*
X70896480Y-120743980D03*
X70896480Y-118203980D03*
D21*
X48290480Y-109821980D03*
X45750480Y-109821980D03*
X48290480Y-107281980D03*
X45750480Y-107281980D03*
X48290480Y-104741980D03*
X45750480Y-104741980D03*
X48290480Y-102201980D03*
X45750480Y-102201980D03*
X48290480Y-99661980D03*
X45750480Y-99661980D03*
X48290480Y-97121980D03*
X45750480Y-97121980D03*
X48290480Y-94581980D03*
X45750480Y-94581980D03*
X48290480Y-92041980D03*
X45750480Y-92041980D03*
X81691480Y-92041980D03*
X79151480Y-92041980D03*
X81691480Y-94581980D03*
X79151480Y-94581980D03*
X81691480Y-97121980D03*
X79151480Y-97121980D03*
X81691480Y-99661980D03*
X79151480Y-99661980D03*
X81691480Y-102201980D03*
X79151480Y-102201980D03*
X81691480Y-104741980D03*
X79151480Y-104741980D03*
X81691480Y-107281980D03*
X79151480Y-107281980D03*
X81691480Y-109821980D03*
X79151480Y-109821980D03*
D22*
X118160800Y-121793000D03*
X115112800Y-121793000D03*
D23*
X118160800Y-116205000D03*
X115112800Y-116205000D03*
D14*
X118618000Y-66040000D03*
D13*
X116078000Y-66040000D03*
X113538000Y-66040000D03*
X110998000Y-66040000D03*
D14*
X94234000Y-66040000D03*
D13*
X91694000Y-66040000D03*
X89154000Y-66040000D03*
D12*
X109169200Y-73329800D03*
D13*
X106629200Y-73329800D03*
X104089200Y-73329800D03*
X101549200Y-73329800D03*
D14*
X66675000Y-66040000D03*
D13*
X64135000Y-66040000D03*
X61595000Y-66040000D03*
D14*
X57658000Y-66040000D03*
D13*
X55118000Y-66040000D03*
X52578000Y-66040000D03*
D14*
X48895000Y-66040000D03*
D13*
X46355000Y-66040000D03*
X43815000Y-66040000D03*
D14*
X39878000Y-66040000D03*
D13*
X37338000Y-66040000D03*
X34798000Y-66040000D03*
D24*
X34785300Y-121894600D03*
D25*
X34785300Y-115290600D03*
X32499300Y-115290600D03*
X37071300Y-115290600D03*
D26*
X35737100Y-112293400D03*
X37237100Y-112293400D03*
D27*
X92422980Y-134332980D03*
X89882980Y-134332980D03*
X94962980Y-134332980D03*
X88612980Y-131792980D03*
D28*
X91152980Y-131792980D03*
X93692980Y-131792980D03*
D29*
X96867980Y-140682980D03*
X86707980Y-140682980D03*
D30*
X114711480Y-91089480D03*
X117251480Y-91089480D03*
X114711480Y-93629480D03*
X117251480Y-93629480D03*
X114711480Y-96169480D03*
X117251480Y-96169480D03*
X114711480Y-98709480D03*
X117251480Y-98709480D03*
X114711480Y-101249480D03*
X117251480Y-101249480D03*
X114711480Y-103789480D03*
X117251480Y-103789480D03*
X114711480Y-106329480D03*
X117251480Y-106329480D03*
X114711480Y-108869480D03*
X117251480Y-108869480D03*
D31*
X89217500Y-115252500D03*
X95313500Y-115252500D03*
D32*
X115951000Y-113411000D03*
X117475000Y-113411000D03*
X110490000Y-130810000D03*
X108966000Y-130810000D03*
D33*
X120650000Y-128524000D03*
X120650000Y-130048000D03*
D32*
X117475000Y-111633000D03*
X115951000Y-111633000D03*
D34*
X116039900Y-125666500D03*
X115392200Y-125666500D03*
X114731800Y-125666500D03*
X114084100Y-125666500D03*
X114084100Y-130111500D03*
X114731800Y-130111500D03*
X115392200Y-130111500D03*
X116039900Y-130111500D03*
D27*
X45212000Y-139700000D03*
X41402000Y-139700000D03*
D35*
X47117000Y-137160000D03*
D36*
X39497000Y-137160000D03*
D33*
X101904800Y-138252200D03*
X101904800Y-139776200D03*
D32*
X102489000Y-132969000D03*
X104013000Y-132969000D03*
D33*
X100126800Y-138252200D03*
X100126800Y-139776200D03*
X103784400Y-139776200D03*
X103784400Y-138252200D03*
X103784400Y-144602200D03*
X103784400Y-143078200D03*
X100126800Y-143078200D03*
X100126800Y-144602200D03*
X101904800Y-143078200D03*
X101904800Y-144602200D03*
D31*
X101752400Y-115189000D03*
X107594400Y-115189000D03*
D14*
X79705200Y-133019800D03*
D13*
X82245200Y-133019800D03*
D14*
X50342800Y-132867400D03*
D13*
X52882800Y-132867400D03*
D14*
X106426000Y-66040000D03*
D13*
X103886000Y-66040000D03*
X101346000Y-66040000D03*
X98806000Y-66040000D03*
D14*
X85090000Y-66040000D03*
D13*
X82550000Y-66040000D03*
X80010000Y-66040000D03*
D14*
X75946000Y-66040000D03*
D13*
X73406000Y-66040000D03*
X70866000Y-66040000D03*
D14*
X33528000Y-132969000D03*
D13*
X36068000Y-132969000D03*
D18*
X43815000Y-79502000D03*
D13*
X43815000Y-82042000D03*
X43815000Y-84582000D03*
D37*
X116840000Y-76835000D03*
X114300000Y-81280000D03*
X119380000Y-81280000D03*
D38*
X113030000Y-118999000D03*
X119253000Y-84201000D03*
X117348000Y-70739000D03*
X104089200Y-78054200D03*
X106426000Y-118237000D03*
X101993700Y-124764800D03*
X114198400Y-68427600D03*
X109499400Y-109042200D03*
X108051600Y-95935800D03*
X90779600Y-100965000D03*
X97688400Y-94056200D03*
X69596000Y-111379000D03*
X88747600Y-78308200D03*
X80924400Y-78105000D03*
X74726800Y-109905800D03*
X88392000Y-98374200D03*
X96164400Y-90601800D03*
X89408000Y-104902000D03*
X61112400Y-112903000D03*
X96164400Y-92989400D03*
X92875100Y-121780300D03*
X78486000Y-117729000D03*
X77724000Y-116078000D03*
X92875100Y-119862600D03*
X96824800Y-84912200D03*
X70535800Y-92583000D03*
X91503500Y-88900000D03*
X38709600Y-89433400D03*
X37338000Y-109804200D03*
X65024000Y-93218000D03*
X65024000Y-94869000D03*
X91503500Y-91440000D03*
X70573900Y-94640400D03*
X96774000Y-87198200D03*
X39319200Y-92583000D03*
X38912800Y-108534200D03*
X43180000Y-124333000D03*
X55626000Y-124079000D03*
X91440000Y-84772500D03*
X92633800Y-117322600D03*
X91503500Y-86804500D03*
X90106500Y-117373400D03*
X61468000Y-130810000D03*
X69596000Y-109601000D03*
X83616800Y-130632200D03*
X71755000Y-88392000D03*
X84963000Y-116205000D03*
X81026000Y-116205000D03*
X86106000Y-123698000D03*
X116713000Y-83185000D03*
X118592600Y-68884800D03*
X107061000Y-132969000D03*
X59537600Y-114122200D03*
X85344000Y-119430800D03*
X99618800Y-130073400D03*
X109169200Y-81610200D03*
X103581200Y-81711800D03*
X91160600Y-126746000D03*
X104292400Y-96037400D03*
X48768000Y-72212200D03*
X57658000Y-72161400D03*
X101104700Y-81711800D03*
X43383200Y-122555000D03*
X84201000Y-120777000D03*
X99187000Y-113030000D03*
X106172000Y-113157000D03*
X102616000Y-96012000D03*
X102971600Y-109245400D03*
X98196400Y-124612400D03*
X98196400Y-118694200D03*
X104648000Y-115062000D03*
X117856000Y-130048000D03*
X39268400Y-115239800D03*
X43281600Y-117678200D03*
X61112400Y-110617000D03*
X31877000Y-77343000D03*
X47599600Y-76187300D03*
X110363000Y-113030000D03*
X70866000Y-125476000D03*
X82296000Y-125476000D03*
X115443000Y-74549000D03*
X84480400Y-126111000D03*
X35509200Y-126212600D03*
X43281600Y-126085600D03*
X110490000Y-116205000D03*
X118999000Y-126492000D03*
X117729000Y-124968000D03*
X112522000Y-116205000D03*
X73812400Y-108534200D03*
X74523600Y-78308200D03*
X40487600Y-111556800D03*
X98145600Y-77495400D03*
X94615000Y-77470000D03*
X41554400Y-95834200D03*
X108813600Y-66929000D03*
X63804800Y-72313800D03*
X40436800Y-106045000D03*
X41630600Y-97713800D03*
D39*
X46355000Y-66040000D02*
X46355000Y-62738000D01*
X55118000Y-66040000D02*
X55118000Y-62738000D01*
X55118000Y-62738000D02*
X54991000Y-62738000D01*
X37338000Y-66040000D02*
X37338000Y-63627000D01*
X38227000Y-62738000D02*
X46355000Y-62738000D01*
X37338000Y-63627000D02*
X38227000Y-62738000D01*
X46355000Y-62738000D02*
X54991000Y-62738000D01*
X64135000Y-64008000D02*
X64135000Y-66040000D01*
X54991000Y-62738000D02*
X62865000Y-62738000D01*
X62865000Y-62738000D02*
X64135000Y-64008000D01*
D40*
X113157000Y-121297000D02*
X113157000Y-119126000D01*
X113157000Y-119126000D02*
X113030000Y-118999000D01*
X117348000Y-70739000D02*
X114300000Y-70739000D01*
X111760000Y-74803000D02*
X110490000Y-76073000D01*
X111760000Y-73279000D02*
X111760000Y-74803000D01*
X114300000Y-70739000D02*
X111760000Y-73279000D01*
X114046000Y-85090000D02*
X118364000Y-85090000D01*
X108051600Y-92710000D02*
X108051600Y-95935800D01*
X108051600Y-90449400D02*
X113411000Y-85090000D01*
X113411000Y-85090000D02*
X114046000Y-85090000D01*
X108051600Y-92710000D02*
X108051600Y-90449400D01*
X118364000Y-85090000D02*
X119253000Y-84201000D01*
X117348000Y-70739000D02*
X114198400Y-70739000D01*
X114198400Y-70739000D02*
X114427000Y-70739000D01*
X114427000Y-70739000D02*
X114198400Y-70739000D01*
X114198400Y-68427600D02*
X114198400Y-70739000D01*
X106070400Y-76073000D02*
X104089200Y-78054200D01*
X110490000Y-76073000D02*
X106070400Y-76073000D01*
X106426000Y-118237000D02*
X100076000Y-118237000D01*
X109499400Y-109042200D02*
X105206800Y-109042200D01*
X105206800Y-109042200D02*
X100076000Y-114173000D01*
X100076000Y-114173000D02*
X100076000Y-117983000D01*
X100076000Y-122847100D02*
X101993700Y-124764800D01*
X100076000Y-117983000D02*
X100076000Y-118237000D01*
X100076000Y-118237000D02*
X100076000Y-122847100D01*
D41*
X108051600Y-107594400D02*
X109499400Y-109042200D01*
X108051600Y-95935800D02*
X108051600Y-107594400D01*
D40*
X97688400Y-94056200D02*
X90779600Y-100965000D01*
X73152000Y-111480600D02*
X69697600Y-111480600D01*
X69697600Y-111480600D02*
X69596000Y-111379000D01*
X73152000Y-111480600D02*
X75742800Y-111480600D01*
X75742800Y-111480600D02*
X76301600Y-110921800D01*
X88747600Y-78308200D02*
X83566000Y-78308200D01*
X76301600Y-82169000D02*
X76301600Y-110921800D01*
X78536800Y-79933800D02*
X76301600Y-82169000D01*
X81940400Y-79933800D02*
X78536800Y-79933800D01*
X83566000Y-78308200D02*
X81940400Y-79933800D01*
X74726800Y-109905800D02*
X75336400Y-109296200D01*
X75336400Y-109296200D02*
X75336400Y-80035400D01*
X75336400Y-80035400D02*
X77266800Y-78105000D01*
X77266800Y-78105000D02*
X80924400Y-78105000D01*
X88392000Y-98374200D02*
X96164400Y-90601800D01*
X82423000Y-112903000D02*
X88646000Y-112903000D01*
X89408000Y-112141000D02*
X89408000Y-104902000D01*
X88646000Y-112903000D02*
X89408000Y-112141000D01*
X89408000Y-100076000D02*
X89408000Y-104902000D01*
X89408000Y-100076000D02*
X89408000Y-99796600D01*
X79057500Y-112903000D02*
X82423000Y-112903000D01*
X61112400Y-112903000D02*
X79057500Y-112903000D01*
X91186000Y-98018600D02*
X89408000Y-99796600D01*
X96164400Y-92989400D02*
X91186000Y-97967800D01*
X91186000Y-97967800D02*
X91186000Y-98018600D01*
X92875100Y-121780300D02*
X91287600Y-121780300D01*
X89662000Y-121780300D02*
X91287600Y-121780300D01*
X78486000Y-117729000D02*
X78555850Y-117659150D01*
X78555850Y-117659150D02*
X85540850Y-117659150D01*
X85540850Y-117659150D02*
X89662000Y-121780300D01*
X82423000Y-114236500D02*
X85407500Y-114236500D01*
X82423000Y-114236500D02*
X79565500Y-114236500D01*
X79565500Y-114236500D02*
X77724000Y-116078000D01*
X89877900Y-120129300D02*
X89674700Y-120129300D01*
X89674700Y-120129300D02*
X88519000Y-118973600D01*
X85407500Y-114236500D02*
X88519000Y-117348000D01*
X88519000Y-117348000D02*
X88519000Y-118973600D01*
X92608400Y-120129300D02*
X89877900Y-120129300D01*
X89877900Y-120129300D02*
X89763600Y-120129300D01*
X92875100Y-119862600D02*
X92608400Y-120129300D01*
X65913324Y-93215690D02*
X69903110Y-93215690D01*
X69903110Y-93215690D02*
X70535800Y-92583000D01*
X38709600Y-89433400D02*
X37566600Y-89433400D01*
X36449000Y-108915200D02*
X37338000Y-109804200D01*
X36449000Y-90551000D02*
X36449000Y-108915200D01*
X37566600Y-89433400D02*
X36449000Y-90551000D01*
X96824800Y-84912200D02*
X96761300Y-84912200D01*
X96761300Y-84912200D02*
X92773500Y-88900000D01*
X92773500Y-88900000D02*
X91503500Y-88900000D01*
X65913324Y-93215690D02*
X65024000Y-93218000D01*
X91605100Y-91338400D02*
X92735400Y-91338400D01*
X91503500Y-91440000D02*
X91605100Y-91338400D01*
X92735400Y-91338400D02*
X96774000Y-87299800D01*
X96774000Y-87299800D02*
X96774000Y-87198200D01*
X38481000Y-92583000D02*
X39319200Y-92583000D01*
X37465000Y-93599000D02*
X38481000Y-92583000D01*
X37465000Y-107188000D02*
X37465000Y-93599000D01*
X38811200Y-108534200D02*
X37465000Y-107188000D01*
X38912800Y-108534200D02*
X38811200Y-108534200D01*
X70345300Y-94869000D02*
X70573900Y-94640400D01*
X65024000Y-94869000D02*
X70345300Y-94869000D01*
X43434000Y-124079000D02*
X55626000Y-124079000D01*
X43180000Y-124333000D02*
X43434000Y-124079000D01*
X94869000Y-126669800D02*
X94284800Y-126669800D01*
X98158300Y-126669800D02*
X94869000Y-126669800D01*
X102489000Y-131000500D02*
X98158300Y-126669800D01*
X102489000Y-132969000D02*
X102489000Y-131000500D01*
X94284800Y-126669800D02*
X91948000Y-124333000D01*
X91948000Y-124333000D02*
X88646000Y-124333000D01*
X88646000Y-124333000D02*
X86360000Y-122047000D01*
X86360000Y-122047000D02*
X75057000Y-122047000D01*
X75057000Y-122047000D02*
X73025000Y-124079000D01*
X73025000Y-124079000D02*
X55626000Y-124079000D01*
X102489000Y-132969000D02*
X102489000Y-134112000D01*
X105664000Y-137287000D02*
X105664000Y-144145000D01*
X102489000Y-134112000D02*
X105664000Y-137287000D01*
X105206800Y-144602200D02*
X103784400Y-144602200D01*
X105664000Y-144145000D02*
X105206800Y-144602200D01*
X100126800Y-143078200D02*
X100126800Y-139776200D01*
X101904800Y-143078200D02*
X101904800Y-139776200D01*
X97155000Y-82499200D02*
X98120200Y-82499200D01*
X99949000Y-96443800D02*
X92595700Y-103797100D01*
X99949000Y-84328000D02*
X99949000Y-96443800D01*
X98120200Y-82499200D02*
X99949000Y-84328000D01*
X95631000Y-82499200D02*
X93713300Y-82499200D01*
X93713300Y-82499200D02*
X91440000Y-84772500D01*
X95631000Y-82499200D02*
X97155000Y-82499200D01*
X92633800Y-117322600D02*
X92595700Y-117284500D01*
X92595700Y-117284500D02*
X92595700Y-103797100D01*
X91516200Y-105537000D02*
X91516200Y-102920800D01*
X98933000Y-84620100D02*
X98044000Y-83731100D01*
X98933000Y-95504000D02*
X98933000Y-84620100D01*
X91516200Y-102920800D02*
X98933000Y-95504000D01*
X96901000Y-83731100D02*
X95656400Y-83731100D01*
X98044000Y-83731100D02*
X96901000Y-83731100D01*
X95656400Y-83731100D02*
X92583000Y-86804500D01*
X92583000Y-86804500D02*
X91503500Y-86804500D01*
X91516200Y-115963700D02*
X91516200Y-105537000D01*
X90106500Y-117373400D02*
X91516200Y-115963700D01*
X61468000Y-130810000D02*
X54940200Y-130810000D01*
X54940200Y-130810000D02*
X52882800Y-132867400D01*
X69519800Y-130632200D02*
X61645800Y-130632200D01*
X61645800Y-130632200D02*
X61468000Y-130810000D01*
X72136000Y-105791000D02*
X72136000Y-107061000D01*
X72136000Y-107061000D02*
X69596000Y-109601000D01*
X83616800Y-130632200D02*
X69519800Y-130632200D01*
X71755000Y-88392000D02*
X72136000Y-88773000D01*
X72136000Y-88773000D02*
X72136000Y-105791000D01*
X52908200Y-132892800D02*
X52882800Y-132867400D01*
X52882800Y-132867400D02*
X52882800Y-138633200D01*
X52882800Y-138633200D02*
X49530000Y-141986000D01*
X49530000Y-141986000D02*
X42164000Y-141986000D01*
X42164000Y-141986000D02*
X41402000Y-141224000D01*
X41402000Y-141224000D02*
X41402000Y-139700000D01*
X84912229Y-116154229D02*
X84963000Y-116205000D01*
X81076771Y-116154229D02*
X84632771Y-116154229D01*
X81026000Y-116205000D02*
X81076771Y-116154229D01*
X84632771Y-116154229D02*
X84912229Y-116154229D01*
X112141000Y-125730000D02*
X112141000Y-123813000D01*
X112141000Y-123813000D02*
X113157000Y-122797000D01*
X108996480Y-128427480D02*
X110332520Y-128427480D01*
X112141000Y-126619000D02*
X112141000Y-125730000D01*
X110332520Y-128427480D02*
X112141000Y-126619000D01*
X108966000Y-130810000D02*
X108966000Y-128457960D01*
X108966000Y-128457960D02*
X108996480Y-128427480D01*
X118592600Y-68884800D02*
X118592600Y-71907400D01*
X118592600Y-71907400D02*
X118110000Y-72390000D01*
X109169200Y-79044800D02*
X109169200Y-81610200D01*
X112903000Y-75311000D02*
X109169200Y-79044800D01*
X112903000Y-73660000D02*
X112903000Y-75311000D01*
X114173000Y-72390000D02*
X112903000Y-73660000D01*
X118110000Y-72390000D02*
X114173000Y-72390000D01*
X114300000Y-81280000D02*
X114808000Y-81280000D01*
X114808000Y-81280000D02*
X116713000Y-83185000D01*
X109169200Y-81610200D02*
X113969800Y-81610200D01*
X113969800Y-81610200D02*
X114300000Y-81280000D01*
X91160600Y-126746000D02*
X91160600Y-125958600D01*
X86106000Y-123571000D02*
X86106000Y-123698000D01*
X88011000Y-125476000D02*
X86106000Y-123571000D01*
X90678000Y-125476000D02*
X88011000Y-125476000D01*
X91160600Y-125958600D02*
X90678000Y-125476000D01*
X103784400Y-138252200D02*
X103784400Y-136931400D01*
X99618800Y-132765800D02*
X99618800Y-130073400D01*
X103784400Y-136931400D02*
X99618800Y-132765800D01*
X104013000Y-132969000D02*
X107061000Y-132969000D01*
D42*
X114084100Y-125666500D02*
X112204500Y-125666500D01*
X112204500Y-125666500D02*
X112141000Y-125730000D01*
D40*
X109626400Y-87198200D02*
X109626400Y-85115400D01*
X109169200Y-84658200D02*
X109169200Y-81610200D01*
X109626400Y-85115400D02*
X109169200Y-84658200D01*
X43815000Y-79502000D02*
X46304200Y-79502000D01*
X46304200Y-79502000D02*
X48768000Y-77038200D01*
X76454000Y-119151400D02*
X71424800Y-114122200D01*
X71424800Y-114122200D02*
X59537600Y-114122200D01*
X85344000Y-119430800D02*
X85064600Y-119151400D01*
X85064600Y-119151400D02*
X76454000Y-119151400D01*
D41*
X93726000Y-127584200D02*
X93726000Y-127558800D01*
D40*
X91973400Y-127558800D02*
X93726000Y-127558800D01*
X91160600Y-126746000D02*
X91973400Y-127558800D01*
D41*
X99618800Y-130073400D02*
X97104200Y-127558800D01*
D40*
X97104200Y-127558800D02*
X93751400Y-127558800D01*
D41*
X93751400Y-127558800D02*
X93726000Y-127584200D01*
D40*
X109169200Y-81610200D02*
X109067600Y-81711800D01*
X109067600Y-81711800D02*
X103581200Y-81711800D01*
X48768000Y-77038200D02*
X48768000Y-72212200D01*
X100126800Y-144602200D02*
X81432400Y-144602200D01*
X81432400Y-144602200D02*
X79705200Y-142875000D01*
X79705200Y-142875000D02*
X79705200Y-133019800D01*
D42*
X112179100Y-125691900D02*
X112141000Y-125730000D01*
D41*
X101904800Y-144602200D02*
X100126800Y-144602200D01*
D40*
X104292400Y-92532200D02*
X104292400Y-96037400D01*
X109626400Y-87198200D02*
X104292400Y-92532200D01*
D41*
X48768000Y-72212200D02*
X48717200Y-72161400D01*
X48717200Y-72161400D02*
X48717200Y-72313800D01*
X48717200Y-72313800D02*
X48717200Y-72161400D01*
D40*
X48717200Y-72161400D02*
X57658000Y-72161400D01*
X102971600Y-97917000D02*
X102971600Y-96367600D01*
X102971600Y-96367600D02*
X102616000Y-96012000D01*
X102997000Y-93853000D02*
X102997000Y-95631000D01*
X102997000Y-83439000D02*
X102997000Y-93853000D01*
X101269800Y-81711800D02*
X102997000Y-83439000D01*
X101104700Y-81711800D02*
X101269800Y-81711800D01*
X102997000Y-95631000D02*
X102616000Y-96012000D01*
X84201000Y-120777000D02*
X74993500Y-120777000D01*
X56515000Y-122555000D02*
X43383200Y-122555000D01*
X74993500Y-120777000D02*
X73215500Y-122555000D01*
X73215500Y-122555000D02*
X56515000Y-122555000D01*
X84074000Y-120904000D02*
X84074000Y-120992900D01*
X98196400Y-124612400D02*
X94322900Y-124612400D01*
X94322900Y-124612400D02*
X92887800Y-123177300D01*
X92887800Y-123177300D02*
X89141300Y-123177300D01*
X89141300Y-123177300D02*
X86829900Y-120865900D01*
X86829900Y-120865900D02*
X84201000Y-120865900D01*
X84201000Y-120865900D02*
X84074000Y-120992900D01*
X84201000Y-120777000D02*
X84074000Y-120904000D01*
X108331000Y-113157000D02*
X106172000Y-113157000D01*
X109601000Y-114427000D02*
X108331000Y-113157000D01*
X111760000Y-114427000D02*
X109601000Y-114427000D01*
X112776000Y-113411000D02*
X111760000Y-114427000D01*
X115951000Y-113411000D02*
X112776000Y-113411000D01*
D41*
X99187000Y-113030000D02*
X102971600Y-109245400D01*
X102971600Y-97917000D02*
X102971600Y-109245400D01*
X98196400Y-114020600D02*
X99187000Y-113030000D01*
X98196400Y-118694200D02*
X98196400Y-114020600D01*
X98196400Y-124612400D02*
X98196400Y-118694200D01*
D40*
X110490000Y-130810000D02*
X110490000Y-129921000D01*
X113284000Y-127127000D02*
X113665000Y-127127000D01*
X110490000Y-129921000D02*
X113284000Y-127127000D01*
D42*
X114935000Y-127127000D02*
X113665000Y-127127000D01*
X113665000Y-127127000D02*
X113538000Y-127254000D01*
X115392200Y-125666500D02*
X115392200Y-126669800D01*
X115392200Y-126669800D02*
X114935000Y-127127000D01*
X115112800Y-121793000D02*
X115112800Y-124256800D01*
X115392200Y-124536200D02*
X115392200Y-125666500D01*
X115112800Y-124256800D02*
X115392200Y-124536200D01*
D40*
X113538000Y-127254000D02*
X113665000Y-127127000D01*
X121412000Y-125349000D02*
X121412000Y-127762000D01*
X121412000Y-127762000D02*
X120650000Y-128524000D01*
X120904000Y-110363000D02*
X115189000Y-110363000D01*
X121412000Y-110871000D02*
X120904000Y-110363000D01*
X121412000Y-125349000D02*
X121412000Y-110871000D01*
X105664000Y-110363000D02*
X104648000Y-111379000D01*
X104648000Y-111379000D02*
X104648000Y-115062000D01*
X115189000Y-110363000D02*
X105664000Y-110363000D01*
X103784400Y-139776200D02*
X103784400Y-143078200D01*
D41*
X117475000Y-111633000D02*
X117475000Y-113411000D01*
D40*
X120650000Y-130048000D02*
X117856000Y-130048000D01*
D42*
X116039900Y-130111500D02*
X117792500Y-130111500D01*
X117792500Y-130111500D02*
X117856000Y-130048000D01*
X117856000Y-130048000D02*
X117792500Y-130111500D01*
X116052600Y-130098800D02*
X116039900Y-130111500D01*
D40*
X119380000Y-81280000D02*
X119380000Y-76555600D01*
X119380000Y-76555600D02*
X120751600Y-75184000D01*
X119380000Y-81280000D02*
X119380000Y-81788000D01*
X119380000Y-81788000D02*
X120650000Y-83058000D01*
X120650000Y-108585000D02*
X122301000Y-110236000D01*
X114681000Y-134747000D02*
X115697000Y-135763000D01*
X115697000Y-135763000D02*
X120396000Y-135763000D01*
X120396000Y-135763000D02*
X122301000Y-133858000D01*
X122301000Y-133858000D02*
X122301000Y-110236000D01*
X114681000Y-132969000D02*
X114681000Y-134747000D01*
X120650000Y-83058000D02*
X120650000Y-108585000D01*
X43815000Y-82042000D02*
X39878000Y-82042000D01*
X35306000Y-109347000D02*
X35737100Y-109778100D01*
X35306000Y-86614000D02*
X35306000Y-109347000D01*
X39878000Y-82042000D02*
X35306000Y-86614000D01*
X43815000Y-82042000D02*
X45593000Y-82042000D01*
X45593000Y-82042000D02*
X52997100Y-74637900D01*
X59639200Y-74637900D02*
X61696600Y-72580500D01*
X61696600Y-72580500D02*
X61696600Y-68707000D01*
X52997100Y-74637900D02*
X59639200Y-74637900D01*
X44704000Y-72415400D02*
X48412400Y-68707000D01*
D42*
X44704000Y-72415400D02*
X48412400Y-68707000D01*
D40*
X48412400Y-68707000D02*
X61696600Y-68707000D01*
D42*
X73406000Y-67233800D02*
X73406000Y-66040000D01*
D40*
X61696600Y-68707000D02*
X71932800Y-68707000D01*
D42*
X71932800Y-68707000D02*
X73406000Y-67233800D01*
D40*
X82550000Y-66040000D02*
X82550000Y-59359800D01*
X82550000Y-59359800D02*
X82550000Y-59410600D01*
X82550000Y-59410600D02*
X82550000Y-59359800D01*
X84937600Y-59359800D02*
X82550000Y-59359800D01*
X82550000Y-59359800D02*
X74422000Y-59359800D01*
X73406000Y-60375800D02*
X73406000Y-66040000D01*
X74422000Y-59359800D02*
X73406000Y-60375800D01*
X91694000Y-66040000D02*
X91694000Y-59359800D01*
X93726000Y-59359800D02*
X91694000Y-59359800D01*
X120751600Y-75184000D02*
X120751600Y-63474600D01*
X120751600Y-63474600D02*
X116636800Y-59359800D01*
X116636800Y-59359800D02*
X93726000Y-59359800D01*
X91694000Y-59359800D02*
X84937600Y-59359800D01*
X35737100Y-112293400D02*
X35737100Y-109778100D01*
D41*
X35737100Y-112293400D02*
X32816800Y-112293400D01*
X32499300Y-112610900D02*
X32499300Y-115290600D01*
X32816800Y-112293400D02*
X32499300Y-112610900D01*
D40*
X43281600Y-117678200D02*
X49580800Y-117678200D01*
X49580800Y-117678200D02*
X51460400Y-115798600D01*
X39268400Y-115239800D02*
X37122100Y-115239800D01*
X37122100Y-115239800D02*
X37071300Y-115290600D01*
X61112400Y-110617000D02*
X55930800Y-115798600D01*
X55930800Y-115798600D02*
X51460400Y-115798600D01*
D42*
X37071300Y-115290600D02*
X39217600Y-115290600D01*
X39217600Y-115290600D02*
X39268400Y-115239800D01*
D41*
X37237100Y-112293400D02*
X37237100Y-115124800D01*
X37237100Y-115124800D02*
X37071300Y-115290600D01*
D40*
X37973000Y-77343000D02*
X46443900Y-77343000D01*
X46443900Y-77343000D02*
X47599600Y-76187300D01*
X31877000Y-77343000D02*
X37973000Y-77343000D01*
X46443900Y-77343000D02*
X47599600Y-76187300D01*
X115951000Y-111633000D02*
X111760000Y-111633000D01*
X111760000Y-111633000D02*
X110363000Y-113030000D01*
X82296000Y-125476000D02*
X70866000Y-125476000D01*
D42*
X116039900Y-125666500D02*
X116039900Y-124752100D01*
X118160800Y-122631200D02*
X118160800Y-121793000D01*
X116039900Y-124752100D02*
X118160800Y-122631200D01*
D40*
X116840000Y-76835000D02*
X116840000Y-75946000D01*
X116840000Y-75946000D02*
X115443000Y-74549000D01*
X84480400Y-126111000D02*
X84201000Y-126111000D01*
X44069000Y-126873000D02*
X43281600Y-126085600D01*
X83439000Y-126873000D02*
X44069000Y-126873000D01*
X84201000Y-126111000D02*
X83439000Y-126873000D01*
X34785300Y-121894600D02*
X34785300Y-125488700D01*
X34785300Y-125488700D02*
X35509200Y-126212600D01*
X34785300Y-115290600D02*
X34785300Y-121894600D01*
X35509200Y-126212600D02*
X34785300Y-125488700D01*
X118999000Y-127711200D02*
X118313200Y-128397000D01*
D42*
X114731800Y-130111500D02*
X114731800Y-128981200D01*
X115316000Y-128397000D02*
X116713000Y-128397000D01*
X114731800Y-128981200D02*
X115316000Y-128397000D01*
D40*
X106807000Y-121412000D02*
X106807000Y-119888000D01*
X107853480Y-123347480D02*
X106807000Y-122301000D01*
X106807000Y-122301000D02*
X106807000Y-121412000D01*
X108996480Y-123347480D02*
X107853480Y-123347480D01*
X106807000Y-119888000D02*
X110490000Y-116205000D01*
X108996480Y-123347480D02*
X109570520Y-123347480D01*
D42*
X116713000Y-128397000D02*
X118313200Y-128397000D01*
D40*
X118999000Y-126492000D02*
X118999000Y-127711200D01*
D42*
X114084100Y-130111500D02*
X114084100Y-128485900D01*
X114808000Y-127762000D02*
X115697000Y-127762000D01*
X114084100Y-128485900D02*
X114808000Y-127762000D01*
D41*
X117729000Y-124968000D02*
X117729000Y-127254000D01*
D42*
X117221000Y-127762000D02*
X115697000Y-127762000D01*
D41*
X117729000Y-127254000D02*
X117221000Y-127762000D01*
D40*
X108996480Y-120807480D02*
X108996480Y-119730520D01*
X108996480Y-119730520D02*
X112522000Y-116205000D01*
X108996480Y-120807480D02*
X108996480Y-119984520D01*
X108996480Y-120807480D02*
X109951520Y-120807480D01*
X73761600Y-79070200D02*
X74523600Y-78308200D01*
X73761600Y-108483400D02*
X73761600Y-79070200D01*
D42*
X73812400Y-108534200D02*
X73761600Y-108483400D01*
D40*
X59524900Y-75857100D02*
X96507300Y-75857100D01*
X96507300Y-75857100D02*
X98145600Y-77495400D01*
X53454300Y-75857100D02*
X51612800Y-77698600D01*
X59524900Y-75857100D02*
X53454300Y-75857100D01*
X40487600Y-109029500D02*
X40487600Y-111556800D01*
X40487600Y-110109000D02*
X40487600Y-109029500D01*
X40487600Y-109029500D02*
X40487600Y-108127800D01*
X40487600Y-108127800D02*
X38506400Y-106146600D01*
X38506400Y-106146600D02*
X38506400Y-95326200D01*
X38506400Y-95326200D02*
X40843200Y-92989400D01*
X40843200Y-88468200D02*
X51612800Y-77698600D01*
X40843200Y-92989400D02*
X40843200Y-88468200D01*
D42*
X38506400Y-99695000D02*
X38506400Y-95326200D01*
X40487600Y-110109000D02*
X40487600Y-108127800D01*
X40487600Y-108127800D02*
X38557200Y-106197400D01*
X38557200Y-106197400D02*
X38557200Y-99745800D01*
X38557200Y-99745800D02*
X38506400Y-99695000D01*
X40792400Y-88519000D02*
X51612800Y-77698600D01*
X38506400Y-95326200D02*
X40792400Y-93040200D01*
X40792400Y-93040200D02*
X40792400Y-88519000D01*
D40*
X90678000Y-76784200D02*
X93929200Y-76784200D01*
X93929200Y-76784200D02*
X94615000Y-77470000D01*
X87630000Y-76784200D02*
X90678000Y-76784200D01*
X68605400Y-76784200D02*
X54152800Y-76784200D01*
X54152800Y-76784200D02*
X42418000Y-88519000D01*
X68605400Y-76784200D02*
X87630000Y-76784200D01*
X42418000Y-94970600D02*
X42418000Y-88519000D01*
X41554400Y-95834200D02*
X42418000Y-94970600D01*
X107238800Y-68503800D02*
X108813600Y-66929000D01*
X107238800Y-68503800D02*
X79248000Y-68503800D01*
X79248000Y-68503800D02*
X75438000Y-72313800D01*
X75438000Y-72313800D02*
X63804800Y-72313800D01*
X40386000Y-124206000D02*
X40386000Y-127381000D01*
X42367200Y-129362200D02*
X84531200Y-129362200D01*
X40386000Y-127381000D02*
X42367200Y-129362200D01*
X100126800Y-138252200D02*
X99263200Y-138252200D01*
X87503000Y-137541000D02*
X85979000Y-136017000D01*
X98552000Y-137541000D02*
X87503000Y-137541000D01*
X99263200Y-138252200D02*
X98552000Y-137541000D01*
X85979000Y-130810000D02*
X85979000Y-136017000D01*
X84531200Y-129362200D02*
X85979000Y-130810000D01*
X40386000Y-120269000D02*
X40386000Y-116281200D01*
X42418000Y-114249200D02*
X42418000Y-110578900D01*
X40386000Y-116281200D02*
X42418000Y-114249200D01*
X40386000Y-123736100D02*
X40386000Y-124206000D01*
X41554400Y-106045000D02*
X40436800Y-106045000D01*
X42418000Y-106908600D02*
X41554400Y-106045000D01*
X42418000Y-110578900D02*
X42418000Y-106908600D01*
X40386000Y-120269000D02*
X40386000Y-123736100D01*
X86868000Y-131318000D02*
X86868000Y-129540000D01*
X43167358Y-128143000D02*
X41821129Y-126796771D01*
X85471000Y-128143000D02*
X43167358Y-128143000D01*
X86868000Y-129540000D02*
X85471000Y-128143000D01*
X41821129Y-126796771D02*
X41859200Y-126796771D01*
X43484800Y-99568000D02*
X43484800Y-111925100D01*
X41630600Y-97713800D02*
X43484800Y-99568000D01*
X41859200Y-124510800D02*
X41859200Y-119684800D01*
X41859200Y-124510800D02*
X41859200Y-126796771D01*
X43484800Y-114795300D02*
X41859200Y-116420900D01*
X41859200Y-116420900D02*
X41859200Y-119684800D01*
X43484800Y-111925100D02*
X43484800Y-114795300D01*
X101048818Y-136278618D02*
X101904800Y-137134600D01*
X87891618Y-136278618D02*
X101048818Y-136278618D01*
X86868000Y-135255000D02*
X87891618Y-136278618D01*
X86868000Y-131318000D02*
X86868000Y-135255000D01*
X101904800Y-137134600D02*
X101904800Y-138252200D01*
X101904800Y-138252200D02*
X101904800Y-137134600D01*
D43*
G36*
X31250058Y-114274600D02*
X31250058Y-116306600D01*
X31300751Y-116576010D01*
X31459972Y-116823446D01*
X31702915Y-116989443D01*
X31991300Y-117047842D01*
X33007300Y-117047842D01*
X33276710Y-116997149D01*
X33524146Y-116837928D01*
X33643185Y-116663710D01*
X33745972Y-116823446D01*
X33808110Y-116865903D01*
X33808110Y-120137358D01*
X32956500Y-120137358D01*
X32687090Y-120188051D01*
X32439654Y-120347272D01*
X32273657Y-120590215D01*
X32215258Y-120878600D01*
X32215258Y-122910600D01*
X32265951Y-123180010D01*
X32425172Y-123427446D01*
X32668115Y-123593443D01*
X32956500Y-123651842D01*
X33808110Y-123651842D01*
X33808110Y-125488700D01*
X33882494Y-125862655D01*
X34094322Y-126179678D01*
X34131955Y-126217311D01*
X34131721Y-126485348D01*
X34340952Y-126991725D01*
X34728037Y-127379487D01*
X35234048Y-127589601D01*
X35781948Y-127590079D01*
X36288325Y-127380848D01*
X36676087Y-126993763D01*
X36886201Y-126487752D01*
X36886679Y-125939852D01*
X36677448Y-125433475D01*
X36290363Y-125045713D01*
X35784352Y-124835599D01*
X35762490Y-124835580D01*
X35762490Y-123651842D01*
X36614100Y-123651842D01*
X36883510Y-123601149D01*
X37130946Y-123441928D01*
X37296943Y-123198985D01*
X37355342Y-122910600D01*
X37355342Y-120878600D01*
X37304649Y-120609190D01*
X37145428Y-120361754D01*
X36902485Y-120195757D01*
X36614100Y-120137358D01*
X35762490Y-120137358D01*
X35762490Y-116868594D01*
X35810146Y-116837928D01*
X35929185Y-116663710D01*
X36031972Y-116823446D01*
X36274915Y-116989443D01*
X36563300Y-117047842D01*
X37579300Y-117047842D01*
X37848710Y-116997149D01*
X38096146Y-116837928D01*
X38262143Y-116594985D01*
X38320542Y-116306600D01*
X38320542Y-116239700D01*
X38487237Y-116406687D01*
X38993248Y-116616801D01*
X39408810Y-116617164D01*
X39408810Y-127381000D01*
X39483194Y-127754955D01*
X39695022Y-128071978D01*
X41676222Y-130053178D01*
X41993245Y-130265006D01*
X42367200Y-130339391D01*
X42367205Y-130339390D01*
X54028854Y-130339390D01*
X53227035Y-131141209D01*
X52540887Y-131140611D01*
X51906100Y-131402900D01*
X51787129Y-131521663D01*
X51781557Y-131508211D01*
X51602928Y-131329583D01*
X51369539Y-131232910D01*
X50628550Y-131232910D01*
X50469800Y-131391660D01*
X50469800Y-132740400D01*
X50489800Y-132740400D01*
X50489800Y-132994400D01*
X50469800Y-132994400D01*
X50469800Y-134343140D01*
X50628550Y-134501890D01*
X51369539Y-134501890D01*
X51602928Y-134405217D01*
X51781557Y-134226589D01*
X51787001Y-134213446D01*
X51903545Y-134330194D01*
X51905610Y-134331051D01*
X51905610Y-138228434D01*
X49125234Y-141008810D01*
X46035907Y-141008810D01*
X46112866Y-140780471D01*
X45212000Y-139879605D01*
X44311134Y-140780471D01*
X44388093Y-141008810D01*
X42568765Y-141008810D01*
X42481683Y-140921727D01*
X42780863Y-140623069D01*
X43029147Y-140025136D01*
X43029640Y-139459234D01*
X43665115Y-139459234D01*
X43690727Y-140069529D01*
X43875001Y-140514406D01*
X44131529Y-140600866D01*
X45032395Y-139700000D01*
X44131529Y-138799134D01*
X43875001Y-138885594D01*
X43665115Y-139459234D01*
X43029640Y-139459234D01*
X43029712Y-139377704D01*
X42782472Y-138779339D01*
X42622941Y-138619529D01*
X44311134Y-138619529D01*
X45212000Y-139520395D01*
X45226143Y-139506253D01*
X45405748Y-139685858D01*
X45391605Y-139700000D01*
X46292471Y-140600866D01*
X46548999Y-140514406D01*
X46758885Y-139940766D01*
X46735626Y-139386538D01*
X47558009Y-139387256D01*
X48376773Y-139048949D01*
X49003748Y-138423068D01*
X49343483Y-137604895D01*
X49344256Y-136718991D01*
X49005949Y-135900227D01*
X48380068Y-135273252D01*
X47561895Y-134933517D01*
X46675991Y-134932744D01*
X45857227Y-135271051D01*
X45230252Y-135896932D01*
X44890517Y-136715105D01*
X44889744Y-137601009D01*
X45123578Y-138166930D01*
X44842471Y-138178727D01*
X44397594Y-138363001D01*
X44311134Y-138619529D01*
X42622941Y-138619529D01*
X42325069Y-138321137D01*
X41727136Y-138072853D01*
X41557549Y-138072705D01*
X41597987Y-138012186D01*
X41767497Y-137160000D01*
X41597987Y-136307814D01*
X41115262Y-135585365D01*
X40392813Y-135102640D01*
X39540627Y-134933130D01*
X39453373Y-134933130D01*
X38601187Y-135102640D01*
X37878738Y-135585365D01*
X37396013Y-136307814D01*
X37226503Y-137160000D01*
X37396013Y-138012186D01*
X37878738Y-138734635D01*
X38601187Y-139217360D01*
X39453373Y-139386870D01*
X39540627Y-139386870D01*
X39790507Y-139337166D01*
X39774853Y-139374864D01*
X39774288Y-140022296D01*
X40021528Y-140620661D01*
X40424810Y-141024647D01*
X40424810Y-141224000D01*
X40499194Y-141597955D01*
X40711022Y-141914978D01*
X41473020Y-142676975D01*
X41473022Y-142676978D01*
X41598321Y-142760700D01*
X41790045Y-142888806D01*
X42164000Y-142963191D01*
X42164005Y-142963190D01*
X49530000Y-142963190D01*
X49903955Y-142888806D01*
X50220978Y-142676978D01*
X50339954Y-142558002D01*
X85012564Y-142558002D01*
X85233333Y-142928723D01*
X86204992Y-143322099D01*
X87253227Y-143313693D01*
X88182627Y-142928723D01*
X88403396Y-142558002D01*
X95172564Y-142558002D01*
X95393333Y-142928723D01*
X96364992Y-143322099D01*
X97413227Y-143313693D01*
X98342627Y-142928723D01*
X98563396Y-142558002D01*
X96867980Y-140862585D01*
X95172564Y-142558002D01*
X88403396Y-142558002D01*
X86707980Y-140862585D01*
X85012564Y-142558002D01*
X50339954Y-142558002D01*
X52717964Y-140179992D01*
X84068861Y-140179992D01*
X84077267Y-141228227D01*
X84462237Y-142157627D01*
X84832958Y-142378396D01*
X86528375Y-140682980D01*
X86887585Y-140682980D01*
X88583002Y-142378396D01*
X88953723Y-142157627D01*
X89347099Y-141185968D01*
X89339032Y-140179992D01*
X94228861Y-140179992D01*
X94237267Y-141228227D01*
X94622237Y-142157627D01*
X94992958Y-142378396D01*
X96688375Y-140682980D01*
X94992958Y-138987564D01*
X94622237Y-139208333D01*
X94228861Y-140179992D01*
X89339032Y-140179992D01*
X89338693Y-140137733D01*
X88953723Y-139208333D01*
X88583002Y-138987564D01*
X86887585Y-140682980D01*
X86528375Y-140682980D01*
X84832958Y-138987564D01*
X84462237Y-139208333D01*
X84068861Y-140179992D01*
X52717964Y-140179992D01*
X53573778Y-139324178D01*
X53663907Y-139189290D01*
X53785606Y-139007154D01*
X53859990Y-138633200D01*
X53859990Y-136901690D01*
X55965800Y-136901690D01*
X55965800Y-137265910D01*
X56079143Y-137835726D01*
X56401918Y-138318792D01*
X56884984Y-138641567D01*
X57454800Y-138754910D01*
X58024616Y-138641567D01*
X58507682Y-138318792D01*
X58724800Y-137993853D01*
X58941918Y-138318792D01*
X59424984Y-138641567D01*
X59994800Y-138754910D01*
X60564616Y-138641567D01*
X61047682Y-138318792D01*
X61264800Y-137993853D01*
X61481918Y-138318792D01*
X61964984Y-138641567D01*
X62534800Y-138754910D01*
X63104616Y-138641567D01*
X63587682Y-138318792D01*
X63804800Y-137993853D01*
X64021918Y-138318792D01*
X64504984Y-138641567D01*
X65074800Y-138754910D01*
X65644616Y-138641567D01*
X66127682Y-138318792D01*
X66344800Y-137993853D01*
X66561918Y-138318792D01*
X67044984Y-138641567D01*
X67614800Y-138754910D01*
X68184616Y-138641567D01*
X68667682Y-138318792D01*
X68884800Y-137993853D01*
X69101918Y-138318792D01*
X69584984Y-138641567D01*
X70154800Y-138754910D01*
X70724616Y-138641567D01*
X71207682Y-138318792D01*
X71424800Y-137993853D01*
X71641918Y-138318792D01*
X72124984Y-138641567D01*
X72694800Y-138754910D01*
X73264616Y-138641567D01*
X73747682Y-138318792D01*
X73964800Y-137993853D01*
X74181918Y-138318792D01*
X74664984Y-138641567D01*
X75234800Y-138754910D01*
X75804616Y-138641567D01*
X76287682Y-138318792D01*
X76610457Y-137835726D01*
X76723800Y-137265910D01*
X76723800Y-136901690D01*
X76610457Y-136331874D01*
X76287682Y-135848808D01*
X75804616Y-135526033D01*
X75234800Y-135412690D01*
X74664984Y-135526033D01*
X74181918Y-135848808D01*
X73964800Y-136173747D01*
X73747682Y-135848808D01*
X73264616Y-135526033D01*
X72694800Y-135412690D01*
X72124984Y-135526033D01*
X71641918Y-135848808D01*
X71424800Y-136173747D01*
X71207682Y-135848808D01*
X70724616Y-135526033D01*
X70154800Y-135412690D01*
X69584984Y-135526033D01*
X69101918Y-135848808D01*
X68884800Y-136173747D01*
X68667682Y-135848808D01*
X68184616Y-135526033D01*
X67614800Y-135412690D01*
X67044984Y-135526033D01*
X66561918Y-135848808D01*
X66344800Y-136173747D01*
X66127682Y-135848808D01*
X65644616Y-135526033D01*
X65074800Y-135412690D01*
X64504984Y-135526033D01*
X64021918Y-135848808D01*
X63804800Y-136173747D01*
X63587682Y-135848808D01*
X63104616Y-135526033D01*
X62534800Y-135412690D01*
X61964984Y-135526033D01*
X61481918Y-135848808D01*
X61264800Y-136173747D01*
X61047682Y-135848808D01*
X60564616Y-135526033D01*
X59994800Y-135412690D01*
X59424984Y-135526033D01*
X58941918Y-135848808D01*
X58724800Y-136173747D01*
X58507682Y-135848808D01*
X58024616Y-135526033D01*
X57454800Y-135412690D01*
X56884984Y-135526033D01*
X56401918Y-135848808D01*
X56079143Y-136331874D01*
X55965800Y-136901690D01*
X53859990Y-136901690D01*
X53859990Y-134331411D01*
X54345594Y-133846655D01*
X54570280Y-133305550D01*
X78169770Y-133305550D01*
X78169770Y-134145600D01*
X78266443Y-134378989D01*
X78445072Y-134557617D01*
X78678461Y-134654290D01*
X79419450Y-134654290D01*
X79578200Y-134495540D01*
X79578200Y-133146800D01*
X78328520Y-133146800D01*
X78169770Y-133305550D01*
X54570280Y-133305550D01*
X54608990Y-133212327D01*
X54609589Y-132525487D01*
X54608735Y-132523421D01*
X55344966Y-131787190D01*
X60497471Y-131787190D01*
X60686837Y-131976887D01*
X61192848Y-132187001D01*
X61740748Y-132187479D01*
X62247125Y-131978248D01*
X62616628Y-131609390D01*
X78317664Y-131609390D01*
X78266443Y-131660611D01*
X78169770Y-131894000D01*
X78169770Y-132734050D01*
X78328520Y-132892800D01*
X79578200Y-132892800D01*
X79578200Y-132872800D01*
X79832200Y-132872800D01*
X79832200Y-132892800D01*
X79852200Y-132892800D01*
X79852200Y-133146800D01*
X79832200Y-133146800D01*
X79832200Y-134495540D01*
X79990950Y-134654290D01*
X80731939Y-134654290D01*
X80965328Y-134557617D01*
X81143957Y-134378989D01*
X81149401Y-134365846D01*
X81265945Y-134482594D01*
X81900273Y-134745990D01*
X82587113Y-134746589D01*
X83221900Y-134484300D01*
X83707994Y-133999055D01*
X83971390Y-133364727D01*
X83971989Y-132677887D01*
X83709700Y-132043100D01*
X83676152Y-132009493D01*
X83889548Y-132009679D01*
X84395925Y-131800448D01*
X84783687Y-131413363D01*
X84905955Y-131118910D01*
X85001810Y-131214765D01*
X85001810Y-136017000D01*
X85076194Y-136390955D01*
X85288022Y-136707978D01*
X86628576Y-138048531D01*
X86162733Y-138052267D01*
X85233333Y-138437237D01*
X85012564Y-138807958D01*
X86707980Y-140503375D01*
X88403396Y-138807958D01*
X88230836Y-138518190D01*
X95345124Y-138518190D01*
X95172564Y-138807958D01*
X96867980Y-140503375D01*
X96882122Y-140489232D01*
X97061728Y-140668838D01*
X97047585Y-140682980D01*
X98743002Y-142378396D01*
X99113723Y-142157627D01*
X99149610Y-142068984D01*
X99149610Y-142157845D01*
X99038454Y-142229372D01*
X98872457Y-142472315D01*
X98814058Y-142760700D01*
X98814058Y-143395700D01*
X98864751Y-143665110D01*
X99023972Y-143912546D01*
X99027214Y-143914761D01*
X99016973Y-143925002D01*
X98920300Y-144158391D01*
X98920300Y-144316450D01*
X99079050Y-144475200D01*
X99999800Y-144475200D01*
X99999800Y-144455200D01*
X100253800Y-144455200D01*
X100253800Y-144475200D01*
X101777800Y-144475200D01*
X101777800Y-144455200D01*
X102031800Y-144455200D01*
X102031800Y-144475200D01*
X102051800Y-144475200D01*
X102051800Y-144729200D01*
X102031800Y-144729200D01*
X102031800Y-145395950D01*
X102190550Y-145554700D01*
X102602610Y-145554700D01*
X102759429Y-145489744D01*
X102924515Y-145602543D01*
X103212900Y-145660942D01*
X104355900Y-145660942D01*
X104625310Y-145610249D01*
X104673266Y-145579390D01*
X105206800Y-145579390D01*
X105580755Y-145505006D01*
X105897778Y-145293178D01*
X106354975Y-144835980D01*
X106354978Y-144835978D01*
X106566806Y-144518954D01*
X106641190Y-144145000D01*
X106641190Y-137287000D01*
X106620190Y-137181424D01*
X106566806Y-136913045D01*
X106354978Y-136596022D01*
X103830853Y-134071897D01*
X103886000Y-134016750D01*
X103886000Y-133096000D01*
X104140000Y-133096000D01*
X104140000Y-134016750D01*
X104298750Y-134175500D01*
X104456809Y-134175500D01*
X104690198Y-134078827D01*
X104868827Y-133900199D01*
X104965500Y-133666810D01*
X104965500Y-133254750D01*
X105525570Y-133254750D01*
X105525570Y-134094800D01*
X105622243Y-134328189D01*
X105800872Y-134506817D01*
X106034261Y-134603490D01*
X106775250Y-134603490D01*
X106934000Y-134444740D01*
X106934000Y-133096000D01*
X105684320Y-133096000D01*
X105525570Y-133254750D01*
X104965500Y-133254750D01*
X104806750Y-133096000D01*
X104140000Y-133096000D01*
X103886000Y-133096000D01*
X103866000Y-133096000D01*
X103866000Y-132842000D01*
X103886000Y-132842000D01*
X103886000Y-131921250D01*
X104140000Y-131921250D01*
X104140000Y-132842000D01*
X104806750Y-132842000D01*
X104965500Y-132683250D01*
X104965500Y-132271190D01*
X104868827Y-132037801D01*
X104690198Y-131859173D01*
X104651636Y-131843200D01*
X105525570Y-131843200D01*
X105525570Y-132683250D01*
X105684320Y-132842000D01*
X106934000Y-132842000D01*
X106934000Y-131493260D01*
X106775250Y-131334510D01*
X106034261Y-131334510D01*
X105800872Y-131431183D01*
X105622243Y-131609811D01*
X105525570Y-131843200D01*
X104651636Y-131843200D01*
X104456809Y-131762500D01*
X104298750Y-131762500D01*
X104140000Y-131921250D01*
X103886000Y-131921250D01*
X103727250Y-131762500D01*
X103569191Y-131762500D01*
X103466190Y-131805164D01*
X103466190Y-131000505D01*
X103466191Y-131000500D01*
X103391806Y-130626545D01*
X103269886Y-130444080D01*
X103179978Y-130309522D01*
X103179975Y-130309520D01*
X101583686Y-128713230D01*
X107361990Y-128713230D01*
X107361990Y-129553279D01*
X107458663Y-129786668D01*
X107637291Y-129965297D01*
X107870680Y-130061970D01*
X108034302Y-130061970D01*
X108013500Y-130112190D01*
X108013500Y-130524250D01*
X108172250Y-130683000D01*
X108839000Y-130683000D01*
X108839000Y-129933700D01*
X108869480Y-129903220D01*
X108869480Y-128554480D01*
X107520740Y-128554480D01*
X107361990Y-128713230D01*
X101583686Y-128713230D01*
X98849278Y-125978822D01*
X98714255Y-125888603D01*
X98975525Y-125780648D01*
X99363287Y-125393563D01*
X99573401Y-124887552D01*
X99573879Y-124339652D01*
X99364648Y-123833275D01*
X99122790Y-123590994D01*
X99122790Y-122967656D01*
X99173194Y-123221055D01*
X99385022Y-123538078D01*
X100616455Y-124769510D01*
X100616221Y-125037548D01*
X100825452Y-125543925D01*
X101212537Y-125931687D01*
X101718548Y-126141801D01*
X102266448Y-126142279D01*
X102772825Y-125933048D01*
X103160587Y-125545963D01*
X103370701Y-125039952D01*
X103371179Y-124492052D01*
X103161948Y-123985675D01*
X102774863Y-123597913D01*
X102268852Y-123387799D01*
X101998418Y-123387563D01*
X101053190Y-122442334D01*
X101053190Y-119214190D01*
X105455471Y-119214190D01*
X105644837Y-119403887D01*
X105905483Y-119512116D01*
X105904194Y-119514045D01*
X105870229Y-119684800D01*
X105829810Y-119888000D01*
X105829810Y-122301000D01*
X105904194Y-122674955D01*
X106116022Y-122991978D01*
X107162502Y-124038458D01*
X107479525Y-124250286D01*
X107503411Y-124255037D01*
X107531980Y-124324180D01*
X107824854Y-124617566D01*
X107533686Y-124908225D01*
X107270290Y-125542553D01*
X107269691Y-126229393D01*
X107531980Y-126864180D01*
X107597320Y-126929634D01*
X107458663Y-127068292D01*
X107361990Y-127301681D01*
X107361990Y-128141730D01*
X107520740Y-128300480D01*
X108869480Y-128300480D01*
X108869480Y-128280480D01*
X109123480Y-128280480D01*
X109123480Y-128300480D01*
X109143480Y-128300480D01*
X109143480Y-128554480D01*
X109123480Y-128554480D01*
X109123480Y-129731770D01*
X109093000Y-129762250D01*
X109093000Y-130683000D01*
X109113000Y-130683000D01*
X109113000Y-130937000D01*
X109093000Y-130937000D01*
X109093000Y-130957000D01*
X108839000Y-130957000D01*
X108839000Y-130937000D01*
X108172250Y-130937000D01*
X108013500Y-131095750D01*
X108013500Y-131334510D01*
X107346750Y-131334510D01*
X107188000Y-131493260D01*
X107188000Y-132842000D01*
X107208000Y-132842000D01*
X107208000Y-133096000D01*
X107188000Y-133096000D01*
X107188000Y-134444740D01*
X107346750Y-134603490D01*
X108087739Y-134603490D01*
X108321128Y-134506817D01*
X108499757Y-134328189D01*
X108505201Y-134315046D01*
X108621745Y-134431794D01*
X109256073Y-134695190D01*
X109942913Y-134695789D01*
X110577700Y-134433500D01*
X110871086Y-134140626D01*
X111161745Y-134431794D01*
X111796073Y-134695190D01*
X112482913Y-134695789D01*
X113117700Y-134433500D01*
X113411086Y-134140626D01*
X113701745Y-134431794D01*
X113703810Y-134432651D01*
X113703810Y-134747000D01*
X113778194Y-135120955D01*
X113990022Y-135437978D01*
X115006022Y-136453978D01*
X115323045Y-136665806D01*
X115697000Y-136740190D01*
X120396000Y-136740190D01*
X120769955Y-136665806D01*
X121086978Y-136453978D01*
X122780500Y-134760456D01*
X122780500Y-146275500D01*
X29238500Y-146275500D01*
X29238500Y-144989550D01*
X56057800Y-144989550D01*
X56057800Y-145742110D01*
X56154473Y-145975499D01*
X56333102Y-146154127D01*
X56566491Y-146250800D01*
X57169050Y-146250800D01*
X57327800Y-146092050D01*
X57327800Y-144830800D01*
X57581800Y-144830800D01*
X57581800Y-146092050D01*
X57740550Y-146250800D01*
X58343109Y-146250800D01*
X58576498Y-146154127D01*
X58755127Y-145975499D01*
X58851800Y-145742110D01*
X58851800Y-145632922D01*
X59154444Y-145971322D01*
X59646069Y-146207846D01*
X59651730Y-146208020D01*
X59867800Y-146085520D01*
X59867800Y-144830800D01*
X60121800Y-144830800D01*
X60121800Y-146085520D01*
X60337870Y-146208020D01*
X60343531Y-146207846D01*
X60835156Y-145971322D01*
X61198845Y-145564665D01*
X61264800Y-145376406D01*
X61330755Y-145564665D01*
X61694444Y-145971322D01*
X62186069Y-146207846D01*
X62191730Y-146208020D01*
X62407800Y-146085520D01*
X62407800Y-144830800D01*
X62661800Y-144830800D01*
X62661800Y-146085520D01*
X62877870Y-146208020D01*
X62883531Y-146207846D01*
X63375156Y-145971322D01*
X63738845Y-145564665D01*
X63804800Y-145376406D01*
X63870755Y-145564665D01*
X64234444Y-145971322D01*
X64726069Y-146207846D01*
X64731730Y-146208020D01*
X64947800Y-146085520D01*
X64947800Y-144830800D01*
X65201800Y-144830800D01*
X65201800Y-146085520D01*
X65417870Y-146208020D01*
X65423531Y-146207846D01*
X65915156Y-145971322D01*
X66278845Y-145564665D01*
X66344800Y-145376406D01*
X66410755Y-145564665D01*
X66774444Y-145971322D01*
X67266069Y-146207846D01*
X67271730Y-146208020D01*
X67487800Y-146085520D01*
X67487800Y-144830800D01*
X67741800Y-144830800D01*
X67741800Y-146085520D01*
X67957870Y-146208020D01*
X67963531Y-146207846D01*
X68455156Y-145971322D01*
X68818845Y-145564665D01*
X68884800Y-145376406D01*
X68950755Y-145564665D01*
X69314444Y-145971322D01*
X69806069Y-146207846D01*
X69811730Y-146208020D01*
X70027800Y-146085520D01*
X70027800Y-144830800D01*
X70281800Y-144830800D01*
X70281800Y-146085520D01*
X70497870Y-146208020D01*
X70503531Y-146207846D01*
X70995156Y-145971322D01*
X71358845Y-145564665D01*
X71424800Y-145376406D01*
X71490755Y-145564665D01*
X71854444Y-145971322D01*
X72346069Y-146207846D01*
X72351730Y-146208020D01*
X72567800Y-146085520D01*
X72567800Y-144830800D01*
X72821800Y-144830800D01*
X72821800Y-146085520D01*
X73037870Y-146208020D01*
X73043531Y-146207846D01*
X73535156Y-145971322D01*
X73898845Y-145564665D01*
X73964800Y-145376406D01*
X74030755Y-145564665D01*
X74394444Y-145971322D01*
X74886069Y-146207846D01*
X74891730Y-146208020D01*
X75107800Y-146085520D01*
X75107800Y-144830800D01*
X75361800Y-144830800D01*
X75361800Y-146085520D01*
X75577870Y-146208020D01*
X75583531Y-146207846D01*
X76075156Y-145971322D01*
X76438845Y-145564665D01*
X76619229Y-145049785D01*
X76511971Y-144887950D01*
X98920300Y-144887950D01*
X98920300Y-145046009D01*
X99016973Y-145279398D01*
X99195601Y-145458027D01*
X99428990Y-145554700D01*
X99841050Y-145554700D01*
X99999800Y-145395950D01*
X99999800Y-144729200D01*
X100253800Y-144729200D01*
X100253800Y-145395950D01*
X100412550Y-145554700D01*
X100824610Y-145554700D01*
X101015800Y-145475506D01*
X101206990Y-145554700D01*
X101619050Y-145554700D01*
X101777800Y-145395950D01*
X101777800Y-144729200D01*
X100253800Y-144729200D01*
X99999800Y-144729200D01*
X99079050Y-144729200D01*
X98920300Y-144887950D01*
X76511971Y-144887950D01*
X76474093Y-144830800D01*
X75361800Y-144830800D01*
X75107800Y-144830800D01*
X73995507Y-144830800D01*
X73964800Y-144877132D01*
X73934093Y-144830800D01*
X72821800Y-144830800D01*
X72567800Y-144830800D01*
X71455507Y-144830800D01*
X71424800Y-144877132D01*
X71394093Y-144830800D01*
X70281800Y-144830800D01*
X70027800Y-144830800D01*
X68915507Y-144830800D01*
X68884800Y-144877132D01*
X68854093Y-144830800D01*
X67741800Y-144830800D01*
X67487800Y-144830800D01*
X66375507Y-144830800D01*
X66344800Y-144877132D01*
X66314093Y-144830800D01*
X65201800Y-144830800D01*
X64947800Y-144830800D01*
X63835507Y-144830800D01*
X63804800Y-144877132D01*
X63774093Y-144830800D01*
X62661800Y-144830800D01*
X62407800Y-144830800D01*
X61295507Y-144830800D01*
X61264800Y-144877132D01*
X61234093Y-144830800D01*
X60121800Y-144830800D01*
X59867800Y-144830800D01*
X58755507Y-144830800D01*
X58730612Y-144868362D01*
X58693050Y-144830800D01*
X57581800Y-144830800D01*
X57327800Y-144830800D01*
X56216550Y-144830800D01*
X56057800Y-144989550D01*
X29238500Y-144989550D01*
X29238500Y-143665490D01*
X56057800Y-143665490D01*
X56057800Y-144418050D01*
X56216550Y-144576800D01*
X57327800Y-144576800D01*
X57327800Y-143315550D01*
X57581800Y-143315550D01*
X57581800Y-144576800D01*
X58693050Y-144576800D01*
X58730612Y-144539238D01*
X58755507Y-144576800D01*
X59867800Y-144576800D01*
X59867800Y-143322080D01*
X60121800Y-143322080D01*
X60121800Y-144576800D01*
X61234093Y-144576800D01*
X61264800Y-144530468D01*
X61295507Y-144576800D01*
X62407800Y-144576800D01*
X62407800Y-143322080D01*
X62661800Y-143322080D01*
X62661800Y-144576800D01*
X63774093Y-144576800D01*
X63804800Y-144530468D01*
X63835507Y-144576800D01*
X64947800Y-144576800D01*
X64947800Y-143322080D01*
X65201800Y-143322080D01*
X65201800Y-144576800D01*
X66314093Y-144576800D01*
X66344800Y-144530468D01*
X66375507Y-144576800D01*
X67487800Y-144576800D01*
X67487800Y-143322080D01*
X67741800Y-143322080D01*
X67741800Y-144576800D01*
X68854093Y-144576800D01*
X68884800Y-144530468D01*
X68915507Y-144576800D01*
X70027800Y-144576800D01*
X70027800Y-143322080D01*
X70281800Y-143322080D01*
X70281800Y-144576800D01*
X71394093Y-144576800D01*
X71424800Y-144530468D01*
X71455507Y-144576800D01*
X72567800Y-144576800D01*
X72567800Y-143322080D01*
X72821800Y-143322080D01*
X72821800Y-144576800D01*
X73934093Y-144576800D01*
X73964800Y-144530468D01*
X73995507Y-144576800D01*
X75107800Y-144576800D01*
X75107800Y-143322080D01*
X75361800Y-143322080D01*
X75361800Y-144576800D01*
X76474093Y-144576800D01*
X76619229Y-144357815D01*
X76438845Y-143842935D01*
X76075156Y-143436278D01*
X75583531Y-143199754D01*
X75577870Y-143199580D01*
X75361800Y-143322080D01*
X75107800Y-143322080D01*
X74891730Y-143199580D01*
X74886069Y-143199754D01*
X74394444Y-143436278D01*
X74030755Y-143842935D01*
X73964800Y-144031194D01*
X73898845Y-143842935D01*
X73535156Y-143436278D01*
X73043531Y-143199754D01*
X73037870Y-143199580D01*
X72821800Y-143322080D01*
X72567800Y-143322080D01*
X72351730Y-143199580D01*
X72346069Y-143199754D01*
X71854444Y-143436278D01*
X71490755Y-143842935D01*
X71424800Y-144031194D01*
X71358845Y-143842935D01*
X70995156Y-143436278D01*
X70503531Y-143199754D01*
X70497870Y-143199580D01*
X70281800Y-143322080D01*
X70027800Y-143322080D01*
X69811730Y-143199580D01*
X69806069Y-143199754D01*
X69314444Y-143436278D01*
X68950755Y-143842935D01*
X68884800Y-144031194D01*
X68818845Y-143842935D01*
X68455156Y-143436278D01*
X67963531Y-143199754D01*
X67957870Y-143199580D01*
X67741800Y-143322080D01*
X67487800Y-143322080D01*
X67271730Y-143199580D01*
X67266069Y-143199754D01*
X66774444Y-143436278D01*
X66410755Y-143842935D01*
X66344800Y-144031194D01*
X66278845Y-143842935D01*
X65915156Y-143436278D01*
X65423531Y-143199754D01*
X65417870Y-143199580D01*
X65201800Y-143322080D01*
X64947800Y-143322080D01*
X64731730Y-143199580D01*
X64726069Y-143199754D01*
X64234444Y-143436278D01*
X63870755Y-143842935D01*
X63804800Y-144031194D01*
X63738845Y-143842935D01*
X63375156Y-143436278D01*
X62883531Y-143199754D01*
X62877870Y-143199580D01*
X62661800Y-143322080D01*
X62407800Y-143322080D01*
X62191730Y-143199580D01*
X62186069Y-143199754D01*
X61694444Y-143436278D01*
X61330755Y-143842935D01*
X61264800Y-144031194D01*
X61198845Y-143842935D01*
X60835156Y-143436278D01*
X60343531Y-143199754D01*
X60337870Y-143199580D01*
X60121800Y-143322080D01*
X59867800Y-143322080D01*
X59651730Y-143199580D01*
X59646069Y-143199754D01*
X59154444Y-143436278D01*
X58851800Y-143774678D01*
X58851800Y-143665490D01*
X58755127Y-143432101D01*
X58576498Y-143253473D01*
X58343109Y-143156800D01*
X57740550Y-143156800D01*
X57581800Y-143315550D01*
X57327800Y-143315550D01*
X57169050Y-143156800D01*
X56566491Y-143156800D01*
X56333102Y-143253473D01*
X56154473Y-143432101D01*
X56057800Y-143665490D01*
X29238500Y-143665490D01*
X29238500Y-131969510D01*
X31886328Y-131969510D01*
X31886328Y-133968490D01*
X31937021Y-134237900D01*
X32096242Y-134485336D01*
X32339185Y-134651333D01*
X32627570Y-134709732D01*
X34428430Y-134709732D01*
X34697840Y-134659039D01*
X34945276Y-134499818D01*
X35031166Y-134374114D01*
X35088745Y-134431794D01*
X35723073Y-134695190D01*
X36409913Y-134695789D01*
X37044700Y-134433500D01*
X37530794Y-133948255D01*
X37794190Y-133313927D01*
X37794330Y-133153150D01*
X48807370Y-133153150D01*
X48807370Y-133993200D01*
X48904043Y-134226589D01*
X49082672Y-134405217D01*
X49316061Y-134501890D01*
X50057050Y-134501890D01*
X50215800Y-134343140D01*
X50215800Y-132994400D01*
X48966120Y-132994400D01*
X48807370Y-133153150D01*
X37794330Y-133153150D01*
X37794789Y-132627087D01*
X37532500Y-131992300D01*
X37282238Y-131741600D01*
X48807370Y-131741600D01*
X48807370Y-132581650D01*
X48966120Y-132740400D01*
X50215800Y-132740400D01*
X50215800Y-131391660D01*
X50057050Y-131232910D01*
X49316061Y-131232910D01*
X49082672Y-131329583D01*
X48904043Y-131508211D01*
X48807370Y-131741600D01*
X37282238Y-131741600D01*
X37047255Y-131506206D01*
X36412927Y-131242810D01*
X35726087Y-131242211D01*
X35091300Y-131504500D01*
X35031516Y-131564179D01*
X34959758Y-131452664D01*
X34716815Y-131286667D01*
X34428430Y-131228268D01*
X32627570Y-131228268D01*
X32358160Y-131278961D01*
X32110724Y-131438182D01*
X31944727Y-131681125D01*
X31886328Y-131969510D01*
X29238500Y-131969510D01*
X29238500Y-114228716D01*
X31259350Y-114228716D01*
X31250058Y-114274600D01*
X31250058Y-114274600D01*
G37*
X31250058Y-114274600D02*
X31250058Y-116306600D01*
X31300751Y-116576010D01*
X31459972Y-116823446D01*
X31702915Y-116989443D01*
X31991300Y-117047842D01*
X33007300Y-117047842D01*
X33276710Y-116997149D01*
X33524146Y-116837928D01*
X33643185Y-116663710D01*
X33745972Y-116823446D01*
X33808110Y-116865903D01*
X33808110Y-120137358D01*
X32956500Y-120137358D01*
X32687090Y-120188051D01*
X32439654Y-120347272D01*
X32273657Y-120590215D01*
X32215258Y-120878600D01*
X32215258Y-122910600D01*
X32265951Y-123180010D01*
X32425172Y-123427446D01*
X32668115Y-123593443D01*
X32956500Y-123651842D01*
X33808110Y-123651842D01*
X33808110Y-125488700D01*
X33882494Y-125862655D01*
X34094322Y-126179678D01*
X34131955Y-126217311D01*
X34131721Y-126485348D01*
X34340952Y-126991725D01*
X34728037Y-127379487D01*
X35234048Y-127589601D01*
X35781948Y-127590079D01*
X36288325Y-127380848D01*
X36676087Y-126993763D01*
X36886201Y-126487752D01*
X36886679Y-125939852D01*
X36677448Y-125433475D01*
X36290363Y-125045713D01*
X35784352Y-124835599D01*
X35762490Y-124835580D01*
X35762490Y-123651842D01*
X36614100Y-123651842D01*
X36883510Y-123601149D01*
X37130946Y-123441928D01*
X37296943Y-123198985D01*
X37355342Y-122910600D01*
X37355342Y-120878600D01*
X37304649Y-120609190D01*
X37145428Y-120361754D01*
X36902485Y-120195757D01*
X36614100Y-120137358D01*
X35762490Y-120137358D01*
X35762490Y-116868594D01*
X35810146Y-116837928D01*
X35929185Y-116663710D01*
X36031972Y-116823446D01*
X36274915Y-116989443D01*
X36563300Y-117047842D01*
X37579300Y-117047842D01*
X37848710Y-116997149D01*
X38096146Y-116837928D01*
X38262143Y-116594985D01*
X38320542Y-116306600D01*
X38320542Y-116239700D01*
X38487237Y-116406687D01*
X38993248Y-116616801D01*
X39408810Y-116617164D01*
X39408810Y-127381000D01*
X39483194Y-127754955D01*
X39695022Y-128071978D01*
X41676222Y-130053178D01*
X41993245Y-130265006D01*
X42367200Y-130339391D01*
X42367205Y-130339390D01*
X54028854Y-130339390D01*
X53227035Y-131141209D01*
X52540887Y-131140611D01*
X51906100Y-131402900D01*
X51787129Y-131521663D01*
X51781557Y-131508211D01*
X51602928Y-131329583D01*
X51369539Y-131232910D01*
X50628550Y-131232910D01*
X50469800Y-131391660D01*
X50469800Y-132740400D01*
X50489800Y-132740400D01*
X50489800Y-132994400D01*
X50469800Y-132994400D01*
X50469800Y-134343140D01*
X50628550Y-134501890D01*
X51369539Y-134501890D01*
X51602928Y-134405217D01*
X51781557Y-134226589D01*
X51787001Y-134213446D01*
X51903545Y-134330194D01*
X51905610Y-134331051D01*
X51905610Y-138228434D01*
X49125234Y-141008810D01*
X46035907Y-141008810D01*
X46112866Y-140780471D01*
X45212000Y-139879605D01*
X44311134Y-140780471D01*
X44388093Y-141008810D01*
X42568765Y-141008810D01*
X42481683Y-140921727D01*
X42780863Y-140623069D01*
X43029147Y-140025136D01*
X43029640Y-139459234D01*
X43665115Y-139459234D01*
X43690727Y-140069529D01*
X43875001Y-140514406D01*
X44131529Y-140600866D01*
X45032395Y-139700000D01*
X44131529Y-138799134D01*
X43875001Y-138885594D01*
X43665115Y-139459234D01*
X43029640Y-139459234D01*
X43029712Y-139377704D01*
X42782472Y-138779339D01*
X42622941Y-138619529D01*
X44311134Y-138619529D01*
X45212000Y-139520395D01*
X45226143Y-139506253D01*
X45405748Y-139685858D01*
X45391605Y-139700000D01*
X46292471Y-140600866D01*
X46548999Y-140514406D01*
X46758885Y-139940766D01*
X46735626Y-139386538D01*
X47558009Y-139387256D01*
X48376773Y-139048949D01*
X49003748Y-138423068D01*
X49343483Y-137604895D01*
X49344256Y-136718991D01*
X49005949Y-135900227D01*
X48380068Y-135273252D01*
X47561895Y-134933517D01*
X46675991Y-134932744D01*
X45857227Y-135271051D01*
X45230252Y-135896932D01*
X44890517Y-136715105D01*
X44889744Y-137601009D01*
X45123578Y-138166930D01*
X44842471Y-138178727D01*
X44397594Y-138363001D01*
X44311134Y-138619529D01*
X42622941Y-138619529D01*
X42325069Y-138321137D01*
X41727136Y-138072853D01*
X41557549Y-138072705D01*
X41597987Y-138012186D01*
X41767497Y-137160000D01*
X41597987Y-136307814D01*
X41115262Y-135585365D01*
X40392813Y-135102640D01*
X39540627Y-134933130D01*
X39453373Y-134933130D01*
X38601187Y-135102640D01*
X37878738Y-135585365D01*
X37396013Y-136307814D01*
X37226503Y-137160000D01*
X37396013Y-138012186D01*
X37878738Y-138734635D01*
X38601187Y-139217360D01*
X39453373Y-139386870D01*
X39540627Y-139386870D01*
X39790507Y-139337166D01*
X39774853Y-139374864D01*
X39774288Y-140022296D01*
X40021528Y-140620661D01*
X40424810Y-141024647D01*
X40424810Y-141224000D01*
X40499194Y-141597955D01*
X40711022Y-141914978D01*
X41473020Y-142676975D01*
X41473022Y-142676978D01*
X41598321Y-142760700D01*
X41790045Y-142888806D01*
X42164000Y-142963191D01*
X42164005Y-142963190D01*
X49530000Y-142963190D01*
X49903955Y-142888806D01*
X50220978Y-142676978D01*
X50339954Y-142558002D01*
X85012564Y-142558002D01*
X85233333Y-142928723D01*
X86204992Y-143322099D01*
X87253227Y-143313693D01*
X88182627Y-142928723D01*
X88403396Y-142558002D01*
X95172564Y-142558002D01*
X95393333Y-142928723D01*
X96364992Y-143322099D01*
X97413227Y-143313693D01*
X98342627Y-142928723D01*
X98563396Y-142558002D01*
X96867980Y-140862585D01*
X95172564Y-142558002D01*
X88403396Y-142558002D01*
X86707980Y-140862585D01*
X85012564Y-142558002D01*
X50339954Y-142558002D01*
X52717964Y-140179992D01*
X84068861Y-140179992D01*
X84077267Y-141228227D01*
X84462237Y-142157627D01*
X84832958Y-142378396D01*
X86528375Y-140682980D01*
X86887585Y-140682980D01*
X88583002Y-142378396D01*
X88953723Y-142157627D01*
X89347099Y-141185968D01*
X89339032Y-140179992D01*
X94228861Y-140179992D01*
X94237267Y-141228227D01*
X94622237Y-142157627D01*
X94992958Y-142378396D01*
X96688375Y-140682980D01*
X94992958Y-138987564D01*
X94622237Y-139208333D01*
X94228861Y-140179992D01*
X89339032Y-140179992D01*
X89338693Y-140137733D01*
X88953723Y-139208333D01*
X88583002Y-138987564D01*
X86887585Y-140682980D01*
X86528375Y-140682980D01*
X84832958Y-138987564D01*
X84462237Y-139208333D01*
X84068861Y-140179992D01*
X52717964Y-140179992D01*
X53573778Y-139324178D01*
X53663907Y-139189290D01*
X53785606Y-139007154D01*
X53859990Y-138633200D01*
X53859990Y-136901690D01*
X55965800Y-136901690D01*
X55965800Y-137265910D01*
X56079143Y-137835726D01*
X56401918Y-138318792D01*
X56884984Y-138641567D01*
X57454800Y-138754910D01*
X58024616Y-138641567D01*
X58507682Y-138318792D01*
X58724800Y-137993853D01*
X58941918Y-138318792D01*
X59424984Y-138641567D01*
X59994800Y-138754910D01*
X60564616Y-138641567D01*
X61047682Y-138318792D01*
X61264800Y-137993853D01*
X61481918Y-138318792D01*
X61964984Y-138641567D01*
X62534800Y-138754910D01*
X63104616Y-138641567D01*
X63587682Y-138318792D01*
X63804800Y-137993853D01*
X64021918Y-138318792D01*
X64504984Y-138641567D01*
X65074800Y-138754910D01*
X65644616Y-138641567D01*
X66127682Y-138318792D01*
X66344800Y-137993853D01*
X66561918Y-138318792D01*
X67044984Y-138641567D01*
X67614800Y-138754910D01*
X68184616Y-138641567D01*
X68667682Y-138318792D01*
X68884800Y-137993853D01*
X69101918Y-138318792D01*
X69584984Y-138641567D01*
X70154800Y-138754910D01*
X70724616Y-138641567D01*
X71207682Y-138318792D01*
X71424800Y-137993853D01*
X71641918Y-138318792D01*
X72124984Y-138641567D01*
X72694800Y-138754910D01*
X73264616Y-138641567D01*
X73747682Y-138318792D01*
X73964800Y-137993853D01*
X74181918Y-138318792D01*
X74664984Y-138641567D01*
X75234800Y-138754910D01*
X75804616Y-138641567D01*
X76287682Y-138318792D01*
X76610457Y-137835726D01*
X76723800Y-137265910D01*
X76723800Y-136901690D01*
X76610457Y-136331874D01*
X76287682Y-135848808D01*
X75804616Y-135526033D01*
X75234800Y-135412690D01*
X74664984Y-135526033D01*
X74181918Y-135848808D01*
X73964800Y-136173747D01*
X73747682Y-135848808D01*
X73264616Y-135526033D01*
X72694800Y-135412690D01*
X72124984Y-135526033D01*
X71641918Y-135848808D01*
X71424800Y-136173747D01*
X71207682Y-135848808D01*
X70724616Y-135526033D01*
X70154800Y-135412690D01*
X69584984Y-135526033D01*
X69101918Y-135848808D01*
X68884800Y-136173747D01*
X68667682Y-135848808D01*
X68184616Y-135526033D01*
X67614800Y-135412690D01*
X67044984Y-135526033D01*
X66561918Y-135848808D01*
X66344800Y-136173747D01*
X66127682Y-135848808D01*
X65644616Y-135526033D01*
X65074800Y-135412690D01*
X64504984Y-135526033D01*
X64021918Y-135848808D01*
X63804800Y-136173747D01*
X63587682Y-135848808D01*
X63104616Y-135526033D01*
X62534800Y-135412690D01*
X61964984Y-135526033D01*
X61481918Y-135848808D01*
X61264800Y-136173747D01*
X61047682Y-135848808D01*
X60564616Y-135526033D01*
X59994800Y-135412690D01*
X59424984Y-135526033D01*
X58941918Y-135848808D01*
X58724800Y-136173747D01*
X58507682Y-135848808D01*
X58024616Y-135526033D01*
X57454800Y-135412690D01*
X56884984Y-135526033D01*
X56401918Y-135848808D01*
X56079143Y-136331874D01*
X55965800Y-136901690D01*
X53859990Y-136901690D01*
X53859990Y-134331411D01*
X54345594Y-133846655D01*
X54570280Y-133305550D01*
X78169770Y-133305550D01*
X78169770Y-134145600D01*
X78266443Y-134378989D01*
X78445072Y-134557617D01*
X78678461Y-134654290D01*
X79419450Y-134654290D01*
X79578200Y-134495540D01*
X79578200Y-133146800D01*
X78328520Y-133146800D01*
X78169770Y-133305550D01*
X54570280Y-133305550D01*
X54608990Y-133212327D01*
X54609589Y-132525487D01*
X54608735Y-132523421D01*
X55344966Y-131787190D01*
X60497471Y-131787190D01*
X60686837Y-131976887D01*
X61192848Y-132187001D01*
X61740748Y-132187479D01*
X62247125Y-131978248D01*
X62616628Y-131609390D01*
X78317664Y-131609390D01*
X78266443Y-131660611D01*
X78169770Y-131894000D01*
X78169770Y-132734050D01*
X78328520Y-132892800D01*
X79578200Y-132892800D01*
X79578200Y-132872800D01*
X79832200Y-132872800D01*
X79832200Y-132892800D01*
X79852200Y-132892800D01*
X79852200Y-133146800D01*
X79832200Y-133146800D01*
X79832200Y-134495540D01*
X79990950Y-134654290D01*
X80731939Y-134654290D01*
X80965328Y-134557617D01*
X81143957Y-134378989D01*
X81149401Y-134365846D01*
X81265945Y-134482594D01*
X81900273Y-134745990D01*
X82587113Y-134746589D01*
X83221900Y-134484300D01*
X83707994Y-133999055D01*
X83971390Y-133364727D01*
X83971989Y-132677887D01*
X83709700Y-132043100D01*
X83676152Y-132009493D01*
X83889548Y-132009679D01*
X84395925Y-131800448D01*
X84783687Y-131413363D01*
X84905955Y-131118910D01*
X85001810Y-131214765D01*
X85001810Y-136017000D01*
X85076194Y-136390955D01*
X85288022Y-136707978D01*
X86628576Y-138048531D01*
X86162733Y-138052267D01*
X85233333Y-138437237D01*
X85012564Y-138807958D01*
X86707980Y-140503375D01*
X88403396Y-138807958D01*
X88230836Y-138518190D01*
X95345124Y-138518190D01*
X95172564Y-138807958D01*
X96867980Y-140503375D01*
X96882122Y-140489232D01*
X97061728Y-140668838D01*
X97047585Y-140682980D01*
X98743002Y-142378396D01*
X99113723Y-142157627D01*
X99149610Y-142068984D01*
X99149610Y-142157845D01*
X99038454Y-142229372D01*
X98872457Y-142472315D01*
X98814058Y-142760700D01*
X98814058Y-143395700D01*
X98864751Y-143665110D01*
X99023972Y-143912546D01*
X99027214Y-143914761D01*
X99016973Y-143925002D01*
X98920300Y-144158391D01*
X98920300Y-144316450D01*
X99079050Y-144475200D01*
X99999800Y-144475200D01*
X99999800Y-144455200D01*
X100253800Y-144455200D01*
X100253800Y-144475200D01*
X101777800Y-144475200D01*
X101777800Y-144455200D01*
X102031800Y-144455200D01*
X102031800Y-144475200D01*
X102051800Y-144475200D01*
X102051800Y-144729200D01*
X102031800Y-144729200D01*
X102031800Y-145395950D01*
X102190550Y-145554700D01*
X102602610Y-145554700D01*
X102759429Y-145489744D01*
X102924515Y-145602543D01*
X103212900Y-145660942D01*
X104355900Y-145660942D01*
X104625310Y-145610249D01*
X104673266Y-145579390D01*
X105206800Y-145579390D01*
X105580755Y-145505006D01*
X105897778Y-145293178D01*
X106354975Y-144835980D01*
X106354978Y-144835978D01*
X106566806Y-144518954D01*
X106641190Y-144145000D01*
X106641190Y-137287000D01*
X106620190Y-137181424D01*
X106566806Y-136913045D01*
X106354978Y-136596022D01*
X103830853Y-134071897D01*
X103886000Y-134016750D01*
X103886000Y-133096000D01*
X104140000Y-133096000D01*
X104140000Y-134016750D01*
X104298750Y-134175500D01*
X104456809Y-134175500D01*
X104690198Y-134078827D01*
X104868827Y-133900199D01*
X104965500Y-133666810D01*
X104965500Y-133254750D01*
X105525570Y-133254750D01*
X105525570Y-134094800D01*
X105622243Y-134328189D01*
X105800872Y-134506817D01*
X106034261Y-134603490D01*
X106775250Y-134603490D01*
X106934000Y-134444740D01*
X106934000Y-133096000D01*
X105684320Y-133096000D01*
X105525570Y-133254750D01*
X104965500Y-133254750D01*
X104806750Y-133096000D01*
X104140000Y-133096000D01*
X103886000Y-133096000D01*
X103866000Y-133096000D01*
X103866000Y-132842000D01*
X103886000Y-132842000D01*
X103886000Y-131921250D01*
X104140000Y-131921250D01*
X104140000Y-132842000D01*
X104806750Y-132842000D01*
X104965500Y-132683250D01*
X104965500Y-132271190D01*
X104868827Y-132037801D01*
X104690198Y-131859173D01*
X104651636Y-131843200D01*
X105525570Y-131843200D01*
X105525570Y-132683250D01*
X105684320Y-132842000D01*
X106934000Y-132842000D01*
X106934000Y-131493260D01*
X106775250Y-131334510D01*
X106034261Y-131334510D01*
X105800872Y-131431183D01*
X105622243Y-131609811D01*
X105525570Y-131843200D01*
X104651636Y-131843200D01*
X104456809Y-131762500D01*
X104298750Y-131762500D01*
X104140000Y-131921250D01*
X103886000Y-131921250D01*
X103727250Y-131762500D01*
X103569191Y-131762500D01*
X103466190Y-131805164D01*
X103466190Y-131000505D01*
X103466191Y-131000500D01*
X103391806Y-130626545D01*
X103269886Y-130444080D01*
X103179978Y-130309522D01*
X103179975Y-130309520D01*
X101583686Y-128713230D01*
X107361990Y-128713230D01*
X107361990Y-129553279D01*
X107458663Y-129786668D01*
X107637291Y-129965297D01*
X107870680Y-130061970D01*
X108034302Y-130061970D01*
X108013500Y-130112190D01*
X108013500Y-130524250D01*
X108172250Y-130683000D01*
X108839000Y-130683000D01*
X108839000Y-129933700D01*
X108869480Y-129903220D01*
X108869480Y-128554480D01*
X107520740Y-128554480D01*
X107361990Y-128713230D01*
X101583686Y-128713230D01*
X98849278Y-125978822D01*
X98714255Y-125888603D01*
X98975525Y-125780648D01*
X99363287Y-125393563D01*
X99573401Y-124887552D01*
X99573879Y-124339652D01*
X99364648Y-123833275D01*
X99122790Y-123590994D01*
X99122790Y-122967656D01*
X99173194Y-123221055D01*
X99385022Y-123538078D01*
X100616455Y-124769510D01*
X100616221Y-125037548D01*
X100825452Y-125543925D01*
X101212537Y-125931687D01*
X101718548Y-126141801D01*
X102266448Y-126142279D01*
X102772825Y-125933048D01*
X103160587Y-125545963D01*
X103370701Y-125039952D01*
X103371179Y-124492052D01*
X103161948Y-123985675D01*
X102774863Y-123597913D01*
X102268852Y-123387799D01*
X101998418Y-123387563D01*
X101053190Y-122442334D01*
X101053190Y-119214190D01*
X105455471Y-119214190D01*
X105644837Y-119403887D01*
X105905483Y-119512116D01*
X105904194Y-119514045D01*
X105870229Y-119684800D01*
X105829810Y-119888000D01*
X105829810Y-122301000D01*
X105904194Y-122674955D01*
X106116022Y-122991978D01*
X107162502Y-124038458D01*
X107479525Y-124250286D01*
X107503411Y-124255037D01*
X107531980Y-124324180D01*
X107824854Y-124617566D01*
X107533686Y-124908225D01*
X107270290Y-125542553D01*
X107269691Y-126229393D01*
X107531980Y-126864180D01*
X107597320Y-126929634D01*
X107458663Y-127068292D01*
X107361990Y-127301681D01*
X107361990Y-128141730D01*
X107520740Y-128300480D01*
X108869480Y-128300480D01*
X108869480Y-128280480D01*
X109123480Y-128280480D01*
X109123480Y-128300480D01*
X109143480Y-128300480D01*
X109143480Y-128554480D01*
X109123480Y-128554480D01*
X109123480Y-129731770D01*
X109093000Y-129762250D01*
X109093000Y-130683000D01*
X109113000Y-130683000D01*
X109113000Y-130937000D01*
X109093000Y-130937000D01*
X109093000Y-130957000D01*
X108839000Y-130957000D01*
X108839000Y-130937000D01*
X108172250Y-130937000D01*
X108013500Y-131095750D01*
X108013500Y-131334510D01*
X107346750Y-131334510D01*
X107188000Y-131493260D01*
X107188000Y-132842000D01*
X107208000Y-132842000D01*
X107208000Y-133096000D01*
X107188000Y-133096000D01*
X107188000Y-134444740D01*
X107346750Y-134603490D01*
X108087739Y-134603490D01*
X108321128Y-134506817D01*
X108499757Y-134328189D01*
X108505201Y-134315046D01*
X108621745Y-134431794D01*
X109256073Y-134695190D01*
X109942913Y-134695789D01*
X110577700Y-134433500D01*
X110871086Y-134140626D01*
X111161745Y-134431794D01*
X111796073Y-134695190D01*
X112482913Y-134695789D01*
X113117700Y-134433500D01*
X113411086Y-134140626D01*
X113701745Y-134431794D01*
X113703810Y-134432651D01*
X113703810Y-134747000D01*
X113778194Y-135120955D01*
X113990022Y-135437978D01*
X115006022Y-136453978D01*
X115323045Y-136665806D01*
X115697000Y-136740190D01*
X120396000Y-136740190D01*
X120769955Y-136665806D01*
X121086978Y-136453978D01*
X122780500Y-134760456D01*
X122780500Y-146275500D01*
X29238500Y-146275500D01*
X29238500Y-144989550D01*
X56057800Y-144989550D01*
X56057800Y-145742110D01*
X56154473Y-145975499D01*
X56333102Y-146154127D01*
X56566491Y-146250800D01*
X57169050Y-146250800D01*
X57327800Y-146092050D01*
X57327800Y-144830800D01*
X57581800Y-144830800D01*
X57581800Y-146092050D01*
X57740550Y-146250800D01*
X58343109Y-146250800D01*
X58576498Y-146154127D01*
X58755127Y-145975499D01*
X58851800Y-145742110D01*
X58851800Y-145632922D01*
X59154444Y-145971322D01*
X59646069Y-146207846D01*
X59651730Y-146208020D01*
X59867800Y-146085520D01*
X59867800Y-144830800D01*
X60121800Y-144830800D01*
X60121800Y-146085520D01*
X60337870Y-146208020D01*
X60343531Y-146207846D01*
X60835156Y-145971322D01*
X61198845Y-145564665D01*
X61264800Y-145376406D01*
X61330755Y-145564665D01*
X61694444Y-145971322D01*
X62186069Y-146207846D01*
X62191730Y-146208020D01*
X62407800Y-146085520D01*
X62407800Y-144830800D01*
X62661800Y-144830800D01*
X62661800Y-146085520D01*
X62877870Y-146208020D01*
X62883531Y-146207846D01*
X63375156Y-145971322D01*
X63738845Y-145564665D01*
X63804800Y-145376406D01*
X63870755Y-145564665D01*
X64234444Y-145971322D01*
X64726069Y-146207846D01*
X64731730Y-146208020D01*
X64947800Y-146085520D01*
X64947800Y-144830800D01*
X65201800Y-144830800D01*
X65201800Y-146085520D01*
X65417870Y-146208020D01*
X65423531Y-146207846D01*
X65915156Y-145971322D01*
X66278845Y-145564665D01*
X66344800Y-145376406D01*
X66410755Y-145564665D01*
X66774444Y-145971322D01*
X67266069Y-146207846D01*
X67271730Y-146208020D01*
X67487800Y-146085520D01*
X67487800Y-144830800D01*
X67741800Y-144830800D01*
X67741800Y-146085520D01*
X67957870Y-146208020D01*
X67963531Y-146207846D01*
X68455156Y-145971322D01*
X68818845Y-145564665D01*
X68884800Y-145376406D01*
X68950755Y-145564665D01*
X69314444Y-145971322D01*
X69806069Y-146207846D01*
X69811730Y-146208020D01*
X70027800Y-146085520D01*
X70027800Y-144830800D01*
X70281800Y-144830800D01*
X70281800Y-146085520D01*
X70497870Y-146208020D01*
X70503531Y-146207846D01*
X70995156Y-145971322D01*
X71358845Y-145564665D01*
X71424800Y-145376406D01*
X71490755Y-145564665D01*
X71854444Y-145971322D01*
X72346069Y-146207846D01*
X72351730Y-146208020D01*
X72567800Y-146085520D01*
X72567800Y-144830800D01*
X72821800Y-144830800D01*
X72821800Y-146085520D01*
X73037870Y-146208020D01*
X73043531Y-146207846D01*
X73535156Y-145971322D01*
X73898845Y-145564665D01*
X73964800Y-145376406D01*
X74030755Y-145564665D01*
X74394444Y-145971322D01*
X74886069Y-146207846D01*
X74891730Y-146208020D01*
X75107800Y-146085520D01*
X75107800Y-144830800D01*
X75361800Y-144830800D01*
X75361800Y-146085520D01*
X75577870Y-146208020D01*
X75583531Y-146207846D01*
X76075156Y-145971322D01*
X76438845Y-145564665D01*
X76619229Y-145049785D01*
X76511971Y-144887950D01*
X98920300Y-144887950D01*
X98920300Y-145046009D01*
X99016973Y-145279398D01*
X99195601Y-145458027D01*
X99428990Y-145554700D01*
X99841050Y-145554700D01*
X99999800Y-145395950D01*
X99999800Y-144729200D01*
X100253800Y-144729200D01*
X100253800Y-145395950D01*
X100412550Y-145554700D01*
X100824610Y-145554700D01*
X101015800Y-145475506D01*
X101206990Y-145554700D01*
X101619050Y-145554700D01*
X101777800Y-145395950D01*
X101777800Y-144729200D01*
X100253800Y-144729200D01*
X99999800Y-144729200D01*
X99079050Y-144729200D01*
X98920300Y-144887950D01*
X76511971Y-144887950D01*
X76474093Y-144830800D01*
X75361800Y-144830800D01*
X75107800Y-144830800D01*
X73995507Y-144830800D01*
X73964800Y-144877132D01*
X73934093Y-144830800D01*
X72821800Y-144830800D01*
X72567800Y-144830800D01*
X71455507Y-144830800D01*
X71424800Y-144877132D01*
X71394093Y-144830800D01*
X70281800Y-144830800D01*
X70027800Y-144830800D01*
X68915507Y-144830800D01*
X68884800Y-144877132D01*
X68854093Y-144830800D01*
X67741800Y-144830800D01*
X67487800Y-144830800D01*
X66375507Y-144830800D01*
X66344800Y-144877132D01*
X66314093Y-144830800D01*
X65201800Y-144830800D01*
X64947800Y-144830800D01*
X63835507Y-144830800D01*
X63804800Y-144877132D01*
X63774093Y-144830800D01*
X62661800Y-144830800D01*
X62407800Y-144830800D01*
X61295507Y-144830800D01*
X61264800Y-144877132D01*
X61234093Y-144830800D01*
X60121800Y-144830800D01*
X59867800Y-144830800D01*
X58755507Y-144830800D01*
X58730612Y-144868362D01*
X58693050Y-144830800D01*
X57581800Y-144830800D01*
X57327800Y-144830800D01*
X56216550Y-144830800D01*
X56057800Y-144989550D01*
X29238500Y-144989550D01*
X29238500Y-143665490D01*
X56057800Y-143665490D01*
X56057800Y-144418050D01*
X56216550Y-144576800D01*
X57327800Y-144576800D01*
X57327800Y-143315550D01*
X57581800Y-143315550D01*
X57581800Y-144576800D01*
X58693050Y-144576800D01*
X58730612Y-144539238D01*
X58755507Y-144576800D01*
X59867800Y-144576800D01*
X59867800Y-143322080D01*
X60121800Y-143322080D01*
X60121800Y-144576800D01*
X61234093Y-144576800D01*
X61264800Y-144530468D01*
X61295507Y-144576800D01*
X62407800Y-144576800D01*
X62407800Y-143322080D01*
X62661800Y-143322080D01*
X62661800Y-144576800D01*
X63774093Y-144576800D01*
X63804800Y-144530468D01*
X63835507Y-144576800D01*
X64947800Y-144576800D01*
X64947800Y-143322080D01*
X65201800Y-143322080D01*
X65201800Y-144576800D01*
X66314093Y-144576800D01*
X66344800Y-144530468D01*
X66375507Y-144576800D01*
X67487800Y-144576800D01*
X67487800Y-143322080D01*
X67741800Y-143322080D01*
X67741800Y-144576800D01*
X68854093Y-144576800D01*
X68884800Y-144530468D01*
X68915507Y-144576800D01*
X70027800Y-144576800D01*
X70027800Y-143322080D01*
X70281800Y-143322080D01*
X70281800Y-144576800D01*
X71394093Y-144576800D01*
X71424800Y-144530468D01*
X71455507Y-144576800D01*
X72567800Y-144576800D01*
X72567800Y-143322080D01*
X72821800Y-143322080D01*
X72821800Y-144576800D01*
X73934093Y-144576800D01*
X73964800Y-144530468D01*
X73995507Y-144576800D01*
X75107800Y-144576800D01*
X75107800Y-143322080D01*
X75361800Y-143322080D01*
X75361800Y-144576800D01*
X76474093Y-144576800D01*
X76619229Y-144357815D01*
X76438845Y-143842935D01*
X76075156Y-143436278D01*
X75583531Y-143199754D01*
X75577870Y-143199580D01*
X75361800Y-143322080D01*
X75107800Y-143322080D01*
X74891730Y-143199580D01*
X74886069Y-143199754D01*
X74394444Y-143436278D01*
X74030755Y-143842935D01*
X73964800Y-144031194D01*
X73898845Y-143842935D01*
X73535156Y-143436278D01*
X73043531Y-143199754D01*
X73037870Y-143199580D01*
X72821800Y-143322080D01*
X72567800Y-143322080D01*
X72351730Y-143199580D01*
X72346069Y-143199754D01*
X71854444Y-143436278D01*
X71490755Y-143842935D01*
X71424800Y-144031194D01*
X71358845Y-143842935D01*
X70995156Y-143436278D01*
X70503531Y-143199754D01*
X70497870Y-143199580D01*
X70281800Y-143322080D01*
X70027800Y-143322080D01*
X69811730Y-143199580D01*
X69806069Y-143199754D01*
X69314444Y-143436278D01*
X68950755Y-143842935D01*
X68884800Y-144031194D01*
X68818845Y-143842935D01*
X68455156Y-143436278D01*
X67963531Y-143199754D01*
X67957870Y-143199580D01*
X67741800Y-143322080D01*
X67487800Y-143322080D01*
X67271730Y-143199580D01*
X67266069Y-143199754D01*
X66774444Y-143436278D01*
X66410755Y-143842935D01*
X66344800Y-144031194D01*
X66278845Y-143842935D01*
X65915156Y-143436278D01*
X65423531Y-143199754D01*
X65417870Y-143199580D01*
X65201800Y-143322080D01*
X64947800Y-143322080D01*
X64731730Y-143199580D01*
X64726069Y-143199754D01*
X64234444Y-143436278D01*
X63870755Y-143842935D01*
X63804800Y-144031194D01*
X63738845Y-143842935D01*
X63375156Y-143436278D01*
X62883531Y-143199754D01*
X62877870Y-143199580D01*
X62661800Y-143322080D01*
X62407800Y-143322080D01*
X62191730Y-143199580D01*
X62186069Y-143199754D01*
X61694444Y-143436278D01*
X61330755Y-143842935D01*
X61264800Y-144031194D01*
X61198845Y-143842935D01*
X60835156Y-143436278D01*
X60343531Y-143199754D01*
X60337870Y-143199580D01*
X60121800Y-143322080D01*
X59867800Y-143322080D01*
X59651730Y-143199580D01*
X59646069Y-143199754D01*
X59154444Y-143436278D01*
X58851800Y-143774678D01*
X58851800Y-143665490D01*
X58755127Y-143432101D01*
X58576498Y-143253473D01*
X58343109Y-143156800D01*
X57740550Y-143156800D01*
X57581800Y-143315550D01*
X57327800Y-143315550D01*
X57169050Y-143156800D01*
X56566491Y-143156800D01*
X56333102Y-143253473D01*
X56154473Y-143432101D01*
X56057800Y-143665490D01*
X29238500Y-143665490D01*
X29238500Y-131969510D01*
X31886328Y-131969510D01*
X31886328Y-133968490D01*
X31937021Y-134237900D01*
X32096242Y-134485336D01*
X32339185Y-134651333D01*
X32627570Y-134709732D01*
X34428430Y-134709732D01*
X34697840Y-134659039D01*
X34945276Y-134499818D01*
X35031166Y-134374114D01*
X35088745Y-134431794D01*
X35723073Y-134695190D01*
X36409913Y-134695789D01*
X37044700Y-134433500D01*
X37530794Y-133948255D01*
X37794190Y-133313927D01*
X37794330Y-133153150D01*
X48807370Y-133153150D01*
X48807370Y-133993200D01*
X48904043Y-134226589D01*
X49082672Y-134405217D01*
X49316061Y-134501890D01*
X50057050Y-134501890D01*
X50215800Y-134343140D01*
X50215800Y-132994400D01*
X48966120Y-132994400D01*
X48807370Y-133153150D01*
X37794330Y-133153150D01*
X37794789Y-132627087D01*
X37532500Y-131992300D01*
X37282238Y-131741600D01*
X48807370Y-131741600D01*
X48807370Y-132581650D01*
X48966120Y-132740400D01*
X50215800Y-132740400D01*
X50215800Y-131391660D01*
X50057050Y-131232910D01*
X49316061Y-131232910D01*
X49082672Y-131329583D01*
X48904043Y-131508211D01*
X48807370Y-131741600D01*
X37282238Y-131741600D01*
X37047255Y-131506206D01*
X36412927Y-131242810D01*
X35726087Y-131242211D01*
X35091300Y-131504500D01*
X35031516Y-131564179D01*
X34959758Y-131452664D01*
X34716815Y-131286667D01*
X34428430Y-131228268D01*
X32627570Y-131228268D01*
X32358160Y-131278961D01*
X32110724Y-131438182D01*
X31944727Y-131681125D01*
X31886328Y-131969510D01*
X29238500Y-131969510D01*
X29238500Y-114228716D01*
X31259350Y-114228716D01*
X31250058Y-114274600D01*
G36*
X87955022Y-125023978D02*
X88272045Y-125235806D01*
X88646000Y-125310190D01*
X91543234Y-125310190D01*
X93593820Y-127360775D01*
X93593822Y-127360778D01*
X93910846Y-127572606D01*
X94284800Y-127646990D01*
X97753534Y-127646990D01*
X101511810Y-131405265D01*
X101511810Y-132075230D01*
X101488657Y-132109115D01*
X101430258Y-132397500D01*
X101430258Y-133540500D01*
X101480951Y-133809910D01*
X101511810Y-133857866D01*
X101511810Y-134112000D01*
X101586194Y-134485955D01*
X101798022Y-134802978D01*
X104294744Y-137299700D01*
X104070150Y-137299700D01*
X103911400Y-137458450D01*
X103911400Y-138125200D01*
X103931400Y-138125200D01*
X103931400Y-138379200D01*
X103911400Y-138379200D01*
X103911400Y-138399200D01*
X103657400Y-138399200D01*
X103657400Y-138379200D01*
X103637400Y-138379200D01*
X103637400Y-138125200D01*
X103657400Y-138125200D01*
X103657400Y-137458450D01*
X103498650Y-137299700D01*
X103086590Y-137299700D01*
X102929771Y-137364656D01*
X102881990Y-137332009D01*
X102881990Y-137134600D01*
X102807606Y-136760646D01*
X102595778Y-136443622D01*
X102595775Y-136443620D01*
X101739796Y-135587640D01*
X101422773Y-135375812D01*
X101048818Y-135301428D01*
X96296385Y-135301428D01*
X96341843Y-135256049D01*
X96590127Y-134658116D01*
X96590692Y-134010684D01*
X96343452Y-133412319D01*
X95886049Y-132954117D01*
X95288116Y-132705833D01*
X95010938Y-132705591D01*
X95029116Y-132687445D01*
X95269705Y-132108041D01*
X95270253Y-131480672D01*
X95030675Y-130900848D01*
X94587445Y-130456844D01*
X94008041Y-130216255D01*
X93380672Y-130215707D01*
X92800848Y-130455285D01*
X92356844Y-130898515D01*
X92327079Y-130970198D01*
X92196938Y-130928627D01*
X91332585Y-131792980D01*
X91346728Y-131807123D01*
X91167123Y-131986728D01*
X91152980Y-131972585D01*
X91138838Y-131986728D01*
X90959233Y-131807123D01*
X90973375Y-131792980D01*
X90109022Y-130928627D01*
X90027480Y-130954674D01*
X89993452Y-130872319D01*
X89870371Y-130749022D01*
X90288627Y-130749022D01*
X91152980Y-131613375D01*
X92017333Y-130749022D01*
X91937060Y-130497721D01*
X91381701Y-130296262D01*
X90791522Y-130322665D01*
X90368900Y-130497721D01*
X90288627Y-130749022D01*
X89870371Y-130749022D01*
X89536049Y-130414117D01*
X88938116Y-130165833D01*
X88290684Y-130165268D01*
X87845190Y-130349343D01*
X87845190Y-129540000D01*
X87770806Y-129166046D01*
X87558978Y-128849022D01*
X87558975Y-128849020D01*
X86161978Y-127452022D01*
X85844955Y-127240194D01*
X85471000Y-127165810D01*
X85373161Y-127165810D01*
X85647287Y-126892163D01*
X85857401Y-126386152D01*
X85857879Y-125838252D01*
X85648648Y-125331875D01*
X85261563Y-124944113D01*
X84755552Y-124733999D01*
X84207652Y-124733521D01*
X83701275Y-124942752D01*
X83605392Y-125038468D01*
X83464248Y-124696875D01*
X83077163Y-124309113D01*
X82571152Y-124098999D01*
X82023252Y-124098521D01*
X81516875Y-124307752D01*
X81325483Y-124498810D01*
X73987146Y-124498810D01*
X75461766Y-123024190D01*
X85955234Y-123024190D01*
X87955022Y-125023978D01*
X87955022Y-125023978D01*
G37*
X87955022Y-125023978D02*
X88272045Y-125235806D01*
X88646000Y-125310190D01*
X91543234Y-125310190D01*
X93593820Y-127360775D01*
X93593822Y-127360778D01*
X93910846Y-127572606D01*
X94284800Y-127646990D01*
X97753534Y-127646990D01*
X101511810Y-131405265D01*
X101511810Y-132075230D01*
X101488657Y-132109115D01*
X101430258Y-132397500D01*
X101430258Y-133540500D01*
X101480951Y-133809910D01*
X101511810Y-133857866D01*
X101511810Y-134112000D01*
X101586194Y-134485955D01*
X101798022Y-134802978D01*
X104294744Y-137299700D01*
X104070150Y-137299700D01*
X103911400Y-137458450D01*
X103911400Y-138125200D01*
X103931400Y-138125200D01*
X103931400Y-138379200D01*
X103911400Y-138379200D01*
X103911400Y-138399200D01*
X103657400Y-138399200D01*
X103657400Y-138379200D01*
X103637400Y-138379200D01*
X103637400Y-138125200D01*
X103657400Y-138125200D01*
X103657400Y-137458450D01*
X103498650Y-137299700D01*
X103086590Y-137299700D01*
X102929771Y-137364656D01*
X102881990Y-137332009D01*
X102881990Y-137134600D01*
X102807606Y-136760646D01*
X102595778Y-136443622D01*
X102595775Y-136443620D01*
X101739796Y-135587640D01*
X101422773Y-135375812D01*
X101048818Y-135301428D01*
X96296385Y-135301428D01*
X96341843Y-135256049D01*
X96590127Y-134658116D01*
X96590692Y-134010684D01*
X96343452Y-133412319D01*
X95886049Y-132954117D01*
X95288116Y-132705833D01*
X95010938Y-132705591D01*
X95029116Y-132687445D01*
X95269705Y-132108041D01*
X95270253Y-131480672D01*
X95030675Y-130900848D01*
X94587445Y-130456844D01*
X94008041Y-130216255D01*
X93380672Y-130215707D01*
X92800848Y-130455285D01*
X92356844Y-130898515D01*
X92327079Y-130970198D01*
X92196938Y-130928627D01*
X91332585Y-131792980D01*
X91346728Y-131807123D01*
X91167123Y-131986728D01*
X91152980Y-131972585D01*
X91138838Y-131986728D01*
X90959233Y-131807123D01*
X90973375Y-131792980D01*
X90109022Y-130928627D01*
X90027480Y-130954674D01*
X89993452Y-130872319D01*
X89870371Y-130749022D01*
X90288627Y-130749022D01*
X91152980Y-131613375D01*
X92017333Y-130749022D01*
X91937060Y-130497721D01*
X91381701Y-130296262D01*
X90791522Y-130322665D01*
X90368900Y-130497721D01*
X90288627Y-130749022D01*
X89870371Y-130749022D01*
X89536049Y-130414117D01*
X88938116Y-130165833D01*
X88290684Y-130165268D01*
X87845190Y-130349343D01*
X87845190Y-129540000D01*
X87770806Y-129166046D01*
X87558978Y-128849022D01*
X87558975Y-128849020D01*
X86161978Y-127452022D01*
X85844955Y-127240194D01*
X85471000Y-127165810D01*
X85373161Y-127165810D01*
X85647287Y-126892163D01*
X85857401Y-126386152D01*
X85857879Y-125838252D01*
X85648648Y-125331875D01*
X85261563Y-124944113D01*
X84755552Y-124733999D01*
X84207652Y-124733521D01*
X83701275Y-124942752D01*
X83605392Y-125038468D01*
X83464248Y-124696875D01*
X83077163Y-124309113D01*
X82571152Y-124098999D01*
X82023252Y-124098521D01*
X81516875Y-124307752D01*
X81325483Y-124498810D01*
X73987146Y-124498810D01*
X75461766Y-123024190D01*
X85955234Y-123024190D01*
X87955022Y-125023978D01*
G36*
X111652999Y-118723848D02*
X111652521Y-119271748D01*
X111861752Y-119778125D01*
X112179810Y-120096739D01*
X112179810Y-120490576D01*
X112099157Y-120608615D01*
X112040758Y-120897000D01*
X112040758Y-121697000D01*
X112091451Y-121966410D01*
X112201925Y-122138091D01*
X112147000Y-122270691D01*
X112147000Y-122511250D01*
X112305750Y-122670000D01*
X113030000Y-122670000D01*
X113030000Y-122650000D01*
X113284000Y-122650000D01*
X113284000Y-122670000D01*
X113304000Y-122670000D01*
X113304000Y-122924000D01*
X113284000Y-122924000D01*
X113284000Y-123673250D01*
X113442750Y-123832000D01*
X113658310Y-123832000D01*
X113891699Y-123735327D01*
X114070327Y-123556698D01*
X114167000Y-123323309D01*
X114167000Y-123284242D01*
X114210540Y-123284242D01*
X114210540Y-124256800D01*
X114230900Y-124359155D01*
X114011754Y-124500172D01*
X113977522Y-124550272D01*
X113823750Y-124396500D01*
X113754591Y-124396500D01*
X113521202Y-124493173D01*
X113342573Y-124671801D01*
X113245900Y-124905190D01*
X113245900Y-125380750D01*
X113404650Y-125539500D01*
X113787358Y-125539500D01*
X113787358Y-125793500D01*
X113404650Y-125793500D01*
X113245900Y-125952250D01*
X113245900Y-126157388D01*
X112910045Y-126224194D01*
X112802812Y-126295845D01*
X112593022Y-126436022D01*
X112593020Y-126436025D01*
X110630970Y-128398074D01*
X110630970Y-128300478D01*
X110472222Y-128300478D01*
X110630970Y-128141730D01*
X110630970Y-127301681D01*
X110534297Y-127068292D01*
X110395952Y-126929946D01*
X110459274Y-126866735D01*
X110722670Y-126232407D01*
X110723269Y-125545567D01*
X110460980Y-124910780D01*
X110168106Y-124617394D01*
X110459274Y-124326735D01*
X110722670Y-123692407D01*
X110723201Y-123082750D01*
X112147000Y-123082750D01*
X112147000Y-123323309D01*
X112243673Y-123556698D01*
X112422301Y-123735327D01*
X112655690Y-123832000D01*
X112871250Y-123832000D01*
X113030000Y-123673250D01*
X113030000Y-122924000D01*
X112305750Y-122924000D01*
X112147000Y-123082750D01*
X110723201Y-123082750D01*
X110723269Y-123005567D01*
X110460980Y-122370780D01*
X110168106Y-122077394D01*
X110459274Y-121786735D01*
X110554586Y-121557199D01*
X110642498Y-121498458D01*
X110854326Y-121181434D01*
X110928710Y-120807480D01*
X110854326Y-120433526D01*
X110642498Y-120116502D01*
X110554836Y-120057928D01*
X110460980Y-119830780D01*
X110369658Y-119739298D01*
X111843226Y-118265730D01*
X111652999Y-118723848D01*
X111652999Y-118723848D01*
G37*
X111652999Y-118723848D02*
X111652521Y-119271748D01*
X111861752Y-119778125D01*
X112179810Y-120096739D01*
X112179810Y-120490576D01*
X112099157Y-120608615D01*
X112040758Y-120897000D01*
X112040758Y-121697000D01*
X112091451Y-121966410D01*
X112201925Y-122138091D01*
X112147000Y-122270691D01*
X112147000Y-122511250D01*
X112305750Y-122670000D01*
X113030000Y-122670000D01*
X113030000Y-122650000D01*
X113284000Y-122650000D01*
X113284000Y-122670000D01*
X113304000Y-122670000D01*
X113304000Y-122924000D01*
X113284000Y-122924000D01*
X113284000Y-123673250D01*
X113442750Y-123832000D01*
X113658310Y-123832000D01*
X113891699Y-123735327D01*
X114070327Y-123556698D01*
X114167000Y-123323309D01*
X114167000Y-123284242D01*
X114210540Y-123284242D01*
X114210540Y-124256800D01*
X114230900Y-124359155D01*
X114011754Y-124500172D01*
X113977522Y-124550272D01*
X113823750Y-124396500D01*
X113754591Y-124396500D01*
X113521202Y-124493173D01*
X113342573Y-124671801D01*
X113245900Y-124905190D01*
X113245900Y-125380750D01*
X113404650Y-125539500D01*
X113787358Y-125539500D01*
X113787358Y-125793500D01*
X113404650Y-125793500D01*
X113245900Y-125952250D01*
X113245900Y-126157388D01*
X112910045Y-126224194D01*
X112802812Y-126295845D01*
X112593022Y-126436022D01*
X112593020Y-126436025D01*
X110630970Y-128398074D01*
X110630970Y-128300478D01*
X110472222Y-128300478D01*
X110630970Y-128141730D01*
X110630970Y-127301681D01*
X110534297Y-127068292D01*
X110395952Y-126929946D01*
X110459274Y-126866735D01*
X110722670Y-126232407D01*
X110723269Y-125545567D01*
X110460980Y-124910780D01*
X110168106Y-124617394D01*
X110459274Y-124326735D01*
X110722670Y-123692407D01*
X110723201Y-123082750D01*
X112147000Y-123082750D01*
X112147000Y-123323309D01*
X112243673Y-123556698D01*
X112422301Y-123735327D01*
X112655690Y-123832000D01*
X112871250Y-123832000D01*
X113030000Y-123673250D01*
X113030000Y-122924000D01*
X112305750Y-122924000D01*
X112147000Y-123082750D01*
X110723201Y-123082750D01*
X110723269Y-123005567D01*
X110460980Y-122370780D01*
X110168106Y-122077394D01*
X110459274Y-121786735D01*
X110554586Y-121557199D01*
X110642498Y-121498458D01*
X110854326Y-121181434D01*
X110928710Y-120807480D01*
X110854326Y-120433526D01*
X110642498Y-120116502D01*
X110554836Y-120057928D01*
X110460980Y-119830780D01*
X110369658Y-119739298D01*
X111843226Y-118265730D01*
X111652999Y-118723848D01*
G36*
X119774410Y-63879366D02*
X119774410Y-64459222D01*
X119644739Y-64405510D01*
X118903750Y-64405510D01*
X118745000Y-64564260D01*
X118745000Y-65913000D01*
X118765000Y-65913000D01*
X118765000Y-66167000D01*
X118745000Y-66167000D01*
X118745000Y-67515740D01*
X118903750Y-67674490D01*
X119644739Y-67674490D01*
X119774410Y-67620778D01*
X119774410Y-74779235D01*
X118689022Y-75864622D01*
X118477194Y-76181645D01*
X118431723Y-76410245D01*
X118402810Y-76555600D01*
X118402810Y-79723419D01*
X118362774Y-79749182D01*
X118196777Y-79992125D01*
X118138378Y-80280510D01*
X118138378Y-82279490D01*
X118189071Y-82548900D01*
X118348292Y-82796336D01*
X118591235Y-82962333D01*
X118626848Y-82969545D01*
X118473875Y-83032752D01*
X118086113Y-83419837D01*
X117875999Y-83925848D01*
X117875836Y-84112810D01*
X113411000Y-84112810D01*
X113037045Y-84187194D01*
X112720022Y-84399022D01*
X107360622Y-89758422D01*
X107148794Y-90075445D01*
X107123786Y-90201171D01*
X107074410Y-90449400D01*
X107074410Y-94965271D01*
X106884713Y-95154637D01*
X106674599Y-95660648D01*
X106674121Y-96208548D01*
X106883352Y-96714925D01*
X107125210Y-96957206D01*
X107125210Y-107594400D01*
X107195727Y-107948914D01*
X107273300Y-108065010D01*
X105206800Y-108065010D01*
X104832845Y-108139394D01*
X104515822Y-108351222D01*
X104216137Y-108650907D01*
X104139848Y-108466275D01*
X103897990Y-108223994D01*
X103897990Y-98172389D01*
X103948790Y-97917000D01*
X103948790Y-96393624D01*
X103993001Y-96287152D01*
X103993479Y-95739252D01*
X103965923Y-95672561D01*
X103974190Y-95631000D01*
X103974190Y-83439005D01*
X103974191Y-83439000D01*
X103899806Y-83065045D01*
X103738744Y-82823999D01*
X103687978Y-82748022D01*
X103687975Y-82748020D01*
X102505706Y-81565750D01*
X113164620Y-81565750D01*
X113164620Y-82405800D01*
X113261293Y-82639189D01*
X113439922Y-82817817D01*
X113673311Y-82914490D01*
X114014250Y-82914490D01*
X114173000Y-82755740D01*
X114173000Y-81407000D01*
X114427000Y-81407000D01*
X114427000Y-82755740D01*
X114585750Y-82914490D01*
X114926689Y-82914490D01*
X115160078Y-82817817D01*
X115338707Y-82639189D01*
X115435380Y-82405800D01*
X115435380Y-81565750D01*
X115276630Y-81407000D01*
X114427000Y-81407000D01*
X114173000Y-81407000D01*
X113323370Y-81407000D01*
X113164620Y-81565750D01*
X102505706Y-81565750D01*
X102482089Y-81542133D01*
X102482179Y-81439052D01*
X102272948Y-80932675D01*
X101885863Y-80544913D01*
X101379852Y-80334799D01*
X100831952Y-80334321D01*
X100325575Y-80543552D01*
X99937813Y-80930637D01*
X99727699Y-81436648D01*
X99727221Y-81984548D01*
X99936452Y-82490925D01*
X100323537Y-82878687D01*
X100829548Y-83088801D01*
X101265225Y-83089181D01*
X102019810Y-83843765D01*
X102019810Y-94768165D01*
X101836875Y-94843752D01*
X101449113Y-95230837D01*
X101238999Y-95736848D01*
X101238521Y-96284748D01*
X101447752Y-96791125D01*
X101834837Y-97178887D01*
X101994410Y-97245147D01*
X101994410Y-97917000D01*
X102045210Y-98172389D01*
X102045210Y-108224160D01*
X101804713Y-108464237D01*
X101594599Y-108970248D01*
X101594300Y-109312586D01*
X99254069Y-111652817D01*
X98914252Y-111652521D01*
X98407875Y-111861752D01*
X98020113Y-112248837D01*
X97809999Y-112754848D01*
X97809700Y-113097186D01*
X97541343Y-113365543D01*
X97340527Y-113666086D01*
X97270010Y-114020600D01*
X97270010Y-117672960D01*
X97029513Y-117913037D01*
X96819399Y-118419048D01*
X96818921Y-118966948D01*
X97028152Y-119473325D01*
X97270010Y-119715606D01*
X97270010Y-123591160D01*
X97225883Y-123635210D01*
X94727666Y-123635210D01*
X93847783Y-122755327D01*
X94041987Y-122561463D01*
X94252101Y-122055452D01*
X94252579Y-121507552D01*
X94043348Y-121001175D01*
X93863963Y-120821476D01*
X94041987Y-120643763D01*
X94252101Y-120137752D01*
X94252579Y-119589852D01*
X94043348Y-119083475D01*
X93656263Y-118695713D01*
X93287601Y-118542631D01*
X93412925Y-118490848D01*
X93800687Y-118103763D01*
X94010801Y-117597752D01*
X94011279Y-117049852D01*
X93802048Y-116543475D01*
X93572890Y-116313916D01*
X93572890Y-115545005D01*
X93836244Y-115545005D01*
X94060630Y-116088060D01*
X94475754Y-116503909D01*
X95018418Y-116729243D01*
X95606005Y-116729756D01*
X96149060Y-116505370D01*
X96564909Y-116090246D01*
X96790243Y-115547582D01*
X96790756Y-114959995D01*
X96566370Y-114416940D01*
X96151246Y-114001091D01*
X95608582Y-113775757D01*
X95020995Y-113775244D01*
X94477940Y-113999630D01*
X94062091Y-114414754D01*
X93836757Y-114957418D01*
X93836244Y-115545005D01*
X93572890Y-115545005D01*
X93572890Y-104201866D01*
X100639975Y-97134780D01*
X100639978Y-97134778D01*
X100788172Y-96912990D01*
X100851806Y-96817755D01*
X100926191Y-96443800D01*
X100926190Y-96443795D01*
X100926190Y-84328005D01*
X100926191Y-84328000D01*
X100851806Y-83954045D01*
X100639978Y-83637022D01*
X98811178Y-81808222D01*
X98494155Y-81596394D01*
X98120200Y-81522010D01*
X93713305Y-81522010D01*
X93713300Y-81522009D01*
X93339345Y-81596394D01*
X93253201Y-81653954D01*
X93022322Y-81808222D01*
X93022320Y-81808225D01*
X91435289Y-83395255D01*
X91167252Y-83395021D01*
X90660875Y-83604252D01*
X90273113Y-83991337D01*
X90062999Y-84497348D01*
X90062521Y-85045248D01*
X90271752Y-85551625D01*
X90539981Y-85820324D01*
X90336613Y-86023337D01*
X90126499Y-86529348D01*
X90126021Y-87077248D01*
X90335252Y-87583625D01*
X90603537Y-87852379D01*
X90336613Y-88118837D01*
X90126499Y-88624848D01*
X90126021Y-89172748D01*
X90335252Y-89679125D01*
X90722337Y-90066887D01*
X90970647Y-90169994D01*
X90724375Y-90271752D01*
X90336613Y-90658837D01*
X90126499Y-91164848D01*
X90126021Y-91712748D01*
X90335252Y-92219125D01*
X90722337Y-92606887D01*
X91228348Y-92817001D01*
X91776248Y-92817479D01*
X92282625Y-92608248D01*
X92575795Y-92315590D01*
X92735400Y-92315590D01*
X93109355Y-92241206D01*
X93210867Y-92173378D01*
X88387289Y-96996955D01*
X88119252Y-96996721D01*
X87612875Y-97205952D01*
X87225113Y-97593037D01*
X87014999Y-98099048D01*
X87014521Y-98646948D01*
X87223752Y-99153325D01*
X87610837Y-99541087D01*
X88116848Y-99751201D01*
X88439784Y-99751483D01*
X88430810Y-99796600D01*
X88430810Y-103931471D01*
X88241113Y-104120837D01*
X88030999Y-104626848D01*
X88030521Y-105174748D01*
X88239752Y-105681125D01*
X88430810Y-105872517D01*
X88430810Y-111736235D01*
X88241234Y-111925810D01*
X76679546Y-111925810D01*
X76992575Y-111612780D01*
X76992578Y-111612778D01*
X77135979Y-111398163D01*
X77204406Y-111295755D01*
X77278791Y-110921800D01*
X77278790Y-110921795D01*
X77278790Y-91241880D01*
X77460278Y-91241880D01*
X77460278Y-92842080D01*
X77510971Y-93111490D01*
X77641302Y-93314029D01*
X77518677Y-93493495D01*
X77460278Y-93781880D01*
X77460278Y-95382080D01*
X77510971Y-95651490D01*
X77641302Y-95854029D01*
X77518677Y-96033495D01*
X77460278Y-96321880D01*
X77460278Y-97922080D01*
X77510971Y-98191490D01*
X77641302Y-98394029D01*
X77518677Y-98573495D01*
X77460278Y-98861880D01*
X77460278Y-100462080D01*
X77510971Y-100731490D01*
X77641302Y-100934029D01*
X77518677Y-101113495D01*
X77460278Y-101401880D01*
X77460278Y-103002080D01*
X77510971Y-103271490D01*
X77641302Y-103474029D01*
X77518677Y-103653495D01*
X77460278Y-103941880D01*
X77460278Y-105542080D01*
X77510971Y-105811490D01*
X77641302Y-106014029D01*
X77518677Y-106193495D01*
X77460278Y-106481880D01*
X77460278Y-108082080D01*
X77510971Y-108351490D01*
X77641302Y-108554029D01*
X77518677Y-108733495D01*
X77460278Y-109021880D01*
X77460278Y-110622080D01*
X77510971Y-110891490D01*
X77670192Y-111138926D01*
X77913135Y-111304923D01*
X78201520Y-111363322D01*
X80101440Y-111363322D01*
X80370850Y-111312629D01*
X80419035Y-111281623D01*
X80453135Y-111304923D01*
X80741520Y-111363322D01*
X82641440Y-111363322D01*
X82910850Y-111312629D01*
X83158286Y-111153408D01*
X83324283Y-110910465D01*
X83382682Y-110622080D01*
X83382682Y-109021880D01*
X83331989Y-108752470D01*
X83201658Y-108549931D01*
X83324283Y-108370465D01*
X83382682Y-108082080D01*
X83382682Y-106481880D01*
X83331989Y-106212470D01*
X83201658Y-106009931D01*
X83324283Y-105830465D01*
X83382682Y-105542080D01*
X83382682Y-103941880D01*
X83331989Y-103672470D01*
X83201658Y-103469931D01*
X83324283Y-103290465D01*
X83382682Y-103002080D01*
X83382682Y-101401880D01*
X83331989Y-101132470D01*
X83201658Y-100929931D01*
X83324283Y-100750465D01*
X83382682Y-100462080D01*
X83382682Y-98861880D01*
X83331989Y-98592470D01*
X83201658Y-98389931D01*
X83324283Y-98210465D01*
X83382682Y-97922080D01*
X83382682Y-96321880D01*
X83331989Y-96052470D01*
X83201658Y-95849931D01*
X83324283Y-95670465D01*
X83382682Y-95382080D01*
X83382682Y-93781880D01*
X83331989Y-93512470D01*
X83201658Y-93309931D01*
X83324283Y-93130465D01*
X83382682Y-92842080D01*
X83382682Y-91241880D01*
X83331989Y-90972470D01*
X83172768Y-90725034D01*
X82929825Y-90559037D01*
X82641440Y-90500638D01*
X80741520Y-90500638D01*
X80472110Y-90551331D01*
X80423925Y-90582337D01*
X80389825Y-90559037D01*
X80101440Y-90500638D01*
X78201520Y-90500638D01*
X77932110Y-90551331D01*
X77684674Y-90710552D01*
X77518677Y-90953495D01*
X77460278Y-91241880D01*
X77278790Y-91241880D01*
X77278790Y-82573766D01*
X78941566Y-80910990D01*
X81940400Y-80910990D01*
X82314355Y-80836606D01*
X82631378Y-80624778D01*
X83101955Y-80154200D01*
X113164620Y-80154200D01*
X113164620Y-80994250D01*
X113323370Y-81153000D01*
X114173000Y-81153000D01*
X114173000Y-79804260D01*
X114427000Y-79804260D01*
X114427000Y-81153000D01*
X115276630Y-81153000D01*
X115435380Y-80994250D01*
X115435380Y-80154200D01*
X115338707Y-79920811D01*
X115160078Y-79742183D01*
X114926689Y-79645510D01*
X114585750Y-79645510D01*
X114427000Y-79804260D01*
X114173000Y-79804260D01*
X114014250Y-79645510D01*
X113673311Y-79645510D01*
X113439922Y-79742183D01*
X113261293Y-79920811D01*
X113164620Y-80154200D01*
X83101955Y-80154200D01*
X83970765Y-79285390D01*
X87777071Y-79285390D01*
X87966437Y-79475087D01*
X88472448Y-79685201D01*
X89020348Y-79685679D01*
X89526725Y-79476448D01*
X89914487Y-79089363D01*
X90124601Y-78583352D01*
X90125079Y-78035452D01*
X90011839Y-77761390D01*
X93245224Y-77761390D01*
X93446752Y-78249125D01*
X93833837Y-78636887D01*
X94339848Y-78847001D01*
X94887748Y-78847479D01*
X95394125Y-78638248D01*
X95781887Y-78251163D01*
X95992001Y-77745152D01*
X95992479Y-77197252D01*
X95842506Y-76834290D01*
X96102534Y-76834290D01*
X96768355Y-77500111D01*
X96768121Y-77768148D01*
X96977352Y-78274525D01*
X97364437Y-78662287D01*
X97870448Y-78872401D01*
X98418348Y-78872879D01*
X98924725Y-78663648D01*
X99312487Y-78276563D01*
X99522601Y-77770552D01*
X99523079Y-77222652D01*
X99313848Y-76716275D01*
X98926763Y-76328513D01*
X98420752Y-76118399D01*
X98150319Y-76118163D01*
X97198278Y-75166122D01*
X96881255Y-74954294D01*
X96507300Y-74879910D01*
X60779146Y-74879910D01*
X62387578Y-73271478D01*
X62587006Y-72973014D01*
X62636552Y-73092925D01*
X63023637Y-73480687D01*
X63529648Y-73690801D01*
X64077548Y-73691279D01*
X64124901Y-73671713D01*
X99822411Y-73671713D01*
X100084700Y-74306500D01*
X100569945Y-74792594D01*
X101204273Y-75055990D01*
X101891113Y-75056589D01*
X102525900Y-74794300D01*
X102819286Y-74501426D01*
X103109945Y-74792594D01*
X103744273Y-75055990D01*
X104431113Y-75056589D01*
X105065900Y-74794300D01*
X105359286Y-74501426D01*
X105649945Y-74792594D01*
X106284273Y-75055990D01*
X106971113Y-75056589D01*
X107605900Y-74794300D01*
X107671354Y-74728960D01*
X107810012Y-74867617D01*
X108043401Y-74964290D01*
X108883450Y-74964290D01*
X109042200Y-74805540D01*
X109042200Y-73456800D01*
X109022200Y-73456800D01*
X109022200Y-73202800D01*
X109042200Y-73202800D01*
X109042200Y-71854060D01*
X108883450Y-71695310D01*
X108043401Y-71695310D01*
X107810012Y-71791983D01*
X107671666Y-71930328D01*
X107608455Y-71867006D01*
X106974127Y-71603610D01*
X106287287Y-71603011D01*
X105652500Y-71865300D01*
X105359114Y-72158174D01*
X105068455Y-71867006D01*
X104434127Y-71603610D01*
X103747287Y-71603011D01*
X103112500Y-71865300D01*
X102819114Y-72158174D01*
X102528455Y-71867006D01*
X101894127Y-71603610D01*
X101207287Y-71603011D01*
X100572500Y-71865300D01*
X100086406Y-72350545D01*
X99823010Y-72984873D01*
X99822411Y-73671713D01*
X64124901Y-73671713D01*
X64583925Y-73482048D01*
X64775317Y-73290990D01*
X75438000Y-73290990D01*
X75811955Y-73216606D01*
X76128978Y-73004778D01*
X79652765Y-69480990D01*
X107238800Y-69480990D01*
X107612755Y-69406606D01*
X107929778Y-69194778D01*
X108818310Y-68306245D01*
X109086348Y-68306479D01*
X109592725Y-68097248D01*
X109980487Y-67710163D01*
X110059557Y-67519741D01*
X110653073Y-67766190D01*
X111339913Y-67766789D01*
X111974700Y-67504500D01*
X112268086Y-67211626D01*
X112558745Y-67502794D01*
X113012860Y-67691359D01*
X112821399Y-68152448D01*
X112820921Y-68700348D01*
X113030152Y-69206725D01*
X113221210Y-69398117D01*
X113221210Y-70435835D01*
X111069022Y-72588022D01*
X110857194Y-72905045D01*
X110819417Y-73094963D01*
X110797967Y-73202798D01*
X110644942Y-73202798D01*
X110803690Y-73044050D01*
X110803690Y-72204000D01*
X110707017Y-71970611D01*
X110528388Y-71791983D01*
X110294999Y-71695310D01*
X109454950Y-71695310D01*
X109296200Y-71854060D01*
X109296200Y-73202800D01*
X109316200Y-73202800D01*
X109316200Y-73456800D01*
X109296200Y-73456800D01*
X109296200Y-74805540D01*
X109454950Y-74964290D01*
X110216754Y-74964290D01*
X110085234Y-75095810D01*
X106070405Y-75095810D01*
X106070400Y-75095809D01*
X105696445Y-75170194D01*
X105379422Y-75382022D01*
X104084489Y-76676955D01*
X103816452Y-76676721D01*
X103310075Y-76885952D01*
X102922313Y-77273037D01*
X102712199Y-77779048D01*
X102711721Y-78326948D01*
X102920952Y-78833325D01*
X103308037Y-79221087D01*
X103814048Y-79431201D01*
X104361948Y-79431679D01*
X104868325Y-79222448D01*
X105256087Y-78835363D01*
X105466201Y-78329352D01*
X105466437Y-78058919D01*
X106475166Y-77050190D01*
X110490000Y-77050190D01*
X110863955Y-76975806D01*
X111180978Y-76763978D01*
X112450978Y-75493978D01*
X112458216Y-75483145D01*
X112662806Y-75176954D01*
X112733460Y-74821748D01*
X114065521Y-74821748D01*
X114274752Y-75328125D01*
X114661837Y-75715887D01*
X115167848Y-75926001D01*
X115438281Y-75926237D01*
X115598378Y-76086333D01*
X115598378Y-77834490D01*
X115649071Y-78103900D01*
X115808292Y-78351336D01*
X116051235Y-78517333D01*
X116339620Y-78575732D01*
X117340380Y-78575732D01*
X117609790Y-78525039D01*
X117857226Y-78365818D01*
X118023223Y-78122875D01*
X118081622Y-77834490D01*
X118081622Y-75835510D01*
X118030929Y-75566100D01*
X117871708Y-75318664D01*
X117628765Y-75152667D01*
X117377801Y-75101846D01*
X116820245Y-74544290D01*
X116820479Y-74276252D01*
X116611248Y-73769875D01*
X116224163Y-73382113D01*
X115718152Y-73171999D01*
X115170252Y-73171521D01*
X114663875Y-73380752D01*
X114276113Y-73767837D01*
X114065999Y-74273848D01*
X114065521Y-74821748D01*
X112733460Y-74821748D01*
X112737190Y-74803000D01*
X112737190Y-73683766D01*
X114704765Y-71716190D01*
X116377471Y-71716190D01*
X116566837Y-71905887D01*
X117072848Y-72116001D01*
X117620748Y-72116479D01*
X118127125Y-71907248D01*
X118514887Y-71520163D01*
X118725001Y-71014152D01*
X118725479Y-70466252D01*
X118516248Y-69959875D01*
X118129163Y-69572113D01*
X117623152Y-69361999D01*
X117075252Y-69361521D01*
X116568875Y-69570752D01*
X116377483Y-69761810D01*
X115175590Y-69761810D01*
X115175590Y-69398129D01*
X115365287Y-69208763D01*
X115575401Y-68702752D01*
X115575879Y-68154852D01*
X115366648Y-67648475D01*
X115307932Y-67589656D01*
X115733073Y-67766190D01*
X116419913Y-67766789D01*
X117054700Y-67504500D01*
X117173671Y-67385737D01*
X117179243Y-67399189D01*
X117357872Y-67577817D01*
X117591261Y-67674490D01*
X118332250Y-67674490D01*
X118491000Y-67515740D01*
X118491000Y-66167000D01*
X118471000Y-66167000D01*
X118471000Y-65913000D01*
X118491000Y-65913000D01*
X118491000Y-64564260D01*
X118332250Y-64405510D01*
X117591261Y-64405510D01*
X117357872Y-64502183D01*
X117179243Y-64680811D01*
X117173799Y-64693954D01*
X117057255Y-64577206D01*
X116422927Y-64313810D01*
X115736087Y-64313211D01*
X115101300Y-64575500D01*
X114807914Y-64868374D01*
X114517255Y-64577206D01*
X113882927Y-64313810D01*
X113196087Y-64313211D01*
X112561300Y-64575500D01*
X112267914Y-64868374D01*
X111977255Y-64577206D01*
X111342927Y-64313810D01*
X110656087Y-64313211D01*
X110021300Y-64575500D01*
X109535206Y-65060745D01*
X109295561Y-65637874D01*
X109088752Y-65551999D01*
X108540852Y-65551521D01*
X108034475Y-65760752D01*
X107881963Y-65912998D01*
X107802682Y-65912998D01*
X107961430Y-65754250D01*
X107961430Y-64914200D01*
X107864757Y-64680811D01*
X107686128Y-64502183D01*
X107452739Y-64405510D01*
X106711750Y-64405510D01*
X106553000Y-64564260D01*
X106553000Y-65913000D01*
X106573000Y-65913000D01*
X106573000Y-66167000D01*
X106553000Y-66167000D01*
X106553000Y-66187000D01*
X106299000Y-66187000D01*
X106299000Y-66167000D01*
X106279000Y-66167000D01*
X106279000Y-65913000D01*
X106299000Y-65913000D01*
X106299000Y-64564260D01*
X106140250Y-64405510D01*
X105399261Y-64405510D01*
X105165872Y-64502183D01*
X104987243Y-64680811D01*
X104981799Y-64693954D01*
X104865255Y-64577206D01*
X104230927Y-64313810D01*
X103544087Y-64313211D01*
X102909300Y-64575500D01*
X102615914Y-64868374D01*
X102325255Y-64577206D01*
X101690927Y-64313810D01*
X101004087Y-64313211D01*
X100369300Y-64575500D01*
X100075914Y-64868374D01*
X99785255Y-64577206D01*
X99150927Y-64313810D01*
X98464087Y-64313211D01*
X97829300Y-64575500D01*
X97343206Y-65060745D01*
X97079810Y-65695073D01*
X97079211Y-66381913D01*
X97341500Y-67016700D01*
X97826745Y-67502794D01*
X97884100Y-67526610D01*
X95545335Y-67526610D01*
X95672757Y-67399189D01*
X95769430Y-67165800D01*
X95769430Y-66325750D01*
X95610680Y-66167000D01*
X94361000Y-66167000D01*
X94361000Y-66187000D01*
X94107000Y-66187000D01*
X94107000Y-66167000D01*
X94087000Y-66167000D01*
X94087000Y-65913000D01*
X94107000Y-65913000D01*
X94107000Y-64564260D01*
X94361000Y-64564260D01*
X94361000Y-65913000D01*
X95610680Y-65913000D01*
X95769430Y-65754250D01*
X95769430Y-64914200D01*
X95672757Y-64680811D01*
X95494128Y-64502183D01*
X95260739Y-64405510D01*
X94519750Y-64405510D01*
X94361000Y-64564260D01*
X94107000Y-64564260D01*
X93948250Y-64405510D01*
X93207261Y-64405510D01*
X92973872Y-64502183D01*
X92795243Y-64680811D01*
X92789799Y-64693954D01*
X92673255Y-64577206D01*
X92671190Y-64576349D01*
X92671190Y-60336990D01*
X116232034Y-60336990D01*
X119774410Y-63879366D01*
X119774410Y-63879366D01*
G37*
X119774410Y-63879366D02*
X119774410Y-64459222D01*
X119644739Y-64405510D01*
X118903750Y-64405510D01*
X118745000Y-64564260D01*
X118745000Y-65913000D01*
X118765000Y-65913000D01*
X118765000Y-66167000D01*
X118745000Y-66167000D01*
X118745000Y-67515740D01*
X118903750Y-67674490D01*
X119644739Y-67674490D01*
X119774410Y-67620778D01*
X119774410Y-74779235D01*
X118689022Y-75864622D01*
X118477194Y-76181645D01*
X118431723Y-76410245D01*
X118402810Y-76555600D01*
X118402810Y-79723419D01*
X118362774Y-79749182D01*
X118196777Y-79992125D01*
X118138378Y-80280510D01*
X118138378Y-82279490D01*
X118189071Y-82548900D01*
X118348292Y-82796336D01*
X118591235Y-82962333D01*
X118626848Y-82969545D01*
X118473875Y-83032752D01*
X118086113Y-83419837D01*
X117875999Y-83925848D01*
X117875836Y-84112810D01*
X113411000Y-84112810D01*
X113037045Y-84187194D01*
X112720022Y-84399022D01*
X107360622Y-89758422D01*
X107148794Y-90075445D01*
X107123786Y-90201171D01*
X107074410Y-90449400D01*
X107074410Y-94965271D01*
X106884713Y-95154637D01*
X106674599Y-95660648D01*
X106674121Y-96208548D01*
X106883352Y-96714925D01*
X107125210Y-96957206D01*
X107125210Y-107594400D01*
X107195727Y-107948914D01*
X107273300Y-108065010D01*
X105206800Y-108065010D01*
X104832845Y-108139394D01*
X104515822Y-108351222D01*
X104216137Y-108650907D01*
X104139848Y-108466275D01*
X103897990Y-108223994D01*
X103897990Y-98172389D01*
X103948790Y-97917000D01*
X103948790Y-96393624D01*
X103993001Y-96287152D01*
X103993479Y-95739252D01*
X103965923Y-95672561D01*
X103974190Y-95631000D01*
X103974190Y-83439005D01*
X103974191Y-83439000D01*
X103899806Y-83065045D01*
X103738744Y-82823999D01*
X103687978Y-82748022D01*
X103687975Y-82748020D01*
X102505706Y-81565750D01*
X113164620Y-81565750D01*
X113164620Y-82405800D01*
X113261293Y-82639189D01*
X113439922Y-82817817D01*
X113673311Y-82914490D01*
X114014250Y-82914490D01*
X114173000Y-82755740D01*
X114173000Y-81407000D01*
X114427000Y-81407000D01*
X114427000Y-82755740D01*
X114585750Y-82914490D01*
X114926689Y-82914490D01*
X115160078Y-82817817D01*
X115338707Y-82639189D01*
X115435380Y-82405800D01*
X115435380Y-81565750D01*
X115276630Y-81407000D01*
X114427000Y-81407000D01*
X114173000Y-81407000D01*
X113323370Y-81407000D01*
X113164620Y-81565750D01*
X102505706Y-81565750D01*
X102482089Y-81542133D01*
X102482179Y-81439052D01*
X102272948Y-80932675D01*
X101885863Y-80544913D01*
X101379852Y-80334799D01*
X100831952Y-80334321D01*
X100325575Y-80543552D01*
X99937813Y-80930637D01*
X99727699Y-81436648D01*
X99727221Y-81984548D01*
X99936452Y-82490925D01*
X100323537Y-82878687D01*
X100829548Y-83088801D01*
X101265225Y-83089181D01*
X102019810Y-83843765D01*
X102019810Y-94768165D01*
X101836875Y-94843752D01*
X101449113Y-95230837D01*
X101238999Y-95736848D01*
X101238521Y-96284748D01*
X101447752Y-96791125D01*
X101834837Y-97178887D01*
X101994410Y-97245147D01*
X101994410Y-97917000D01*
X102045210Y-98172389D01*
X102045210Y-108224160D01*
X101804713Y-108464237D01*
X101594599Y-108970248D01*
X101594300Y-109312586D01*
X99254069Y-111652817D01*
X98914252Y-111652521D01*
X98407875Y-111861752D01*
X98020113Y-112248837D01*
X97809999Y-112754848D01*
X97809700Y-113097186D01*
X97541343Y-113365543D01*
X97340527Y-113666086D01*
X97270010Y-114020600D01*
X97270010Y-117672960D01*
X97029513Y-117913037D01*
X96819399Y-118419048D01*
X96818921Y-118966948D01*
X97028152Y-119473325D01*
X97270010Y-119715606D01*
X97270010Y-123591160D01*
X97225883Y-123635210D01*
X94727666Y-123635210D01*
X93847783Y-122755327D01*
X94041987Y-122561463D01*
X94252101Y-122055452D01*
X94252579Y-121507552D01*
X94043348Y-121001175D01*
X93863963Y-120821476D01*
X94041987Y-120643763D01*
X94252101Y-120137752D01*
X94252579Y-119589852D01*
X94043348Y-119083475D01*
X93656263Y-118695713D01*
X93287601Y-118542631D01*
X93412925Y-118490848D01*
X93800687Y-118103763D01*
X94010801Y-117597752D01*
X94011279Y-117049852D01*
X93802048Y-116543475D01*
X93572890Y-116313916D01*
X93572890Y-115545005D01*
X93836244Y-115545005D01*
X94060630Y-116088060D01*
X94475754Y-116503909D01*
X95018418Y-116729243D01*
X95606005Y-116729756D01*
X96149060Y-116505370D01*
X96564909Y-116090246D01*
X96790243Y-115547582D01*
X96790756Y-114959995D01*
X96566370Y-114416940D01*
X96151246Y-114001091D01*
X95608582Y-113775757D01*
X95020995Y-113775244D01*
X94477940Y-113999630D01*
X94062091Y-114414754D01*
X93836757Y-114957418D01*
X93836244Y-115545005D01*
X93572890Y-115545005D01*
X93572890Y-104201866D01*
X100639975Y-97134780D01*
X100639978Y-97134778D01*
X100788172Y-96912990D01*
X100851806Y-96817755D01*
X100926191Y-96443800D01*
X100926190Y-96443795D01*
X100926190Y-84328005D01*
X100926191Y-84328000D01*
X100851806Y-83954045D01*
X100639978Y-83637022D01*
X98811178Y-81808222D01*
X98494155Y-81596394D01*
X98120200Y-81522010D01*
X93713305Y-81522010D01*
X93713300Y-81522009D01*
X93339345Y-81596394D01*
X93253201Y-81653954D01*
X93022322Y-81808222D01*
X93022320Y-81808225D01*
X91435289Y-83395255D01*
X91167252Y-83395021D01*
X90660875Y-83604252D01*
X90273113Y-83991337D01*
X90062999Y-84497348D01*
X90062521Y-85045248D01*
X90271752Y-85551625D01*
X90539981Y-85820324D01*
X90336613Y-86023337D01*
X90126499Y-86529348D01*
X90126021Y-87077248D01*
X90335252Y-87583625D01*
X90603537Y-87852379D01*
X90336613Y-88118837D01*
X90126499Y-88624848D01*
X90126021Y-89172748D01*
X90335252Y-89679125D01*
X90722337Y-90066887D01*
X90970647Y-90169994D01*
X90724375Y-90271752D01*
X90336613Y-90658837D01*
X90126499Y-91164848D01*
X90126021Y-91712748D01*
X90335252Y-92219125D01*
X90722337Y-92606887D01*
X91228348Y-92817001D01*
X91776248Y-92817479D01*
X92282625Y-92608248D01*
X92575795Y-92315590D01*
X92735400Y-92315590D01*
X93109355Y-92241206D01*
X93210867Y-92173378D01*
X88387289Y-96996955D01*
X88119252Y-96996721D01*
X87612875Y-97205952D01*
X87225113Y-97593037D01*
X87014999Y-98099048D01*
X87014521Y-98646948D01*
X87223752Y-99153325D01*
X87610837Y-99541087D01*
X88116848Y-99751201D01*
X88439784Y-99751483D01*
X88430810Y-99796600D01*
X88430810Y-103931471D01*
X88241113Y-104120837D01*
X88030999Y-104626848D01*
X88030521Y-105174748D01*
X88239752Y-105681125D01*
X88430810Y-105872517D01*
X88430810Y-111736235D01*
X88241234Y-111925810D01*
X76679546Y-111925810D01*
X76992575Y-111612780D01*
X76992578Y-111612778D01*
X77135979Y-111398163D01*
X77204406Y-111295755D01*
X77278791Y-110921800D01*
X77278790Y-110921795D01*
X77278790Y-91241880D01*
X77460278Y-91241880D01*
X77460278Y-92842080D01*
X77510971Y-93111490D01*
X77641302Y-93314029D01*
X77518677Y-93493495D01*
X77460278Y-93781880D01*
X77460278Y-95382080D01*
X77510971Y-95651490D01*
X77641302Y-95854029D01*
X77518677Y-96033495D01*
X77460278Y-96321880D01*
X77460278Y-97922080D01*
X77510971Y-98191490D01*
X77641302Y-98394029D01*
X77518677Y-98573495D01*
X77460278Y-98861880D01*
X77460278Y-100462080D01*
X77510971Y-100731490D01*
X77641302Y-100934029D01*
X77518677Y-101113495D01*
X77460278Y-101401880D01*
X77460278Y-103002080D01*
X77510971Y-103271490D01*
X77641302Y-103474029D01*
X77518677Y-103653495D01*
X77460278Y-103941880D01*
X77460278Y-105542080D01*
X77510971Y-105811490D01*
X77641302Y-106014029D01*
X77518677Y-106193495D01*
X77460278Y-106481880D01*
X77460278Y-108082080D01*
X77510971Y-108351490D01*
X77641302Y-108554029D01*
X77518677Y-108733495D01*
X77460278Y-109021880D01*
X77460278Y-110622080D01*
X77510971Y-110891490D01*
X77670192Y-111138926D01*
X77913135Y-111304923D01*
X78201520Y-111363322D01*
X80101440Y-111363322D01*
X80370850Y-111312629D01*
X80419035Y-111281623D01*
X80453135Y-111304923D01*
X80741520Y-111363322D01*
X82641440Y-111363322D01*
X82910850Y-111312629D01*
X83158286Y-111153408D01*
X83324283Y-110910465D01*
X83382682Y-110622080D01*
X83382682Y-109021880D01*
X83331989Y-108752470D01*
X83201658Y-108549931D01*
X83324283Y-108370465D01*
X83382682Y-108082080D01*
X83382682Y-106481880D01*
X83331989Y-106212470D01*
X83201658Y-106009931D01*
X83324283Y-105830465D01*
X83382682Y-105542080D01*
X83382682Y-103941880D01*
X83331989Y-103672470D01*
X83201658Y-103469931D01*
X83324283Y-103290465D01*
X83382682Y-103002080D01*
X83382682Y-101401880D01*
X83331989Y-101132470D01*
X83201658Y-100929931D01*
X83324283Y-100750465D01*
X83382682Y-100462080D01*
X83382682Y-98861880D01*
X83331989Y-98592470D01*
X83201658Y-98389931D01*
X83324283Y-98210465D01*
X83382682Y-97922080D01*
X83382682Y-96321880D01*
X83331989Y-96052470D01*
X83201658Y-95849931D01*
X83324283Y-95670465D01*
X83382682Y-95382080D01*
X83382682Y-93781880D01*
X83331989Y-93512470D01*
X83201658Y-93309931D01*
X83324283Y-93130465D01*
X83382682Y-92842080D01*
X83382682Y-91241880D01*
X83331989Y-90972470D01*
X83172768Y-90725034D01*
X82929825Y-90559037D01*
X82641440Y-90500638D01*
X80741520Y-90500638D01*
X80472110Y-90551331D01*
X80423925Y-90582337D01*
X80389825Y-90559037D01*
X80101440Y-90500638D01*
X78201520Y-90500638D01*
X77932110Y-90551331D01*
X77684674Y-90710552D01*
X77518677Y-90953495D01*
X77460278Y-91241880D01*
X77278790Y-91241880D01*
X77278790Y-82573766D01*
X78941566Y-80910990D01*
X81940400Y-80910990D01*
X82314355Y-80836606D01*
X82631378Y-80624778D01*
X83101955Y-80154200D01*
X113164620Y-80154200D01*
X113164620Y-80994250D01*
X113323370Y-81153000D01*
X114173000Y-81153000D01*
X114173000Y-79804260D01*
X114427000Y-79804260D01*
X114427000Y-81153000D01*
X115276630Y-81153000D01*
X115435380Y-80994250D01*
X115435380Y-80154200D01*
X115338707Y-79920811D01*
X115160078Y-79742183D01*
X114926689Y-79645510D01*
X114585750Y-79645510D01*
X114427000Y-79804260D01*
X114173000Y-79804260D01*
X114014250Y-79645510D01*
X113673311Y-79645510D01*
X113439922Y-79742183D01*
X113261293Y-79920811D01*
X113164620Y-80154200D01*
X83101955Y-80154200D01*
X83970765Y-79285390D01*
X87777071Y-79285390D01*
X87966437Y-79475087D01*
X88472448Y-79685201D01*
X89020348Y-79685679D01*
X89526725Y-79476448D01*
X89914487Y-79089363D01*
X90124601Y-78583352D01*
X90125079Y-78035452D01*
X90011839Y-77761390D01*
X93245224Y-77761390D01*
X93446752Y-78249125D01*
X93833837Y-78636887D01*
X94339848Y-78847001D01*
X94887748Y-78847479D01*
X95394125Y-78638248D01*
X95781887Y-78251163D01*
X95992001Y-77745152D01*
X95992479Y-77197252D01*
X95842506Y-76834290D01*
X96102534Y-76834290D01*
X96768355Y-77500111D01*
X96768121Y-77768148D01*
X96977352Y-78274525D01*
X97364437Y-78662287D01*
X97870448Y-78872401D01*
X98418348Y-78872879D01*
X98924725Y-78663648D01*
X99312487Y-78276563D01*
X99522601Y-77770552D01*
X99523079Y-77222652D01*
X99313848Y-76716275D01*
X98926763Y-76328513D01*
X98420752Y-76118399D01*
X98150319Y-76118163D01*
X97198278Y-75166122D01*
X96881255Y-74954294D01*
X96507300Y-74879910D01*
X60779146Y-74879910D01*
X62387578Y-73271478D01*
X62587006Y-72973014D01*
X62636552Y-73092925D01*
X63023637Y-73480687D01*
X63529648Y-73690801D01*
X64077548Y-73691279D01*
X64124901Y-73671713D01*
X99822411Y-73671713D01*
X100084700Y-74306500D01*
X100569945Y-74792594D01*
X101204273Y-75055990D01*
X101891113Y-75056589D01*
X102525900Y-74794300D01*
X102819286Y-74501426D01*
X103109945Y-74792594D01*
X103744273Y-75055990D01*
X104431113Y-75056589D01*
X105065900Y-74794300D01*
X105359286Y-74501426D01*
X105649945Y-74792594D01*
X106284273Y-75055990D01*
X106971113Y-75056589D01*
X107605900Y-74794300D01*
X107671354Y-74728960D01*
X107810012Y-74867617D01*
X108043401Y-74964290D01*
X108883450Y-74964290D01*
X109042200Y-74805540D01*
X109042200Y-73456800D01*
X109022200Y-73456800D01*
X109022200Y-73202800D01*
X109042200Y-73202800D01*
X109042200Y-71854060D01*
X108883450Y-71695310D01*
X108043401Y-71695310D01*
X107810012Y-71791983D01*
X107671666Y-71930328D01*
X107608455Y-71867006D01*
X106974127Y-71603610D01*
X106287287Y-71603011D01*
X105652500Y-71865300D01*
X105359114Y-72158174D01*
X105068455Y-71867006D01*
X104434127Y-71603610D01*
X103747287Y-71603011D01*
X103112500Y-71865300D01*
X102819114Y-72158174D01*
X102528455Y-71867006D01*
X101894127Y-71603610D01*
X101207287Y-71603011D01*
X100572500Y-71865300D01*
X100086406Y-72350545D01*
X99823010Y-72984873D01*
X99822411Y-73671713D01*
X64124901Y-73671713D01*
X64583925Y-73482048D01*
X64775317Y-73290990D01*
X75438000Y-73290990D01*
X75811955Y-73216606D01*
X76128978Y-73004778D01*
X79652765Y-69480990D01*
X107238800Y-69480990D01*
X107612755Y-69406606D01*
X107929778Y-69194778D01*
X108818310Y-68306245D01*
X109086348Y-68306479D01*
X109592725Y-68097248D01*
X109980487Y-67710163D01*
X110059557Y-67519741D01*
X110653073Y-67766190D01*
X111339913Y-67766789D01*
X111974700Y-67504500D01*
X112268086Y-67211626D01*
X112558745Y-67502794D01*
X113012860Y-67691359D01*
X112821399Y-68152448D01*
X112820921Y-68700348D01*
X113030152Y-69206725D01*
X113221210Y-69398117D01*
X113221210Y-70435835D01*
X111069022Y-72588022D01*
X110857194Y-72905045D01*
X110819417Y-73094963D01*
X110797967Y-73202798D01*
X110644942Y-73202798D01*
X110803690Y-73044050D01*
X110803690Y-72204000D01*
X110707017Y-71970611D01*
X110528388Y-71791983D01*
X110294999Y-71695310D01*
X109454950Y-71695310D01*
X109296200Y-71854060D01*
X109296200Y-73202800D01*
X109316200Y-73202800D01*
X109316200Y-73456800D01*
X109296200Y-73456800D01*
X109296200Y-74805540D01*
X109454950Y-74964290D01*
X110216754Y-74964290D01*
X110085234Y-75095810D01*
X106070405Y-75095810D01*
X106070400Y-75095809D01*
X105696445Y-75170194D01*
X105379422Y-75382022D01*
X104084489Y-76676955D01*
X103816452Y-76676721D01*
X103310075Y-76885952D01*
X102922313Y-77273037D01*
X102712199Y-77779048D01*
X102711721Y-78326948D01*
X102920952Y-78833325D01*
X103308037Y-79221087D01*
X103814048Y-79431201D01*
X104361948Y-79431679D01*
X104868325Y-79222448D01*
X105256087Y-78835363D01*
X105466201Y-78329352D01*
X105466437Y-78058919D01*
X106475166Y-77050190D01*
X110490000Y-77050190D01*
X110863955Y-76975806D01*
X111180978Y-76763978D01*
X112450978Y-75493978D01*
X112458216Y-75483145D01*
X112662806Y-75176954D01*
X112733460Y-74821748D01*
X114065521Y-74821748D01*
X114274752Y-75328125D01*
X114661837Y-75715887D01*
X115167848Y-75926001D01*
X115438281Y-75926237D01*
X115598378Y-76086333D01*
X115598378Y-77834490D01*
X115649071Y-78103900D01*
X115808292Y-78351336D01*
X116051235Y-78517333D01*
X116339620Y-78575732D01*
X117340380Y-78575732D01*
X117609790Y-78525039D01*
X117857226Y-78365818D01*
X118023223Y-78122875D01*
X118081622Y-77834490D01*
X118081622Y-75835510D01*
X118030929Y-75566100D01*
X117871708Y-75318664D01*
X117628765Y-75152667D01*
X117377801Y-75101846D01*
X116820245Y-74544290D01*
X116820479Y-74276252D01*
X116611248Y-73769875D01*
X116224163Y-73382113D01*
X115718152Y-73171999D01*
X115170252Y-73171521D01*
X114663875Y-73380752D01*
X114276113Y-73767837D01*
X114065999Y-74273848D01*
X114065521Y-74821748D01*
X112733460Y-74821748D01*
X112737190Y-74803000D01*
X112737190Y-73683766D01*
X114704765Y-71716190D01*
X116377471Y-71716190D01*
X116566837Y-71905887D01*
X117072848Y-72116001D01*
X117620748Y-72116479D01*
X118127125Y-71907248D01*
X118514887Y-71520163D01*
X118725001Y-71014152D01*
X118725479Y-70466252D01*
X118516248Y-69959875D01*
X118129163Y-69572113D01*
X117623152Y-69361999D01*
X117075252Y-69361521D01*
X116568875Y-69570752D01*
X116377483Y-69761810D01*
X115175590Y-69761810D01*
X115175590Y-69398129D01*
X115365287Y-69208763D01*
X115575401Y-68702752D01*
X115575879Y-68154852D01*
X115366648Y-67648475D01*
X115307932Y-67589656D01*
X115733073Y-67766190D01*
X116419913Y-67766789D01*
X117054700Y-67504500D01*
X117173671Y-67385737D01*
X117179243Y-67399189D01*
X117357872Y-67577817D01*
X117591261Y-67674490D01*
X118332250Y-67674490D01*
X118491000Y-67515740D01*
X118491000Y-66167000D01*
X118471000Y-66167000D01*
X118471000Y-65913000D01*
X118491000Y-65913000D01*
X118491000Y-64564260D01*
X118332250Y-64405510D01*
X117591261Y-64405510D01*
X117357872Y-64502183D01*
X117179243Y-64680811D01*
X117173799Y-64693954D01*
X117057255Y-64577206D01*
X116422927Y-64313810D01*
X115736087Y-64313211D01*
X115101300Y-64575500D01*
X114807914Y-64868374D01*
X114517255Y-64577206D01*
X113882927Y-64313810D01*
X113196087Y-64313211D01*
X112561300Y-64575500D01*
X112267914Y-64868374D01*
X111977255Y-64577206D01*
X111342927Y-64313810D01*
X110656087Y-64313211D01*
X110021300Y-64575500D01*
X109535206Y-65060745D01*
X109295561Y-65637874D01*
X109088752Y-65551999D01*
X108540852Y-65551521D01*
X108034475Y-65760752D01*
X107881963Y-65912998D01*
X107802682Y-65912998D01*
X107961430Y-65754250D01*
X107961430Y-64914200D01*
X107864757Y-64680811D01*
X107686128Y-64502183D01*
X107452739Y-64405510D01*
X106711750Y-64405510D01*
X106553000Y-64564260D01*
X106553000Y-65913000D01*
X106573000Y-65913000D01*
X106573000Y-66167000D01*
X106553000Y-66167000D01*
X106553000Y-66187000D01*
X106299000Y-66187000D01*
X106299000Y-66167000D01*
X106279000Y-66167000D01*
X106279000Y-65913000D01*
X106299000Y-65913000D01*
X106299000Y-64564260D01*
X106140250Y-64405510D01*
X105399261Y-64405510D01*
X105165872Y-64502183D01*
X104987243Y-64680811D01*
X104981799Y-64693954D01*
X104865255Y-64577206D01*
X104230927Y-64313810D01*
X103544087Y-64313211D01*
X102909300Y-64575500D01*
X102615914Y-64868374D01*
X102325255Y-64577206D01*
X101690927Y-64313810D01*
X101004087Y-64313211D01*
X100369300Y-64575500D01*
X100075914Y-64868374D01*
X99785255Y-64577206D01*
X99150927Y-64313810D01*
X98464087Y-64313211D01*
X97829300Y-64575500D01*
X97343206Y-65060745D01*
X97079810Y-65695073D01*
X97079211Y-66381913D01*
X97341500Y-67016700D01*
X97826745Y-67502794D01*
X97884100Y-67526610D01*
X95545335Y-67526610D01*
X95672757Y-67399189D01*
X95769430Y-67165800D01*
X95769430Y-66325750D01*
X95610680Y-66167000D01*
X94361000Y-66167000D01*
X94361000Y-66187000D01*
X94107000Y-66187000D01*
X94107000Y-66167000D01*
X94087000Y-66167000D01*
X94087000Y-65913000D01*
X94107000Y-65913000D01*
X94107000Y-64564260D01*
X94361000Y-64564260D01*
X94361000Y-65913000D01*
X95610680Y-65913000D01*
X95769430Y-65754250D01*
X95769430Y-64914200D01*
X95672757Y-64680811D01*
X95494128Y-64502183D01*
X95260739Y-64405510D01*
X94519750Y-64405510D01*
X94361000Y-64564260D01*
X94107000Y-64564260D01*
X93948250Y-64405510D01*
X93207261Y-64405510D01*
X92973872Y-64502183D01*
X92795243Y-64680811D01*
X92789799Y-64693954D01*
X92673255Y-64577206D01*
X92671190Y-64576349D01*
X92671190Y-60336990D01*
X116232034Y-60336990D01*
X119774410Y-63879366D01*
G36*
X59944152Y-113682125D02*
X60331237Y-114069887D01*
X60837248Y-114280001D01*
X61385148Y-114280479D01*
X61891525Y-114071248D01*
X62082917Y-113880190D01*
X78539855Y-113880190D01*
X77719290Y-114700755D01*
X77451252Y-114700521D01*
X76944875Y-114909752D01*
X76557113Y-115296837D01*
X76346999Y-115802848D01*
X76346521Y-116350748D01*
X76555752Y-116857125D01*
X76942837Y-117244887D01*
X77158570Y-117334467D01*
X77108999Y-117453848D01*
X77108521Y-118001748D01*
X77317752Y-118508125D01*
X77704837Y-118895887D01*
X78210848Y-119106001D01*
X78758748Y-119106479D01*
X79265125Y-118897248D01*
X79526489Y-118636340D01*
X85136084Y-118636340D01*
X86388454Y-119888710D01*
X85260274Y-119888710D01*
X84982163Y-119610113D01*
X84476152Y-119399999D01*
X83928252Y-119399521D01*
X83421875Y-119608752D01*
X83230483Y-119799810D01*
X74993505Y-119799810D01*
X74993500Y-119799809D01*
X74619545Y-119874194D01*
X74486497Y-119963094D01*
X74302522Y-120086022D01*
X74302520Y-120086025D01*
X72810734Y-121577810D01*
X72437822Y-121577810D01*
X72437822Y-119793980D01*
X72387129Y-119524570D01*
X72356150Y-119476427D01*
X72379423Y-119442365D01*
X72437822Y-119153980D01*
X72437822Y-117253980D01*
X72387129Y-116984570D01*
X72227908Y-116737134D01*
X71984965Y-116571137D01*
X71696580Y-116512738D01*
X70096380Y-116512738D01*
X69826970Y-116563431D01*
X69624431Y-116693762D01*
X69444965Y-116571137D01*
X69156580Y-116512738D01*
X67556380Y-116512738D01*
X67286970Y-116563431D01*
X67084431Y-116693762D01*
X66904965Y-116571137D01*
X66616580Y-116512738D01*
X65016380Y-116512738D01*
X64746970Y-116563431D01*
X64544431Y-116693762D01*
X64364965Y-116571137D01*
X64076580Y-116512738D01*
X62476380Y-116512738D01*
X62206970Y-116563431D01*
X62004431Y-116693762D01*
X61824965Y-116571137D01*
X61536580Y-116512738D01*
X59936380Y-116512738D01*
X59666970Y-116563431D01*
X59464431Y-116693762D01*
X59284965Y-116571137D01*
X58996580Y-116512738D01*
X57396380Y-116512738D01*
X57126970Y-116563431D01*
X56924431Y-116693762D01*
X56744965Y-116571137D01*
X56556756Y-116533024D01*
X56621778Y-116489578D01*
X59793598Y-113317758D01*
X59944152Y-113682125D01*
X59944152Y-113682125D01*
G37*
X59944152Y-113682125D02*
X60331237Y-114069887D01*
X60837248Y-114280001D01*
X61385148Y-114280479D01*
X61891525Y-114071248D01*
X62082917Y-113880190D01*
X78539855Y-113880190D01*
X77719290Y-114700755D01*
X77451252Y-114700521D01*
X76944875Y-114909752D01*
X76557113Y-115296837D01*
X76346999Y-115802848D01*
X76346521Y-116350748D01*
X76555752Y-116857125D01*
X76942837Y-117244887D01*
X77158570Y-117334467D01*
X77108999Y-117453848D01*
X77108521Y-118001748D01*
X77317752Y-118508125D01*
X77704837Y-118895887D01*
X78210848Y-119106001D01*
X78758748Y-119106479D01*
X79265125Y-118897248D01*
X79526489Y-118636340D01*
X85136084Y-118636340D01*
X86388454Y-119888710D01*
X85260274Y-119888710D01*
X84982163Y-119610113D01*
X84476152Y-119399999D01*
X83928252Y-119399521D01*
X83421875Y-119608752D01*
X83230483Y-119799810D01*
X74993505Y-119799810D01*
X74993500Y-119799809D01*
X74619545Y-119874194D01*
X74486497Y-119963094D01*
X74302522Y-120086022D01*
X74302520Y-120086025D01*
X72810734Y-121577810D01*
X72437822Y-121577810D01*
X72437822Y-119793980D01*
X72387129Y-119524570D01*
X72356150Y-119476427D01*
X72379423Y-119442365D01*
X72437822Y-119153980D01*
X72437822Y-117253980D01*
X72387129Y-116984570D01*
X72227908Y-116737134D01*
X71984965Y-116571137D01*
X71696580Y-116512738D01*
X70096380Y-116512738D01*
X69826970Y-116563431D01*
X69624431Y-116693762D01*
X69444965Y-116571137D01*
X69156580Y-116512738D01*
X67556380Y-116512738D01*
X67286970Y-116563431D01*
X67084431Y-116693762D01*
X66904965Y-116571137D01*
X66616580Y-116512738D01*
X65016380Y-116512738D01*
X64746970Y-116563431D01*
X64544431Y-116693762D01*
X64364965Y-116571137D01*
X64076580Y-116512738D01*
X62476380Y-116512738D01*
X62206970Y-116563431D01*
X62004431Y-116693762D01*
X61824965Y-116571137D01*
X61536580Y-116512738D01*
X59936380Y-116512738D01*
X59666970Y-116563431D01*
X59464431Y-116693762D01*
X59284965Y-116571137D01*
X58996580Y-116512738D01*
X57396380Y-116512738D01*
X57126970Y-116563431D01*
X56924431Y-116693762D01*
X56744965Y-116571137D01*
X56556756Y-116533024D01*
X56621778Y-116489578D01*
X59793598Y-113317758D01*
X59944152Y-113682125D01*
G36*
X103670810Y-114091471D02*
X103481113Y-114280837D01*
X103270999Y-114786848D01*
X103270521Y-115334748D01*
X103479752Y-115841125D01*
X103866837Y-116228887D01*
X104372848Y-116439001D01*
X104920748Y-116439479D01*
X105427125Y-116230248D01*
X105496977Y-116160517D01*
X106802488Y-116160517D01*
X106870477Y-116401460D01*
X107389571Y-116586201D01*
X107939848Y-116558230D01*
X108318323Y-116401460D01*
X108386312Y-116160517D01*
X107594400Y-115368605D01*
X106802488Y-116160517D01*
X105496977Y-116160517D01*
X105814887Y-115843163D01*
X106025001Y-115337152D01*
X106025479Y-114789252D01*
X105920020Y-114534021D01*
X106357268Y-114534403D01*
X106197199Y-114984171D01*
X106225170Y-115534448D01*
X106381940Y-115912923D01*
X106622883Y-115980912D01*
X107414795Y-115189000D01*
X107400653Y-115174858D01*
X107580258Y-114995253D01*
X107594400Y-115009395D01*
X107608543Y-114995253D01*
X107788148Y-115174858D01*
X107774005Y-115189000D01*
X108565917Y-115980912D01*
X108806860Y-115912923D01*
X108991601Y-115393829D01*
X108979954Y-115164705D01*
X109227046Y-115329806D01*
X109385696Y-115361363D01*
X109323113Y-115423837D01*
X109112999Y-115929848D01*
X109112763Y-116200282D01*
X107670537Y-117642508D01*
X107594248Y-117457875D01*
X107207163Y-117070113D01*
X106701152Y-116859999D01*
X106153252Y-116859521D01*
X105646875Y-117068752D01*
X105455483Y-117259810D01*
X101053190Y-117259810D01*
X101053190Y-116497934D01*
X101457318Y-116665743D01*
X102044905Y-116666256D01*
X102587960Y-116441870D01*
X103003809Y-116026746D01*
X103229143Y-115484082D01*
X103229656Y-114896495D01*
X103005270Y-114353440D01*
X102590146Y-113937591D01*
X102047482Y-113712257D01*
X101918811Y-113712145D01*
X103670810Y-111960146D01*
X103670810Y-114091471D01*
X103670810Y-114091471D01*
G37*
X103670810Y-114091471D02*
X103481113Y-114280837D01*
X103270999Y-114786848D01*
X103270521Y-115334748D01*
X103479752Y-115841125D01*
X103866837Y-116228887D01*
X104372848Y-116439001D01*
X104920748Y-116439479D01*
X105427125Y-116230248D01*
X105496977Y-116160517D01*
X106802488Y-116160517D01*
X106870477Y-116401460D01*
X107389571Y-116586201D01*
X107939848Y-116558230D01*
X108318323Y-116401460D01*
X108386312Y-116160517D01*
X107594400Y-115368605D01*
X106802488Y-116160517D01*
X105496977Y-116160517D01*
X105814887Y-115843163D01*
X106025001Y-115337152D01*
X106025479Y-114789252D01*
X105920020Y-114534021D01*
X106357268Y-114534403D01*
X106197199Y-114984171D01*
X106225170Y-115534448D01*
X106381940Y-115912923D01*
X106622883Y-115980912D01*
X107414795Y-115189000D01*
X107400653Y-115174858D01*
X107580258Y-114995253D01*
X107594400Y-115009395D01*
X107608543Y-114995253D01*
X107788148Y-115174858D01*
X107774005Y-115189000D01*
X108565917Y-115980912D01*
X108806860Y-115912923D01*
X108991601Y-115393829D01*
X108979954Y-115164705D01*
X109227046Y-115329806D01*
X109385696Y-115361363D01*
X109323113Y-115423837D01*
X109112999Y-115929848D01*
X109112763Y-116200282D01*
X107670537Y-117642508D01*
X107594248Y-117457875D01*
X107207163Y-117070113D01*
X106701152Y-116859999D01*
X106153252Y-116859521D01*
X105646875Y-117068752D01*
X105455483Y-117259810D01*
X101053190Y-117259810D01*
X101053190Y-116497934D01*
X101457318Y-116665743D01*
X102044905Y-116666256D01*
X102587960Y-116441870D01*
X103003809Y-116026746D01*
X103229143Y-115484082D01*
X103229656Y-114896495D01*
X103005270Y-114353440D01*
X102590146Y-113937591D01*
X102047482Y-113712257D01*
X101918811Y-113712145D01*
X103670810Y-111960146D01*
X103670810Y-114091471D01*
G36*
X73146599Y-78033048D02*
X73146363Y-78303481D01*
X73070622Y-78379222D01*
X72858794Y-78696245D01*
X72821017Y-78886163D01*
X72784410Y-79070200D01*
X72784410Y-87473794D01*
X72536163Y-87225113D01*
X72030152Y-87014999D01*
X71482252Y-87014521D01*
X70975875Y-87223752D01*
X70588113Y-87610837D01*
X70377999Y-88116848D01*
X70377521Y-88664748D01*
X70586752Y-89171125D01*
X70973837Y-89558887D01*
X71158810Y-89635694D01*
X71158810Y-91350442D01*
X70810952Y-91205999D01*
X70263052Y-91205521D01*
X69756675Y-91414752D01*
X69368913Y-91801837D01*
X69187595Y-92238500D01*
X65992223Y-92238500D01*
X65805163Y-92051113D01*
X65299152Y-91840999D01*
X64751252Y-91840521D01*
X64244875Y-92049752D01*
X63857113Y-92436837D01*
X63646999Y-92942848D01*
X63646521Y-93490748D01*
X63855752Y-93997125D01*
X63901787Y-94043241D01*
X63857113Y-94087837D01*
X63646999Y-94593848D01*
X63646521Y-95141748D01*
X63855752Y-95648125D01*
X64242837Y-96035887D01*
X64748848Y-96246001D01*
X65296748Y-96246479D01*
X65803125Y-96037248D01*
X65994517Y-95846190D01*
X69886426Y-95846190D01*
X70298748Y-96017401D01*
X70846648Y-96017879D01*
X71158810Y-95888896D01*
X71158810Y-106656235D01*
X69591289Y-108223755D01*
X69323252Y-108223521D01*
X68816875Y-108432752D01*
X68429113Y-108819837D01*
X68218999Y-109325848D01*
X68218521Y-109873748D01*
X68427752Y-110380125D01*
X68537287Y-110489852D01*
X68429113Y-110597837D01*
X68218999Y-111103848D01*
X68218521Y-111651748D01*
X68331761Y-111925810D01*
X62082929Y-111925810D01*
X61917113Y-111759704D01*
X62279287Y-111398163D01*
X62489401Y-110892152D01*
X62489879Y-110344252D01*
X62280648Y-109837875D01*
X61893563Y-109450113D01*
X61387552Y-109239999D01*
X60839652Y-109239521D01*
X60333275Y-109448752D01*
X59945513Y-109835837D01*
X59735399Y-110341848D01*
X59735163Y-110612281D01*
X55526034Y-114821410D01*
X51460405Y-114821410D01*
X51460400Y-114821409D01*
X51086445Y-114895794D01*
X50769422Y-115107622D01*
X49176034Y-116701010D01*
X44252129Y-116701010D01*
X44062763Y-116511313D01*
X43556752Y-116301199D01*
X43361027Y-116301028D01*
X44175775Y-115486280D01*
X44175778Y-115486278D01*
X44302358Y-115296837D01*
X44387606Y-115169255D01*
X44461991Y-114795300D01*
X44461990Y-114795295D01*
X44461990Y-111270660D01*
X44512135Y-111304923D01*
X44800520Y-111363322D01*
X46700440Y-111363322D01*
X46969850Y-111312629D01*
X47018035Y-111281623D01*
X47052135Y-111304923D01*
X47340520Y-111363322D01*
X49240440Y-111363322D01*
X49509850Y-111312629D01*
X49757286Y-111153408D01*
X49923283Y-110910465D01*
X49981682Y-110622080D01*
X49981682Y-109021880D01*
X49930989Y-108752470D01*
X49800658Y-108549931D01*
X49923283Y-108370465D01*
X49981682Y-108082080D01*
X49981682Y-106481880D01*
X49930989Y-106212470D01*
X49800658Y-106009931D01*
X49923283Y-105830465D01*
X49981682Y-105542080D01*
X49981682Y-103941880D01*
X49930989Y-103672470D01*
X49771768Y-103425034D01*
X49738347Y-103402198D01*
X49778767Y-103361778D01*
X49875440Y-103128389D01*
X49875440Y-102487730D01*
X49716690Y-102328980D01*
X48417480Y-102328980D01*
X48417480Y-102348980D01*
X48163480Y-102348980D01*
X48163480Y-102328980D01*
X48143480Y-102328980D01*
X48143480Y-102074980D01*
X48163480Y-102074980D01*
X48163480Y-102054980D01*
X48417480Y-102054980D01*
X48417480Y-102074980D01*
X49716690Y-102074980D01*
X49875440Y-101916230D01*
X49875440Y-101275571D01*
X49778767Y-101042182D01*
X49740679Y-101004094D01*
X49757286Y-100993408D01*
X49923283Y-100750465D01*
X49981682Y-100462080D01*
X49981682Y-98861880D01*
X49930989Y-98592470D01*
X49800658Y-98389931D01*
X49923283Y-98210465D01*
X49981682Y-97922080D01*
X49981682Y-96321880D01*
X49930989Y-96052470D01*
X49800658Y-95849931D01*
X49923283Y-95670465D01*
X49981682Y-95382080D01*
X49981682Y-93781880D01*
X49930989Y-93512470D01*
X49800658Y-93309931D01*
X49923283Y-93130465D01*
X49981682Y-92842080D01*
X49981682Y-91241880D01*
X49930989Y-90972470D01*
X49771768Y-90725034D01*
X49528825Y-90559037D01*
X49240440Y-90500638D01*
X47340520Y-90500638D01*
X47071110Y-90551331D01*
X47022925Y-90582337D01*
X46988825Y-90559037D01*
X46700440Y-90500638D01*
X44800520Y-90500638D01*
X44531110Y-90551331D01*
X44283674Y-90710552D01*
X44117677Y-90953495D01*
X44059278Y-91241880D01*
X44059278Y-92842080D01*
X44109971Y-93111490D01*
X44240302Y-93314029D01*
X44117677Y-93493495D01*
X44059278Y-93781880D01*
X44059278Y-95382080D01*
X44109971Y-95651490D01*
X44240302Y-95854029D01*
X44117677Y-96033495D01*
X44059278Y-96321880D01*
X44059278Y-97922080D01*
X44109971Y-98191490D01*
X44240302Y-98394029D01*
X44117677Y-98573495D01*
X44076347Y-98777591D01*
X43007845Y-97709089D01*
X43008079Y-97441052D01*
X42798848Y-96934675D01*
X42600480Y-96735960D01*
X42721287Y-96615363D01*
X42931401Y-96109352D01*
X42931637Y-95838919D01*
X43108978Y-95661578D01*
X43320806Y-95344555D01*
X43395191Y-94970600D01*
X43395190Y-94970595D01*
X43395190Y-88923766D01*
X51575238Y-80743717D01*
X51575238Y-81945520D01*
X51625931Y-82214930D01*
X51656910Y-82263073D01*
X51633637Y-82297135D01*
X51575238Y-82585520D01*
X51575238Y-84485520D01*
X51625931Y-84754930D01*
X51785152Y-85002366D01*
X52028095Y-85168363D01*
X52316480Y-85226762D01*
X53916480Y-85226762D01*
X54185890Y-85176069D01*
X54388532Y-85045672D01*
X54568095Y-85168363D01*
X54856480Y-85226762D01*
X56456480Y-85226762D01*
X56725890Y-85176069D01*
X56928532Y-85045672D01*
X57108095Y-85168363D01*
X57396480Y-85226762D01*
X58996480Y-85226762D01*
X59265890Y-85176069D01*
X59468532Y-85045672D01*
X59648095Y-85168363D01*
X59936480Y-85226762D01*
X61536480Y-85226762D01*
X61805890Y-85176069D01*
X62008532Y-85045672D01*
X62188095Y-85168363D01*
X62476480Y-85226762D01*
X64076480Y-85226762D01*
X64345890Y-85176069D01*
X64548532Y-85045672D01*
X64728095Y-85168363D01*
X65016480Y-85226762D01*
X66616480Y-85226762D01*
X66885890Y-85176069D01*
X67088532Y-85045672D01*
X67268095Y-85168363D01*
X67556480Y-85226762D01*
X69156480Y-85226762D01*
X69425890Y-85176069D01*
X69628532Y-85045672D01*
X69808095Y-85168363D01*
X70096480Y-85226762D01*
X71696480Y-85226762D01*
X71965890Y-85176069D01*
X72213326Y-85016848D01*
X72379323Y-84773905D01*
X72437722Y-84485520D01*
X72437722Y-82585520D01*
X72387029Y-82316110D01*
X72356050Y-82267967D01*
X72379323Y-82233905D01*
X72437722Y-81945520D01*
X72437722Y-80045520D01*
X72387029Y-79776110D01*
X72227808Y-79528674D01*
X71984865Y-79362677D01*
X71696480Y-79304278D01*
X70096480Y-79304278D01*
X69827070Y-79354971D01*
X69624428Y-79485368D01*
X69444865Y-79362677D01*
X69156480Y-79304278D01*
X67556480Y-79304278D01*
X67287070Y-79354971D01*
X67084428Y-79485368D01*
X66904865Y-79362677D01*
X66616480Y-79304278D01*
X65016480Y-79304278D01*
X64747070Y-79354971D01*
X64544428Y-79485368D01*
X64364865Y-79362677D01*
X64076480Y-79304278D01*
X62476480Y-79304278D01*
X62207070Y-79354971D01*
X62004428Y-79485368D01*
X61824865Y-79362677D01*
X61536480Y-79304278D01*
X59936480Y-79304278D01*
X59667070Y-79354971D01*
X59464428Y-79485368D01*
X59284865Y-79362677D01*
X58996480Y-79304278D01*
X57396480Y-79304278D01*
X57127070Y-79354971D01*
X56924428Y-79485368D01*
X56744865Y-79362677D01*
X56456480Y-79304278D01*
X54856480Y-79304278D01*
X54587070Y-79354971D01*
X54384428Y-79485368D01*
X54204865Y-79362677D01*
X53916480Y-79304278D01*
X53014677Y-79304278D01*
X54557565Y-77761390D01*
X73259401Y-77761390D01*
X73146599Y-78033048D01*
X73146599Y-78033048D01*
G37*
X73146599Y-78033048D02*
X73146363Y-78303481D01*
X73070622Y-78379222D01*
X72858794Y-78696245D01*
X72821017Y-78886163D01*
X72784410Y-79070200D01*
X72784410Y-87473794D01*
X72536163Y-87225113D01*
X72030152Y-87014999D01*
X71482252Y-87014521D01*
X70975875Y-87223752D01*
X70588113Y-87610837D01*
X70377999Y-88116848D01*
X70377521Y-88664748D01*
X70586752Y-89171125D01*
X70973837Y-89558887D01*
X71158810Y-89635694D01*
X71158810Y-91350442D01*
X70810952Y-91205999D01*
X70263052Y-91205521D01*
X69756675Y-91414752D01*
X69368913Y-91801837D01*
X69187595Y-92238500D01*
X65992223Y-92238500D01*
X65805163Y-92051113D01*
X65299152Y-91840999D01*
X64751252Y-91840521D01*
X64244875Y-92049752D01*
X63857113Y-92436837D01*
X63646999Y-92942848D01*
X63646521Y-93490748D01*
X63855752Y-93997125D01*
X63901787Y-94043241D01*
X63857113Y-94087837D01*
X63646999Y-94593848D01*
X63646521Y-95141748D01*
X63855752Y-95648125D01*
X64242837Y-96035887D01*
X64748848Y-96246001D01*
X65296748Y-96246479D01*
X65803125Y-96037248D01*
X65994517Y-95846190D01*
X69886426Y-95846190D01*
X70298748Y-96017401D01*
X70846648Y-96017879D01*
X71158810Y-95888896D01*
X71158810Y-106656235D01*
X69591289Y-108223755D01*
X69323252Y-108223521D01*
X68816875Y-108432752D01*
X68429113Y-108819837D01*
X68218999Y-109325848D01*
X68218521Y-109873748D01*
X68427752Y-110380125D01*
X68537287Y-110489852D01*
X68429113Y-110597837D01*
X68218999Y-111103848D01*
X68218521Y-111651748D01*
X68331761Y-111925810D01*
X62082929Y-111925810D01*
X61917113Y-111759704D01*
X62279287Y-111398163D01*
X62489401Y-110892152D01*
X62489879Y-110344252D01*
X62280648Y-109837875D01*
X61893563Y-109450113D01*
X61387552Y-109239999D01*
X60839652Y-109239521D01*
X60333275Y-109448752D01*
X59945513Y-109835837D01*
X59735399Y-110341848D01*
X59735163Y-110612281D01*
X55526034Y-114821410D01*
X51460405Y-114821410D01*
X51460400Y-114821409D01*
X51086445Y-114895794D01*
X50769422Y-115107622D01*
X49176034Y-116701010D01*
X44252129Y-116701010D01*
X44062763Y-116511313D01*
X43556752Y-116301199D01*
X43361027Y-116301028D01*
X44175775Y-115486280D01*
X44175778Y-115486278D01*
X44302358Y-115296837D01*
X44387606Y-115169255D01*
X44461991Y-114795300D01*
X44461990Y-114795295D01*
X44461990Y-111270660D01*
X44512135Y-111304923D01*
X44800520Y-111363322D01*
X46700440Y-111363322D01*
X46969850Y-111312629D01*
X47018035Y-111281623D01*
X47052135Y-111304923D01*
X47340520Y-111363322D01*
X49240440Y-111363322D01*
X49509850Y-111312629D01*
X49757286Y-111153408D01*
X49923283Y-110910465D01*
X49981682Y-110622080D01*
X49981682Y-109021880D01*
X49930989Y-108752470D01*
X49800658Y-108549931D01*
X49923283Y-108370465D01*
X49981682Y-108082080D01*
X49981682Y-106481880D01*
X49930989Y-106212470D01*
X49800658Y-106009931D01*
X49923283Y-105830465D01*
X49981682Y-105542080D01*
X49981682Y-103941880D01*
X49930989Y-103672470D01*
X49771768Y-103425034D01*
X49738347Y-103402198D01*
X49778767Y-103361778D01*
X49875440Y-103128389D01*
X49875440Y-102487730D01*
X49716690Y-102328980D01*
X48417480Y-102328980D01*
X48417480Y-102348980D01*
X48163480Y-102348980D01*
X48163480Y-102328980D01*
X48143480Y-102328980D01*
X48143480Y-102074980D01*
X48163480Y-102074980D01*
X48163480Y-102054980D01*
X48417480Y-102054980D01*
X48417480Y-102074980D01*
X49716690Y-102074980D01*
X49875440Y-101916230D01*
X49875440Y-101275571D01*
X49778767Y-101042182D01*
X49740679Y-101004094D01*
X49757286Y-100993408D01*
X49923283Y-100750465D01*
X49981682Y-100462080D01*
X49981682Y-98861880D01*
X49930989Y-98592470D01*
X49800658Y-98389931D01*
X49923283Y-98210465D01*
X49981682Y-97922080D01*
X49981682Y-96321880D01*
X49930989Y-96052470D01*
X49800658Y-95849931D01*
X49923283Y-95670465D01*
X49981682Y-95382080D01*
X49981682Y-93781880D01*
X49930989Y-93512470D01*
X49800658Y-93309931D01*
X49923283Y-93130465D01*
X49981682Y-92842080D01*
X49981682Y-91241880D01*
X49930989Y-90972470D01*
X49771768Y-90725034D01*
X49528825Y-90559037D01*
X49240440Y-90500638D01*
X47340520Y-90500638D01*
X47071110Y-90551331D01*
X47022925Y-90582337D01*
X46988825Y-90559037D01*
X46700440Y-90500638D01*
X44800520Y-90500638D01*
X44531110Y-90551331D01*
X44283674Y-90710552D01*
X44117677Y-90953495D01*
X44059278Y-91241880D01*
X44059278Y-92842080D01*
X44109971Y-93111490D01*
X44240302Y-93314029D01*
X44117677Y-93493495D01*
X44059278Y-93781880D01*
X44059278Y-95382080D01*
X44109971Y-95651490D01*
X44240302Y-95854029D01*
X44117677Y-96033495D01*
X44059278Y-96321880D01*
X44059278Y-97922080D01*
X44109971Y-98191490D01*
X44240302Y-98394029D01*
X44117677Y-98573495D01*
X44076347Y-98777591D01*
X43007845Y-97709089D01*
X43008079Y-97441052D01*
X42798848Y-96934675D01*
X42600480Y-96735960D01*
X42721287Y-96615363D01*
X42931401Y-96109352D01*
X42931637Y-95838919D01*
X43108978Y-95661578D01*
X43320806Y-95344555D01*
X43395191Y-94970600D01*
X43395190Y-94970595D01*
X43395190Y-88923766D01*
X51575238Y-80743717D01*
X51575238Y-81945520D01*
X51625931Y-82214930D01*
X51656910Y-82263073D01*
X51633637Y-82297135D01*
X51575238Y-82585520D01*
X51575238Y-84485520D01*
X51625931Y-84754930D01*
X51785152Y-85002366D01*
X52028095Y-85168363D01*
X52316480Y-85226762D01*
X53916480Y-85226762D01*
X54185890Y-85176069D01*
X54388532Y-85045672D01*
X54568095Y-85168363D01*
X54856480Y-85226762D01*
X56456480Y-85226762D01*
X56725890Y-85176069D01*
X56928532Y-85045672D01*
X57108095Y-85168363D01*
X57396480Y-85226762D01*
X58996480Y-85226762D01*
X59265890Y-85176069D01*
X59468532Y-85045672D01*
X59648095Y-85168363D01*
X59936480Y-85226762D01*
X61536480Y-85226762D01*
X61805890Y-85176069D01*
X62008532Y-85045672D01*
X62188095Y-85168363D01*
X62476480Y-85226762D01*
X64076480Y-85226762D01*
X64345890Y-85176069D01*
X64548532Y-85045672D01*
X64728095Y-85168363D01*
X65016480Y-85226762D01*
X66616480Y-85226762D01*
X66885890Y-85176069D01*
X67088532Y-85045672D01*
X67268095Y-85168363D01*
X67556480Y-85226762D01*
X69156480Y-85226762D01*
X69425890Y-85176069D01*
X69628532Y-85045672D01*
X69808095Y-85168363D01*
X70096480Y-85226762D01*
X71696480Y-85226762D01*
X71965890Y-85176069D01*
X72213326Y-85016848D01*
X72379323Y-84773905D01*
X72437722Y-84485520D01*
X72437722Y-82585520D01*
X72387029Y-82316110D01*
X72356050Y-82267967D01*
X72379323Y-82233905D01*
X72437722Y-81945520D01*
X72437722Y-80045520D01*
X72387029Y-79776110D01*
X72227808Y-79528674D01*
X71984865Y-79362677D01*
X71696480Y-79304278D01*
X70096480Y-79304278D01*
X69827070Y-79354971D01*
X69624428Y-79485368D01*
X69444865Y-79362677D01*
X69156480Y-79304278D01*
X67556480Y-79304278D01*
X67287070Y-79354971D01*
X67084428Y-79485368D01*
X66904865Y-79362677D01*
X66616480Y-79304278D01*
X65016480Y-79304278D01*
X64747070Y-79354971D01*
X64544428Y-79485368D01*
X64364865Y-79362677D01*
X64076480Y-79304278D01*
X62476480Y-79304278D01*
X62207070Y-79354971D01*
X62004428Y-79485368D01*
X61824865Y-79362677D01*
X61536480Y-79304278D01*
X59936480Y-79304278D01*
X59667070Y-79354971D01*
X59464428Y-79485368D01*
X59284865Y-79362677D01*
X58996480Y-79304278D01*
X57396480Y-79304278D01*
X57127070Y-79354971D01*
X56924428Y-79485368D01*
X56744865Y-79362677D01*
X56456480Y-79304278D01*
X54856480Y-79304278D01*
X54587070Y-79354971D01*
X54384428Y-79485368D01*
X54204865Y-79362677D01*
X53916480Y-79304278D01*
X53014677Y-79304278D01*
X54557565Y-77761390D01*
X73259401Y-77761390D01*
X73146599Y-78033048D01*
G36*
X122780500Y-109333545D02*
X121627190Y-108180234D01*
X121627190Y-83058000D01*
X121552806Y-82684046D01*
X121340978Y-82367022D01*
X120621622Y-81647666D01*
X120621622Y-80280510D01*
X120570929Y-80011100D01*
X120411708Y-79763664D01*
X120357190Y-79726413D01*
X120357190Y-76960366D01*
X121442575Y-75874980D01*
X121442578Y-75874978D01*
X121654406Y-75557954D01*
X121728790Y-75184000D01*
X121728790Y-63474600D01*
X121654406Y-63100646D01*
X121654406Y-63100645D01*
X121442578Y-62783622D01*
X117327778Y-58668822D01*
X117010755Y-58456994D01*
X116636800Y-58382610D01*
X74422000Y-58382610D01*
X74048045Y-58456994D01*
X73731022Y-58668822D01*
X72715022Y-59684822D01*
X72503194Y-60001845D01*
X72503194Y-60001846D01*
X72428810Y-60375800D01*
X72428810Y-64575989D01*
X72135914Y-64868374D01*
X71845255Y-64577206D01*
X71210927Y-64313810D01*
X70524087Y-64313211D01*
X69889300Y-64575500D01*
X69403206Y-65060745D01*
X69139810Y-65695073D01*
X69139211Y-66381913D01*
X69401500Y-67016700D01*
X69886745Y-67502794D01*
X70433460Y-67729810D01*
X64566409Y-67729810D01*
X65111700Y-67504500D01*
X65230671Y-67385737D01*
X65236243Y-67399189D01*
X65414872Y-67577817D01*
X65648261Y-67674490D01*
X66389250Y-67674490D01*
X66548000Y-67515740D01*
X66548000Y-66167000D01*
X66802000Y-66167000D01*
X66802000Y-67515740D01*
X66960750Y-67674490D01*
X67701739Y-67674490D01*
X67935128Y-67577817D01*
X68113757Y-67399189D01*
X68210430Y-67165800D01*
X68210430Y-66325750D01*
X68051680Y-66167000D01*
X66802000Y-66167000D01*
X66548000Y-66167000D01*
X66528000Y-66167000D01*
X66528000Y-65913000D01*
X66548000Y-65913000D01*
X66548000Y-64564260D01*
X66802000Y-64564260D01*
X66802000Y-65913000D01*
X68051680Y-65913000D01*
X68210430Y-65754250D01*
X68210430Y-64914200D01*
X68113757Y-64680811D01*
X67935128Y-64502183D01*
X67701739Y-64405510D01*
X66960750Y-64405510D01*
X66802000Y-64564260D01*
X66548000Y-64564260D01*
X66389250Y-64405510D01*
X65648261Y-64405510D01*
X65414872Y-64502183D01*
X65262050Y-64655004D01*
X65262050Y-64008000D01*
X65176258Y-63576697D01*
X64931945Y-63211055D01*
X63661945Y-61941055D01*
X63296303Y-61696742D01*
X62865000Y-61610950D01*
X38227005Y-61610950D01*
X38227000Y-61610949D01*
X37795697Y-61696742D01*
X37430055Y-61941055D01*
X36541055Y-62830055D01*
X36296742Y-63195697D01*
X36210950Y-63627000D01*
X36210950Y-64725587D01*
X36067914Y-64868374D01*
X35777255Y-64577206D01*
X35142927Y-64313810D01*
X34456087Y-64313211D01*
X33821300Y-64575500D01*
X33335206Y-65060745D01*
X33071810Y-65695073D01*
X33071211Y-66381913D01*
X33333500Y-67016700D01*
X33818745Y-67502794D01*
X34453073Y-67766190D01*
X35139913Y-67766789D01*
X35774700Y-67504500D01*
X36068086Y-67211626D01*
X36358745Y-67502794D01*
X36993073Y-67766190D01*
X37679913Y-67766789D01*
X38314700Y-67504500D01*
X38433671Y-67385737D01*
X38439243Y-67399189D01*
X38617872Y-67577817D01*
X38851261Y-67674490D01*
X39592250Y-67674490D01*
X39751000Y-67515740D01*
X39751000Y-66167000D01*
X40005000Y-66167000D01*
X40005000Y-67515740D01*
X40163750Y-67674490D01*
X40904739Y-67674490D01*
X41138128Y-67577817D01*
X41316757Y-67399189D01*
X41413430Y-67165800D01*
X41413430Y-66325750D01*
X41254680Y-66167000D01*
X40005000Y-66167000D01*
X39751000Y-66167000D01*
X39731000Y-66167000D01*
X39731000Y-65913000D01*
X39751000Y-65913000D01*
X39751000Y-64564260D01*
X40005000Y-64564260D01*
X40005000Y-65913000D01*
X41254680Y-65913000D01*
X41413430Y-65754250D01*
X41413430Y-64914200D01*
X41316757Y-64680811D01*
X41138128Y-64502183D01*
X40904739Y-64405510D01*
X40163750Y-64405510D01*
X40005000Y-64564260D01*
X39751000Y-64564260D01*
X39592250Y-64405510D01*
X38851261Y-64405510D01*
X38617872Y-64502183D01*
X38465050Y-64655004D01*
X38465050Y-64093840D01*
X38693840Y-63865050D01*
X45227950Y-63865050D01*
X45227950Y-64725587D01*
X45084914Y-64868374D01*
X44794255Y-64577206D01*
X44159927Y-64313810D01*
X43473087Y-64313211D01*
X42838300Y-64575500D01*
X42352206Y-65060745D01*
X42088810Y-65695073D01*
X42088211Y-66381913D01*
X42350500Y-67016700D01*
X42835745Y-67502794D01*
X43470073Y-67766190D01*
X44156913Y-67766789D01*
X44791700Y-67504500D01*
X45085086Y-67211626D01*
X45375745Y-67502794D01*
X46010073Y-67766190D01*
X46696913Y-67766789D01*
X47331700Y-67504500D01*
X47450671Y-67385737D01*
X47456243Y-67399189D01*
X47634872Y-67577817D01*
X47868261Y-67674490D01*
X48609250Y-67674490D01*
X48768000Y-67515740D01*
X48768000Y-66167000D01*
X49022000Y-66167000D01*
X49022000Y-67515740D01*
X49180750Y-67674490D01*
X49921739Y-67674490D01*
X50155128Y-67577817D01*
X50333757Y-67399189D01*
X50430430Y-67165800D01*
X50430430Y-66325750D01*
X50271680Y-66167000D01*
X49022000Y-66167000D01*
X48768000Y-66167000D01*
X48748000Y-66167000D01*
X48748000Y-65913000D01*
X48768000Y-65913000D01*
X48768000Y-64564260D01*
X49022000Y-64564260D01*
X49022000Y-65913000D01*
X50271680Y-65913000D01*
X50430430Y-65754250D01*
X50430430Y-64914200D01*
X50333757Y-64680811D01*
X50155128Y-64502183D01*
X49921739Y-64405510D01*
X49180750Y-64405510D01*
X49022000Y-64564260D01*
X48768000Y-64564260D01*
X48609250Y-64405510D01*
X47868261Y-64405510D01*
X47634872Y-64502183D01*
X47482050Y-64655004D01*
X47482050Y-63865050D01*
X53990950Y-63865050D01*
X53990950Y-64725587D01*
X53847914Y-64868374D01*
X53557255Y-64577206D01*
X52922927Y-64313810D01*
X52236087Y-64313211D01*
X51601300Y-64575500D01*
X51115206Y-65060745D01*
X50851810Y-65695073D01*
X50851211Y-66381913D01*
X51113500Y-67016700D01*
X51598745Y-67502794D01*
X52145460Y-67729810D01*
X48412405Y-67729810D01*
X48412400Y-67729809D01*
X48038445Y-67804194D01*
X47879934Y-67910108D01*
X47721422Y-68016022D01*
X47721420Y-68016025D01*
X45398592Y-70338852D01*
X45290740Y-70231000D01*
X43942000Y-70231000D01*
X43942000Y-70251000D01*
X43688000Y-70251000D01*
X43688000Y-70231000D01*
X42339260Y-70231000D01*
X42180510Y-70389750D01*
X42180510Y-71130739D01*
X42277183Y-71364128D01*
X42455811Y-71542757D01*
X42468954Y-71548201D01*
X42352206Y-71664745D01*
X42088810Y-72299073D01*
X42088211Y-72985913D01*
X42350500Y-73620700D01*
X42643374Y-73914086D01*
X42352206Y-74204745D01*
X42088810Y-74839073D01*
X42088211Y-75525913D01*
X42350500Y-76160700D01*
X42555252Y-76365810D01*
X32847529Y-76365810D01*
X32658163Y-76176113D01*
X32152152Y-75965999D01*
X31604252Y-75965521D01*
X31097875Y-76174752D01*
X30710113Y-76561837D01*
X30499999Y-77067848D01*
X30499521Y-77615748D01*
X30708752Y-78122125D01*
X31095837Y-78509887D01*
X31601848Y-78720001D01*
X32149748Y-78720479D01*
X32656125Y-78511248D01*
X32847517Y-78320190D01*
X42244743Y-78320190D01*
X42180510Y-78475261D01*
X42180510Y-79216250D01*
X42339260Y-79375000D01*
X43688000Y-79375000D01*
X43688000Y-79355000D01*
X43942000Y-79355000D01*
X43942000Y-79375000D01*
X45290740Y-79375000D01*
X45449490Y-79216250D01*
X45449490Y-78475261D01*
X45385257Y-78320190D01*
X46443900Y-78320190D01*
X46817855Y-78245806D01*
X47134878Y-78033978D01*
X47604310Y-77564545D01*
X47872348Y-77564779D01*
X48378725Y-77355548D01*
X48766487Y-76968463D01*
X48976601Y-76462452D01*
X48977079Y-75914552D01*
X48767848Y-75408175D01*
X48380763Y-75020413D01*
X47874752Y-74810299D01*
X47326852Y-74809821D01*
X46820475Y-75019052D01*
X46432713Y-75406137D01*
X46222599Y-75912148D01*
X46222363Y-76182581D01*
X46039134Y-76365810D01*
X45074885Y-76365810D01*
X45277794Y-76163255D01*
X45541190Y-75528927D01*
X45541789Y-74842087D01*
X45279500Y-74207300D01*
X44986626Y-73913914D01*
X45277794Y-73623255D01*
X45541190Y-72988927D01*
X45541215Y-72960141D01*
X48817165Y-69684190D01*
X60719410Y-69684190D01*
X60719410Y-72175734D01*
X59234434Y-73660710D01*
X52997105Y-73660710D01*
X52997100Y-73660709D01*
X52623145Y-73735094D01*
X52574142Y-73767837D01*
X52306122Y-73946922D01*
X52306120Y-73946925D01*
X45233662Y-81019382D01*
X45160737Y-80946329D01*
X45174189Y-80940757D01*
X45352817Y-80762128D01*
X45449490Y-80528739D01*
X45449490Y-79787750D01*
X45290740Y-79629000D01*
X43942000Y-79629000D01*
X43942000Y-79649000D01*
X43688000Y-79649000D01*
X43688000Y-79629000D01*
X42339260Y-79629000D01*
X42180510Y-79787750D01*
X42180510Y-80528739D01*
X42277183Y-80762128D01*
X42455811Y-80940757D01*
X42468954Y-80946201D01*
X42352206Y-81062745D01*
X42351349Y-81064810D01*
X39878000Y-81064810D01*
X39504046Y-81139194D01*
X39187022Y-81351022D01*
X39187020Y-81351025D01*
X34615022Y-85923022D01*
X34403194Y-86240045D01*
X34389639Y-86308190D01*
X34328810Y-86614000D01*
X34328810Y-109347000D01*
X34403194Y-109720955D01*
X34615022Y-110037978D01*
X34759910Y-110182866D01*
X34759910Y-111367010D01*
X32908800Y-111367010D01*
X32908800Y-86431285D01*
X29238500Y-86431285D01*
X29238500Y-69077261D01*
X42180510Y-69077261D01*
X42180510Y-69818250D01*
X42339260Y-69977000D01*
X43688000Y-69977000D01*
X43688000Y-68727320D01*
X43942000Y-68727320D01*
X43942000Y-69977000D01*
X45290740Y-69977000D01*
X45449490Y-69818250D01*
X45449490Y-69077261D01*
X45352817Y-68843872D01*
X45174189Y-68665243D01*
X44940800Y-68568570D01*
X44100750Y-68568570D01*
X43942000Y-68727320D01*
X43688000Y-68727320D01*
X43529250Y-68568570D01*
X42689200Y-68568570D01*
X42455811Y-68665243D01*
X42277183Y-68843872D01*
X42180510Y-69077261D01*
X29238500Y-69077261D01*
X29238500Y-52733500D01*
X122780500Y-52733500D01*
X122780500Y-109333545D01*
X122780500Y-109333545D01*
G37*
X122780500Y-109333545D02*
X121627190Y-108180234D01*
X121627190Y-83058000D01*
X121552806Y-82684046D01*
X121340978Y-82367022D01*
X120621622Y-81647666D01*
X120621622Y-80280510D01*
X120570929Y-80011100D01*
X120411708Y-79763664D01*
X120357190Y-79726413D01*
X120357190Y-76960366D01*
X121442575Y-75874980D01*
X121442578Y-75874978D01*
X121654406Y-75557954D01*
X121728790Y-75184000D01*
X121728790Y-63474600D01*
X121654406Y-63100646D01*
X121654406Y-63100645D01*
X121442578Y-62783622D01*
X117327778Y-58668822D01*
X117010755Y-58456994D01*
X116636800Y-58382610D01*
X74422000Y-58382610D01*
X74048045Y-58456994D01*
X73731022Y-58668822D01*
X72715022Y-59684822D01*
X72503194Y-60001845D01*
X72503194Y-60001846D01*
X72428810Y-60375800D01*
X72428810Y-64575989D01*
X72135914Y-64868374D01*
X71845255Y-64577206D01*
X71210927Y-64313810D01*
X70524087Y-64313211D01*
X69889300Y-64575500D01*
X69403206Y-65060745D01*
X69139810Y-65695073D01*
X69139211Y-66381913D01*
X69401500Y-67016700D01*
X69886745Y-67502794D01*
X70433460Y-67729810D01*
X64566409Y-67729810D01*
X65111700Y-67504500D01*
X65230671Y-67385737D01*
X65236243Y-67399189D01*
X65414872Y-67577817D01*
X65648261Y-67674490D01*
X66389250Y-67674490D01*
X66548000Y-67515740D01*
X66548000Y-66167000D01*
X66802000Y-66167000D01*
X66802000Y-67515740D01*
X66960750Y-67674490D01*
X67701739Y-67674490D01*
X67935128Y-67577817D01*
X68113757Y-67399189D01*
X68210430Y-67165800D01*
X68210430Y-66325750D01*
X68051680Y-66167000D01*
X66802000Y-66167000D01*
X66548000Y-66167000D01*
X66528000Y-66167000D01*
X66528000Y-65913000D01*
X66548000Y-65913000D01*
X66548000Y-64564260D01*
X66802000Y-64564260D01*
X66802000Y-65913000D01*
X68051680Y-65913000D01*
X68210430Y-65754250D01*
X68210430Y-64914200D01*
X68113757Y-64680811D01*
X67935128Y-64502183D01*
X67701739Y-64405510D01*
X66960750Y-64405510D01*
X66802000Y-64564260D01*
X66548000Y-64564260D01*
X66389250Y-64405510D01*
X65648261Y-64405510D01*
X65414872Y-64502183D01*
X65262050Y-64655004D01*
X65262050Y-64008000D01*
X65176258Y-63576697D01*
X64931945Y-63211055D01*
X63661945Y-61941055D01*
X63296303Y-61696742D01*
X62865000Y-61610950D01*
X38227005Y-61610950D01*
X38227000Y-61610949D01*
X37795697Y-61696742D01*
X37430055Y-61941055D01*
X36541055Y-62830055D01*
X36296742Y-63195697D01*
X36210950Y-63627000D01*
X36210950Y-64725587D01*
X36067914Y-64868374D01*
X35777255Y-64577206D01*
X35142927Y-64313810D01*
X34456087Y-64313211D01*
X33821300Y-64575500D01*
X33335206Y-65060745D01*
X33071810Y-65695073D01*
X33071211Y-66381913D01*
X33333500Y-67016700D01*
X33818745Y-67502794D01*
X34453073Y-67766190D01*
X35139913Y-67766789D01*
X35774700Y-67504500D01*
X36068086Y-67211626D01*
X36358745Y-67502794D01*
X36993073Y-67766190D01*
X37679913Y-67766789D01*
X38314700Y-67504500D01*
X38433671Y-67385737D01*
X38439243Y-67399189D01*
X38617872Y-67577817D01*
X38851261Y-67674490D01*
X39592250Y-67674490D01*
X39751000Y-67515740D01*
X39751000Y-66167000D01*
X40005000Y-66167000D01*
X40005000Y-67515740D01*
X40163750Y-67674490D01*
X40904739Y-67674490D01*
X41138128Y-67577817D01*
X41316757Y-67399189D01*
X41413430Y-67165800D01*
X41413430Y-66325750D01*
X41254680Y-66167000D01*
X40005000Y-66167000D01*
X39751000Y-66167000D01*
X39731000Y-66167000D01*
X39731000Y-65913000D01*
X39751000Y-65913000D01*
X39751000Y-64564260D01*
X40005000Y-64564260D01*
X40005000Y-65913000D01*
X41254680Y-65913000D01*
X41413430Y-65754250D01*
X41413430Y-64914200D01*
X41316757Y-64680811D01*
X41138128Y-64502183D01*
X40904739Y-64405510D01*
X40163750Y-64405510D01*
X40005000Y-64564260D01*
X39751000Y-64564260D01*
X39592250Y-64405510D01*
X38851261Y-64405510D01*
X38617872Y-64502183D01*
X38465050Y-64655004D01*
X38465050Y-64093840D01*
X38693840Y-63865050D01*
X45227950Y-63865050D01*
X45227950Y-64725587D01*
X45084914Y-64868374D01*
X44794255Y-64577206D01*
X44159927Y-64313810D01*
X43473087Y-64313211D01*
X42838300Y-64575500D01*
X42352206Y-65060745D01*
X42088810Y-65695073D01*
X42088211Y-66381913D01*
X42350500Y-67016700D01*
X42835745Y-67502794D01*
X43470073Y-67766190D01*
X44156913Y-67766789D01*
X44791700Y-67504500D01*
X45085086Y-67211626D01*
X45375745Y-67502794D01*
X46010073Y-67766190D01*
X46696913Y-67766789D01*
X47331700Y-67504500D01*
X47450671Y-67385737D01*
X47456243Y-67399189D01*
X47634872Y-67577817D01*
X47868261Y-67674490D01*
X48609250Y-67674490D01*
X48768000Y-67515740D01*
X48768000Y-66167000D01*
X49022000Y-66167000D01*
X49022000Y-67515740D01*
X49180750Y-67674490D01*
X49921739Y-67674490D01*
X50155128Y-67577817D01*
X50333757Y-67399189D01*
X50430430Y-67165800D01*
X50430430Y-66325750D01*
X50271680Y-66167000D01*
X49022000Y-66167000D01*
X48768000Y-66167000D01*
X48748000Y-66167000D01*
X48748000Y-65913000D01*
X48768000Y-65913000D01*
X48768000Y-64564260D01*
X49022000Y-64564260D01*
X49022000Y-65913000D01*
X50271680Y-65913000D01*
X50430430Y-65754250D01*
X50430430Y-64914200D01*
X50333757Y-64680811D01*
X50155128Y-64502183D01*
X49921739Y-64405510D01*
X49180750Y-64405510D01*
X49022000Y-64564260D01*
X48768000Y-64564260D01*
X48609250Y-64405510D01*
X47868261Y-64405510D01*
X47634872Y-64502183D01*
X47482050Y-64655004D01*
X47482050Y-63865050D01*
X53990950Y-63865050D01*
X53990950Y-64725587D01*
X53847914Y-64868374D01*
X53557255Y-64577206D01*
X52922927Y-64313810D01*
X52236087Y-64313211D01*
X51601300Y-64575500D01*
X51115206Y-65060745D01*
X50851810Y-65695073D01*
X50851211Y-66381913D01*
X51113500Y-67016700D01*
X51598745Y-67502794D01*
X52145460Y-67729810D01*
X48412405Y-67729810D01*
X48412400Y-67729809D01*
X48038445Y-67804194D01*
X47879934Y-67910108D01*
X47721422Y-68016022D01*
X47721420Y-68016025D01*
X45398592Y-70338852D01*
X45290740Y-70231000D01*
X43942000Y-70231000D01*
X43942000Y-70251000D01*
X43688000Y-70251000D01*
X43688000Y-70231000D01*
X42339260Y-70231000D01*
X42180510Y-70389750D01*
X42180510Y-71130739D01*
X42277183Y-71364128D01*
X42455811Y-71542757D01*
X42468954Y-71548201D01*
X42352206Y-71664745D01*
X42088810Y-72299073D01*
X42088211Y-72985913D01*
X42350500Y-73620700D01*
X42643374Y-73914086D01*
X42352206Y-74204745D01*
X42088810Y-74839073D01*
X42088211Y-75525913D01*
X42350500Y-76160700D01*
X42555252Y-76365810D01*
X32847529Y-76365810D01*
X32658163Y-76176113D01*
X32152152Y-75965999D01*
X31604252Y-75965521D01*
X31097875Y-76174752D01*
X30710113Y-76561837D01*
X30499999Y-77067848D01*
X30499521Y-77615748D01*
X30708752Y-78122125D01*
X31095837Y-78509887D01*
X31601848Y-78720001D01*
X32149748Y-78720479D01*
X32656125Y-78511248D01*
X32847517Y-78320190D01*
X42244743Y-78320190D01*
X42180510Y-78475261D01*
X42180510Y-79216250D01*
X42339260Y-79375000D01*
X43688000Y-79375000D01*
X43688000Y-79355000D01*
X43942000Y-79355000D01*
X43942000Y-79375000D01*
X45290740Y-79375000D01*
X45449490Y-79216250D01*
X45449490Y-78475261D01*
X45385257Y-78320190D01*
X46443900Y-78320190D01*
X46817855Y-78245806D01*
X47134878Y-78033978D01*
X47604310Y-77564545D01*
X47872348Y-77564779D01*
X48378725Y-77355548D01*
X48766487Y-76968463D01*
X48976601Y-76462452D01*
X48977079Y-75914552D01*
X48767848Y-75408175D01*
X48380763Y-75020413D01*
X47874752Y-74810299D01*
X47326852Y-74809821D01*
X46820475Y-75019052D01*
X46432713Y-75406137D01*
X46222599Y-75912148D01*
X46222363Y-76182581D01*
X46039134Y-76365810D01*
X45074885Y-76365810D01*
X45277794Y-76163255D01*
X45541190Y-75528927D01*
X45541789Y-74842087D01*
X45279500Y-74207300D01*
X44986626Y-73913914D01*
X45277794Y-73623255D01*
X45541190Y-72988927D01*
X45541215Y-72960141D01*
X48817165Y-69684190D01*
X60719410Y-69684190D01*
X60719410Y-72175734D01*
X59234434Y-73660710D01*
X52997105Y-73660710D01*
X52997100Y-73660709D01*
X52623145Y-73735094D01*
X52574142Y-73767837D01*
X52306122Y-73946922D01*
X52306120Y-73946925D01*
X45233662Y-81019382D01*
X45160737Y-80946329D01*
X45174189Y-80940757D01*
X45352817Y-80762128D01*
X45449490Y-80528739D01*
X45449490Y-79787750D01*
X45290740Y-79629000D01*
X43942000Y-79629000D01*
X43942000Y-79649000D01*
X43688000Y-79649000D01*
X43688000Y-79629000D01*
X42339260Y-79629000D01*
X42180510Y-79787750D01*
X42180510Y-80528739D01*
X42277183Y-80762128D01*
X42455811Y-80940757D01*
X42468954Y-80946201D01*
X42352206Y-81062745D01*
X42351349Y-81064810D01*
X39878000Y-81064810D01*
X39504046Y-81139194D01*
X39187022Y-81351022D01*
X39187020Y-81351025D01*
X34615022Y-85923022D01*
X34403194Y-86240045D01*
X34389639Y-86308190D01*
X34328810Y-86614000D01*
X34328810Y-109347000D01*
X34403194Y-109720955D01*
X34615022Y-110037978D01*
X34759910Y-110182866D01*
X34759910Y-111367010D01*
X32908800Y-111367010D01*
X32908800Y-86431285D01*
X29238500Y-86431285D01*
X29238500Y-69077261D01*
X42180510Y-69077261D01*
X42180510Y-69818250D01*
X42339260Y-69977000D01*
X43688000Y-69977000D01*
X43688000Y-68727320D01*
X43942000Y-68727320D01*
X43942000Y-69977000D01*
X45290740Y-69977000D01*
X45449490Y-69818250D01*
X45449490Y-69077261D01*
X45352817Y-68843872D01*
X45174189Y-68665243D01*
X44940800Y-68568570D01*
X44100750Y-68568570D01*
X43942000Y-68727320D01*
X43688000Y-68727320D01*
X43529250Y-68568570D01*
X42689200Y-68568570D01*
X42455811Y-68665243D01*
X42277183Y-68843872D01*
X42180510Y-69077261D01*
X29238500Y-69077261D01*
X29238500Y-52733500D01*
X122780500Y-52733500D01*
X122780500Y-109333545D01*
G36*
X119672810Y-108585000D02*
X119747194Y-108958955D01*
X119959022Y-109275978D01*
X120068854Y-109385810D01*
X118786910Y-109385810D01*
X118786910Y-109155230D01*
X118628160Y-108996480D01*
X117378480Y-108996480D01*
X117378480Y-109016480D01*
X117124480Y-109016480D01*
X117124480Y-108996480D01*
X117104480Y-108996480D01*
X117104480Y-108742480D01*
X117124480Y-108742480D01*
X117124480Y-108722480D01*
X117378480Y-108722480D01*
X117378480Y-108742480D01*
X118628160Y-108742480D01*
X118786910Y-108583730D01*
X118786910Y-107981171D01*
X118690237Y-107747782D01*
X118605785Y-107663329D01*
X118668756Y-107622808D01*
X118834753Y-107379865D01*
X118893152Y-107091480D01*
X118893152Y-105567480D01*
X118842459Y-105298070D01*
X118686876Y-105056288D01*
X118834753Y-104839865D01*
X118893152Y-104551480D01*
X118893152Y-103027480D01*
X118842459Y-102758070D01*
X118686876Y-102516288D01*
X118834753Y-102299865D01*
X118893152Y-102011480D01*
X118893152Y-100487480D01*
X118842459Y-100218070D01*
X118686876Y-99976288D01*
X118834753Y-99759865D01*
X118893152Y-99471480D01*
X118893152Y-97947480D01*
X118842459Y-97678070D01*
X118686876Y-97436288D01*
X118834753Y-97219865D01*
X118893152Y-96931480D01*
X118893152Y-95407480D01*
X118842459Y-95138070D01*
X118686876Y-94896288D01*
X118834753Y-94679865D01*
X118893152Y-94391480D01*
X118893152Y-92867480D01*
X118842459Y-92598070D01*
X118686876Y-92356288D01*
X118834753Y-92139865D01*
X118893152Y-91851480D01*
X118893152Y-90327480D01*
X118842459Y-90058070D01*
X118683238Y-89810634D01*
X118440295Y-89644637D01*
X118151910Y-89586238D01*
X116351050Y-89586238D01*
X116081640Y-89636931D01*
X115894632Y-89757268D01*
X115738220Y-89692480D01*
X114997230Y-89692480D01*
X114838480Y-89851230D01*
X114838480Y-90962480D01*
X114858480Y-90962480D01*
X114858480Y-91216480D01*
X114838480Y-91216480D01*
X114838480Y-91236480D01*
X114584480Y-91236480D01*
X114584480Y-91216480D01*
X113334800Y-91216480D01*
X113176050Y-91375230D01*
X113176050Y-91977789D01*
X113272723Y-92211178D01*
X113357175Y-92295631D01*
X113294204Y-92336152D01*
X113128207Y-92579095D01*
X113069808Y-92867480D01*
X113069808Y-94391480D01*
X113120501Y-94660890D01*
X113276084Y-94902672D01*
X113128207Y-95119095D01*
X113069808Y-95407480D01*
X113069808Y-96931480D01*
X113120501Y-97200890D01*
X113276084Y-97442672D01*
X113128207Y-97659095D01*
X113069808Y-97947480D01*
X113069808Y-99471480D01*
X113120501Y-99740890D01*
X113276084Y-99982672D01*
X113128207Y-100199095D01*
X113069808Y-100487480D01*
X113069808Y-102011480D01*
X113120501Y-102280890D01*
X113276084Y-102522672D01*
X113128207Y-102739095D01*
X113069808Y-103027480D01*
X113069808Y-104551480D01*
X113120501Y-104820890D01*
X113276084Y-105062672D01*
X113128207Y-105279095D01*
X113069808Y-105567480D01*
X113069808Y-107091480D01*
X113120501Y-107360890D01*
X113276084Y-107602672D01*
X113128207Y-107819095D01*
X113069808Y-108107480D01*
X113069808Y-109385810D01*
X110847975Y-109385810D01*
X110876401Y-109317352D01*
X110876879Y-108769452D01*
X110667648Y-108263075D01*
X110280563Y-107875313D01*
X109774552Y-107665199D01*
X109432214Y-107664900D01*
X108977990Y-107210676D01*
X108977990Y-96957040D01*
X109218487Y-96716963D01*
X109428601Y-96210952D01*
X109429079Y-95663052D01*
X109219848Y-95156675D01*
X109028790Y-94965283D01*
X109028790Y-90854166D01*
X109681785Y-90201171D01*
X113176050Y-90201171D01*
X113176050Y-90803730D01*
X113334800Y-90962480D01*
X114584480Y-90962480D01*
X114584480Y-89851230D01*
X114425730Y-89692480D01*
X113684740Y-89692480D01*
X113451351Y-89789153D01*
X113272723Y-89967782D01*
X113176050Y-90201171D01*
X109681785Y-90201171D01*
X113815766Y-86067190D01*
X118364000Y-86067190D01*
X118737955Y-85992806D01*
X119054978Y-85780978D01*
X119257711Y-85578245D01*
X119525748Y-85578479D01*
X119672810Y-85517714D01*
X119672810Y-108585000D01*
X119672810Y-108585000D01*
G37*
X119672810Y-108585000D02*
X119747194Y-108958955D01*
X119959022Y-109275978D01*
X120068854Y-109385810D01*
X118786910Y-109385810D01*
X118786910Y-109155230D01*
X118628160Y-108996480D01*
X117378480Y-108996480D01*
X117378480Y-109016480D01*
X117124480Y-109016480D01*
X117124480Y-108996480D01*
X117104480Y-108996480D01*
X117104480Y-108742480D01*
X117124480Y-108742480D01*
X117124480Y-108722480D01*
X117378480Y-108722480D01*
X117378480Y-108742480D01*
X118628160Y-108742480D01*
X118786910Y-108583730D01*
X118786910Y-107981171D01*
X118690237Y-107747782D01*
X118605785Y-107663329D01*
X118668756Y-107622808D01*
X118834753Y-107379865D01*
X118893152Y-107091480D01*
X118893152Y-105567480D01*
X118842459Y-105298070D01*
X118686876Y-105056288D01*
X118834753Y-104839865D01*
X118893152Y-104551480D01*
X118893152Y-103027480D01*
X118842459Y-102758070D01*
X118686876Y-102516288D01*
X118834753Y-102299865D01*
X118893152Y-102011480D01*
X118893152Y-100487480D01*
X118842459Y-100218070D01*
X118686876Y-99976288D01*
X118834753Y-99759865D01*
X118893152Y-99471480D01*
X118893152Y-97947480D01*
X118842459Y-97678070D01*
X118686876Y-97436288D01*
X118834753Y-97219865D01*
X118893152Y-96931480D01*
X118893152Y-95407480D01*
X118842459Y-95138070D01*
X118686876Y-94896288D01*
X118834753Y-94679865D01*
X118893152Y-94391480D01*
X118893152Y-92867480D01*
X118842459Y-92598070D01*
X118686876Y-92356288D01*
X118834753Y-92139865D01*
X118893152Y-91851480D01*
X118893152Y-90327480D01*
X118842459Y-90058070D01*
X118683238Y-89810634D01*
X118440295Y-89644637D01*
X118151910Y-89586238D01*
X116351050Y-89586238D01*
X116081640Y-89636931D01*
X115894632Y-89757268D01*
X115738220Y-89692480D01*
X114997230Y-89692480D01*
X114838480Y-89851230D01*
X114838480Y-90962480D01*
X114858480Y-90962480D01*
X114858480Y-91216480D01*
X114838480Y-91216480D01*
X114838480Y-91236480D01*
X114584480Y-91236480D01*
X114584480Y-91216480D01*
X113334800Y-91216480D01*
X113176050Y-91375230D01*
X113176050Y-91977789D01*
X113272723Y-92211178D01*
X113357175Y-92295631D01*
X113294204Y-92336152D01*
X113128207Y-92579095D01*
X113069808Y-92867480D01*
X113069808Y-94391480D01*
X113120501Y-94660890D01*
X113276084Y-94902672D01*
X113128207Y-95119095D01*
X113069808Y-95407480D01*
X113069808Y-96931480D01*
X113120501Y-97200890D01*
X113276084Y-97442672D01*
X113128207Y-97659095D01*
X113069808Y-97947480D01*
X113069808Y-99471480D01*
X113120501Y-99740890D01*
X113276084Y-99982672D01*
X113128207Y-100199095D01*
X113069808Y-100487480D01*
X113069808Y-102011480D01*
X113120501Y-102280890D01*
X113276084Y-102522672D01*
X113128207Y-102739095D01*
X113069808Y-103027480D01*
X113069808Y-104551480D01*
X113120501Y-104820890D01*
X113276084Y-105062672D01*
X113128207Y-105279095D01*
X113069808Y-105567480D01*
X113069808Y-107091480D01*
X113120501Y-107360890D01*
X113276084Y-107602672D01*
X113128207Y-107819095D01*
X113069808Y-108107480D01*
X113069808Y-109385810D01*
X110847975Y-109385810D01*
X110876401Y-109317352D01*
X110876879Y-108769452D01*
X110667648Y-108263075D01*
X110280563Y-107875313D01*
X109774552Y-107665199D01*
X109432214Y-107664900D01*
X108977990Y-107210676D01*
X108977990Y-96957040D01*
X109218487Y-96716963D01*
X109428601Y-96210952D01*
X109429079Y-95663052D01*
X109219848Y-95156675D01*
X109028790Y-94965283D01*
X109028790Y-90854166D01*
X109681785Y-90201171D01*
X113176050Y-90201171D01*
X113176050Y-90803730D01*
X113334800Y-90962480D01*
X114584480Y-90962480D01*
X114584480Y-89851230D01*
X114425730Y-89692480D01*
X113684740Y-89692480D01*
X113451351Y-89789153D01*
X113272723Y-89967782D01*
X113176050Y-90201171D01*
X109681785Y-90201171D01*
X113815766Y-86067190D01*
X118364000Y-86067190D01*
X118737955Y-85992806D01*
X119054978Y-85780978D01*
X119257711Y-85578245D01*
X119525748Y-85578479D01*
X119672810Y-85517714D01*
X119672810Y-108585000D01*
G36*
X81572810Y-64575989D02*
X81279914Y-64868374D01*
X80989255Y-64577206D01*
X80354927Y-64313810D01*
X79668087Y-64313211D01*
X79033300Y-64575500D01*
X78547206Y-65060745D01*
X78283810Y-65695073D01*
X78283211Y-66381913D01*
X78545500Y-67016700D01*
X79030745Y-67502794D01*
X79139888Y-67548114D01*
X78874045Y-67600994D01*
X78802985Y-67648475D01*
X78557022Y-67812822D01*
X78557020Y-67812825D01*
X75033234Y-71336610D01*
X64775329Y-71336610D01*
X64585963Y-71146913D01*
X64079952Y-70936799D01*
X63532052Y-70936321D01*
X63025675Y-71145552D01*
X62673790Y-71496823D01*
X62673790Y-69684190D01*
X71932800Y-69684190D01*
X72306754Y-69609806D01*
X72623778Y-69397978D01*
X72835606Y-69080954D01*
X72835798Y-69079990D01*
X74043994Y-67871794D01*
X74239580Y-67579081D01*
X74242927Y-67562253D01*
X74382700Y-67504500D01*
X74501671Y-67385737D01*
X74507243Y-67399189D01*
X74685872Y-67577817D01*
X74919261Y-67674490D01*
X75660250Y-67674490D01*
X75819000Y-67515740D01*
X75819000Y-66167000D01*
X76073000Y-66167000D01*
X76073000Y-67515740D01*
X76231750Y-67674490D01*
X76972739Y-67674490D01*
X77206128Y-67577817D01*
X77384757Y-67399189D01*
X77481430Y-67165800D01*
X77481430Y-66325750D01*
X77322680Y-66167000D01*
X76073000Y-66167000D01*
X75819000Y-66167000D01*
X75799000Y-66167000D01*
X75799000Y-65913000D01*
X75819000Y-65913000D01*
X75819000Y-64564260D01*
X76073000Y-64564260D01*
X76073000Y-65913000D01*
X77322680Y-65913000D01*
X77481430Y-65754250D01*
X77481430Y-64914200D01*
X77384757Y-64680811D01*
X77206128Y-64502183D01*
X76972739Y-64405510D01*
X76231750Y-64405510D01*
X76073000Y-64564260D01*
X75819000Y-64564260D01*
X75660250Y-64405510D01*
X74919261Y-64405510D01*
X74685872Y-64502183D01*
X74507243Y-64680811D01*
X74501799Y-64693954D01*
X74385255Y-64577206D01*
X74383190Y-64576349D01*
X74383190Y-60780566D01*
X74826766Y-60336990D01*
X81572810Y-60336990D01*
X81572810Y-64575989D01*
X81572810Y-64575989D01*
G37*
X81572810Y-64575989D02*
X81279914Y-64868374D01*
X80989255Y-64577206D01*
X80354927Y-64313810D01*
X79668087Y-64313211D01*
X79033300Y-64575500D01*
X78547206Y-65060745D01*
X78283810Y-65695073D01*
X78283211Y-66381913D01*
X78545500Y-67016700D01*
X79030745Y-67502794D01*
X79139888Y-67548114D01*
X78874045Y-67600994D01*
X78802985Y-67648475D01*
X78557022Y-67812822D01*
X78557020Y-67812825D01*
X75033234Y-71336610D01*
X64775329Y-71336610D01*
X64585963Y-71146913D01*
X64079952Y-70936799D01*
X63532052Y-70936321D01*
X63025675Y-71145552D01*
X62673790Y-71496823D01*
X62673790Y-69684190D01*
X71932800Y-69684190D01*
X72306754Y-69609806D01*
X72623778Y-69397978D01*
X72835606Y-69080954D01*
X72835798Y-69079990D01*
X74043994Y-67871794D01*
X74239580Y-67579081D01*
X74242927Y-67562253D01*
X74382700Y-67504500D01*
X74501671Y-67385737D01*
X74507243Y-67399189D01*
X74685872Y-67577817D01*
X74919261Y-67674490D01*
X75660250Y-67674490D01*
X75819000Y-67515740D01*
X75819000Y-66167000D01*
X76073000Y-66167000D01*
X76073000Y-67515740D01*
X76231750Y-67674490D01*
X76972739Y-67674490D01*
X77206128Y-67577817D01*
X77384757Y-67399189D01*
X77481430Y-67165800D01*
X77481430Y-66325750D01*
X77322680Y-66167000D01*
X76073000Y-66167000D01*
X75819000Y-66167000D01*
X75799000Y-66167000D01*
X75799000Y-65913000D01*
X75819000Y-65913000D01*
X75819000Y-64564260D01*
X76073000Y-64564260D01*
X76073000Y-65913000D01*
X77322680Y-65913000D01*
X77481430Y-65754250D01*
X77481430Y-64914200D01*
X77384757Y-64680811D01*
X77206128Y-64502183D01*
X76972739Y-64405510D01*
X76231750Y-64405510D01*
X76073000Y-64564260D01*
X75819000Y-64564260D01*
X75660250Y-64405510D01*
X74919261Y-64405510D01*
X74685872Y-64502183D01*
X74507243Y-64680811D01*
X74501799Y-64693954D01*
X74385255Y-64577206D01*
X74383190Y-64576349D01*
X74383190Y-60780566D01*
X74826766Y-60336990D01*
X81572810Y-60336990D01*
X81572810Y-64575989D01*
G36*
X63007950Y-64474840D02*
X63007950Y-64725587D01*
X62864914Y-64868374D01*
X62574255Y-64577206D01*
X61939927Y-64313810D01*
X61253087Y-64313211D01*
X60618300Y-64575500D01*
X60132206Y-65060745D01*
X59868810Y-65695073D01*
X59868211Y-66381913D01*
X60130500Y-67016700D01*
X60615745Y-67502794D01*
X61162460Y-67729810D01*
X55549409Y-67729810D01*
X56094700Y-67504500D01*
X56213671Y-67385737D01*
X56219243Y-67399189D01*
X56397872Y-67577817D01*
X56631261Y-67674490D01*
X57372250Y-67674490D01*
X57531000Y-67515740D01*
X57531000Y-66167000D01*
X57785000Y-66167000D01*
X57785000Y-67515740D01*
X57943750Y-67674490D01*
X58684739Y-67674490D01*
X58918128Y-67577817D01*
X59096757Y-67399189D01*
X59193430Y-67165800D01*
X59193430Y-66325750D01*
X59034680Y-66167000D01*
X57785000Y-66167000D01*
X57531000Y-66167000D01*
X57511000Y-66167000D01*
X57511000Y-65913000D01*
X57531000Y-65913000D01*
X57531000Y-64564260D01*
X57785000Y-64564260D01*
X57785000Y-65913000D01*
X59034680Y-65913000D01*
X59193430Y-65754250D01*
X59193430Y-64914200D01*
X59096757Y-64680811D01*
X58918128Y-64502183D01*
X58684739Y-64405510D01*
X57943750Y-64405510D01*
X57785000Y-64564260D01*
X57531000Y-64564260D01*
X57372250Y-64405510D01*
X56631261Y-64405510D01*
X56397872Y-64502183D01*
X56245050Y-64655004D01*
X56245050Y-63865050D01*
X62398160Y-63865050D01*
X63007950Y-64474840D01*
X63007950Y-64474840D01*
G37*
X63007950Y-64474840D02*
X63007950Y-64725587D01*
X62864914Y-64868374D01*
X62574255Y-64577206D01*
X61939927Y-64313810D01*
X61253087Y-64313211D01*
X60618300Y-64575500D01*
X60132206Y-65060745D01*
X59868810Y-65695073D01*
X59868211Y-66381913D01*
X60130500Y-67016700D01*
X60615745Y-67502794D01*
X61162460Y-67729810D01*
X55549409Y-67729810D01*
X56094700Y-67504500D01*
X56213671Y-67385737D01*
X56219243Y-67399189D01*
X56397872Y-67577817D01*
X56631261Y-67674490D01*
X57372250Y-67674490D01*
X57531000Y-67515740D01*
X57531000Y-66167000D01*
X57785000Y-66167000D01*
X57785000Y-67515740D01*
X57943750Y-67674490D01*
X58684739Y-67674490D01*
X58918128Y-67577817D01*
X59096757Y-67399189D01*
X59193430Y-67165800D01*
X59193430Y-66325750D01*
X59034680Y-66167000D01*
X57785000Y-66167000D01*
X57531000Y-66167000D01*
X57511000Y-66167000D01*
X57511000Y-65913000D01*
X57531000Y-65913000D01*
X57531000Y-64564260D01*
X57785000Y-64564260D01*
X57785000Y-65913000D01*
X59034680Y-65913000D01*
X59193430Y-65754250D01*
X59193430Y-64914200D01*
X59096757Y-64680811D01*
X58918128Y-64502183D01*
X58684739Y-64405510D01*
X57943750Y-64405510D01*
X57785000Y-64564260D01*
X57531000Y-64564260D01*
X57372250Y-64405510D01*
X56631261Y-64405510D01*
X56397872Y-64502183D01*
X56245050Y-64655004D01*
X56245050Y-63865050D01*
X62398160Y-63865050D01*
X63007950Y-64474840D01*
G36*
X90716810Y-64575989D02*
X90423914Y-64868374D01*
X90133255Y-64577206D01*
X89498927Y-64313810D01*
X88812087Y-64313211D01*
X88177300Y-64575500D01*
X87691206Y-65060745D01*
X87427810Y-65695073D01*
X87427211Y-66381913D01*
X87689500Y-67016700D01*
X88174745Y-67502794D01*
X88232100Y-67526610D01*
X86401335Y-67526610D01*
X86528757Y-67399189D01*
X86625430Y-67165800D01*
X86625430Y-66325750D01*
X86466680Y-66167000D01*
X85217000Y-66167000D01*
X85217000Y-66187000D01*
X84963000Y-66187000D01*
X84963000Y-66167000D01*
X84943000Y-66167000D01*
X84943000Y-65913000D01*
X84963000Y-65913000D01*
X84963000Y-64564260D01*
X85217000Y-64564260D01*
X85217000Y-65913000D01*
X86466680Y-65913000D01*
X86625430Y-65754250D01*
X86625430Y-64914200D01*
X86528757Y-64680811D01*
X86350128Y-64502183D01*
X86116739Y-64405510D01*
X85375750Y-64405510D01*
X85217000Y-64564260D01*
X84963000Y-64564260D01*
X84804250Y-64405510D01*
X84063261Y-64405510D01*
X83829872Y-64502183D01*
X83651243Y-64680811D01*
X83645799Y-64693954D01*
X83529255Y-64577206D01*
X83527190Y-64576349D01*
X83527190Y-60336990D01*
X90716810Y-60336990D01*
X90716810Y-64575989D01*
X90716810Y-64575989D01*
G37*
X90716810Y-64575989D02*
X90423914Y-64868374D01*
X90133255Y-64577206D01*
X89498927Y-64313810D01*
X88812087Y-64313211D01*
X88177300Y-64575500D01*
X87691206Y-65060745D01*
X87427810Y-65695073D01*
X87427211Y-66381913D01*
X87689500Y-67016700D01*
X88174745Y-67502794D01*
X88232100Y-67526610D01*
X86401335Y-67526610D01*
X86528757Y-67399189D01*
X86625430Y-67165800D01*
X86625430Y-66325750D01*
X86466680Y-66167000D01*
X85217000Y-66167000D01*
X85217000Y-66187000D01*
X84963000Y-66187000D01*
X84963000Y-66167000D01*
X84943000Y-66167000D01*
X84943000Y-65913000D01*
X84963000Y-65913000D01*
X84963000Y-64564260D01*
X85217000Y-64564260D01*
X85217000Y-65913000D01*
X86466680Y-65913000D01*
X86625430Y-65754250D01*
X86625430Y-64914200D01*
X86528757Y-64680811D01*
X86350128Y-64502183D01*
X86116739Y-64405510D01*
X85375750Y-64405510D01*
X85217000Y-64564260D01*
X84963000Y-64564260D01*
X84804250Y-64405510D01*
X84063261Y-64405510D01*
X83829872Y-64502183D01*
X83651243Y-64680811D01*
X83645799Y-64693954D01*
X83529255Y-64577206D01*
X83527190Y-64576349D01*
X83527190Y-60336990D01*
X90716810Y-60336990D01*
X90716810Y-64575989D01*
M02*
